<svg width="150" height="153" viewBox="0 0 150 153" fill="none" xmlns="http://www.w3.org/2000/svg">
<path d="M89.8371 48.4252C89.4722 60.3804 91.04 74.782 85.1064 85.7032C80.4635 94.2455 71.678 99.5642 62.764 102.727C43.1653 109.681 16.5179 108.748 4.64387 88.9133C-0.0868331 80.986 0.197 65.2598 9.42863 60.1844C14.1593 57.596 19.5659 57.3257 24.8102 56.3323C31.69 55.0347 36.8397 51.6016 40.4283 45.5868C47.45 33.8276 46.9161 24.7852 49.0855 11.6542C49.4977 9.22122 50.2546 6.8491 52.8362 4.96358C55.1673 2.99128 57.9922 1.69215 61.0068 1.20605C63.6099 0.303254 66.3956 0.0571848 69.1166 0.489689C74.9219 1.54396 80.1324 7.37624 84.4035 11.0797C88.6747 14.7832 90.567 18.5542 90.4859 24.3324C90.4386 32.3679 90.0804 40.3966 89.8371 48.4252Z" fill="#263238"/>
<path d="M90.8846 54.1558C90.5197 43.167 89.9317 32.2121 89.4181 21.2368C89.4181 21.1693 89.3167 21.1625 89.3167 21.2368C89.4722 30.2792 89.5127 39.3149 89.7898 48.3573C90.0602 57.2172 90.9455 66.3069 90.4656 75.1669C89.3303 95.0426 68.3057 101.571 51.4981 99.3138C50.7345 99.2124 50.6601 100.442 51.4373 100.517C66.2512 102.037 84.3495 98.3136 90.0602 82.5198C93.1621 73.8761 91.1888 63.1509 90.8846 54.1558Z" fill="#263238"/>
<path d="M50.1735 10.6876C50.1658 10.6494 50.1451 10.615 50.1149 10.5904C50.0847 10.5657 50.0469 10.5522 50.008 10.5522C49.969 10.5522 49.9312 10.5657 49.901 10.5904C49.8709 10.615 49.8501 10.6494 49.8424 10.6876C48.4908 21.5682 47.9839 34.3411 41.0568 43.4105C37.631 47.8458 32.9459 51.1435 27.6148 52.8719C23.391 54.2236 19.032 54.0411 14.6797 54.5615C-2.32377 56.5889 -4.24308 79.1949 7.29984 88.947C7.53637 89.1497 7.90131 88.7442 7.66477 88.5212C-0.384182 81.0399 -2.2697 68.4089 5.41432 59.8261C11.5778 52.9395 22.1745 56.0821 30.1221 52.7165C46.5917 45.7421 49.3017 26.5625 50.1735 10.6876Z" fill="#263238"/>
<path d="M51.9239 57.0683C34.2649 74.9707 12.0508 112.634 16.1868 120.264C20.8026 128.772 45.3955 103.673 45.3009 102.206C45.2266 101.098 53.8838 78.2213 60.4459 61.5828C67.0081 44.9442 56.2964 52.6147 51.9239 57.0683Z" fill="#F7A9A0"/>
<path d="M45.4631 102.206C46.22 99.7597 57.9927 69.5981 61.3583 60.0556C64.7238 50.5131 61.6016 47.5665 51.9915 56.3048C42.3814 65.0431 21.3095 94.2248 16.5044 109.694C11.8683 124.616 19.5524 124.616 29.6896 117.736C37.9886 112.134 45.4631 102.206 45.4631 102.206Z" fill="#4797C8"/>
<path d="M62.622 54.9061C62.622 55.0818 62.5882 55.2575 62.5612 55.4467C62.5044 55.5284 62.4285 55.595 62.3402 55.6409C62.252 55.6868 62.1539 55.7106 62.0544 55.7103C61.9442 55.71 61.8363 55.6795 61.7423 55.6222C61.6484 55.5648 61.5719 55.4827 61.5214 55.3849C61.4708 55.2871 61.4481 55.1773 61.4557 55.0674C61.4633 54.9576 61.5009 54.8519 61.5644 54.7619C61.6279 54.672 61.7148 54.6012 61.8158 54.5573C61.9168 54.5133 62.0279 54.498 62.137 54.5128C62.2461 54.5277 62.349 54.5722 62.4345 54.6416C62.5201 54.7109 62.5849 54.8024 62.622 54.9061ZM42.5841 67.5303C42.4633 67.5289 42.3447 67.5636 42.2437 67.63C42.1426 67.6963 42.0636 67.7912 42.0168 67.9026C41.9699 68.014 41.9573 68.1369 41.9805 68.2555C42.0038 68.3741 42.0619 68.4831 42.1473 68.5685C42.2328 68.654 42.3418 68.7121 42.4604 68.7353C42.579 68.7586 42.7019 68.746 42.8133 68.6991C42.9247 68.6522 43.0196 68.5732 43.0859 68.4722C43.1522 68.3711 43.1869 68.2526 43.1856 68.1317C43.1856 67.9722 43.1222 67.8192 43.0094 67.7064C42.8966 67.5936 42.7437 67.5303 42.5841 67.5303ZM52.3159 67.5303C52.1953 67.5303 52.0774 67.5661 51.9773 67.6333C51.8771 67.7004 51.7991 67.7958 51.7533 67.9073C51.7075 68.0189 51.6958 68.1415 51.7199 68.2597C51.7439 68.3778 51.8025 68.4862 51.8882 68.571C51.974 68.6558 52.083 68.7132 52.2014 68.7359C52.3198 68.7586 52.4423 68.7456 52.5533 68.6985C52.6644 68.6514 52.7589 68.5724 52.8249 68.4715C52.8909 68.3706 52.9254 68.2523 52.9241 68.1317C52.9241 68.0522 52.9083 67.9734 52.8777 67.9C52.847 67.8266 52.8021 67.76 52.7455 67.704C52.689 67.6481 52.6219 67.6039 52.5481 67.5741C52.4744 67.5443 52.3954 67.5294 52.3159 67.5303ZM47.45 61.2925C47.3294 61.2925 47.2116 61.3284 47.1114 61.3955C47.0112 61.4626 46.9333 61.558 46.8874 61.6696C46.8416 61.7811 46.83 61.9037 46.854 62.0219C46.878 62.1401 46.9366 62.2484 47.0224 62.3332C47.1081 62.418 47.2171 62.4754 47.3355 62.4981C47.454 62.5208 47.5765 62.5078 47.6875 62.4607C47.7985 62.4136 47.893 62.3346 47.959 62.2337C48.025 62.1328 48.0596 62.0146 48.0582 61.894C48.0582 61.8144 48.0424 61.7357 48.0118 61.6622C47.9811 61.5888 47.9363 61.5222 47.8797 61.4663C47.8231 61.4103 47.756 61.3662 47.6822 61.3363C47.6085 61.3065 47.5295 61.2916 47.45 61.2925ZM57.1885 61.2925C57.0676 61.2912 56.9491 61.3259 56.8481 61.3922C56.747 61.4585 56.668 61.5534 56.6211 61.6648C56.5743 61.7762 56.5616 61.8991 56.5849 62.0177C56.6081 62.1363 56.6662 62.2453 56.7517 62.3308C56.8371 62.4163 56.9461 62.4743 57.0648 62.4976C57.1834 62.5208 57.3062 62.5082 57.4176 62.4613C57.529 62.4145 57.624 62.3355 57.6903 62.2344C57.7566 62.1334 57.7913 62.0149 57.79 61.894C57.79 61.7345 57.7266 61.5815 57.6138 61.4687C57.501 61.3559 57.348 61.2925 57.1885 61.2925ZM32.8592 80.5532C32.7383 80.5519 32.6198 80.5866 32.5187 80.6529C32.4177 80.7192 32.3387 80.8141 32.2918 80.9256C32.2449 81.037 32.2323 81.1598 32.2556 81.2784C32.2788 81.397 32.3369 81.506 32.4223 81.5915C32.5078 81.677 32.6168 81.735 32.7354 81.7583C32.854 81.7816 32.9769 81.7689 33.0883 81.7221C33.1997 81.6752 33.2946 81.5962 33.3609 81.4951C33.4273 81.3941 33.462 81.2756 33.4606 81.1547C33.4606 81.0752 33.4448 80.9964 33.4142 80.923C33.3836 80.8495 33.3386 80.7829 33.2821 80.727C33.2255 80.671 33.1584 80.6269 33.0846 80.5971C33.0109 80.5672 32.9319 80.5523 32.8524 80.5532H32.8592ZM42.5909 80.5532C42.47 80.5519 42.3515 80.5866 42.2505 80.6529C42.1494 80.7192 42.0704 80.8141 42.0235 80.9256C41.9767 81.037 41.964 81.1598 41.9873 81.2784C42.0105 81.397 42.0686 81.506 42.1541 81.5915C42.2395 81.677 42.3485 81.735 42.4671 81.7583C42.5858 81.7816 42.7086 81.7689 42.82 81.7221C42.9314 81.6752 43.0264 81.5962 43.0927 81.4951C43.159 81.3941 43.1937 81.2756 43.1924 81.1547C43.1924 81.0752 43.1766 80.9964 43.1459 80.923C43.1153 80.8495 43.0704 80.7829 43.0138 80.727C42.9572 80.671 42.8901 80.6269 42.8164 80.5971C42.7426 80.5672 42.6637 80.5523 42.5841 80.5532H42.5909ZM52.3226 80.5532C52.202 80.5532 52.0842 80.5891 51.984 80.6562C51.8838 80.7234 51.8059 80.8187 51.7601 80.9303C51.7142 81.0418 51.7026 81.1645 51.7266 81.2826C51.7506 81.4008 51.8092 81.5092 51.895 81.5939C51.9807 81.6787 52.0897 81.7361 52.2081 81.7588C52.3266 81.7815 52.4491 81.7685 52.5601 81.7214C52.6711 81.6744 52.7656 81.5953 52.8317 81.4944C52.8977 81.3935 52.9322 81.2753 52.9309 81.1547C52.9309 81.0746 52.9149 80.9952 52.8838 80.9214C52.8527 80.8475 52.8072 80.7806 52.7499 80.7246C52.6926 80.6685 52.6247 80.6245 52.5502 80.5951C52.4757 80.5657 52.396 80.5514 52.3159 80.5532H52.3226ZM37.725 74.3154C37.6042 74.3141 37.4856 74.3488 37.3846 74.4151C37.2835 74.4815 37.2045 74.5764 37.1577 74.6878C37.1108 74.7992 37.0982 74.922 37.1214 75.0407C37.1447 75.1593 37.2027 75.2683 37.2882 75.3537C37.3737 75.4392 37.4827 75.4973 37.6013 75.5205C37.7199 75.5438 37.8427 75.5312 37.9542 75.4843C38.0656 75.4374 38.1605 75.3584 38.2268 75.2574C38.2931 75.1563 38.3278 75.0378 38.3265 74.9169C38.3265 74.8374 38.3107 74.7586 38.2801 74.6852C38.2494 74.6118 38.2045 74.5451 38.1479 74.4892C38.0914 74.4333 38.0243 74.3891 37.9505 74.3593C37.8768 74.3295 37.7978 74.3146 37.7183 74.3154H37.725ZM47.4567 74.3154C47.3362 74.3155 47.2183 74.3513 47.1181 74.4184C47.018 74.4856 46.94 74.581 46.8942 74.6925C46.8484 74.8041 46.8367 74.9267 46.8608 75.0449C46.8848 75.163 46.9434 75.2714 47.0291 75.3562C47.1149 75.441 47.2239 75.4983 47.3423 75.521C47.4607 75.5437 47.5832 75.5307 47.6942 75.4837C47.8053 75.4366 47.8998 75.3576 47.9658 75.2567C48.0318 75.1558 48.0663 75.0375 48.065 74.9169C48.065 74.8368 48.049 74.7575 48.0179 74.6836C47.9869 74.6097 47.9414 74.5428 47.8841 74.4868C47.8268 74.4307 47.7589 74.3867 47.6843 74.3573C47.6098 74.3279 47.5301 74.3136 47.45 74.3154H47.4567ZM32.8524 93.5627C32.7315 93.5613 32.613 93.596 32.512 93.6623C32.4109 93.7287 32.3319 93.8236 32.285 93.935C32.2382 94.0464 32.2255 94.1693 32.2488 94.2879C32.2721 94.4065 32.3301 94.5155 32.4156 94.6009C32.5011 94.6864 32.61 94.7445 32.7287 94.7677C32.8473 94.791 32.9701 94.7784 33.0815 94.7315C33.1929 94.6846 33.2879 94.6056 33.3542 94.5046C33.4205 94.4035 33.4552 94.285 33.4539 94.1642C33.4539 94.0046 33.3905 93.8516 33.2777 93.7388C33.1649 93.626 33.0119 93.5627 32.8524 93.5627ZM42.5841 93.5627C42.4633 93.5613 42.3447 93.596 42.2437 93.6623C42.1426 93.7287 42.0636 93.8236 42.0168 93.935C41.9699 94.0464 41.9573 94.1693 41.9805 94.2879C42.0038 94.4065 42.0619 94.5155 42.1473 94.6009C42.2328 94.6864 42.3418 94.7445 42.4604 94.7677C42.579 94.791 42.7019 94.7784 42.8133 94.7315C42.9247 94.6846 43.0196 94.6056 43.0859 94.5046C43.1522 94.4035 43.1869 94.285 43.1856 94.1642C43.1856 94.0046 43.1222 93.8516 43.0094 93.7388C42.8966 93.626 42.7437 93.5627 42.5841 93.5627ZM27.9865 87.3384C27.8659 87.3384 27.7481 87.3743 27.6479 87.4414C27.5477 87.5085 27.4698 87.6039 27.424 87.7155C27.3781 87.827 27.3665 87.9496 27.3905 88.0678C27.4145 88.186 27.4731 88.2943 27.5589 88.3791C27.6446 88.4639 27.7536 88.5213 27.8721 88.544C27.9905 88.5667 28.113 88.5537 28.224 88.5066C28.335 88.4595 28.4295 88.3805 28.4955 88.2796C28.5616 88.1787 28.5961 88.0605 28.5948 87.9399C28.5948 87.8603 28.579 87.7816 28.5483 87.7081C28.5177 87.6347 28.4728 87.5681 28.4162 87.5122C28.3596 87.4562 28.2925 87.4121 28.2188 87.3822C28.145 87.3524 28.0661 87.3375 27.9865 87.3384ZM37.725 87.3384C37.6042 87.3371 37.4856 87.3718 37.3846 87.4381C37.2835 87.5044 37.2045 87.5993 37.1577 87.7107C37.1108 87.8222 37.0982 87.945 37.1214 88.0636C37.1447 88.1822 37.2027 88.2912 37.2882 88.3767C37.3737 88.4622 37.4827 88.5202 37.6013 88.5435C37.7199 88.5667 37.8427 88.5541 37.9542 88.5073C38.0656 88.4604 38.1605 88.3814 38.2268 88.2803C38.2931 88.1793 38.3278 88.0607 38.3265 87.9399C38.3265 87.8603 38.3107 87.7816 38.2801 87.7081C38.2494 87.6347 38.2045 87.5681 38.1479 87.5122C38.0914 87.4562 38.0243 87.4121 37.9505 87.3822C37.8768 87.3524 37.7978 87.3375 37.7183 87.3384H37.725ZM47.4567 87.3384C47.3362 87.3384 47.2183 87.3743 47.1181 87.4414C47.018 87.5085 46.94 87.6039 46.8942 87.7155C46.8484 87.827 46.8367 87.9496 46.8608 88.0678C46.8848 88.186 46.9434 88.2943 47.0291 88.3791C47.1149 88.4639 47.2239 88.5213 47.3423 88.544C47.4607 88.5667 47.5832 88.5537 47.6942 88.5066C47.8053 88.4595 47.8998 88.3805 47.9658 88.2796C48.0318 88.1787 48.0663 88.0605 48.065 87.9399C48.065 87.8597 48.049 87.7804 48.0179 87.7065C47.9869 87.6327 47.9414 87.5658 47.8841 87.5097C47.8268 87.4537 47.7589 87.4097 47.6843 87.3803C47.6098 87.3508 47.5301 87.3366 47.45 87.3384H47.4567ZM23.1274 106.599C23.0087 106.6 22.8931 106.637 22.7951 106.704C22.6971 106.771 22.6211 106.865 22.5766 106.975C22.5321 107.085 22.5211 107.206 22.5451 107.322C22.5691 107.438 22.6269 107.545 22.7112 107.628C22.7956 107.712 22.9028 107.768 23.0193 107.791C23.1358 107.814 23.2564 107.801 23.3659 107.756C23.4754 107.71 23.5689 107.633 23.6347 107.534C23.7005 107.435 23.7356 107.319 23.7357 107.201C23.7357 107.12 23.7195 107.04 23.688 106.966C23.6565 106.891 23.6104 106.824 23.5524 106.768C23.4944 106.712 23.4256 106.668 23.3503 106.639C23.275 106.61 23.1946 106.596 23.1139 106.599H23.1274ZM32.8659 106.599C32.7469 106.599 32.6307 106.634 32.5317 106.701C32.4328 106.767 32.3557 106.861 32.3102 106.97C32.2647 107.08 32.2528 107.201 32.276 107.318C32.2992 107.435 32.3565 107.542 32.4406 107.626C32.5247 107.71 32.6319 107.767 32.7486 107.791C32.8652 107.814 32.9862 107.802 33.0961 107.756C33.206 107.711 33.2999 107.634 33.366 107.535C33.4321 107.436 33.4674 107.32 33.4674 107.201C33.4674 107.12 33.4514 107.041 33.4203 106.967C33.3893 106.893 33.3438 106.826 33.2865 106.77C33.2292 106.714 33.1613 106.67 33.0867 106.641C33.0122 106.612 32.9325 106.597 32.8524 106.599H32.8659ZM27.9865 100.361C27.8659 100.361 27.7481 100.397 27.6479 100.464C27.5477 100.531 27.4698 100.627 27.424 100.738C27.3781 100.85 27.3665 100.973 27.3905 101.091C27.4145 101.209 27.4731 101.317 27.5589 101.402C27.6446 101.487 27.7536 101.544 27.8721 101.567C27.9905 101.59 28.113 101.577 28.224 101.53C28.335 101.482 28.4295 101.403 28.4955 101.303C28.5616 101.202 28.5961 101.083 28.5948 100.963C28.5948 100.883 28.579 100.805 28.5483 100.731C28.5177 100.658 28.4728 100.591 28.4162 100.535C28.3596 100.479 28.2925 100.435 28.2188 100.405C28.145 100.375 28.0661 100.36 27.9865 100.361ZM37.725 100.361C37.6042 100.36 37.4856 100.395 37.3846 100.461C37.2835 100.527 37.2045 100.622 37.1577 100.734C37.1108 100.845 37.0982 100.968 37.1214 101.087C37.1447 101.205 37.2027 101.314 37.2882 101.4C37.3737 101.485 37.4827 101.543 37.6013 101.566C37.7199 101.59 37.8427 101.577 37.9542 101.53C38.0656 101.483 38.1605 101.404 38.2268 101.303C38.2931 101.202 38.3278 101.084 38.3265 100.963C38.3265 100.883 38.3107 100.805 38.2801 100.731C38.2494 100.658 38.2045 100.591 38.1479 100.535C38.0914 100.479 38.0243 100.435 37.9505 100.405C37.8768 100.375 37.7978 100.36 37.7183 100.361H37.725ZM23.1207 119.622C23.002 119.623 22.8864 119.66 22.7884 119.727C22.6903 119.794 22.6143 119.888 22.5698 119.998C22.5253 120.108 22.5144 120.229 22.5383 120.345C22.5623 120.461 22.6201 120.568 22.7045 120.651C22.7889 120.735 22.896 120.791 23.0125 120.814C23.129 120.837 23.2496 120.824 23.3591 120.779C23.4686 120.733 23.5622 120.656 23.628 120.557C23.6938 120.458 23.7289 120.342 23.7289 120.224C23.7289 120.143 23.7129 120.064 23.6818 119.99C23.6508 119.916 23.6053 119.849 23.548 119.793C23.4907 119.737 23.4228 119.693 23.3482 119.664C23.2737 119.635 23.194 119.62 23.1139 119.622H23.1207ZM18.2548 113.384C18.1339 113.383 18.0154 113.418 17.9144 113.484C17.8133 113.55 17.7343 113.645 17.6874 113.757C17.6406 113.868 17.6279 113.991 17.6512 114.11C17.6744 114.228 17.7325 114.337 17.818 114.423C17.9034 114.508 18.0124 114.566 18.1311 114.589C18.2497 114.613 18.3725 114.6 18.4839 114.553C18.5953 114.506 18.6903 114.427 18.7566 114.326C18.8229 114.225 18.8576 114.107 18.8563 113.986C18.8563 113.906 18.8405 113.827 18.8098 113.754C18.7792 113.681 18.7343 113.614 18.6777 113.558C18.6211 113.502 18.554 113.458 18.4803 113.428C18.4065 113.398 18.3276 113.383 18.248 113.384H18.2548ZM27.9865 113.384C27.8659 113.384 27.7481 113.42 27.6479 113.487C27.5477 113.554 27.4698 113.65 27.424 113.761C27.3781 113.873 27.3665 113.996 27.3905 114.114C27.4145 114.232 27.4731 114.34 27.5589 114.425C27.6446 114.51 27.7536 114.567 27.8721 114.59C27.9905 114.613 28.113 114.6 28.224 114.553C28.335 114.505 28.4295 114.426 28.4955 114.326C28.5616 114.225 28.5961 114.106 28.5948 113.986C28.5948 113.906 28.579 113.827 28.5483 113.754C28.5177 113.681 28.4728 113.614 28.4162 113.558C28.3596 113.502 28.2925 113.458 28.2188 113.428C28.145 113.398 28.0661 113.383 27.9865 113.384Z" fill="white"/>
<path d="M38.4819 129.611L40.2458 119.034L42.7801 100.267C42.7801 100.267 36.8127 89.8458 40.2728 82.3713C42.0232 78.58 57.3574 55.0414 63.8047 50.3107C69.8871 45.9111 78.6727 50.6215 81.9301 54.0614C94.5408 67.3344 100.488 93.6912 105.016 129.591L38.4819 129.611Z" fill="#F7A9A0"/>
<path d="M40.6919 115.716L42.7801 100.273C42.7801 100.273 36.8127 89.8524 40.2729 82.3711C42.0232 78.5798 57.3575 55.0412 63.8047 50.3105C69.8871 45.9177 78.6727 50.6213 81.9301 54.068C92.8513 65.5569 98.7782 86.8721 103.11 115.696L40.6919 115.716Z" fill="#4797C8"/>
<path d="M66.5756 99.9557C63.6314 99.6978 60.6722 99.6594 57.7224 99.8408C56.2626 99.949 54.8096 100.125 53.3566 100.334C52.6335 100.436 51.9104 100.517 51.1805 100.591C50.422 100.686 49.6547 100.686 48.8962 100.591C48.8881 100.588 48.8793 100.587 48.8706 100.588C48.862 100.589 48.8537 100.592 48.8466 100.597C48.8394 100.602 48.8335 100.609 48.8295 100.617C48.8255 100.624 48.8234 100.633 48.8234 100.642C48.8234 100.65 48.8255 100.659 48.8295 100.667C48.8335 100.674 48.8394 100.681 48.8466 100.686C48.8537 100.691 48.862 100.694 48.8706 100.695C48.8793 100.696 48.8881 100.695 48.8962 100.692C49.6019 100.855 50.3176 100.97 51.0386 101.037C51.7384 101.084 52.4406 101.084 53.1404 101.037C54.6271 100.942 56.1072 100.773 57.594 100.665C60.5878 100.436 63.5817 100.213 66.5891 100.199C66.6213 100.197 66.6516 100.183 66.6731 100.159C66.6947 100.135 66.7057 100.103 66.704 100.071C66.7022 100.038 66.6876 100.008 66.6636 99.9866C66.6395 99.965 66.6078 99.9539 66.5756 99.9557Z" fill="#263238"/>
<path d="M73.2662 103.795C70.9245 103.12 68.5463 102.578 66.1431 102.173C64.9401 101.97 63.7372 101.848 62.5207 101.747C61.9395 101.7 61.3583 101.666 60.7771 101.639C60.1959 101.612 59.493 101.639 58.851 101.639C58.7834 101.639 58.7632 101.734 58.851 101.74C59.4525 101.801 60.0472 101.957 60.6419 102.051L62.4396 102.322C63.6425 102.504 64.8455 102.7 66.0485 102.876C68.4544 103.22 70.8535 103.585 73.2459 104.011C73.3743 104.018 73.4013 103.829 73.2662 103.795Z" fill="#263238"/>
<path d="M40.2458 119.034C40.5837 115.898 40.9216 112.756 41.3204 109.627C41.7191 106.498 42.0638 103.355 42.4828 100.226L42.5436 100.449C41.6464 99.1718 40.9088 97.7896 40.3472 96.3333C39.7711 94.8893 39.3542 93.3869 39.1037 91.8526C38.8605 90.3131 38.7925 88.7511 38.9009 87.1963C39.0763 85.6439 39.4628 84.1228 40.0498 82.6751C41.2181 79.8333 42.6694 77.1164 44.3818 74.5653C46.0531 71.9942 47.8765 69.5253 49.8424 67.1719C48.0244 69.6318 46.3214 72.1797 44.7265 74.7815C43.1187 77.3585 41.7415 80.0723 40.6108 82.8913C40.0551 84.288 39.6957 85.755 39.543 87.2503C39.4585 88.7521 39.5332 90.2585 39.766 91.7445C39.9954 93.2358 40.3875 94.6975 40.9352 96.1035C41.4627 97.513 42.1618 98.8522 43.0167 100.091L43.0842 100.192V100.307C42.6652 103.436 42.1719 106.552 41.7326 109.681C41.2933 112.81 40.7527 115.918 40.2458 119.034Z" fill="#263238"/>
<path d="M44.7265 74.5521C44.7621 74.1316 44.846 73.7166 44.9765 73.3153C45.0998 72.9151 45.2465 72.5225 45.4158 72.1394C45.5847 71.761 45.7605 71.3825 45.9632 71.0176C46.1652 70.6496 46.3909 70.2951 46.639 69.9565C46.3822 70.7608 46.0511 71.5177 45.7267 72.2746C45.4023 73.0315 45.0441 73.7749 44.7265 74.5521Z" fill="#263238"/>
<path d="M16.1868 120.237C20.1606 125.927 30.9804 126.995 57.9792 132.3C61.7097 133.03 73.9419 108.059 70.0155 107.079C65.0415 105.835 45.4766 102.091 44.0101 101.997C31.6495 101.206 13.4903 116.385 16.1868 120.237Z" fill="#F7A9A0"/>
<path d="M64.6157 105.842C64.6157 105.842 76.0573 107.566 81.7814 110.336C89.4519 114.04 94.5476 120.399 96.5209 123.177C100.643 129.009 106.577 145.952 101.988 148.513C97.8455 150.831 92.6553 133.206 92.6553 133.206C92.6553 133.206 100.914 150.304 95.4059 152.176C89.898 154.048 85.0321 133.253 85.0321 133.253C85.0321 133.253 93.1419 151.007 87.1406 152.041C82.6194 152.825 77.1521 134.227 77.1521 134.227C77.1521 134.227 83.9981 149.54 79.3823 150.541C74.2799 151.683 68.1637 134.787 68.1637 134.787C55.9991 135.362 49.9708 130.658 46.0781 126.806C45.1387 125.887 64.6157 105.842 64.6157 105.842Z" fill="#F7A9A0"/>
<path d="M90.1615 127.124C91.2023 129.097 92.2768 131.084 93.1351 133.145C93.9934 135.206 94.7908 137.295 95.4599 139.424C96.3927 142.191 97.0005 145.058 97.2711 147.966C96.406 142.843 93.4257 135.423 92.5404 133.361C91.6551 131.3 90.9184 129.205 90.0534 127.151C90.0736 127.097 90.1615 127.076 90.1615 127.124Z" fill="#263238"/>
<path d="M82.6802 130.104C83.9034 132.686 85.2145 135.2 86.3229 137.829C87.4312 140.458 88.2422 143.032 89.1613 145.722C89.2356 145.925 89.1005 145.898 89.0194 145.688C87.9921 143.039 86.8365 140.674 85.7822 138.031C84.7279 135.389 83.7548 132.72 82.6194 130.131C82.5991 130.091 82.6667 130.057 82.6802 130.104Z" fill="#263238"/>
<path d="M75.7937 131.509C77.7627 135.418 79.3231 139.52 80.45 143.749C80.5176 143.951 80.3419 143.897 80.2676 143.688C78.7943 139.592 77.6724 136.369 75.6585 131.584C75.6247 131.51 75.7464 131.408 75.7937 131.509Z" fill="#263238"/>
<path d="M88.5598 114.688C89.8934 115.555 91.1384 116.551 92.2768 117.662C93.4327 118.758 94.4994 119.944 95.4666 121.21C95.96 121.839 96.3993 122.501 96.8588 123.156C97.3184 123.812 97.7171 124.508 98.0618 125.184C98.8254 126.582 99.4458 128.054 99.9135 129.577C99.5148 128.901 99.2377 128.151 98.7984 127.482L98.2307 126.448C98.0347 126.11 97.8185 125.772 97.6157 125.447C96.7832 124.114 95.8808 122.826 94.9125 121.589C93.9663 120.345 92.9458 119.149 91.8916 117.993C91.3577 117.412 90.817 116.844 90.2561 116.29C89.6952 115.736 89.1478 115.222 88.5598 114.688Z" fill="#263238"/>
<path d="M67.0013 105.842L43.3478 132.199C43.3478 132.199 19.4307 126.705 15.9097 120.575C13.5917 116.52 31.5954 100.186 45.186 102.092L67.0013 105.842Z" fill="#4797C8"/>
<path d="M33.4539 107.201C33.4552 107.321 33.4205 107.44 33.3542 107.541C33.2879 107.642 33.193 107.721 33.0815 107.768C32.9701 107.815 32.8473 107.827 32.7287 107.804C32.6101 107.781 32.5011 107.723 32.4156 107.637C32.3301 107.552 32.2721 107.443 32.2488 107.324C32.2256 107.206 32.2382 107.083 32.285 106.971C32.3319 106.86 32.4109 106.765 32.512 106.699C32.613 106.633 32.7315 106.598 32.8524 106.599C33.0119 106.599 33.1649 106.663 33.2777 106.775C33.3905 106.888 33.4539 107.041 33.4539 107.201ZM42.5841 106.599C42.4652 106.599 42.3489 106.634 42.25 106.701C42.1511 106.767 42.074 106.861 42.0284 106.97C41.9829 107.08 41.971 107.201 41.9942 107.318C42.0174 107.435 42.0747 107.542 42.1588 107.626C42.2429 107.71 42.3501 107.767 42.4668 107.791C42.5835 107.814 42.7044 107.802 42.8143 107.756C42.9242 107.711 43.0182 107.634 43.0842 107.535C43.1503 107.436 43.1856 107.32 43.1856 107.201C43.1856 107.041 43.1222 106.888 43.0094 106.775C42.8966 106.663 42.7437 106.599 42.5841 106.599ZM52.3159 106.599C52.1972 106.6 52.0816 106.637 51.9836 106.704C51.8856 106.771 51.8095 106.865 51.765 106.975C51.7205 107.085 51.7096 107.206 51.7335 107.322C51.7575 107.438 51.8153 107.545 51.8997 107.628C51.9841 107.712 52.0913 107.768 52.2077 107.791C52.3242 107.814 52.4448 107.801 52.5543 107.756C52.6639 107.71 52.7574 107.633 52.8232 107.534C52.889 107.435 52.9241 107.319 52.9241 107.201C52.9241 107.121 52.9083 107.042 52.8777 106.969C52.847 106.895 52.8021 106.829 52.7456 106.773C52.689 106.717 52.6219 106.673 52.5481 106.643C52.4744 106.613 52.3954 106.598 52.3159 106.599ZM62.0544 106.599C61.9354 106.599 61.8191 106.634 61.7202 106.701C61.6213 106.767 61.5442 106.861 61.4987 106.97C61.4532 107.08 61.4412 107.201 61.4644 107.318C61.4876 107.435 61.5449 107.542 61.6291 107.626C61.7132 107.71 61.8204 107.767 61.937 107.791C62.0537 107.814 62.1746 107.802 62.2845 107.756C62.3944 107.711 62.4884 107.634 62.5545 107.535C62.6206 107.436 62.6558 107.32 62.6558 107.201C62.6558 107.041 62.5925 106.888 62.4797 106.775C62.3669 106.663 62.2139 106.599 62.0544 106.599ZM23.1139 119.622C22.9952 119.623 22.8796 119.66 22.7816 119.727C22.6836 119.794 22.6076 119.888 22.5631 119.998C22.5186 120.108 22.5076 120.229 22.5316 120.345C22.5556 120.461 22.6134 120.568 22.6977 120.651C22.7821 120.735 22.8893 120.791 23.0058 120.814C23.1223 120.837 23.2429 120.824 23.3524 120.779C23.4619 120.733 23.5554 120.656 23.6212 120.557C23.687 120.458 23.7221 120.342 23.7221 120.224C23.7221 120.144 23.7064 120.065 23.6757 119.992C23.6451 119.918 23.6002 119.852 23.5436 119.796C23.487 119.74 23.4199 119.696 23.3462 119.666C23.2724 119.636 23.1935 119.621 23.1139 119.622ZM32.8524 119.622C32.7334 119.622 32.6171 119.657 32.5182 119.723C32.4193 119.79 32.3422 119.883 32.2967 119.993C32.2512 120.103 32.2393 120.224 32.2625 120.341C32.2857 120.458 32.343 120.565 32.4271 120.649C32.5112 120.733 32.6184 120.79 32.7351 120.814C32.8517 120.837 32.9727 120.825 33.0826 120.779C33.1925 120.734 33.2864 120.657 33.3525 120.558C33.4186 120.459 33.4539 120.343 33.4539 120.224C33.4539 120.064 33.3905 119.911 33.2777 119.798C33.1649 119.685 33.0119 119.622 32.8524 119.622ZM42.5841 119.622C42.4652 119.622 42.3489 119.657 42.25 119.723C42.1511 119.79 42.074 119.883 42.0284 119.993C41.9829 120.103 41.971 120.224 41.9942 120.341C42.0174 120.458 42.0747 120.565 42.1588 120.649C42.2429 120.733 42.3501 120.79 42.4668 120.814C42.5835 120.837 42.7044 120.825 42.8143 120.779C42.9242 120.734 43.0182 120.657 43.0842 120.558C43.1503 120.459 43.1856 120.343 43.1856 120.224C43.1856 120.064 43.1222 119.911 43.0094 119.798C42.8966 119.685 42.7437 119.622 42.5841 119.622ZM52.3159 119.622C52.1972 119.623 52.0816 119.66 51.9836 119.727C51.8856 119.794 51.8095 119.888 51.765 119.998C51.7205 120.108 51.7096 120.229 51.7335 120.345C51.7575 120.461 51.8153 120.568 51.8997 120.651C51.9841 120.735 52.0913 120.791 52.2077 120.814C52.3242 120.837 52.4448 120.824 52.5543 120.779C52.6639 120.733 52.7574 120.656 52.8232 120.557C52.889 120.458 52.9241 120.342 52.9241 120.224C52.9241 120.144 52.9083 120.065 52.8777 119.992C52.847 119.918 52.8021 119.852 52.7456 119.796C52.689 119.74 52.6219 119.696 52.5481 119.666C52.4744 119.636 52.3954 119.621 52.3159 119.622ZM27.9865 113.384C27.866 113.384 27.7481 113.42 27.6479 113.487C27.5478 113.554 27.4698 113.65 27.424 113.761C27.3781 113.873 27.3665 113.996 27.3905 114.114C27.4145 114.232 27.4732 114.34 27.5589 114.425C27.6446 114.51 27.7536 114.567 27.8721 114.59C27.9905 114.613 28.113 114.6 28.224 114.553C28.335 114.505 28.4295 114.426 28.4956 114.326C28.5616 114.225 28.5961 114.106 28.5948 113.986C28.5948 113.906 28.579 113.827 28.5483 113.754C28.5177 113.681 28.4728 113.614 28.4162 113.558C28.3597 113.502 28.2925 113.458 28.2188 113.428C28.145 113.398 28.0661 113.383 27.9865 113.384ZM37.725 113.384C37.6042 113.383 37.4856 113.418 37.3846 113.484C37.2835 113.55 37.2045 113.645 37.1577 113.757C37.1108 113.868 37.0982 113.991 37.1214 114.11C37.1447 114.228 37.2028 114.337 37.2882 114.423C37.3737 114.508 37.4827 114.566 37.6013 114.589C37.7199 114.613 37.8428 114.6 37.9542 114.553C38.0656 114.506 38.1605 114.427 38.2268 114.326C38.2931 114.225 38.3278 114.107 38.3265 113.986C38.3265 113.906 38.3107 113.827 38.2801 113.754C38.2494 113.681 38.2045 113.614 38.148 113.558C38.0914 113.502 38.0243 113.458 37.9505 113.428C37.8768 113.398 37.7978 113.383 37.7183 113.384H37.725ZM47.4568 113.384C47.3362 113.384 47.2183 113.42 47.1182 113.487C47.018 113.554 46.94 113.65 46.8942 113.761C46.8484 113.873 46.8367 113.996 46.8608 114.114C46.8848 114.232 46.9434 114.34 47.0291 114.425C47.1149 114.51 47.2239 114.567 47.3423 114.59C47.4607 114.613 47.5832 114.6 47.6942 114.553C47.8053 114.505 47.8998 114.426 47.9658 114.326C48.0318 114.225 48.0663 114.106 48.065 113.986C48.065 113.906 48.049 113.826 48.018 113.752C47.9869 113.679 47.9414 113.612 47.8841 113.556C47.8268 113.5 47.7589 113.456 47.6843 113.426C47.6098 113.397 47.5301 113.383 47.45 113.384H47.4568ZM57.1953 113.384C57.0744 113.383 56.9559 113.418 56.8548 113.484C56.7538 113.55 56.6748 113.645 56.6279 113.757C56.581 113.868 56.5684 113.991 56.5917 114.11C56.6149 114.228 56.673 114.337 56.7584 114.423C56.8439 114.508 56.9529 114.566 57.0715 114.589C57.1901 114.613 57.313 114.6 57.4244 114.553C57.5358 114.506 57.6307 114.427 57.697 114.326C57.7634 114.225 57.7981 114.107 57.7967 113.986C57.7967 113.906 57.781 113.827 57.7503 113.754C57.7197 113.681 57.6747 113.614 57.6182 113.558C57.5616 113.502 57.4945 113.458 57.4207 113.428C57.347 113.398 57.2681 113.383 57.1885 113.384H57.1953ZM27.9865 126.407C27.866 126.407 27.7481 126.443 27.6479 126.51C27.5478 126.577 27.4698 126.673 27.424 126.784C27.3781 126.896 27.3665 127.019 27.3905 127.137C27.4145 127.255 27.4732 127.363 27.5589 127.448C27.6446 127.533 27.7536 127.59 27.8721 127.613C27.9905 127.636 28.113 127.623 28.224 127.575C28.335 127.528 28.4295 127.449 28.4956 127.348C28.5616 127.248 28.5961 127.129 28.5948 127.009C28.5948 126.929 28.579 126.85 28.5483 126.777C28.5177 126.704 28.4728 126.637 28.4162 126.581C28.3597 126.525 28.2925 126.481 28.2188 126.451C28.145 126.421 28.0661 126.406 27.9865 126.407ZM37.725 126.407C37.6042 126.406 37.4856 126.441 37.3846 126.507C37.2835 126.573 37.2045 126.668 37.1577 126.78C37.1108 126.891 37.0982 127.014 37.1214 127.133C37.1447 127.251 37.2028 127.36 37.2882 127.446C37.3737 127.531 37.4827 127.589 37.6013 127.612C37.7199 127.636 37.8428 127.623 37.9542 127.576C38.0656 127.529 38.1605 127.45 38.2268 127.349C38.2931 127.248 38.3278 127.13 38.3265 127.009C38.3265 126.929 38.3107 126.85 38.2801 126.777C38.2494 126.704 38.2045 126.637 38.148 126.581C38.0914 126.525 38.0243 126.481 37.9505 126.451C37.8768 126.421 37.7978 126.406 37.7183 126.407H37.725ZM47.4635 126.407C47.3022 126.407 47.1475 126.471 47.0334 126.585C46.9194 126.7 46.8553 126.854 46.8553 127.016C46.8553 127.095 46.8711 127.174 46.9017 127.247C46.9324 127.321 46.9773 127.387 47.0338 127.443C47.0904 127.499 47.1575 127.543 47.2313 127.573C47.305 127.603 47.384 127.618 47.4635 127.617L48.0582 126.941C48.0417 126.793 47.9713 126.656 47.8604 126.556C47.7495 126.457 47.6059 126.401 47.4568 126.401L47.4635 126.407Z" fill="white"/>
<path d="M28.98 106.356C31.1696 104.768 37.3398 101.064 45.1995 102.051C45.2671 102.051 45.2739 102.173 45.1995 102.166C39.2659 101.997 31.2575 105.099 28.98 106.45C28.9732 106.484 28.9259 106.403 28.98 106.356Z" fill="#263238"/>
<path d="M36.887 127.766C39.3335 124.731 41.9353 121.832 44.5507 118.94C47.1661 116.047 49.7748 113.141 52.4645 110.309C53.9784 108.708 55.4922 107.099 57.0668 105.579C57.1074 105.538 57.1817 105.579 57.1479 105.646C54.7082 108.674 52.1064 111.593 49.518 114.499C46.9296 117.405 44.2939 120.298 41.6447 123.163C40.1444 124.779 38.6171 126.367 37.0424 127.894C36.9613 127.968 36.8194 127.854 36.887 127.766Z" fill="#263238"/>
<path d="M67.0486 105.498C65.5957 105.061 64.1144 104.724 62.6153 104.491C61.1218 104.207 59.6214 103.957 58.1279 103.714C55.1475 103.234 48.8827 101.882 43.3749 101.896C43.314 101.896 43.6249 102.193 43.6857 102.193C46.3079 102.051 65.0955 105.788 66.6634 105.896C66.6005 105.996 66.5441 106.1 66.4945 106.207C66.4945 106.288 66.5418 106.383 66.6229 106.329C66.8189 106.201 66.954 106.038 67.1365 105.896C67.1714 105.871 67.1982 105.836 67.2135 105.795C67.2288 105.755 67.232 105.711 67.2227 105.668C67.2134 105.626 67.192 105.587 67.161 105.557C67.1301 105.527 67.0911 105.506 67.0486 105.498Z" fill="#263238"/>
<path d="M86.2418 55.7169C108.841 75.4304 126.615 99.7868 125.439 105.876C123.31 117.216 108.409 117.926 106.124 115.472C96.9737 105.558 87.3163 86.3516 76.8547 64.9215C67.5082 45.7689 78.8011 49.2359 86.2418 55.7169Z" fill="#4797C8"/>
<path d="M82.1261 55.1088C82.1274 55.2297 82.0927 55.3482 82.0264 55.4493C81.9601 55.5503 81.8652 55.6293 81.7537 55.6762C81.6423 55.7231 81.5195 55.7357 81.4009 55.7124C81.2823 55.6892 81.1733 55.6311 81.0878 55.5456C81.0023 55.4602 80.9443 55.3512 80.921 55.2326C80.8978 55.1139 80.9104 54.9911 80.9573 54.8797C81.0041 54.7683 81.0831 54.6734 81.1842 54.607C81.2852 54.5407 81.4037 54.506 81.5246 54.5074C81.6841 54.5074 81.8371 54.5707 81.9499 54.6835C82.0627 54.7963 82.1261 54.9493 82.1261 55.1088ZM81.5246 67.5303C81.4037 67.529 81.2852 67.5637 81.1842 67.63C81.0831 67.6963 81.0041 67.7912 80.9573 67.9026C80.9104 68.0141 80.8978 68.1369 80.921 68.2555C80.9443 68.3741 81.0023 68.4831 81.0878 68.5686C81.1733 68.6541 81.2823 68.7121 81.4009 68.7354C81.5195 68.7586 81.6423 68.746 81.7537 68.6992C81.8652 68.6523 81.9601 68.5733 82.0264 68.4722C82.0927 68.3712 82.1274 68.2526 82.1261 68.1318C82.1261 67.9723 82.0627 67.8193 81.9499 67.7065C81.8371 67.5937 81.6841 67.5303 81.5246 67.5303ZM91.2563 67.5303C91.1358 67.5303 91.0179 67.5662 90.9177 67.6333C90.8176 67.7004 90.7396 67.7958 90.6938 67.9074C90.648 68.0189 90.6363 68.1415 90.6603 68.2597C90.6844 68.3779 90.743 68.4862 90.8287 68.571C90.9144 68.6558 91.0234 68.7132 91.1419 68.7359C91.2603 68.7586 91.3828 68.7456 91.4938 68.6985C91.6048 68.6514 91.6994 68.5724 91.7654 68.4715C91.8314 68.3706 91.8659 68.2524 91.8646 68.1318C91.8646 68.0522 91.8488 67.9735 91.8181 67.9C91.7875 67.8266 91.7426 67.76 91.686 67.7041C91.6295 67.6481 91.5623 67.604 91.4886 67.5741C91.4148 67.5443 91.3359 67.5294 91.2563 67.5303ZM76.6452 61.2925C76.5244 61.2912 76.4058 61.3259 76.3048 61.3922C76.2037 61.4585 76.1247 61.5535 76.0779 61.6649C76.031 61.7763 76.0184 61.8991 76.0416 62.0177C76.0649 62.1364 76.1229 62.2454 76.2084 62.3308C76.2939 62.4163 76.4029 62.4744 76.5215 62.4976C76.6401 62.5209 76.763 62.5082 76.8744 62.4614C76.9858 62.4145 77.0807 62.3355 77.147 62.2344C77.2133 62.1334 77.248 62.0149 77.2467 61.894C77.2467 61.7345 77.1833 61.5815 77.0705 61.4687C76.9577 61.3559 76.8047 61.2925 76.6452 61.2925ZM86.377 61.2925C86.2561 61.2912 86.1376 61.3259 86.0365 61.3922C85.9355 61.4585 85.8565 61.5535 85.8096 61.6649C85.7627 61.7763 85.7501 61.8991 85.7734 62.0177C85.7966 62.1364 85.8547 62.2454 85.9402 62.3308C86.0256 62.4163 86.1346 62.4744 86.2532 62.4976C86.3718 62.5209 86.4947 62.5082 86.6061 62.4614C86.7175 62.4145 86.8124 62.3355 86.8787 62.2344C86.9451 62.1334 86.9798 62.0149 86.9784 61.894C86.9785 61.7368 86.917 61.5858 86.8071 61.4734C86.6972 61.361 86.5477 61.2961 86.3905 61.2925H86.377ZM91.2428 80.5533C91.1222 80.5533 91.0044 80.5891 90.9042 80.6563C90.8041 80.7234 90.7261 80.8188 90.6803 80.9303C90.6345 81.0418 90.6228 81.1645 90.6468 81.2827C90.6709 81.4008 90.7294 81.5092 90.8152 81.594C90.9009 81.6788 91.0099 81.7362 91.1284 81.7589C91.2468 81.7816 91.3693 81.7685 91.4803 81.7215C91.5913 81.6744 91.6858 81.5954 91.7519 81.4945C91.8179 81.3936 91.8524 81.2753 91.8511 81.1547C91.8511 80.9964 91.7886 80.8444 91.6773 80.7318C91.5659 80.6192 91.4147 80.555 91.2563 80.5533H91.2428ZM100.981 80.5533C100.86 80.5519 100.742 80.5866 100.641 80.6529C100.54 80.7193 100.461 80.8142 100.414 80.9256C100.367 81.037 100.354 81.1599 100.378 81.2785C100.401 81.3971 100.459 81.5061 100.545 81.5915C100.63 81.677 100.739 81.7351 100.858 81.7583C100.976 81.7816 101.099 81.769 101.21 81.7221C101.322 81.6752 101.417 81.5962 101.483 81.4952C101.549 81.3941 101.584 81.2756 101.583 81.1547C101.583 81.0752 101.567 80.9964 101.536 80.923C101.506 80.8496 101.461 80.783 101.404 80.727C101.348 80.6711 101.281 80.6269 101.207 80.5971C101.133 80.5673 101.054 80.5524 100.975 80.5533H100.981ZM110.504 80.587C110.388 80.6308 110.289 80.7086 110.219 80.81C110.149 80.9113 110.112 81.0316 110.112 81.1547C110.112 81.3143 110.175 81.4672 110.288 81.58C110.401 81.6928 110.554 81.7562 110.713 81.7562C110.817 81.7559 110.92 81.729 111.011 81.6782C111.102 81.6273 111.178 81.5542 111.233 81.4656L110.504 80.587ZM86.377 74.3155C86.2561 74.3141 86.1376 74.3489 86.0365 74.4152C85.9355 74.4815 85.8565 74.5764 85.8096 74.6878C85.7627 74.7992 85.7501 74.9221 85.7734 75.0407C85.7966 75.1593 85.8547 75.2683 85.9402 75.3538C86.0256 75.4392 86.1346 75.4973 86.2532 75.5206C86.3718 75.5438 86.4947 75.5312 86.6061 75.4843C86.7175 75.4375 86.8124 75.3584 86.8787 75.2574C86.9451 75.1563 86.9798 75.0378 86.9784 74.917C86.9785 74.7598 86.917 74.6088 86.8071 74.4964C86.6972 74.3839 86.5477 74.319 86.3905 74.3155H86.377ZM96.1087 74.3155C95.9881 74.3155 95.8702 74.3513 95.7701 74.4185C95.6699 74.4856 95.592 74.581 95.5461 74.6926C95.5003 74.8041 95.4887 74.9267 95.5127 75.0449C95.5367 75.1631 95.5953 75.2714 95.6811 75.3562C95.7668 75.441 95.8758 75.4984 95.9942 75.5211C96.1126 75.5438 96.2352 75.5308 96.3462 75.4837C96.4572 75.4366 96.5517 75.3576 96.6177 75.2567C96.6837 75.1558 96.7183 75.0375 96.7169 74.917C96.7169 74.7586 96.6545 74.6066 96.5432 74.494C96.4318 74.3814 96.2806 74.3173 96.1222 74.3155H96.1087ZM105.334 74.5993C105.276 74.6954 105.246 74.8051 105.246 74.917C105.245 74.9965 105.26 75.0755 105.29 75.1492C105.319 75.223 105.364 75.2901 105.419 75.3467C105.475 75.4032 105.542 75.4481 105.615 75.4788C105.689 75.5094 105.768 75.5252 105.847 75.5252C105.934 75.5264 106.019 75.508 106.097 75.4711C105.861 75.1738 105.604 74.8899 105.347 74.5993H105.334ZM91.5132 93.6168C91.6416 93.8398 91.7565 94.0628 91.8781 94.2926C91.8812 94.2589 91.8812 94.2249 91.8781 94.1912C91.8834 94.0696 91.8512 93.9494 91.7859 93.8466C91.7206 93.7439 91.6255 93.6637 91.5132 93.6168ZM100.975 93.5627C100.854 93.5614 100.735 93.5961 100.634 93.6624C100.533 93.7287 100.454 93.8236 100.407 93.935C100.36 94.0464 100.348 94.1693 100.371 94.2879C100.394 94.4065 100.452 94.5155 100.538 94.601C100.623 94.6865 100.732 94.7445 100.851 94.7678C100.969 94.791 101.092 94.7784 101.204 94.7315C101.315 94.6847 101.41 94.6057 101.476 94.5046C101.543 94.4036 101.577 94.285 101.576 94.1642C101.576 94.0047 101.513 93.8517 101.4 93.7389C101.287 93.6261 101.134 93.5627 100.975 93.5627ZM110.706 93.5627C110.585 93.5614 110.467 93.5961 110.366 93.6624C110.265 93.7287 110.186 93.8236 110.139 93.935C110.092 94.0464 110.079 94.1693 110.103 94.2879C110.126 94.4065 110.184 94.5155 110.269 94.601C110.355 94.6865 110.464 94.7445 110.583 94.7678C110.701 94.791 110.824 94.7784 110.935 94.7315C111.047 94.6847 111.142 94.6057 111.208 94.5046C111.274 94.4036 111.309 94.285 111.308 94.1642C111.308 94.0081 111.247 93.8581 111.139 93.7459C111.03 93.6337 110.883 93.568 110.727 93.5627H110.706ZM120.208 93.6032C120.083 93.66 119.98 93.7578 119.917 93.8805C119.854 94.0033 119.835 94.1437 119.863 94.2789C119.89 94.414 119.963 94.5357 120.068 94.6242C120.174 94.7126 120.307 94.7625 120.445 94.7657C120.597 94.7659 120.743 94.7106 120.857 94.6102C120.668 94.2926 120.452 93.9547 120.229 93.6168L120.208 93.6032ZM96.1019 87.3249C95.9814 87.3249 95.8635 87.3608 95.7633 87.4279C95.6632 87.4951 95.5852 87.5905 95.5394 87.702C95.4935 87.8135 95.4819 87.9362 95.5059 88.0543C95.5299 88.1725 95.5886 88.2809 95.6743 88.3656C95.76 88.4504 95.8691 88.5078 95.9875 88.5305C96.1059 88.5532 96.2284 88.5402 96.3394 88.4931C96.4504 88.4461 96.545 88.3671 96.611 88.2661C96.677 88.1652 96.7115 88.047 96.7102 87.9264C96.7067 87.7715 96.6437 87.624 96.5341 87.5145C96.4246 87.4049 96.2771 87.3419 96.1222 87.3385L96.1019 87.3249ZM105.84 87.3249C105.72 87.3236 105.601 87.3583 105.5 87.4246C105.399 87.4909 105.32 87.5859 105.273 87.6973C105.226 87.8087 105.214 87.9315 105.237 88.0501C105.26 88.1687 105.318 88.2777 105.404 88.3632C105.489 88.4487 105.598 88.5067 105.717 88.53C105.835 88.5532 105.958 88.5406 106.07 88.4938C106.181 88.4469 106.276 88.3679 106.342 88.2668C106.409 88.1658 106.443 88.0473 106.442 87.9264C106.439 87.7727 106.376 87.6261 106.268 87.5167C106.16 87.4074 106.014 87.3436 105.861 87.3385L105.84 87.3249ZM116.174 87.8048L115.89 87.4331C115.798 87.3789 115.693 87.3509 115.586 87.352C115.436 87.3678 115.298 87.4383 115.198 87.55C115.097 87.6617 115.041 87.8066 115.041 87.9568C115.041 88.107 115.097 88.252 115.198 88.3636C115.298 88.4753 115.436 88.5459 115.586 88.5617C115.745 88.56 115.898 88.4962 116.012 88.384C116.125 88.2718 116.19 88.1198 116.194 87.9602C116.198 87.913 116.198 87.8655 116.194 87.8183L116.174 87.8048ZM100.975 106.599C100.856 106.599 100.739 106.634 100.64 106.701C100.541 106.767 100.464 106.861 100.419 106.97C100.373 107.08 100.361 107.201 100.385 107.318C100.408 107.435 100.465 107.542 100.549 107.626C100.633 107.71 100.741 107.767 100.857 107.791C100.974 107.814 101.095 107.802 101.205 107.756C101.315 107.711 101.409 107.634 101.475 107.535C101.541 107.436 101.576 107.32 101.576 107.201C101.576 107.041 101.513 106.888 101.4 106.775C101.287 106.663 101.134 106.599 100.975 106.599ZM110.706 106.599C110.587 106.599 110.471 106.634 110.372 106.701C110.273 106.767 110.196 106.861 110.151 106.97C110.105 107.08 110.093 107.201 110.116 107.318C110.14 107.435 110.197 107.542 110.281 107.626C110.365 107.71 110.472 107.767 110.589 107.791C110.706 107.814 110.827 107.802 110.936 107.756C111.046 107.711 111.14 107.634 111.206 107.535C111.273 107.436 111.308 107.32 111.308 107.201C111.308 107.045 111.247 106.895 111.139 106.782C111.03 106.67 110.883 106.604 110.727 106.599H110.706ZM120.445 106.599C120.326 106.599 120.21 106.634 120.111 106.701C120.012 106.767 119.935 106.861 119.889 106.97C119.844 107.08 119.832 107.201 119.855 107.318C119.878 107.435 119.935 107.542 120.019 107.626C120.104 107.71 120.211 107.767 120.327 107.791C120.444 107.814 120.565 107.802 120.675 107.756C120.785 107.711 120.879 107.634 120.945 107.535C121.011 107.436 121.046 107.32 121.046 107.201C121.046 107.045 120.986 106.895 120.877 106.782C120.769 106.67 120.621 106.604 120.465 106.599H120.445ZM96.1155 100.361C95.9949 100.361 95.877 100.397 95.7768 100.464C95.6767 100.532 95.5987 100.627 95.5529 100.738C95.5071 100.85 95.4954 100.973 95.5195 101.091C95.5435 101.209 95.6021 101.317 95.6878 101.402C95.7735 101.487 95.8826 101.544 96.001 101.567C96.1194 101.59 96.2419 101.577 96.3529 101.53C96.464 101.483 96.5585 101.404 96.6245 101.303C96.6905 101.202 96.725 101.083 96.7237 100.963C96.7237 100.803 96.6603 100.65 96.5475 100.538C96.4347 100.425 96.2817 100.361 96.1222 100.361H96.1155ZM105.854 100.361C105.733 100.36 105.615 100.395 105.514 100.461C105.412 100.527 105.333 100.622 105.287 100.734C105.24 100.845 105.227 100.968 105.25 101.087C105.274 101.205 105.332 101.314 105.417 101.4C105.503 101.485 105.612 101.543 105.73 101.566C105.849 101.59 105.972 101.577 106.083 101.53C106.194 101.483 106.289 101.404 106.356 101.303C106.422 101.202 106.457 101.084 106.455 100.963C106.455 100.805 106.393 100.653 106.282 100.54C106.17 100.427 106.019 100.363 105.861 100.361H105.854ZM115.586 100.361C115.465 100.361 115.347 100.397 115.247 100.464C115.147 100.532 115.069 100.627 115.023 100.738C114.977 100.85 114.966 100.973 114.99 101.091C115.014 101.209 115.072 101.317 115.158 101.402C115.244 101.487 115.353 101.544 115.471 101.567C115.59 101.59 115.712 101.577 115.823 101.53C115.934 101.483 116.029 101.404 116.095 101.303C116.161 101.202 116.195 101.083 116.194 100.963C116.194 100.803 116.131 100.65 116.018 100.538C115.905 100.425 115.752 100.361 115.592 100.361H115.586ZM105.854 113.384C105.733 113.383 105.615 113.418 105.514 113.484C105.412 113.55 105.333 113.645 105.287 113.757C105.24 113.868 105.227 113.991 105.25 114.11C105.274 114.228 105.332 114.337 105.417 114.423C105.503 114.508 105.612 114.566 105.73 114.589C105.849 114.613 105.972 114.6 106.083 114.553C106.194 114.506 106.289 114.427 106.356 114.326C106.422 114.225 106.457 114.107 106.455 113.986C106.455 113.827 106.393 113.675 106.282 113.563C106.17 113.45 106.019 113.386 105.861 113.384H105.854ZM115.586 113.384C115.465 113.384 115.347 113.42 115.247 113.487C115.147 113.554 115.069 113.65 115.023 113.761C114.977 113.873 114.966 113.996 114.99 114.114C115.014 114.232 115.072 114.34 115.158 114.425C115.244 114.51 115.353 114.567 115.471 114.59C115.59 114.613 115.712 114.6 115.823 114.553C115.934 114.505 116.029 114.426 116.095 114.326C116.161 114.225 116.195 114.106 116.194 113.986C116.194 113.826 116.131 113.673 116.018 113.561C115.905 113.448 115.752 113.384 115.592 113.384H115.586Z" fill="white"/>
<path d="M102.394 111.046C100.738 108.478 99.1769 105.829 97.5955 103.207C96.0141 100.584 94.4462 97.9487 92.9053 95.2995C89.8642 90.0619 87.0393 84.7095 84.3157 79.303C82.7749 76.2415 81.207 73.2206 79.7405 70.0984C79.6931 69.997 79.531 70.0984 79.5647 70.1727C80.984 73.7771 82.5113 77.3228 84.1468 80.81L84.0792 80.7222C83.7142 80.2288 83.3493 79.7355 82.9911 79.2354C82.2815 78.2487 81.6395 77.2417 80.9637 76.2077C80.9164 76.1266 80.788 76.2077 80.8353 76.2888C81.5663 77.6953 82.3927 79.0501 83.3087 80.3437C83.7564 80.9483 84.2393 81.526 84.755 82.0738L84.8023 82.1143C85.5525 83.6687 86.3161 85.2163 87.1203 86.7505C89.9254 92.1996 93.002 97.5047 96.3385 102.646C97.2846 104.085 98.2375 105.518 99.231 106.93C100.224 108.343 101.258 109.708 102.313 111.1C102.326 111.188 102.448 111.134 102.394 111.046Z" fill="#263238"/>
<path d="M109.868 113.277C105.584 107.133 107.733 94.9146 112.463 65.5843C113.139 61.5294 143.916 61.2117 143.443 65.5843C142.848 71.0854 137.36 92.8264 135.934 95.9959C128.926 111.675 112.768 117.446 109.868 113.277Z" fill="#F7A9A0"/>
<path d="M142.443 69.3685C143.72 66.084 149.593 47.8775 149.876 43.2617C150.16 38.6459 150.059 25.2986 146.545 24.7174C143.03 24.1362 142.753 28.0424 142.753 28.0424C142.753 28.0424 141.814 22.4128 138.225 22.1425C134.637 21.8722 134.4 27.9748 134.4 27.9748C134.4 27.9748 133.015 22.2642 129.413 22.2574C125.811 22.2506 126.655 28.4141 126.655 28.4141C126.655 28.4141 125.628 23.136 122.661 24.3592C119.093 25.846 122.08 35.3682 121.371 40.4368C121.208 41.5925 116.451 63.5497 116.451 63.5497L142.443 69.3685Z" fill="#F7A9A0"/>
<path d="M126.561 27.8867C128.744 34.8949 128.487 38.3348 126.622 45.3092C126.588 45.4512 126.784 45.5322 126.831 45.3971C129.278 38.7268 130.21 34.4556 126.899 27.7651C126.737 27.4339 126.46 27.5556 126.561 27.8867Z" fill="#263238"/>
<path d="M134.231 27.4204C135.86 34.8949 135.617 38.6321 134.231 46.0864C134.231 46.1877 134.394 46.2351 134.421 46.1269C136.448 38.9363 137.266 34.6381 134.657 27.4001C134.502 27.0689 134.157 27.0825 134.231 27.4204Z" fill="#263238"/>
<path d="M142.686 28.4143C143.74 35.7671 143.646 39.9031 141.334 46.9316C141.321 46.9656 141.321 47.0036 141.336 47.0372C141.351 47.0708 141.378 47.0972 141.412 47.1107C141.446 47.1241 141.484 47.1235 141.518 47.1089C141.551 47.0943 141.578 47.067 141.591 47.033C144.639 40.0653 144.794 34.9426 142.902 28.4075C142.78 27.9615 142.618 27.9547 142.686 28.4143Z" fill="#263238"/>
<path d="M112.017 69.2942C112.017 69.2942 109.578 60.4342 109.368 56.2982C109.159 52.1622 114.038 36.4901 117.478 37.3754C121.932 38.4905 120.898 48.1006 119.776 52.7367C119.776 52.7367 130.075 55.3048 130.825 62.3603C131.575 69.4158 112.017 69.2942 112.017 69.2942Z" fill="#F7A9A0"/>
<path d="M118.613 38.058C121.938 41.998 120.073 47.9924 119.289 52.5745C119.274 52.6414 119.276 52.7109 119.294 52.7771C119.312 52.8433 119.345 52.9042 119.392 52.9546C119.438 53.0051 119.496 53.0435 119.561 53.0668C119.625 53.09 119.694 53.0973 119.762 53.0881C124.006 54.4397 129.602 57.6093 130.981 62.1035C130.99 62.1275 131.007 62.1476 131.029 62.1602C131.051 62.1727 131.078 62.177 131.103 62.1721C131.128 62.1672 131.15 62.1536 131.166 62.1336C131.183 62.1136 131.191 62.0885 131.19 62.0629C130.366 57.0348 125.108 53.48 120.377 52.2906C121.222 47.6005 122.83 41.4776 118.613 38.0242C118.62 38.0039 118.586 38.0309 118.613 38.058Z" fill="#263238"/>
<path d="M143.929 75.5186L108.213 85.6558C108.213 85.6558 101.089 109.066 105.617 114.939C110.463 121.217 132.947 111.485 137.421 97.8069L143.929 75.5186Z" fill="#4797C8"/>
<path d="M130.798 81.1547C130.798 81.2737 130.763 81.39 130.697 81.4889C130.631 81.5878 130.537 81.6649 130.427 81.7104C130.317 81.7559 130.196 81.7679 130.079 81.7447C129.963 81.7215 129.856 81.6642 129.771 81.58C129.687 81.4959 129.63 81.3888 129.607 81.2721C129.584 81.1554 129.596 81.0345 129.641 80.9246C129.687 80.8147 129.764 80.7207 129.863 80.6546C129.962 80.5885 130.078 80.5533 130.197 80.5533C130.356 80.5533 130.509 80.6166 130.622 80.7294C130.735 80.8422 130.798 80.9952 130.798 81.1547ZM139.929 80.5533C139.808 80.5533 139.69 80.5891 139.59 80.6563C139.49 80.7234 139.412 80.8188 139.366 80.9303C139.32 81.0418 139.308 81.1645 139.333 81.2827C139.357 81.4008 139.415 81.5092 139.501 81.594C139.587 81.6788 139.696 81.7362 139.814 81.7589C139.932 81.7816 140.055 81.7685 140.166 81.7215C140.277 81.6744 140.372 81.5954 140.438 81.4945C140.504 81.3936 140.538 81.2753 140.537 81.1547C140.537 81.0752 140.521 80.9964 140.49 80.923C140.46 80.8496 140.415 80.783 140.358 80.727C140.302 80.6711 140.235 80.6269 140.161 80.5971C140.087 80.5673 140.008 80.5524 139.929 80.5533ZM110.727 93.5627C110.606 93.5614 110.487 93.5961 110.386 93.6624C110.285 93.7287 110.206 93.8236 110.159 93.935C110.112 94.0464 110.1 94.1693 110.123 94.2879C110.146 94.4065 110.204 94.5155 110.29 94.601C110.375 94.6865 110.484 94.7445 110.603 94.7678C110.721 94.791 110.844 94.7784 110.956 94.7315C111.067 94.6847 111.162 94.6057 111.228 94.5046C111.295 94.4036 111.329 94.285 111.328 94.1642C111.328 94.0047 111.265 93.8517 111.152 93.7389C111.039 93.6261 110.886 93.5627 110.727 93.5627ZM120.465 93.5627C120.344 93.5614 120.226 93.5961 120.125 93.6624C120.024 93.7287 119.945 93.8236 119.898 93.935C119.851 94.0464 119.838 94.1693 119.861 94.2879C119.885 94.4065 119.943 94.5155 120.028 94.601C120.114 94.6865 120.223 94.7445 120.341 94.7678C120.46 94.791 120.583 94.7784 120.694 94.7315C120.806 94.6847 120.901 94.6057 120.967 94.5046C121.033 94.4036 121.068 94.285 121.067 94.1642C121.067 94.0047 121.003 93.8517 120.89 93.7389C120.778 93.6261 120.625 93.5627 120.465 93.5627ZM130.197 93.5627C130.076 93.5614 129.957 93.5961 129.856 93.6624C129.755 93.7287 129.676 93.8236 129.629 93.935C129.583 94.0464 129.57 94.1693 129.593 94.2879C129.616 94.4065 129.675 94.5155 129.76 94.601C129.845 94.6865 129.954 94.7445 130.073 94.7678C130.192 94.791 130.315 94.7784 130.426 94.7315C130.537 94.6847 130.632 94.6057 130.699 94.5046C130.765 94.4036 130.8 94.285 130.798 94.1642C130.798 94.0047 130.735 93.8517 130.622 93.7389C130.509 93.6261 130.356 93.5627 130.197 93.5627ZM115.592 87.3249C115.472 87.3249 115.354 87.3608 115.254 87.4279C115.154 87.4951 115.076 87.5905 115.03 87.702C114.984 87.8135 114.972 87.9362 114.996 88.0543C115.02 88.1725 115.079 88.2809 115.165 88.3656C115.251 88.4504 115.36 88.5078 115.478 88.5305C115.596 88.5532 115.719 88.5402 115.83 88.4931C115.941 88.4461 116.035 88.3671 116.101 88.2661C116.167 88.1652 116.202 88.047 116.201 87.9264C116.197 87.7681 116.131 87.6175 116.017 87.5074C115.903 87.3973 115.751 87.3366 115.592 87.3384V87.3249ZM125.331 87.3249C125.21 87.3236 125.092 87.3583 124.99 87.4246C124.889 87.4909 124.81 87.5859 124.764 87.6973C124.717 87.8087 124.704 87.9315 124.727 88.0501C124.751 88.1687 124.809 88.2777 124.894 88.3632C124.98 88.4487 125.089 88.5067 125.207 88.53C125.326 88.5532 125.449 88.5406 125.56 88.4938C125.671 88.4469 125.766 88.3679 125.833 88.2668C125.899 88.1658 125.934 88.0473 125.932 87.9264C125.931 87.8462 125.913 87.7672 125.88 87.694C125.848 87.6208 125.801 87.5548 125.742 87.5001C125.683 87.4453 125.614 87.4028 125.539 87.375C125.464 87.3473 125.384 87.3348 125.304 87.3384L125.331 87.3249ZM135.063 87.3249C134.942 87.3249 134.824 87.3608 134.724 87.4279C134.624 87.4951 134.546 87.5905 134.5 87.702C134.454 87.8135 134.443 87.9362 134.467 88.0543C134.491 88.1725 134.549 88.2809 134.635 88.3656C134.721 88.4504 134.83 88.5078 134.948 88.5305C135.067 88.5532 135.189 88.5402 135.3 88.4931C135.411 88.4461 135.506 88.3671 135.572 88.2661C135.638 88.1652 135.672 88.047 135.671 87.9264C135.667 87.7681 135.601 87.6175 135.488 87.5074C135.374 87.3973 135.221 87.3366 135.063 87.3384V87.3249ZM110.733 106.586C110.614 106.586 110.498 106.621 110.399 106.687C110.3 106.753 110.223 106.847 110.178 106.957C110.132 107.067 110.12 107.188 110.143 107.304C110.167 107.421 110.224 107.528 110.308 107.612C110.392 107.697 110.499 107.754 110.616 107.777C110.733 107.8 110.854 107.788 110.963 107.743C111.073 107.697 111.167 107.62 111.233 107.521C111.3 107.422 111.335 107.306 111.335 107.187C111.331 107.029 111.265 106.878 111.152 106.768C111.038 106.658 110.885 106.597 110.727 106.599L110.733 106.586ZM120.472 106.586C120.353 106.586 120.237 106.621 120.138 106.687C120.039 106.753 119.962 106.847 119.916 106.957C119.871 107.067 119.859 107.188 119.882 107.304C119.905 107.421 119.962 107.528 120.046 107.612C120.131 107.697 120.238 107.754 120.354 107.777C120.471 107.8 120.592 107.788 120.702 107.743C120.812 107.697 120.906 107.62 120.972 107.521C121.038 107.422 121.073 107.306 121.073 107.187C121.07 107.029 121.004 106.878 120.89 106.768C120.776 106.658 120.623 106.597 120.465 106.599L120.472 106.586ZM130.204 106.586C130.085 106.586 129.968 106.621 129.869 106.687C129.77 106.753 129.693 106.847 129.648 106.957C129.602 107.067 129.59 107.188 129.614 107.304C129.637 107.421 129.694 107.528 129.778 107.612C129.862 107.697 129.97 107.754 130.086 107.777C130.203 107.8 130.324 107.788 130.434 107.743C130.544 107.697 130.638 107.62 130.704 107.521C130.77 107.422 130.805 107.306 130.805 107.187C130.801 107.029 130.736 106.878 130.622 106.768C130.508 106.658 130.355 106.597 130.197 106.599L130.204 106.586ZM105.874 100.348C105.753 100.347 105.635 100.381 105.534 100.448C105.433 100.514 105.354 100.609 105.307 100.72C105.26 100.832 105.247 100.954 105.271 101.073C105.294 101.192 105.352 101.301 105.437 101.386C105.523 101.472 105.632 101.53 105.75 101.553C105.869 101.576 105.992 101.564 106.103 101.517C106.215 101.47 106.31 101.391 106.376 101.29C106.442 101.189 106.477 101.07 106.476 100.949C106.474 100.87 106.457 100.792 106.425 100.72C106.393 100.648 106.347 100.583 106.29 100.528C106.233 100.473 106.166 100.431 106.092 100.402C106.018 100.373 105.94 100.36 105.861 100.361L105.874 100.348ZM115.606 100.348C115.485 100.348 115.367 100.384 115.267 100.451C115.167 100.518 115.089 100.613 115.043 100.725C114.998 100.836 114.986 100.959 115.01 101.077C115.034 101.195 115.093 101.304 115.178 101.389C115.264 101.473 115.373 101.531 115.491 101.553C115.61 101.576 115.732 101.563 115.843 101.516C115.954 101.469 116.049 101.39 116.115 101.289C116.181 101.188 116.215 101.07 116.214 100.949C116.212 100.87 116.195 100.791 116.163 100.719C116.13 100.646 116.084 100.58 116.026 100.526C115.968 100.471 115.9 100.428 115.826 100.4C115.751 100.372 115.672 100.359 115.592 100.361L115.606 100.348ZM125.344 100.348C125.224 100.347 125.105 100.381 125.004 100.448C124.903 100.514 124.824 100.609 124.777 100.72C124.73 100.832 124.718 100.954 124.741 101.073C124.764 101.192 124.822 101.301 124.908 101.386C124.993 101.472 125.102 101.53 125.221 101.553C125.339 101.576 125.462 101.564 125.574 101.517C125.685 101.47 125.78 101.391 125.846 101.29C125.913 101.189 125.947 101.07 125.946 100.949C125.944 100.868 125.926 100.788 125.893 100.714C125.859 100.639 125.811 100.573 125.751 100.518C125.691 100.463 125.62 100.421 125.543 100.394C125.467 100.367 125.385 100.356 125.304 100.361L125.344 100.348ZM135.076 100.348C134.956 100.348 134.838 100.384 134.738 100.451C134.637 100.518 134.559 100.613 134.514 100.725C134.468 100.836 134.456 100.959 134.48 101.077C134.504 101.195 134.563 101.304 134.649 101.389C134.734 101.473 134.843 101.531 134.962 101.553C135.08 101.576 135.203 101.563 135.314 101.516C135.425 101.469 135.519 101.39 135.585 101.289C135.651 101.188 135.686 101.07 135.684 100.949C135.683 100.87 135.665 100.791 135.633 100.719C135.601 100.646 135.554 100.58 135.496 100.526C135.439 100.471 135.37 100.428 135.296 100.4C135.222 100.372 135.142 100.359 135.063 100.361L135.076 100.348ZM105.874 113.371C105.753 113.369 105.635 113.404 105.534 113.471C105.433 113.537 105.354 113.632 105.307 113.743C105.26 113.855 105.247 113.977 105.271 114.096C105.294 114.215 105.352 114.324 105.437 114.409C105.523 114.495 105.632 114.553 105.75 114.576C105.869 114.599 105.992 114.587 106.103 114.54C106.215 114.493 106.31 114.414 106.376 114.313C106.442 114.212 106.477 114.093 106.476 113.972C106.474 113.893 106.457 113.815 106.425 113.743C106.393 113.671 106.347 113.606 106.29 113.551C106.233 113.496 106.166 113.454 106.092 113.425C106.018 113.396 105.94 113.383 105.861 113.384L105.874 113.371ZM115.606 113.371C115.485 113.371 115.367 113.407 115.267 113.474C115.167 113.541 115.089 113.636 115.043 113.748C114.998 113.859 114.986 113.982 115.01 114.1C115.034 114.218 115.093 114.327 115.178 114.412C115.264 114.496 115.373 114.554 115.491 114.576C115.61 114.599 115.732 114.586 115.843 114.539C115.954 114.492 116.049 114.413 116.115 114.312C116.181 114.211 116.215 114.093 116.214 113.972C116.212 113.893 116.195 113.814 116.163 113.742C116.13 113.669 116.084 113.603 116.026 113.548C115.968 113.494 115.9 113.451 115.826 113.423C115.751 113.395 115.672 113.382 115.592 113.384L115.606 113.371Z" fill="white"/>
<path d="M109.382 93.772C113.369 92.8664 117.302 91.7446 121.235 90.6227C125.169 89.5009 129.109 88.379 133.015 87.1558C135.218 86.48 137.428 85.8042 139.611 85.0135C139.672 85.0135 139.651 84.8918 139.611 84.9053C135.63 85.8042 131.684 86.9328 127.757 88.0073C123.831 89.0819 119.877 90.251 115.957 91.427C113.747 92.1028 111.544 92.7786 109.361 93.5693C109.233 93.6098 109.267 93.7991 109.382 93.772Z" fill="#263238"/>
<path d="M109.483 85.2637C108.929 85.3177 108.375 85.4326 107.827 85.5408C107.786 85.5528 107.748 85.5752 107.717 85.606C107.686 85.6367 107.664 85.6747 107.652 85.7165C107.043 87.798 106.611 89.9403 106.178 92.0624C105.746 94.1844 105.374 96.2524 105.029 98.361C104.84 99.4896 104.678 100.632 104.55 101.74C103.86 103.119 103.44 104.617 103.313 106.153C103.313 106.171 103.32 106.188 103.333 106.201C103.345 106.214 103.363 106.221 103.38 106.221C103.398 106.221 103.416 106.214 103.428 106.201C103.441 106.188 103.448 106.171 103.448 106.153C103.617 104.79 103.97 103.455 104.496 102.186C104.154 104.968 104.229 107.786 104.719 110.546C104.043 106.423 105.056 102.125 105.732 98.0704C106.07 96.0429 106.455 94.0155 106.854 91.988C107.253 89.9606 107.719 87.9669 108.091 85.9463C108.564 85.7638 109.044 85.5881 109.497 85.3718C109.504 85.3645 109.51 85.3555 109.514 85.3455C109.517 85.3355 109.519 85.3248 109.517 85.3143C109.516 85.3038 109.512 85.2937 109.506 85.2849C109.5 85.2761 109.492 85.2688 109.483 85.2637Z" fill="#263238"/>
<path d="M73.2661 50.4458C72.9485 51.5947 67.123 58.9273 61.8246 58.4813C60.1013 58.3326 60.473 48.878 60.473 48.878L60.3445 48.2021L58.5198 38.342L70.2723 31.3879L71.9686 30.4688C71.9686 30.4688 72.293 33.172 72.6444 36.6119C72.6444 36.7673 72.6782 36.9228 72.6917 37.0917C72.7052 37.2607 72.7457 37.4702 72.7593 37.6459C72.8268 38.1528 72.8809 38.6731 72.935 39.1935C72.9755 39.5855 73.0093 39.9707 73.0363 40.383C73.0634 40.7952 73.1039 41.2074 73.1377 41.6197C73.3799 44.5555 73.4228 47.5043 73.2661 50.4458Z" fill="#F7A9A0"/>
<path d="M72.6579 36.5916C71.5665 39.3011 69.8987 41.7405 67.77 43.7408C65.6414 45.741 63.103 47.2541 60.331 48.1751L58.5063 38.315L70.2723 31.3879L71.9686 30.4688C71.9686 30.4688 72.293 33.1855 72.6579 36.5916Z" fill="#263238"/>
<path d="M46.1051 22.3587C44.2872 39.8691 54.5731 42.9373 58.3509 43.309C61.7773 43.6604 73.4959 44.424 77.1115 27.1908C80.7271 9.95749 73.158 3.58456 65.3591 2.36133C57.5602 1.13811 47.9231 4.84833 46.1051 22.3587Z" fill="#F7A9A0"/>
<path d="M52.005 18.2903C52.4081 18.2634 52.8096 18.2161 53.2079 18.1484C53.6395 18.1572 54.0621 18.0243 54.4109 17.77C54.5069 17.6693 54.5664 17.5394 54.5799 17.401C54.5934 17.2625 54.5601 17.1236 54.4852 17.0063C54.3011 16.801 54.066 16.6479 53.8038 16.5625C53.5416 16.477 53.2614 16.4623 52.9917 16.5197C52.425 16.5508 51.8902 16.7917 51.4914 17.1955C51.4135 17.294 51.3646 17.4123 51.3501 17.537C51.3357 17.6618 51.3563 17.7881 51.4096 17.9018C51.463 18.0154 51.5469 18.112 51.6521 18.1807C51.7572 18.2493 51.8794 18.2873 52.005 18.2903Z" fill="#263238"/>
<path d="M64.5616 18.1958C64.1657 18.106 63.7753 17.9931 63.3925 17.8579C62.9653 17.7956 62.5708 17.5936 62.2706 17.2834C62.1948 17.169 62.159 17.0327 62.1688 16.8958C62.1786 16.7589 62.2334 16.629 62.3247 16.5265C62.538 16.3502 62.7946 16.2341 63.0679 16.1901C63.3411 16.1462 63.6212 16.176 63.8791 16.2765C64.4273 16.4021 64.9091 16.7274 65.2307 17.1888C65.2931 17.2977 65.324 17.4218 65.3199 17.5473C65.3158 17.6727 65.2768 17.7945 65.2074 17.8991C65.1379 18.0036 65.0407 18.0867 64.9266 18.1391C64.8126 18.1915 64.6862 18.2112 64.5616 18.1958Z" fill="#263238"/>
<path d="M61.4326 23.4537C61.4326 23.4132 61.5205 23.5213 61.5137 23.5686C61.3583 24.7581 61.3853 26.1503 62.4261 26.6504C62.4261 26.6504 62.4261 26.7247 62.4261 26.7179C61.1015 26.4003 61.1015 24.5553 61.4326 23.4537Z" fill="#263238"/>
<path d="M62.6221 22.3117C64.5549 22.3591 64.3251 26.218 62.5342 26.1842C60.7433 26.1504 61.0001 22.278 62.6221 22.3117Z" fill="#263238"/>
<path d="M63.3654 22.5618C63.6898 22.7983 64.0007 23.2038 64.3994 23.2714C64.7982 23.339 65.251 22.9605 65.5821 22.5956C65.6159 22.5956 65.6429 22.5956 65.6429 22.6429C65.6091 23.3863 65.2848 24.1297 64.4805 24.1905C63.6763 24.2513 63.2708 23.5687 63.1289 22.8389C63.1289 22.6631 63.237 22.4672 63.3654 22.5618Z" fill="#263238"/>
<path d="M54.1406 22.6018C54.1406 22.5545 54.0392 22.6491 54.0392 22.6964C53.9987 23.8993 53.7486 25.2645 52.6403 25.5889C52.5997 25.5889 52.5997 25.6564 52.6403 25.6564C53.9784 25.528 54.2893 23.7169 54.1406 22.6018Z" fill="#263238"/>
<path d="M53.1539 21.2506C51.2413 20.9735 50.8291 24.8256 52.5997 25.0824C54.3703 25.3393 54.7623 21.4871 53.1539 21.2506Z" fill="#263238"/>
<path d="M52.3159 21.4197C51.9847 21.5886 51.6401 21.9265 51.2819 21.913C50.9237 21.8995 50.6061 21.4467 50.3628 21.0209C50.3628 20.9736 50.3087 21.0209 50.3019 21.0547C50.2006 21.7846 50.3628 22.5821 51.0521 22.7983C51.7414 23.0146 52.228 22.4131 52.4781 21.7035C52.5389 21.5683 52.4578 21.3521 52.3159 21.4197Z" fill="#263238"/>
<path d="M59.5403 32.7801C59.2497 33.0572 58.9591 33.4559 58.5199 33.4559C58.0738 33.4451 57.6355 33.3366 57.2358 33.1383C57.2277 33.1367 57.2194 33.1373 57.2116 33.1399C57.2039 33.1425 57.1969 33.1471 57.1915 33.1533C57.186 33.1594 57.1822 33.1669 57.1805 33.1749C57.1788 33.1829 57.1792 33.1913 57.1817 33.1991C57.3484 33.4391 57.5776 33.629 57.8444 33.7481C58.1113 33.8672 58.4056 33.9111 58.6956 33.8749C58.9417 33.8157 59.1645 33.6844 59.3355 33.4978C59.5065 33.3112 59.6178 33.0777 59.6552 32.8274C59.6755 32.7395 59.5809 32.7395 59.5403 32.7801Z" fill="#263238"/>
<path d="M54.8434 28.1036C54.8434 28.1036 54.4717 29.8742 54.4109 30.719C54.4109 30.7933 54.6069 30.8474 54.8907 30.8879C54.8907 30.8879 54.8907 30.8879 54.9245 30.8879C55.6383 31.0718 56.3891 31.0548 57.0939 30.839C57.7987 30.6231 58.4301 30.2167 58.9186 29.6647C58.9862 29.5904 58.8848 29.4958 58.8037 29.5431C57.6771 30.1997 56.3693 30.4769 55.0732 30.3338C55.0259 30.0972 55.8098 27.3264 55.6814 27.3061C55.0221 27.3159 54.3672 27.4159 53.7351 27.6035C54.4109 23.9 55.6612 20.3249 56.2694 16.6282C56.2784 16.6005 56.2759 16.5702 56.2626 16.5443C56.2493 16.5183 56.2262 16.4987 56.1984 16.4897C56.1706 16.4807 56.1405 16.4832 56.1145 16.4965C56.0885 16.5098 56.0688 16.5329 56.0599 16.5606C54.4717 20.2033 53.6134 24.4542 52.8227 28.2658C52.7146 28.7388 54.4988 28.2252 54.8434 28.1036Z" fill="#263238"/>
<path d="M55.1813 30.5765C55.5982 31.2783 56.1895 31.8603 56.8979 32.266C57.2901 32.4786 57.7404 32.5592 58.1819 32.4958C59.1484 32.3606 59.27 31.5091 59.1822 30.7522C59.1341 30.3526 59.0388 29.9601 58.8983 29.583C57.7971 30.3023 56.4946 30.6504 55.1813 30.5765Z" fill="#263238"/>
<path d="M56.8979 32.2663C57.2901 32.479 57.7403 32.5595 58.1819 32.4961C59.1483 32.3609 59.27 31.5094 59.1821 30.7525C58.687 30.7134 58.1931 30.8413 57.7791 31.1157C57.3651 31.39 57.0549 31.7951 56.8979 32.2663Z" fill="#FF9CBD"/>
<path d="M76.3816 26.1772C72.3267 25.8866 72.9012 19.5272 72.9012 19.5272C72.9012 19.5272 68.3597 18.7365 68.6368 11.3295C68.6368 11.3295 66.0687 15.6074 59.7971 15.9994C58.4455 16.0873 63.1762 13.0461 63.1762 13.0461C63.1762 13.0461 56.8371 17.1956 47.2067 14.5802C46.5309 14.3977 49.5315 4.38892 57.4926 1.49644C65.4537 -1.39605 72.2051 1.1788 76.5506 6.4096C76.5506 6.4096 81.9571 9.46429 82.1531 14.8438C82.3491 20.2233 77.9495 26.2921 76.3816 26.1772Z" fill="#263238"/>
<path d="M79.4972 23.4739C80.8401 21.2612 81.6188 18.7524 81.765 16.1681C81.9111 13.5839 81.4201 11.0033 80.3352 8.65329C76.6317 0.394832 63.3452 -2.88287 54.5799 2.96293C54.5799 2.96293 69.6505 0.259669 74.7462 7.05837C79.8418 13.8571 79.4972 23.4739 79.4972 23.4739Z" fill="#4797C8"/>
<path d="M74.0974 27.8734C74.0974 27.8734 78.0306 22.4669 80.4974 23.8185C82.9641 25.1701 79.95 33.1515 77.0034 34.1855C76.6353 34.3453 76.2386 34.4289 75.8373 34.4313C75.436 34.4338 75.0384 34.3549 74.6684 34.1996C74.2984 34.0443 73.9636 33.8156 73.6843 33.5275C73.405 33.2394 73.1869 32.8977 73.0431 32.523L74.0974 27.8734Z" fill="#F7A9A0"/>
<path d="M79.5783 26.1025C79.6256 26.1025 79.6323 26.1634 79.5783 26.1836C77.5103 26.9743 76.4019 28.8869 75.6112 30.8197C76.233 30.0763 77.071 29.6708 78.0779 30.4142C78.132 30.4548 78.0779 30.5359 78.0171 30.5224C77.6579 30.4004 77.2696 30.3934 76.9062 30.5025C76.5428 30.6115 76.2225 30.831 75.9897 31.1306C75.6058 31.631 75.2752 32.1701 75.003 32.739C74.9016 32.9215 74.5705 32.8201 74.6448 32.6106V32.5633C74.6651 29.9479 76.7601 26.3188 79.5783 26.1025Z" fill="#263238"/>
</svg>
