<svg width="233" height="237" viewBox="0 0 233 237" fill="none" xmlns="http://www.w3.org/2000/svg">
<path d="M93.431 75.2319C93.9979 93.8052 91.5621 116.179 100.78 133.146C107.994 146.417 121.643 154.68 135.491 159.594C165.939 170.398 207.338 168.949 225.785 138.133C233.135 125.818 232.694 101.386 218.352 93.5007C211.002 89.4794 202.603 89.0595 194.455 87.5161C183.767 85.5002 175.767 80.1666 170.191 70.8222C159.283 52.5534 160.112 38.5053 156.742 18.1052C156.101 14.3254 154.925 10.6401 150.915 7.71083C147.293 4.64672 142.904 2.62842 138.221 1.87322C134.177 0.470656 129.849 0.0883685 125.622 0.760297C116.603 2.39819 108.508 11.4591 101.872 17.2127C95.2368 22.9663 92.297 28.8249 92.423 37.8019C92.4965 50.2855 93.053 62.7587 93.431 75.2319Z" fill="#263238"/>
<path d="M91.8038 84.135C92.3707 67.0632 93.2842 50.0438 94.0821 32.9929C94.0821 32.8879 94.2396 32.8774 94.2396 32.9929C93.9981 47.041 93.9351 61.0785 93.5047 75.1266C93.0847 88.8912 91.7093 103.013 92.4547 116.777C94.2186 147.656 126.882 157.798 152.994 154.291C154.18 154.134 154.296 156.045 153.088 156.16C130.074 158.523 101.957 152.738 93.0847 128.201C88.2655 114.772 91.3313 98.1096 91.8038 84.135Z" fill="#263238"/>
<path d="M155.052 16.6038C155.064 16.5445 155.096 16.4911 155.143 16.4528C155.19 16.4145 155.248 16.3936 155.309 16.3936C155.37 16.3936 155.428 16.4145 155.475 16.4528C155.522 16.4911 155.554 16.5445 155.566 16.6038C157.666 33.5077 158.454 53.3514 169.215 67.4415C174.538 74.332 181.816 79.4552 190.098 82.1405C196.661 84.2403 203.433 83.9569 210.194 84.7653C236.61 87.9151 239.592 123.035 221.659 138.186C221.292 138.501 220.725 137.871 221.092 137.524C233.597 125.902 236.526 106.278 224.589 92.9443C215.013 82.2455 198.55 87.1277 186.203 81.899C160.616 71.0637 156.406 41.2667 155.052 16.6038Z" fill="#263238"/>
<path d="M152.333 88.6606C179.767 116.473 214.279 174.986 207.853 186.84C200.682 200.058 162.475 161.064 162.622 158.785C162.738 157.064 149.288 121.523 139.093 95.6741C128.898 69.8248 145.54 81.7415 152.333 88.6606Z" fill="#F7A9A0"/>
<path d="M162.37 158.785C161.194 154.985 142.904 108.126 137.675 93.3011C132.447 78.476 137.297 73.8983 152.227 87.4739C167.157 101.05 199.894 146.386 207.359 170.418C214.562 193.601 202.624 193.601 186.875 182.913C173.982 174.209 162.37 158.785 162.37 158.785Z" fill="#4797C8"/>
<path d="M135.712 85.3006C135.712 85.5736 135.765 85.8466 135.807 86.1406C135.895 86.2674 136.013 86.3709 136.15 86.4423C136.287 86.5136 136.44 86.5506 136.594 86.55C136.765 86.5496 136.933 86.5023 137.079 86.4131C137.225 86.324 137.344 86.1965 137.422 86.0445C137.501 85.8926 137.536 85.7219 137.524 85.5513C137.513 85.3806 137.454 85.2165 137.356 85.0767C137.257 84.937 137.122 84.827 136.965 84.7587C136.808 84.6905 136.635 84.6666 136.466 84.6897C136.296 84.7128 136.137 84.782 136.004 84.8897C135.871 84.9974 135.77 85.1396 135.712 85.3006ZM166.843 104.913C167.031 104.911 167.215 104.965 167.372 105.068C167.529 105.171 167.651 105.319 167.724 105.492C167.797 105.665 167.817 105.856 167.781 106.04C167.744 106.224 167.654 106.394 167.521 106.526C167.389 106.659 167.219 106.749 167.035 106.785C166.851 106.822 166.66 106.802 166.487 106.729C166.314 106.656 166.166 106.534 166.063 106.377C165.96 106.22 165.906 106.036 165.908 105.848C165.908 105.6 166.007 105.362 166.182 105.187C166.357 105.012 166.595 104.913 166.843 104.913ZM151.724 104.913C151.911 104.913 152.094 104.969 152.25 105.073C152.405 105.178 152.527 105.326 152.598 105.499C152.669 105.672 152.687 105.863 152.65 106.047C152.612 106.23 152.521 106.398 152.388 106.53C152.255 106.662 152.086 106.751 151.902 106.786C151.718 106.822 151.527 106.801 151.355 106.728C151.182 106.655 151.036 106.532 150.933 106.376C150.83 106.219 150.777 106.035 150.779 105.848C150.779 105.724 150.803 105.602 150.851 105.488C150.899 105.374 150.968 105.27 151.056 105.183C151.144 105.096 151.248 105.028 151.363 104.981C151.478 104.935 151.6 104.912 151.724 104.913ZM159.283 95.2225C159.471 95.2225 159.654 95.2782 159.809 95.3825C159.965 95.4868 160.086 95.635 160.157 95.8082C160.228 95.9815 160.247 96.172 160.209 96.3556C160.172 96.5392 160.081 96.7076 159.948 96.8393C159.814 96.971 159.645 97.0602 159.461 97.0954C159.277 97.1307 159.087 97.1105 158.914 97.0373C158.742 96.9642 158.595 96.8415 158.492 96.6847C158.39 96.5279 158.336 96.3442 158.338 96.1569C158.338 96.0333 158.363 95.9109 158.41 95.7969C158.458 95.6828 158.528 95.5793 158.616 95.4924C158.704 95.4055 158.808 95.3369 158.922 95.2905C159.037 95.2442 159.16 95.2211 159.283 95.2225ZM144.154 95.2225C144.342 95.2204 144.526 95.2743 144.683 95.3773C144.84 95.4803 144.962 95.6278 145.035 95.8009C145.108 95.974 145.128 96.1649 145.092 96.3491C145.055 96.5334 144.965 96.7027 144.832 96.8355C144.7 96.9683 144.53 97.0585 144.346 97.0946C144.162 97.1308 143.971 97.1112 143.798 97.0383C143.625 96.9655 143.477 96.8428 143.374 96.6858C143.271 96.5288 143.217 96.3447 143.219 96.1569C143.219 95.9091 143.318 95.6714 143.493 95.4962C143.668 95.3209 143.906 95.2225 144.154 95.2225ZM181.951 125.145C182.139 125.143 182.323 125.197 182.48 125.3C182.637 125.403 182.76 125.551 182.833 125.724C182.906 125.897 182.925 126.088 182.889 126.272C182.853 126.456 182.763 126.626 182.63 126.759C182.497 126.891 182.328 126.982 182.144 127.018C181.959 127.054 181.768 127.034 181.595 126.961C181.422 126.889 181.275 126.766 181.172 126.609C181.069 126.452 181.015 126.268 181.017 126.08C181.017 125.956 181.041 125.834 181.089 125.72C181.137 125.606 181.206 125.502 181.294 125.415C181.382 125.329 181.486 125.26 181.601 125.214C181.716 125.167 181.838 125.144 181.962 125.145H181.951ZM166.832 125.145C167.02 125.143 167.204 125.197 167.361 125.3C167.518 125.403 167.641 125.551 167.714 125.724C167.787 125.897 167.806 126.088 167.77 126.272C167.734 126.456 167.644 126.626 167.511 126.759C167.378 126.891 167.209 126.982 167.025 127.018C166.84 127.054 166.649 127.034 166.476 126.961C166.303 126.889 166.156 126.766 166.053 126.609C165.95 126.452 165.896 126.268 165.898 126.08C165.898 125.956 165.922 125.834 165.97 125.72C166.018 125.606 166.087 125.502 166.175 125.415C166.263 125.329 166.367 125.26 166.482 125.214C166.597 125.167 166.719 125.144 166.843 125.145H166.832ZM151.713 125.145C151.901 125.145 152.084 125.201 152.239 125.305C152.395 125.41 152.516 125.558 152.587 125.731C152.658 125.905 152.677 126.095 152.639 126.279C152.602 126.462 152.511 126.631 152.378 126.762C152.244 126.894 152.075 126.983 151.891 127.018C151.707 127.054 151.517 127.034 151.344 126.96C151.172 126.887 151.025 126.764 150.922 126.608C150.82 126.451 150.766 126.267 150.768 126.08C150.768 125.955 150.793 125.832 150.841 125.717C150.89 125.603 150.96 125.499 151.049 125.412C151.138 125.325 151.244 125.256 151.36 125.21C151.476 125.165 151.599 125.143 151.724 125.145H151.713ZM174.392 115.455C174.58 115.453 174.764 115.506 174.921 115.609C175.078 115.713 175.2 115.86 175.273 116.033C175.346 116.206 175.366 116.397 175.33 116.581C175.293 116.766 175.203 116.935 175.07 117.068C174.938 117.2 174.768 117.291 174.584 117.327C174.4 117.363 174.209 117.343 174.036 117.27C173.863 117.198 173.715 117.075 173.612 116.918C173.509 116.761 173.455 116.577 173.457 116.389C173.457 116.265 173.482 116.143 173.529 116.029C173.577 115.915 173.647 115.811 173.735 115.725C173.823 115.638 173.927 115.569 174.041 115.523C174.156 115.476 174.279 115.453 174.402 115.455H174.392ZM159.273 115.455C159.46 115.455 159.643 115.51 159.799 115.615C159.954 115.719 160.076 115.867 160.147 116.04C160.218 116.214 160.236 116.404 160.199 116.588C160.161 116.771 160.07 116.94 159.937 117.071C159.804 117.203 159.635 117.292 159.451 117.328C159.267 117.363 159.076 117.343 158.904 117.27C158.731 117.196 158.585 117.074 158.482 116.917C158.379 116.76 158.326 116.576 158.328 116.389C158.328 116.265 158.353 116.141 158.401 116.027C158.449 115.912 158.52 115.808 158.609 115.721C158.698 115.634 158.803 115.565 158.919 115.52C159.035 115.474 159.159 115.452 159.283 115.455H159.273ZM181.962 145.357C182.15 145.355 182.334 145.408 182.491 145.512C182.648 145.615 182.77 145.762 182.843 145.935C182.916 146.108 182.936 146.299 182.9 146.483C182.863 146.668 182.773 146.837 182.64 146.97C182.508 147.102 182.338 147.193 182.154 147.229C181.97 147.265 181.779 147.245 181.606 147.173C181.433 147.1 181.285 146.977 181.182 146.82C181.079 146.663 181.025 146.479 181.027 146.291C181.027 146.043 181.126 145.806 181.301 145.63C181.476 145.455 181.714 145.357 181.962 145.357ZM166.843 145.357C167.031 145.355 167.215 145.408 167.372 145.512C167.529 145.615 167.651 145.762 167.724 145.935C167.797 146.108 167.817 146.299 167.781 146.483C167.744 146.668 167.654 146.837 167.521 146.97C167.389 147.102 167.219 147.193 167.035 147.229C166.851 147.265 166.66 147.245 166.487 147.173C166.314 147.1 166.166 146.977 166.063 146.82C165.96 146.663 165.906 146.479 165.908 146.291C165.908 146.043 166.007 145.806 166.182 145.63C166.357 145.455 166.595 145.357 166.843 145.357ZM189.521 135.687C189.709 135.687 189.892 135.743 190.047 135.847C190.203 135.951 190.324 136.099 190.395 136.273C190.466 136.446 190.485 136.636 190.447 136.82C190.41 137.004 190.319 137.172 190.186 137.304C190.052 137.435 189.883 137.525 189.699 137.56C189.515 137.595 189.325 137.575 189.152 137.502C188.98 137.429 188.833 137.306 188.731 137.149C188.628 136.992 188.574 136.809 188.576 136.621C188.576 136.498 188.601 136.375 188.648 136.261C188.696 136.147 188.766 136.044 188.854 135.957C188.942 135.87 189.046 135.801 189.16 135.755C189.275 135.709 189.398 135.685 189.521 135.687ZM174.392 135.687C174.58 135.685 174.764 135.739 174.921 135.842C175.078 135.945 175.2 136.092 175.273 136.265C175.346 136.438 175.366 136.629 175.33 136.813C175.293 136.998 175.203 137.167 175.07 137.3C174.938 137.433 174.768 137.523 174.584 137.559C174.4 137.595 174.209 137.575 174.036 137.503C173.863 137.43 173.715 137.307 173.612 137.15C173.509 136.993 173.455 136.809 173.457 136.621C173.457 136.498 173.482 136.375 173.529 136.261C173.577 136.147 173.647 136.044 173.735 135.957C173.823 135.87 173.927 135.801 174.041 135.755C174.156 135.709 174.279 135.685 174.402 135.687H174.392ZM159.273 135.687C159.46 135.687 159.643 135.743 159.799 135.847C159.954 135.951 160.076 136.099 160.147 136.273C160.218 136.446 160.236 136.636 160.199 136.82C160.161 137.004 160.07 137.172 159.937 137.304C159.804 137.435 159.635 137.525 159.451 137.56C159.267 137.595 159.076 137.575 158.904 137.502C158.731 137.429 158.585 137.306 158.482 137.149C158.379 136.992 158.326 136.809 158.328 136.621C158.328 136.497 158.353 136.373 158.401 136.259C158.449 136.144 158.52 136.04 158.609 135.953C158.698 135.866 158.803 135.798 158.919 135.752C159.035 135.706 159.159 135.684 159.283 135.687H159.273ZM197.07 165.61C197.255 165.612 197.434 165.668 197.587 165.772C197.739 165.876 197.857 166.023 197.926 166.194C197.995 166.365 198.012 166.552 197.975 166.733C197.938 166.913 197.848 167.079 197.717 167.209C197.586 167.338 197.419 167.426 197.238 167.461C197.057 167.497 196.87 167.478 196.7 167.407C196.53 167.335 196.384 167.216 196.282 167.062C196.18 166.909 196.125 166.729 196.125 166.544C196.125 166.419 196.15 166.295 196.199 166.179C196.248 166.064 196.32 165.959 196.41 165.872C196.5 165.785 196.607 165.717 196.724 165.672C196.841 165.627 196.966 165.606 197.091 165.61H197.07ZM181.941 165.61C182.126 165.61 182.306 165.665 182.46 165.767C182.614 165.87 182.733 166.016 182.804 166.187C182.875 166.357 182.893 166.545 182.857 166.727C182.821 166.908 182.732 167.074 182.602 167.205C182.471 167.336 182.304 167.425 182.123 167.461C181.942 167.497 181.754 167.478 181.583 167.408C181.412 167.337 181.267 167.217 181.164 167.063C181.061 166.91 181.006 166.729 181.006 166.544C181.006 166.42 181.031 166.297 181.079 166.182C181.128 166.067 181.198 165.963 181.287 165.876C181.376 165.789 181.482 165.721 181.598 165.675C181.714 165.629 181.837 165.607 181.962 165.61H181.941ZM189.521 155.919C189.709 155.919 189.892 155.975 190.047 156.079C190.203 156.183 190.324 156.331 190.395 156.505C190.466 156.678 190.485 156.869 190.447 157.052C190.41 157.236 190.319 157.404 190.186 157.536C190.052 157.668 189.883 157.757 189.699 157.792C189.515 157.827 189.325 157.807 189.152 157.734C188.98 157.661 188.833 157.538 188.731 157.381C188.628 157.224 188.574 157.041 188.576 156.853C188.576 156.73 188.601 156.607 188.648 156.493C188.696 156.379 188.766 156.276 188.854 156.189C188.942 156.102 189.046 156.033 189.16 155.987C189.275 155.941 189.398 155.918 189.521 155.919ZM174.392 155.919C174.58 155.917 174.764 155.971 174.921 156.074C175.078 156.177 175.2 156.324 175.273 156.497C175.346 156.67 175.366 156.861 175.33 157.046C175.293 157.23 175.203 157.399 175.07 157.532C174.938 157.665 174.768 157.755 174.584 157.791C174.4 157.827 174.209 157.808 174.036 157.735C173.863 157.662 173.715 157.539 173.612 157.382C173.509 157.225 173.455 157.041 173.457 156.853C173.457 156.73 173.482 156.607 173.529 156.493C173.577 156.379 173.647 156.276 173.735 156.189C173.823 156.102 173.927 156.033 174.041 155.987C174.156 155.941 174.279 155.918 174.402 155.919H174.392ZM197.081 185.842C197.265 185.844 197.445 185.901 197.597 186.005C197.749 186.108 197.867 186.255 197.937 186.426C198.006 186.597 198.023 186.785 197.986 186.965C197.948 187.146 197.858 187.311 197.727 187.441C197.596 187.57 197.43 187.658 197.249 187.694C197.068 187.729 196.88 187.71 196.71 187.639C196.54 187.568 196.395 187.448 196.293 187.294C196.19 187.141 196.136 186.961 196.136 186.776C196.136 186.652 196.161 186.529 196.209 186.414C196.257 186.299 196.328 186.195 196.417 186.108C196.506 186.021 196.611 185.953 196.727 185.907C196.843 185.861 196.967 185.839 197.091 185.842H197.081ZM204.64 176.151C204.828 176.149 205.012 176.203 205.169 176.306C205.326 176.409 205.449 176.557 205.522 176.73C205.595 176.903 205.614 177.094 205.578 177.278C205.542 177.462 205.452 177.631 205.319 177.764C205.186 177.897 205.017 177.987 204.833 178.023C204.648 178.059 204.457 178.04 204.284 177.967C204.111 177.894 203.964 177.771 203.861 177.614C203.758 177.457 203.704 177.273 203.706 177.086C203.706 176.962 203.73 176.84 203.778 176.726C203.826 176.611 203.895 176.508 203.983 176.421C204.071 176.334 204.175 176.266 204.29 176.219C204.405 176.173 204.527 176.15 204.651 176.151H204.64ZM189.521 176.151C189.709 176.151 189.892 176.207 190.047 176.311C190.203 176.415 190.324 176.564 190.395 176.737C190.466 176.91 190.485 177.101 190.447 177.284C190.41 177.468 190.319 177.636 190.186 177.768C190.052 177.9 189.883 177.989 189.699 178.024C189.515 178.059 189.325 178.039 189.152 177.966C188.98 177.893 188.833 177.77 188.731 177.613C188.628 177.457 188.574 177.273 188.576 177.086C188.576 176.962 188.601 176.84 188.648 176.726C188.696 176.611 188.766 176.508 188.854 176.421C188.942 176.334 189.046 176.266 189.16 176.219C189.275 176.173 189.398 176.15 189.521 176.151Z" fill="white"/>
<path d="M173.216 201.36L170.475 184.929L166.538 155.772C166.538 155.772 175.809 139.582 170.434 127.97C167.714 122.08 143.891 85.5106 133.875 78.1611C124.426 71.3261 110.776 78.6441 105.716 83.9882C86.124 104.609 76.8846 145.556 69.8501 201.329L173.216 201.36Z" fill="#F7A9A0"/>
<path d="M169.782 179.773L166.538 155.783C166.538 155.783 175.808 139.593 170.433 127.97C167.713 122.08 143.891 85.5107 133.874 78.1611C124.425 71.3366 110.776 78.6441 105.715 83.9988C88.7482 101.848 79.5403 134.962 72.8102 179.742L169.782 179.773Z" fill="#4797C8"/>
<path d="M129.57 155.289C134.144 154.888 138.742 154.829 143.324 155.111C145.592 155.279 147.85 155.551 150.107 155.877C151.23 156.034 152.354 156.16 153.488 156.276C154.666 156.423 155.858 156.423 157.036 156.276C157.049 156.271 157.063 156.27 157.076 156.271C157.09 156.273 157.103 156.278 157.114 156.286C157.125 156.293 157.134 156.304 157.14 156.316C157.146 156.328 157.15 156.341 157.15 156.355C157.15 156.368 157.146 156.382 157.14 156.394C157.134 156.406 157.125 156.416 157.114 156.424C157.103 156.431 157.09 156.436 157.076 156.438C157.063 156.44 157.049 156.438 157.036 156.433C155.94 156.686 154.828 156.865 153.708 156.969C152.621 157.042 151.53 157.042 150.443 156.969C148.133 156.822 145.834 156.559 143.524 156.391C138.873 156.034 134.221 155.688 129.549 155.667C129.499 155.664 129.452 155.642 129.419 155.604C129.385 155.567 129.368 155.518 129.371 155.467C129.374 155.417 129.396 155.37 129.434 155.337C129.471 155.303 129.52 155.286 129.57 155.289Z" fill="#263238"/>
<path d="M119.176 161.253C122.814 160.204 126.509 159.362 130.242 158.733C132.111 158.418 133.98 158.229 135.87 158.071C136.773 157.998 137.676 157.945 138.579 157.903C139.482 157.861 140.573 157.903 141.571 157.903C141.676 157.903 141.707 158.05 141.571 158.061C140.636 158.155 139.713 158.397 138.789 158.544L135.996 158.964C134.127 159.247 132.258 159.552 130.389 159.825C126.651 160.36 122.924 160.927 119.207 161.589C119.008 161.599 118.966 161.305 119.176 161.253Z" fill="#263238"/>
<path d="M170.475 184.929C169.95 180.057 169.425 175.175 168.805 170.314C168.186 165.452 167.65 160.57 166.999 155.709L166.905 156.056C168.299 154.071 169.445 151.924 170.317 149.661C171.212 147.418 171.86 145.084 172.249 142.7C172.627 140.309 172.733 137.882 172.564 135.466C172.292 133.055 171.691 130.692 170.779 128.442C168.964 124.027 166.71 119.806 164.049 115.843C161.453 111.849 158.62 108.013 155.566 104.357C158.39 108.179 161.036 112.137 163.514 116.179C166.012 120.183 168.151 124.399 169.908 128.778C170.771 130.948 171.329 133.227 171.567 135.55C171.698 137.883 171.582 140.224 171.22 142.532C170.864 144.849 170.255 147.12 169.404 149.304C168.584 151.494 167.498 153.575 166.17 155.499L166.065 155.657V155.835C166.716 160.696 167.482 165.536 168.165 170.398C168.847 175.259 169.687 180.088 170.475 184.929Z" fill="#263238"/>
<path d="M163.514 115.822C163.459 115.169 163.328 114.524 163.125 113.901C162.934 113.279 162.706 112.669 162.443 112.074C162.181 111.486 161.908 110.898 161.593 110.331C161.279 109.759 160.928 109.209 160.543 108.683C160.942 109.932 161.456 111.108 161.96 112.284C162.464 113.46 163.02 114.615 163.514 115.822Z" fill="#263238"/>
<path d="M207.853 186.797C201.68 195.638 184.87 197.297 142.926 205.539C137.13 206.673 118.126 167.878 124.226 166.355C131.954 164.423 162.349 158.607 164.628 158.46C183.831 157.231 212.043 180.813 207.853 186.797Z" fill="#F7A9A0"/>
<path d="M132.614 164.434C132.614 164.434 114.839 167.111 105.946 171.416C94.0294 177.17 86.1129 187.05 83.0471 191.365C76.6425 200.426 67.4241 226.747 74.5532 230.727C80.9892 234.328 89.0527 206.946 89.0527 206.946C89.0527 206.946 76.2225 233.509 84.7795 236.417C93.3364 239.326 100.896 207.019 100.896 207.019C100.896 207.019 88.2968 234.601 97.6201 236.207C104.644 237.425 113.138 208.531 113.138 208.531C113.138 208.531 102.502 232.323 109.673 233.877C117.6 235.651 127.102 209.403 127.102 209.403C146.001 210.295 155.366 202.988 161.414 197.003C162.873 195.575 132.614 164.434 132.614 164.434Z" fill="#F7A9A0"/>
<path d="M92.9277 197.496C91.3108 200.562 89.6414 203.649 88.308 206.851C86.9746 210.053 85.7357 213.298 84.6963 216.605C83.2471 220.905 82.3028 225.358 81.8824 229.876C83.2264 221.918 87.8566 210.389 89.232 207.187C90.6074 203.985 91.7518 200.73 93.0957 197.538C93.0642 197.454 92.9277 197.423 92.9277 197.496Z" fill="#263238"/>
<path d="M104.55 202.127C102.65 206.138 100.613 210.044 98.8909 214.128C97.169 218.212 95.9091 222.212 94.4812 226.391C94.3657 226.706 94.5757 226.664 94.7017 226.339C96.2976 222.223 98.093 218.548 99.7309 214.443C101.369 210.338 102.881 206.19 104.645 202.169C104.676 202.106 104.571 202.054 104.55 202.127Z" fill="#263238"/>
<path d="M115.249 204.31C112.19 210.383 109.766 216.755 108.015 223.325C107.91 223.64 108.183 223.556 108.298 223.23C110.587 216.868 112.33 211.859 115.459 204.426C115.511 204.31 115.322 204.153 115.249 204.31Z" fill="#263238"/>
<path d="M95.4153 178.178C93.3435 179.524 91.4093 181.072 89.6407 182.797C87.8449 184.5 86.1877 186.343 84.685 188.31C83.9185 189.286 83.2361 190.315 82.5221 191.333C81.8082 192.352 81.1887 193.433 80.6533 194.483C79.4669 196.655 78.5031 198.942 77.7765 201.308C78.3959 200.258 78.8264 199.092 79.5088 198.053L80.3908 196.447C80.6953 195.922 81.0312 195.397 81.3462 194.893C82.6397 192.822 84.0415 190.821 85.5459 188.898C87.0158 186.966 88.6012 185.107 90.2391 183.312C91.0686 182.409 91.9085 181.527 92.7799 180.666C93.6514 179.805 94.5018 179.007 95.4153 178.178Z" fill="#263238"/>
<path d="M128.908 164.434L165.656 205.381C165.656 205.381 202.813 196.845 208.283 187.323C211.884 181.023 183.914 155.646 162.8 158.607L128.908 164.434Z" fill="#4797C8"/>
<path d="M181.028 166.544C181.025 166.732 181.079 166.916 181.182 167.073C181.285 167.23 181.433 167.353 181.606 167.426C181.779 167.499 181.97 167.518 182.154 167.482C182.338 167.446 182.508 167.356 182.641 167.223C182.773 167.09 182.864 166.921 182.9 166.737C182.936 166.552 182.916 166.361 182.843 166.188C182.771 166.015 182.648 165.868 182.491 165.765C182.334 165.662 182.15 165.608 181.962 165.61C181.714 165.61 181.476 165.708 181.301 165.884C181.126 166.059 181.028 166.297 181.028 166.544ZM166.843 165.61C167.028 165.61 167.208 165.665 167.362 165.767C167.516 165.87 167.636 166.016 167.706 166.187C167.777 166.358 167.795 166.545 167.759 166.727C167.723 166.908 167.634 167.074 167.504 167.205C167.373 167.336 167.206 167.425 167.025 167.461C166.844 167.497 166.656 167.478 166.485 167.408C166.315 167.337 166.169 167.217 166.066 167.064C165.963 166.91 165.908 166.729 165.908 166.544C165.908 166.297 166.007 166.059 166.182 165.884C166.357 165.708 166.595 165.61 166.843 165.61ZM151.724 165.61C151.908 165.612 152.088 165.669 152.24 165.772C152.392 165.876 152.511 166.023 152.58 166.194C152.649 166.365 152.666 166.552 152.629 166.733C152.591 166.914 152.502 167.079 152.37 167.209C152.239 167.338 152.073 167.426 151.892 167.462C151.711 167.497 151.524 167.478 151.353 167.407C151.183 167.336 151.038 167.216 150.936 167.062C150.834 166.909 150.779 166.729 150.779 166.544C150.779 166.421 150.803 166.298 150.851 166.184C150.899 166.07 150.968 165.967 151.056 165.88C151.144 165.793 151.249 165.724 151.363 165.678C151.478 165.632 151.6 165.609 151.724 165.61ZM136.594 165.61C136.779 165.61 136.96 165.665 137.114 165.767C137.267 165.87 137.387 166.016 137.458 166.187C137.528 166.358 137.547 166.545 137.511 166.727C137.475 166.908 137.386 167.074 137.255 167.205C137.125 167.336 136.958 167.425 136.777 167.461C136.595 167.497 136.408 167.478 136.237 167.408C136.066 167.337 135.92 167.217 135.817 167.064C135.715 166.91 135.66 166.729 135.66 166.544C135.66 166.297 135.758 166.059 135.934 165.884C136.109 165.708 136.347 165.61 136.594 165.61ZM197.091 185.842C197.276 185.844 197.455 185.901 197.608 186.005C197.76 186.109 197.878 186.255 197.947 186.426C198.016 186.597 198.033 186.785 197.996 186.965C197.959 187.146 197.869 187.311 197.738 187.441C197.607 187.571 197.44 187.658 197.259 187.694C197.078 187.729 196.891 187.71 196.721 187.639C196.551 187.568 196.406 187.448 196.303 187.295C196.201 187.141 196.147 186.961 196.147 186.777C196.146 186.653 196.171 186.531 196.219 186.416C196.266 186.302 196.336 186.199 196.424 186.112C196.512 186.025 196.616 185.957 196.731 185.91C196.845 185.864 196.968 185.841 197.091 185.842ZM181.962 185.842C182.147 185.842 182.327 185.897 182.481 186C182.635 186.102 182.755 186.248 182.825 186.419C182.896 186.59 182.914 186.778 182.878 186.959C182.842 187.14 182.753 187.307 182.623 187.437C182.492 187.568 182.326 187.657 182.144 187.693C181.963 187.729 181.775 187.711 181.604 187.64C181.434 187.569 181.288 187.449 181.185 187.296C181.082 187.142 181.028 186.961 181.028 186.777C181.028 186.529 181.126 186.291 181.301 186.116C181.476 185.941 181.714 185.842 181.962 185.842ZM166.843 185.842C167.028 185.842 167.208 185.897 167.362 186C167.516 186.102 167.636 186.248 167.706 186.419C167.777 186.59 167.795 186.778 167.759 186.959C167.723 187.14 167.634 187.307 167.504 187.437C167.373 187.568 167.206 187.657 167.025 187.693C166.844 187.729 166.656 187.711 166.485 187.64C166.315 187.569 166.169 187.449 166.066 187.296C165.963 187.142 165.908 186.961 165.908 186.777C165.908 186.529 166.007 186.291 166.182 186.116C166.357 185.941 166.595 185.842 166.843 185.842ZM151.724 185.842C151.908 185.844 152.088 185.901 152.24 186.005C152.392 186.109 152.511 186.255 152.58 186.426C152.649 186.597 152.666 186.785 152.629 186.965C152.591 187.146 152.502 187.311 152.37 187.441C152.239 187.571 152.073 187.658 151.892 187.694C151.711 187.729 151.524 187.71 151.353 187.639C151.183 187.568 151.038 187.448 150.936 187.295C150.834 187.141 150.779 186.961 150.779 186.777C150.779 186.653 150.803 186.531 150.851 186.416C150.899 186.302 150.968 186.199 151.056 186.112C151.144 186.025 151.249 185.957 151.363 185.91C151.478 185.864 151.6 185.841 151.724 185.842ZM189.521 176.151C189.709 176.151 189.892 176.207 190.048 176.311C190.203 176.416 190.324 176.564 190.395 176.737C190.467 176.91 190.485 177.101 190.447 177.284C190.41 177.468 190.319 177.636 190.186 177.768C190.053 177.9 189.883 177.989 189.699 178.024C189.515 178.059 189.325 178.039 189.153 177.966C188.98 177.893 188.833 177.77 188.731 177.613C188.628 177.457 188.574 177.273 188.577 177.086C188.577 176.962 188.601 176.84 188.649 176.726C188.696 176.612 188.766 176.508 188.854 176.421C188.942 176.334 189.046 176.266 189.161 176.219C189.275 176.173 189.398 176.15 189.521 176.151ZM174.392 176.151C174.58 176.149 174.764 176.203 174.921 176.306C175.078 176.409 175.201 176.557 175.273 176.73C175.346 176.903 175.366 177.094 175.33 177.278C175.294 177.462 175.203 177.631 175.071 177.764C174.938 177.897 174.768 177.987 174.584 178.023C174.4 178.06 174.209 178.04 174.036 177.967C173.863 177.894 173.715 177.772 173.612 177.615C173.509 177.458 173.455 177.273 173.457 177.086C173.457 176.962 173.482 176.84 173.53 176.726C173.577 176.612 173.647 176.508 173.735 176.421C173.823 176.334 173.927 176.266 174.042 176.219C174.156 176.173 174.279 176.15 174.402 176.151H174.392ZM159.273 176.151C159.46 176.151 159.643 176.207 159.799 176.311C159.955 176.416 160.076 176.564 160.147 176.737C160.218 176.91 160.236 177.101 160.199 177.284C160.162 177.468 160.071 177.636 159.937 177.768C159.804 177.9 159.635 177.989 159.451 178.024C159.267 178.059 159.076 178.039 158.904 177.966C158.732 177.893 158.585 177.77 158.482 177.613C158.38 177.457 158.326 177.273 158.328 177.086C158.328 176.961 158.353 176.838 158.401 176.723C158.449 176.608 158.52 176.504 158.609 176.417C158.698 176.33 158.804 176.262 158.919 176.216C159.035 176.171 159.159 176.148 159.283 176.151H159.273ZM144.143 176.151C144.331 176.149 144.515 176.203 144.672 176.306C144.829 176.409 144.952 176.557 145.025 176.73C145.098 176.903 145.117 177.094 145.081 177.278C145.045 177.462 144.955 177.631 144.822 177.764C144.689 177.897 144.52 177.987 144.336 178.023C144.151 178.06 143.961 178.04 143.787 177.967C143.614 177.894 143.467 177.772 143.364 177.615C143.261 177.458 143.207 177.273 143.209 177.086C143.209 176.962 143.234 176.84 143.281 176.726C143.329 176.612 143.399 176.508 143.486 176.421C143.574 176.334 143.679 176.266 143.793 176.219C143.908 176.173 144.03 176.15 144.154 176.151H144.143ZM189.521 196.383C189.709 196.383 189.892 196.439 190.048 196.543C190.203 196.648 190.324 196.796 190.395 196.969C190.467 197.142 190.485 197.333 190.447 197.517C190.41 197.7 190.319 197.869 190.186 198C190.053 198.132 189.883 198.221 189.699 198.256C189.515 198.292 189.325 198.271 189.153 198.198C188.98 198.125 188.833 198.002 188.731 197.846C188.628 197.689 188.574 197.505 188.577 197.318C188.577 197.194 188.601 197.072 188.649 196.958C188.696 196.844 188.766 196.74 188.854 196.653C188.942 196.566 189.046 196.498 189.161 196.451C189.275 196.405 189.398 196.382 189.521 196.383ZM174.392 196.383C174.58 196.381 174.764 196.435 174.921 196.538C175.078 196.641 175.201 196.789 175.273 196.962C175.346 197.135 175.366 197.326 175.33 197.51C175.294 197.694 175.203 197.864 175.071 197.996C174.938 198.129 174.768 198.219 174.584 198.256C174.4 198.292 174.209 198.272 174.036 198.199C173.863 198.126 173.715 198.004 173.612 197.847C173.509 197.69 173.455 197.506 173.457 197.318C173.457 197.194 173.482 197.072 173.53 196.958C173.577 196.844 173.647 196.74 173.735 196.653C173.823 196.566 173.927 196.498 174.042 196.451C174.156 196.405 174.279 196.382 174.402 196.383H174.392ZM159.262 196.383C159.513 196.383 159.753 196.483 159.931 196.66C160.108 196.837 160.207 197.078 160.207 197.328C160.207 197.452 160.183 197.574 160.135 197.688C160.088 197.802 160.018 197.906 159.93 197.993C159.842 198.08 159.738 198.148 159.623 198.195C159.509 198.241 159.386 198.264 159.262 198.263L158.339 197.213C158.364 196.983 158.474 196.77 158.646 196.615C158.818 196.46 159.041 196.374 159.273 196.373L159.262 196.383Z" fill="white"/>
<path d="M187.977 165.232C184.576 162.765 174.99 157.011 162.779 158.544C162.674 158.544 162.663 158.733 162.779 158.722C171.997 158.46 184.439 163.279 187.977 165.379C187.988 165.431 188.061 165.305 187.977 165.232Z" fill="#263238"/>
<path d="M175.693 198.494C171.893 193.78 167.85 189.275 163.787 184.782C159.724 180.288 155.671 175.773 151.493 171.374C149.141 168.886 146.789 166.387 144.342 164.025C144.279 163.962 144.164 164.025 144.217 164.13C148.007 168.833 152.049 173.369 156.07 177.884C160.091 182.398 164.186 186.892 168.302 191.344C170.633 193.853 173.006 196.321 175.452 198.693C175.578 198.809 175.798 198.63 175.693 198.494Z" fill="#263238"/>
<path d="M128.834 163.899C131.092 163.22 133.393 162.697 135.722 162.334C138.042 161.893 140.373 161.505 142.694 161.127C147.324 160.381 157.057 158.281 165.614 158.302C165.708 158.302 165.225 158.764 165.131 158.764C161.057 158.544 131.869 164.35 129.433 164.518C129.531 164.673 129.618 164.835 129.695 165.001C129.695 165.127 129.622 165.274 129.496 165.19C129.191 164.99 128.981 164.738 128.698 164.518C128.644 164.478 128.602 164.424 128.578 164.361C128.555 164.298 128.55 164.229 128.564 164.164C128.579 164.098 128.612 164.038 128.66 163.991C128.708 163.944 128.769 163.912 128.834 163.899Z" fill="#263238"/>
<path d="M99.0171 86.5602C63.9074 117.187 36.2942 155.026 38.1211 164.486C41.4284 182.104 64.5794 183.206 68.1281 179.395C82.3442 163.993 97.3477 134.154 113.601 100.86C128.121 71.1052 110.577 76.4914 99.0171 86.5602Z" fill="#4797C8"/>
<path d="M105.411 85.6156C105.409 85.8034 105.463 85.9875 105.566 86.1445C105.669 86.3015 105.816 86.4243 105.989 86.4971C106.162 86.5699 106.353 86.5895 106.537 86.5534C106.722 86.5172 106.891 86.427 107.024 86.2943C107.157 86.1615 107.247 85.9921 107.283 85.8079C107.319 85.6236 107.299 85.4327 107.227 85.2597C107.154 85.0866 107.031 84.9391 106.874 84.8361C106.717 84.733 106.533 84.6791 106.345 84.6812C106.097 84.6812 105.86 84.7797 105.684 84.9549C105.509 85.1301 105.411 85.3678 105.411 85.6156ZM106.345 104.913C106.533 104.911 106.717 104.965 106.874 105.068C107.031 105.171 107.154 105.319 107.227 105.492C107.299 105.665 107.319 105.856 107.283 106.04C107.247 106.224 107.157 106.394 107.024 106.526C106.891 106.659 106.722 106.749 106.537 106.786C106.353 106.822 106.162 106.802 105.989 106.729C105.816 106.656 105.669 106.534 105.566 106.377C105.463 106.22 105.409 106.036 105.411 105.848C105.411 105.6 105.509 105.362 105.684 105.187C105.86 105.012 106.097 104.913 106.345 104.913ZM91.2262 104.913C91.4136 104.913 91.5967 104.969 91.7523 105.073C91.9079 105.178 92.029 105.326 92.1002 105.499C92.1714 105.672 92.1895 105.863 92.1522 106.047C92.1148 106.23 92.0238 106.398 91.8906 106.53C91.7574 106.662 91.588 106.751 91.4041 106.786C91.2201 106.822 91.0297 106.801 90.8573 106.728C90.6848 106.655 90.538 106.532 90.4354 106.376C90.3329 106.219 90.2792 106.035 90.2813 105.848C90.2813 105.724 90.3058 105.602 90.3534 105.488C90.401 105.374 90.4708 105.27 90.5587 105.183C90.6466 105.096 90.7508 105.028 90.8654 104.981C90.98 104.935 91.1026 104.912 91.2262 104.913ZM113.926 95.2225C114.113 95.2204 114.298 95.2743 114.455 95.3774C114.612 95.4804 114.734 95.6279 114.807 95.801C114.88 95.974 114.9 96.1649 114.863 96.3492C114.827 96.5335 114.737 96.7028 114.604 96.8356C114.472 96.9683 114.302 97.0586 114.118 97.0947C113.934 97.1308 113.743 97.1112 113.57 97.0384C113.397 96.9656 113.249 96.8428 113.146 96.6858C113.043 96.5288 112.989 96.3447 112.991 96.157C112.991 95.9091 113.09 95.6714 113.265 95.4962C113.44 95.321 113.678 95.2225 113.926 95.2225ZM98.8067 95.2225C98.9945 95.2204 99.1786 95.2743 99.3356 95.3774C99.4926 95.4804 99.6153 95.6279 99.6882 95.801C99.761 95.974 99.7806 96.1649 99.7444 96.3492C99.7083 96.5335 99.6181 96.7028 99.4853 96.8356C99.3525 96.9683 99.1832 97.0586 98.9989 97.0947C98.8147 97.1308 98.6238 97.1112 98.4507 97.0384C98.2777 96.9656 98.1302 96.8428 98.0272 96.6858C97.9241 96.5288 97.8702 96.3447 97.8723 96.157C97.8722 95.9127 97.9678 95.6782 98.1385 95.5035C98.3092 95.3289 98.5415 95.228 98.7857 95.2225H98.8067ZM91.2472 125.146C91.4345 125.146 91.6177 125.201 91.7733 125.306C91.9289 125.41 92.05 125.558 92.1212 125.731C92.1924 125.905 92.2105 126.095 92.1731 126.279C92.1358 126.462 92.0448 126.631 91.9116 126.762C91.7784 126.894 91.609 126.983 91.425 127.019C91.2411 127.054 91.0508 127.034 90.8783 126.96C90.7058 126.887 90.559 126.765 90.4564 126.608C90.3538 126.451 90.3002 126.267 90.3023 126.08C90.3023 125.834 90.3993 125.598 90.5723 125.423C90.7452 125.248 90.9802 125.148 91.2262 125.146H91.2472ZM76.1177 125.146C76.3055 125.143 76.4896 125.197 76.6466 125.3C76.8036 125.403 76.9263 125.551 76.9992 125.724C77.072 125.897 77.0916 126.088 77.0555 126.272C77.0193 126.456 76.9291 126.626 76.7963 126.759C76.6636 126.891 76.4942 126.982 76.3099 127.018C76.1257 127.054 75.9348 127.034 75.7617 126.961C75.5886 126.889 75.4412 126.766 75.3381 126.609C75.2351 126.452 75.1812 126.268 75.1833 126.08C75.1833 125.956 75.2078 125.834 75.2554 125.72C75.303 125.606 75.3728 125.502 75.4607 125.415C75.5485 125.329 75.6528 125.26 75.7674 125.214C75.882 125.167 76.0046 125.144 76.1282 125.146H76.1177ZM61.3242 125.198C61.503 125.266 61.6571 125.387 61.7658 125.544C61.8745 125.702 61.9329 125.889 61.9332 126.08C61.9332 126.328 61.8347 126.565 61.6595 126.741C61.4842 126.916 61.2465 127.014 60.9987 127.014C60.8367 127.014 60.6775 126.972 60.5361 126.893C60.3947 126.814 60.2757 126.701 60.1903 126.563L61.3242 125.198ZM98.8067 115.455C98.9945 115.453 99.1786 115.507 99.3356 115.61C99.4926 115.713 99.6153 115.86 99.6882 116.033C99.761 116.206 99.7806 116.397 99.7444 116.581C99.7083 116.766 99.6181 116.935 99.4853 117.068C99.3525 117.201 99.1832 117.291 98.9989 117.327C98.8147 117.363 98.6238 117.343 98.4507 117.271C98.2777 117.198 98.1302 117.075 98.0272 116.918C97.9241 116.761 97.8702 116.577 97.8723 116.389C97.8722 116.145 97.9678 115.91 98.1385 115.736C98.3092 115.561 98.5415 115.46 98.7857 115.455H98.8067ZM83.6877 115.455C83.8751 115.455 84.0582 115.51 84.2138 115.615C84.3694 115.719 84.4905 115.867 84.5617 116.04C84.6329 116.214 84.651 116.404 84.6137 116.588C84.5763 116.771 84.4853 116.94 84.3521 117.072C84.2189 117.203 84.0495 117.292 83.8656 117.328C83.6816 117.363 83.4912 117.343 83.3188 117.27C83.1463 117.196 82.9994 117.074 82.8969 116.917C82.7943 116.76 82.7407 116.576 82.7428 116.389C82.7427 116.143 82.8398 115.907 83.0127 115.732C83.1857 115.557 83.4207 115.457 83.6667 115.455H83.6877ZM69.3561 115.896C69.4452 116.045 69.4924 116.215 69.4926 116.389C69.494 116.513 69.4709 116.635 69.4245 116.75C69.3782 116.865 69.3096 116.969 69.2227 117.057C69.1358 117.145 69.0323 117.214 68.9182 117.262C68.8042 117.31 68.6818 117.334 68.5582 117.334C68.424 117.336 68.2912 117.307 68.1697 117.25C68.5372 116.788 68.9362 116.347 69.3352 115.896H69.3561ZM90.8272 145.441C90.6278 145.787 90.4493 146.134 90.2603 146.491C90.2554 146.438 90.2554 146.386 90.2603 146.333C90.2521 146.144 90.3021 145.957 90.4035 145.798C90.5049 145.638 90.6528 145.514 90.8272 145.441ZM76.1282 145.357C76.316 145.355 76.5001 145.409 76.6571 145.512C76.8141 145.615 76.9368 145.762 77.0096 145.935C77.0825 146.108 77.1021 146.299 77.0659 146.483C77.0298 146.668 76.9396 146.837 76.8068 146.97C76.674 147.103 76.5047 147.193 76.3204 147.229C76.1362 147.265 75.9453 147.245 75.7722 147.173C75.5991 147.1 75.4517 146.977 75.3486 146.82C75.2456 146.663 75.1917 146.479 75.1938 146.291C75.1938 146.043 75.2922 145.806 75.4675 145.63C75.6427 145.455 75.8804 145.357 76.1282 145.357ZM61.0092 145.357C61.197 145.355 61.3811 145.409 61.5381 145.512C61.6951 145.615 61.8178 145.762 61.8906 145.935C61.9635 146.108 61.9831 146.299 61.9469 146.483C61.9108 146.668 61.8206 146.837 61.6878 146.97C61.555 147.103 61.3857 147.193 61.2014 147.229C61.0172 147.265 60.8263 147.245 60.6532 147.173C60.4801 147.1 60.3327 146.977 60.2296 146.82C60.1266 146.663 60.0727 146.479 60.0748 146.291C60.0746 146.049 60.1688 145.816 60.3372 145.641C60.5057 145.467 60.7354 145.365 60.9777 145.357H61.0092ZM46.2472 145.42C46.4424 145.508 46.6019 145.66 46.6995 145.85C46.7971 146.041 46.8269 146.259 46.7842 146.469C46.7415 146.679 46.6287 146.868 46.4644 147.006C46.3 147.143 46.0939 147.221 45.8797 147.226C45.6439 147.226 45.4161 147.14 45.2392 146.984C45.5332 146.491 45.8692 145.966 46.2157 145.441L46.2472 145.42ZM83.6982 135.666C83.8855 135.666 84.0686 135.722 84.2243 135.826C84.3799 135.93 84.501 136.078 84.5722 136.252C84.6434 136.425 84.6615 136.615 84.6242 136.799C84.5868 136.983 84.4958 137.151 84.3626 137.283C84.2294 137.414 84.06 137.504 83.876 137.539C83.692 137.574 83.5018 137.554 83.3293 137.481C83.1568 137.408 83.0099 137.285 82.9074 137.128C82.8048 136.971 82.7512 136.788 82.7533 136.6C82.7586 136.36 82.8566 136.13 83.0267 135.96C83.1969 135.79 83.4261 135.692 83.6667 135.687L83.6982 135.666ZM68.5687 135.666C68.7565 135.664 68.9406 135.718 69.0976 135.821C69.2546 135.924 69.3773 136.071 69.4501 136.244C69.523 136.417 69.5426 136.608 69.5064 136.793C69.4703 136.977 69.3801 137.146 69.2473 137.279C69.1145 137.412 68.9452 137.502 68.7609 137.538C68.5767 137.574 68.3858 137.555 68.2127 137.482C68.0396 137.409 67.8922 137.286 67.7891 137.129C67.6861 136.972 67.6322 136.788 67.6343 136.6C67.6395 136.361 67.736 136.134 67.9039 135.964C68.0719 135.794 68.2985 135.695 68.5372 135.687L68.5687 135.666ZM52.5153 136.411L52.9562 135.834C53.0993 135.75 53.2627 135.706 53.4287 135.708C53.6608 135.732 53.8756 135.842 54.0317 136.016C54.1878 136.189 54.2742 136.414 54.2742 136.648C54.2742 136.881 54.1878 137.106 54.0317 137.28C53.8756 137.453 53.6608 137.563 53.4287 137.587C53.1807 137.585 52.9435 137.486 52.7671 137.311C52.5908 137.137 52.4892 136.901 52.4838 136.653C52.4774 136.579 52.4774 136.506 52.4838 136.432L52.5153 136.411ZM76.1282 165.61C76.313 165.61 76.4937 165.665 76.6473 165.767C76.801 165.87 76.9208 166.016 76.9915 166.187C77.0623 166.357 77.0807 166.545 77.0447 166.727C77.0086 166.908 76.9196 167.074 76.789 167.205C76.6583 167.336 76.4918 167.425 76.3105 167.461C76.1293 167.497 75.9414 167.478 75.7706 167.408C75.5999 167.337 75.4539 167.217 75.3512 167.063C75.2486 166.91 75.1938 166.729 75.1938 166.544C75.1938 166.296 75.2922 166.059 75.4675 165.884C75.6427 165.708 75.8804 165.61 76.1282 165.61ZM61.0092 165.61C61.194 165.61 61.3747 165.665 61.5283 165.767C61.682 165.87 61.8018 166.016 61.8725 166.187C61.9432 166.357 61.9617 166.545 61.9257 166.727C61.8896 166.908 61.8006 167.074 61.67 167.205C61.5393 167.336 61.3728 167.425 61.1915 167.461C61.0102 167.497 60.8223 167.478 60.6516 167.408C60.4808 167.337 60.3349 167.217 60.2322 167.063C60.1296 166.91 60.0748 166.729 60.0748 166.544C60.0746 166.302 60.1688 166.069 60.3372 165.894C60.5057 165.72 60.7354 165.618 60.9777 165.61H61.0092ZM45.8797 165.61C46.0645 165.61 46.2452 165.665 46.3988 165.767C46.5525 165.87 46.6723 166.016 46.743 166.187C46.8137 166.357 46.8322 166.545 46.7962 166.727C46.7601 166.908 46.6711 167.074 46.5405 167.205C46.4098 167.336 46.2432 167.425 46.062 167.461C45.8807 167.497 45.6929 167.478 45.5221 167.408C45.3514 167.337 45.2054 167.217 45.1027 167.063C45 166.91 44.9452 166.729 44.9452 166.544C44.9451 166.302 45.0392 166.069 45.2077 165.894C45.3762 165.72 45.6059 165.618 45.8482 165.61H45.8797ZM83.6772 155.919C83.8646 155.919 84.0477 155.975 84.2033 156.079C84.3589 156.183 84.48 156.332 84.5512 156.505C84.6224 156.678 84.6405 156.869 84.6031 157.052C84.5658 157.236 84.4748 157.404 84.3416 157.536C84.2084 157.668 84.039 157.757 83.855 157.792C83.6711 157.827 83.4807 157.807 83.3083 157.734C83.1358 157.661 82.989 157.538 82.8864 157.381C82.7838 157.224 82.7302 157.041 82.7323 156.853C82.7323 156.606 82.8307 156.368 83.006 156.193C83.1812 156.017 83.4189 155.919 83.6667 155.919H83.6772ZM68.5477 155.919C68.7355 155.917 68.9196 155.971 69.0766 156.074C69.2336 156.177 69.3563 156.324 69.4291 156.497C69.5019 156.671 69.5216 156.861 69.4854 157.046C69.4493 157.23 69.3591 157.399 69.2263 157.532C69.0935 157.665 68.9242 157.755 68.7399 157.791C68.5556 157.827 68.3648 157.808 68.1917 157.735C68.0186 157.662 67.8712 157.539 67.7681 157.382C67.6651 157.225 67.6112 157.041 67.6133 156.853C67.6133 156.607 67.7103 156.371 67.8832 156.196C68.0562 156.021 68.2912 155.922 68.5372 155.919H68.5477ZM53.4287 155.919C53.616 155.919 53.7991 155.975 53.9548 156.079C54.1104 156.183 54.2315 156.332 54.3027 156.505C54.3739 156.678 54.392 156.869 54.3546 157.052C54.3173 157.236 54.2263 157.404 54.0931 157.536C53.9599 157.668 53.7905 157.757 53.6065 157.792C53.4225 157.827 53.2322 157.807 53.0597 157.734C52.8873 157.661 52.7404 157.538 52.6379 157.381C52.5353 157.224 52.4817 157.041 52.4838 156.853C52.4838 156.606 52.5822 156.368 52.7574 156.193C52.9327 156.017 53.1704 155.919 53.4182 155.919H53.4287ZM68.5477 176.151C68.7355 176.149 68.9196 176.203 69.0766 176.306C69.2336 176.409 69.3563 176.557 69.4291 176.73C69.5019 176.903 69.5216 177.094 69.4854 177.278C69.4493 177.462 69.3591 177.631 69.2263 177.764C69.0935 177.897 68.9242 177.987 68.7399 178.023C68.5556 178.059 68.3648 178.04 68.1917 177.967C68.0186 177.894 67.8712 177.771 67.7681 177.615C67.6651 177.458 67.6112 177.273 67.6133 177.086C67.6133 176.84 67.7103 176.604 67.8832 176.429C68.0562 176.254 68.2912 176.154 68.5372 176.151H68.5477ZM53.4287 176.151C53.616 176.151 53.7991 176.207 53.9548 176.311C54.1104 176.415 54.2315 176.564 54.3027 176.737C54.3739 176.91 54.392 177.101 54.3546 177.284C54.3173 177.468 54.2263 177.636 54.0931 177.768C53.9599 177.9 53.7905 177.989 53.6065 178.024C53.4225 178.059 53.2322 178.039 53.0597 177.966C52.8873 177.893 52.7404 177.77 52.6379 177.613C52.5353 177.457 52.4817 177.273 52.4838 177.086C52.4838 176.838 52.5822 176.6 52.7574 176.425C52.9327 176.25 53.1704 176.151 53.4182 176.151H53.4287Z" fill="white"/>
<path d="M73.9241 172.519C76.4965 168.529 78.9218 164.413 81.3787 160.339C83.8355 156.266 86.2713 152.171 88.6652 148.055C93.3899 139.918 97.7786 131.603 102.01 123.203C104.404 118.447 106.839 113.754 109.118 108.903C109.191 108.746 109.443 108.903 109.391 109.019C107.186 114.618 104.813 120.127 102.272 125.545L102.377 125.408C102.944 124.642 103.511 123.875 104.068 123.098C105.17 121.565 106.168 120.001 107.217 118.395C107.291 118.269 107.49 118.395 107.417 118.521C106.281 120.706 104.997 122.81 103.574 124.82C102.879 125.76 102.128 126.657 101.327 127.508L101.254 127.571C100.088 129.986 98.902 132.39 97.6526 134.774C93.2948 143.239 88.5151 151.481 83.3315 159.468C81.8616 161.704 80.3812 163.93 78.8378 166.124C77.2944 168.319 75.688 170.44 74.0501 172.603C74.0291 172.739 73.8402 172.655 73.9241 172.519Z" fill="#263238"/>
<path d="M62.3117 175.983C68.9683 166.439 65.6295 147.457 58.28 101.89C57.2301 95.5899 9.41621 95.0965 10.1512 101.89C11.0751 110.436 19.6005 144.212 21.8159 149.136C32.7037 173.495 57.8075 182.461 62.3117 175.983Z" fill="#F7A9A0"/>
<path d="M11.7046 107.769C9.72025 102.666 0.596352 74.3812 0.15538 67.2101C-0.285591 60.0391 -0.128109 39.303 5.33153 38.4C10.7912 37.4971 11.2216 43.5657 11.2216 43.5657C11.2216 43.5657 12.681 34.8198 18.2562 34.3998C23.8313 33.9798 24.1988 43.4607 24.1988 43.4607C24.1988 43.4607 26.3512 34.5888 31.9473 34.5783C37.5434 34.5678 36.231 44.1431 36.231 44.1431C36.231 44.1431 37.8269 35.9432 42.4361 37.8436C47.9797 40.1534 43.339 54.9469 44.4415 62.8214C44.6934 64.6168 52.085 98.729 52.085 98.729L11.7046 107.769Z" fill="#F7A9A0"/>
<path d="M36.3783 43.3246C32.9871 54.2124 33.386 59.5566 36.2838 70.3919C36.3363 70.6123 36.0318 70.7383 35.9583 70.5283C32.1576 60.1655 30.7087 53.53 35.8534 43.1356C36.1054 42.6212 36.5358 42.8102 36.3783 43.3246Z" fill="#263238"/>
<path d="M24.4609 42.6001C21.9306 54.2124 22.3086 60.0185 24.4609 71.5992C24.4609 71.7567 24.209 71.8302 24.167 71.6622C21.0172 60.4909 19.7468 53.8134 23.7995 42.5686C24.041 42.0542 24.5764 42.0752 24.4609 42.6001Z" fill="#263238"/>
<path d="M11.3266 44.1432C9.68868 55.5664 9.83567 61.992 13.4264 72.9113C13.4473 72.9642 13.4463 73.0232 13.4237 73.0754C13.401 73.1276 13.3586 73.1686 13.3057 73.1895C13.2528 73.2104 13.1938 73.2094 13.1416 73.1868C13.0894 73.1642 13.0483 73.1217 13.0275 73.0688C8.29226 62.244 8.05078 54.2855 10.9906 44.1327C11.1796 43.4397 11.4316 43.4292 11.3266 44.1432Z" fill="#263238"/>
<path d="M58.9723 107.654C58.9723 107.654 62.7625 93.8894 63.088 87.4638C63.4135 81.0383 55.833 56.6904 50.4888 58.0658C43.5698 59.7982 45.1762 74.7282 46.9191 81.9307C46.9191 81.9307 30.9181 85.9204 29.7527 96.8817C28.5873 107.843 58.9723 107.654 58.9723 107.654Z" fill="#F7A9A0"/>
<path d="M48.7252 59.126C43.5595 65.2471 46.4573 74.56 47.6752 81.6785C47.6982 81.7825 47.6957 81.8905 47.6679 81.9934C47.6402 82.0962 47.588 82.1908 47.5159 82.2691C47.4437 82.3475 47.3537 82.4072 47.2535 82.4433C47.1533 82.4794 47.0458 82.4908 46.9403 82.4765C40.3467 84.5763 31.6533 89.5005 29.5114 96.4825C29.4976 96.5199 29.471 96.5511 29.4363 96.5707C29.4016 96.5902 29.361 96.5967 29.3219 96.5892C29.2828 96.5816 29.2477 96.5604 29.2228 96.5293C29.1979 96.4983 29.1848 96.4594 29.186 96.4196C30.4669 88.6081 38.6353 83.0854 45.9849 81.2375C44.6724 73.951 42.1736 64.4386 48.7252 59.0735C48.7147 59.042 48.7672 59.084 48.7252 59.126Z" fill="#263238"/>
<path d="M9.39497 117.324L64.8838 133.073C64.8838 133.073 75.9501 169.442 68.9156 178.566C61.3876 188.32 26.4564 173.201 19.5058 151.95L9.39497 117.324Z" fill="#4797C8"/>
<path d="M29.7951 126.08C29.7951 126.265 29.8499 126.445 29.9526 126.599C30.0552 126.753 30.2012 126.873 30.3719 126.943C30.5427 127.014 30.7306 127.033 30.9118 126.996C31.0931 126.96 31.2596 126.871 31.3903 126.741C31.521 126.61 31.61 126.444 31.646 126.262C31.6821 126.081 31.6636 125.893 31.5928 125.722C31.5221 125.552 31.4023 125.406 31.2487 125.303C31.095 125.2 30.9144 125.146 30.7295 125.146C30.4817 125.146 30.244 125.244 30.0688 125.419C29.8935 125.595 29.7951 125.832 29.7951 126.08ZM15.6105 125.146C15.7978 125.146 15.9809 125.201 16.1366 125.306C16.2922 125.41 16.4133 125.558 16.4845 125.731C16.5557 125.905 16.5738 126.095 16.5365 126.279C16.4992 126.462 16.4081 126.631 16.2749 126.762C16.1417 126.894 15.9723 126.983 15.7883 127.019C15.6044 127.054 15.4141 127.034 15.2416 126.96C15.0691 126.887 14.9223 126.765 14.8197 126.608C14.7171 126.451 14.6635 126.267 14.6656 126.08C14.6656 125.956 14.6901 125.834 14.7377 125.72C14.7853 125.606 14.8551 125.502 14.943 125.416C15.0309 125.329 15.1351 125.26 15.2497 125.214C15.3643 125.167 15.4869 125.144 15.6105 125.146ZM60.9781 145.357C61.1658 145.355 61.3499 145.409 61.5069 145.512C61.6639 145.615 61.7867 145.762 61.8595 145.935C61.9323 146.108 61.9519 146.299 61.9158 146.483C61.8797 146.668 61.7894 146.837 61.6567 146.97C61.5239 147.103 61.3545 147.193 61.1703 147.229C60.986 147.265 60.7951 147.245 60.622 147.173C60.449 147.1 60.3015 146.977 60.1985 146.82C60.0955 146.663 60.0415 146.479 60.0436 146.291C60.0436 146.043 60.1421 145.806 60.3173 145.63C60.4925 145.455 60.7302 145.357 60.9781 145.357ZM45.8485 145.357C46.0363 145.355 46.2204 145.409 46.3774 145.512C46.5344 145.615 46.6572 145.762 46.73 145.935C46.8028 146.108 46.8224 146.299 46.7863 146.483C46.7501 146.668 46.6599 146.837 46.5271 146.97C46.3944 147.103 46.225 147.193 46.0408 147.229C45.8565 147.265 45.6657 147.245 45.4926 147.173C45.3195 147.1 45.172 146.977 45.069 146.82C44.966 146.663 44.912 146.479 44.9141 146.291C44.9141 146.043 45.0125 145.806 45.1878 145.63C45.363 145.455 45.6007 145.357 45.8485 145.357ZM30.7295 145.357C30.9173 145.355 31.1014 145.409 31.2584 145.512C31.4154 145.615 31.5382 145.762 31.611 145.935C31.6838 146.108 31.7034 146.299 31.6673 146.483C31.6311 146.668 31.5409 146.837 31.4081 146.97C31.2754 147.103 31.106 147.193 30.9218 147.229C30.7375 147.265 30.5466 147.245 30.3735 147.173C30.2004 147.1 30.053 146.977 29.95 146.82C29.847 146.663 29.793 146.479 29.7951 146.291C29.7951 146.043 29.8935 145.806 30.0688 145.63C30.244 145.455 30.4817 145.357 30.7295 145.357ZM53.4185 135.666C53.6059 135.666 53.789 135.722 53.9446 135.826C54.1002 135.93 54.2213 136.078 54.2925 136.252C54.3637 136.425 54.3818 136.615 54.3445 136.799C54.3071 136.983 54.2161 137.151 54.0829 137.283C53.9497 137.414 53.7804 137.504 53.5964 137.539C53.4124 137.574 53.2221 137.554 53.0496 137.481C52.8771 137.408 52.7303 137.285 52.6277 137.128C52.5252 136.971 52.4715 136.788 52.4736 136.6C52.4791 136.354 52.5814 136.12 52.7584 135.949C52.9353 135.778 53.1725 135.684 53.4185 135.687V135.666ZM38.289 135.666C38.4768 135.664 38.6609 135.718 38.8179 135.821C38.9749 135.924 39.0977 136.071 39.1705 136.244C39.2433 136.417 39.2629 136.608 39.2268 136.793C39.1906 136.977 39.1004 137.146 38.9677 137.279C38.8349 137.412 38.6656 137.502 38.4813 137.538C38.297 137.574 38.1061 137.555 37.9331 137.482C37.76 137.409 37.6125 137.286 37.5095 137.129C37.4064 136.972 37.3525 136.788 37.3546 136.6C37.3573 136.476 37.3848 136.353 37.4356 136.239C37.4864 136.125 37.5595 136.023 37.6504 135.938C37.7414 135.853 37.8485 135.787 37.9654 135.744C38.0823 135.701 38.2066 135.681 38.331 135.687L38.289 135.666ZM23.17 135.666C23.3574 135.666 23.5405 135.722 23.6961 135.826C23.8517 135.93 23.9728 136.078 24.044 136.252C24.1152 136.425 24.1333 136.615 24.096 136.799C24.0586 136.983 23.9676 137.151 23.8344 137.283C23.7012 137.414 23.5318 137.504 23.3479 137.539C23.1639 137.574 22.9735 137.554 22.8011 137.481C22.6286 137.408 22.4818 137.285 22.3792 137.128C22.2767 136.971 22.223 136.788 22.2251 136.6C22.2306 136.354 22.3329 136.12 22.5098 135.949C22.6868 135.778 22.924 135.684 23.17 135.687V135.666ZM60.9675 165.589C61.1524 165.589 61.333 165.644 61.4867 165.746C61.6403 165.849 61.7601 165.995 61.8309 166.166C61.9016 166.336 61.9201 166.524 61.884 166.706C61.848 166.887 61.759 167.053 61.6283 167.184C61.4976 167.315 61.3311 167.404 61.1499 167.44C60.9686 167.476 60.7807 167.457 60.61 167.387C60.4392 167.316 60.2933 167.196 60.1906 167.042C60.0879 166.889 60.0331 166.708 60.0331 166.523C60.0386 166.277 60.1409 166.043 60.3178 165.872C60.4948 165.701 60.732 165.607 60.9781 165.61L60.9675 165.589ZM45.838 165.589C46.0229 165.589 46.2035 165.644 46.3572 165.746C46.5109 165.849 46.6306 165.995 46.7014 166.166C46.7721 166.336 46.7906 166.524 46.7545 166.706C46.7185 166.887 46.6295 167.053 46.4988 167.184C46.3681 167.315 46.2016 167.404 46.0204 167.44C45.8391 167.476 45.6512 167.457 45.4805 167.387C45.3097 167.316 45.1638 167.196 45.0611 167.042C44.9584 166.889 44.9036 166.708 44.9036 166.523C44.9091 166.277 45.0114 166.043 45.1884 165.872C45.3653 165.701 45.6025 165.607 45.8485 165.61L45.838 165.589ZM30.719 165.589C30.9038 165.589 31.0845 165.644 31.2382 165.746C31.3918 165.849 31.5116 165.995 31.5824 166.166C31.6531 166.336 31.6716 166.524 31.6355 166.706C31.5995 166.887 31.5105 167.053 31.3798 167.184C31.2491 167.315 31.0826 167.404 30.9013 167.44C30.7201 167.476 30.5322 167.457 30.3615 167.387C30.1907 167.316 30.0447 167.196 29.9421 167.042C29.8394 166.889 29.7846 166.708 29.7846 166.523C29.7901 166.277 29.8924 166.043 30.0693 165.872C30.2462 165.701 30.4835 165.607 30.7295 165.61L30.719 165.589ZM68.5166 155.898C68.7043 155.896 68.8885 155.95 69.0455 156.053C69.2025 156.156 69.3252 156.303 69.398 156.477C69.4708 156.65 69.4904 156.84 69.4543 157.025C69.4181 157.209 69.3279 157.378 69.1952 157.511C69.0624 157.644 68.893 157.734 68.7088 157.77C68.5245 157.806 68.3337 157.787 68.1606 157.714C67.9875 157.641 67.84 157.518 67.737 157.361C67.634 157.204 67.58 157.02 67.5821 156.832C67.5848 156.71 67.6117 156.589 67.6612 156.476C67.7107 156.364 67.7819 156.263 67.8706 156.178C67.9593 156.093 68.0639 156.026 68.1783 155.982C68.2928 155.938 68.4148 155.916 68.5375 155.919L68.5166 155.898ZM53.3976 155.898C53.5849 155.898 53.768 155.954 53.9236 156.058C54.0792 156.162 54.2003 156.311 54.2715 156.484C54.3427 156.657 54.3608 156.848 54.3235 157.031C54.2862 157.215 54.1951 157.383 54.0619 157.515C53.9287 157.647 53.7594 157.736 53.5754 157.771C53.3914 157.806 53.2011 157.786 53.0286 157.713C52.8561 157.64 52.7093 157.517 52.6067 157.36C52.5042 157.204 52.4505 157.02 52.4526 156.832C52.4553 156.709 52.4825 156.587 52.5327 156.474C52.5828 156.361 52.6549 156.259 52.7448 156.174C52.8346 156.089 52.9405 156.023 53.0561 155.979C53.1718 155.935 53.2949 155.915 53.4185 155.919L53.3976 155.898ZM38.268 155.898C38.4558 155.896 38.6399 155.95 38.7969 156.053C38.9539 156.156 39.0766 156.303 39.1495 156.477C39.2223 156.65 39.2419 156.84 39.2058 157.025C39.1696 157.209 39.0794 157.378 38.9466 157.511C38.8139 157.644 38.6445 157.734 38.4603 157.77C38.276 157.806 38.0851 157.787 37.9121 157.714C37.739 157.641 37.5915 157.518 37.4885 157.361C37.3854 157.204 37.3315 157.02 37.3336 156.832C37.3361 156.706 37.3643 156.581 37.4164 156.466C37.4686 156.351 37.5435 156.248 37.6368 156.162C37.73 156.077 37.8396 156.011 37.959 155.969C38.0783 155.928 38.2049 155.91 38.331 155.919L38.268 155.898ZM23.149 155.898C23.3364 155.898 23.5195 155.954 23.6751 156.058C23.8307 156.162 23.9518 156.311 24.023 156.484C24.0942 156.657 24.1123 156.848 24.075 157.031C24.0377 157.215 23.9466 157.383 23.8134 157.515C23.6802 157.647 23.5109 157.736 23.3269 157.771C23.1429 157.806 22.9526 157.786 22.7801 157.713C22.6076 157.64 22.4608 157.517 22.3582 157.36C22.2557 157.204 22.202 157.02 22.2041 156.832C22.2068 156.709 22.234 156.587 22.2842 156.474C22.3343 156.361 22.4064 156.259 22.4963 156.174C22.5861 156.089 22.6919 156.023 22.8076 155.979C22.9232 155.935 23.0464 155.915 23.17 155.919L23.149 155.898ZM68.5166 176.13C68.7043 176.128 68.8885 176.182 69.0455 176.285C69.2025 176.388 69.3252 176.536 69.398 176.709C69.4708 176.882 69.4904 177.073 69.4543 177.257C69.4181 177.441 69.3279 177.611 69.1952 177.743C69.0624 177.876 68.893 177.966 68.7088 178.002C68.5245 178.039 68.3337 178.019 68.1606 177.946C67.9875 177.873 67.84 177.751 67.737 177.594C67.634 177.437 67.58 177.252 67.5821 177.065C67.5848 176.942 67.6117 176.821 67.6612 176.709C67.7107 176.596 67.7819 176.495 67.8706 176.41C67.9593 176.325 68.0639 176.259 68.1783 176.214C68.2928 176.17 68.4148 176.148 68.5375 176.151L68.5166 176.13ZM53.3976 176.13C53.5849 176.13 53.768 176.186 53.9236 176.29C54.0792 176.395 54.2003 176.543 54.2715 176.716C54.3427 176.889 54.3608 177.08 54.3235 177.263C54.2862 177.447 54.1951 177.615 54.0619 177.747C53.9287 177.879 53.7594 177.968 53.5754 178.003C53.3914 178.038 53.2011 178.018 53.0286 177.945C52.8561 177.872 52.7093 177.749 52.6067 177.592C52.5042 177.436 52.4505 177.252 52.4526 177.065C52.4553 176.941 52.4825 176.819 52.5327 176.706C52.5828 176.593 52.6549 176.491 52.7448 176.406C52.8346 176.321 52.9405 176.255 53.0561 176.211C53.1718 176.167 53.2949 176.147 53.4185 176.151L53.3976 176.13Z" fill="white"/>
<path d="M63.0673 145.682C56.8728 144.276 50.7621 142.533 44.6515 140.79C38.5409 139.047 32.4199 137.304 26.3513 135.404C22.9285 134.354 19.4952 133.304 16.1039 132.075C16.0094 132.075 16.0409 131.886 16.1039 131.907C22.288 133.304 28.4196 135.057 34.5197 136.727C40.6198 138.396 46.7619 140.212 52.8515 142.039C56.2848 143.089 59.7076 144.139 63.0988 145.368C63.2983 145.431 63.2458 145.724 63.0673 145.682Z" fill="#263238"/>
<path d="M62.9097 132.463C63.7707 132.547 64.6316 132.726 65.482 132.894C65.5469 132.913 65.606 132.947 65.6538 132.995C65.7015 133.043 65.7363 133.102 65.755 133.167C66.7 136.401 67.3719 139.729 68.0439 143.026C68.7158 146.322 69.2933 149.535 69.8288 152.811C70.1228 154.564 70.3747 156.339 70.5742 158.061C71.6454 160.203 72.2976 162.53 72.4956 164.917C72.4956 164.945 72.4845 164.971 72.4648 164.991C72.4452 165.011 72.4185 165.022 72.3906 165.022C72.3628 165.022 72.3361 165.011 72.3164 164.991C72.2967 164.971 72.2856 164.945 72.2856 164.917C72.0226 162.799 71.4752 160.726 70.6582 158.754C71.1887 163.076 71.0719 167.453 70.3117 171.741C71.3617 165.337 69.7868 158.659 68.7368 152.36C68.2119 149.21 67.6134 146.06 66.9939 142.91C66.3745 139.76 65.65 136.663 65.0726 133.524C64.3376 133.24 63.5922 132.967 62.8887 132.631C62.8768 132.62 62.8676 132.606 62.8621 132.591C62.8565 132.575 62.8546 132.558 62.8567 132.542C62.8587 132.526 62.8646 132.51 62.8738 132.496C62.883 132.483 62.8953 132.471 62.9097 132.463Z" fill="#263238"/>
<path d="M119.175 78.3709C119.669 80.1558 128.719 91.5476 136.951 90.8546C139.628 90.6236 139.051 75.9351 139.051 75.9351L139.25 74.8852L142.085 59.5667L123.827 48.7629L121.191 47.335C121.191 47.335 120.687 51.5347 120.141 56.8788C120.141 57.1203 120.089 57.3618 120.068 57.6243C120.047 57.8868 119.984 58.2122 119.963 58.4852C119.858 59.2727 119.774 60.0811 119.69 60.8896C119.627 61.4985 119.574 62.097 119.532 62.7374C119.49 63.3779 119.427 64.0184 119.375 64.6588C118.999 69.2198 118.932 73.801 119.175 78.3709Z" fill="#F7A9A0"/>
<path d="M120.121 56.8473C121.816 61.0566 124.407 64.8466 127.714 67.9541C131.021 71.0617 134.965 73.4124 139.271 74.8432L142.106 59.5247L123.827 48.7629L121.192 47.335C121.192 47.335 120.688 51.5557 120.121 56.8473Z" fill="#263238"/>
<path d="M161.373 34.7361C164.197 61.9398 148.217 66.7065 142.348 67.284C137.025 67.8299 118.819 69.0163 113.202 42.2431C107.585 15.4699 119.344 5.56902 131.46 3.66864C143.576 1.76827 158.548 7.53239 161.373 34.7361Z" fill="#F7A9A0"/>
<path d="M152.206 28.415C151.58 28.3733 150.956 28.2997 150.337 28.1946C149.667 28.2082 149.01 28.0017 148.468 27.6066C148.319 27.4503 148.227 27.2484 148.206 27.0333C148.185 26.8182 148.237 26.6023 148.353 26.4202C148.639 26.1012 149.004 25.8634 149.412 25.7307C149.819 25.5979 150.254 25.575 150.673 25.6642C151.554 25.7125 152.385 26.0868 153.004 26.7141C153.125 26.8672 153.201 27.0509 153.224 27.2447C153.246 27.4385 153.214 27.6347 153.131 27.8113C153.048 27.988 152.918 28.138 152.754 28.2446C152.591 28.3513 152.401 28.4103 152.206 28.415Z" fill="#263238"/>
<path d="M132.699 28.2681C133.314 28.1286 133.921 27.9533 134.515 27.7432C135.179 27.6465 135.792 27.3327 136.258 26.8507C136.376 26.673 136.432 26.4612 136.416 26.2485C136.401 26.0358 136.316 25.8341 136.174 25.6748C135.843 25.4009 135.444 25.2205 135.02 25.1522C134.595 25.0839 134.16 25.1302 133.759 25.2863C132.908 25.4816 132.159 25.9869 131.66 26.7038C131.563 26.8729 131.515 27.0657 131.521 27.2606C131.527 27.4555 131.588 27.6448 131.696 27.8072C131.804 27.9696 131.955 28.0987 132.132 28.1802C132.309 28.2616 132.505 28.292 132.699 28.2681Z" fill="#263238"/>
<path d="M137.56 36.4372C137.56 36.3742 137.423 36.5422 137.434 36.6157C137.675 38.4636 137.633 40.6264 136.016 41.4034C136.016 41.4034 136.016 41.5189 136.016 41.5084C138.074 41.0149 138.074 38.1486 137.56 36.4372Z" fill="#263238"/>
<path d="M135.712 34.6625C132.71 34.7359 133.066 40.731 135.849 40.6786C138.631 40.6261 138.232 34.61 135.712 34.6625Z" fill="#263238"/>
<path d="M134.557 35.051C134.053 35.4185 133.57 36.0484 132.951 36.1534C132.331 36.2584 131.628 35.6705 131.114 35.1035C131.061 35.1035 131.019 35.1035 131.019 35.177C131.072 36.3319 131.576 37.4868 132.825 37.5813C134.074 37.6758 134.704 36.6154 134.925 35.4815C134.925 35.2085 134.757 34.904 134.557 35.051Z" fill="#263238"/>
<path d="M148.889 35.1138C148.889 35.0403 149.046 35.1873 149.046 35.2608C149.109 37.1296 149.497 39.2505 151.219 39.7545C151.282 39.7545 151.282 39.8595 151.219 39.8595C149.14 39.66 148.658 36.8462 148.889 35.1138Z" fill="#263238"/>
<path d="M150.421 33.0143C153.393 32.5839 154.033 38.5685 151.282 38.9674C148.531 39.3664 147.922 33.3818 150.421 33.0143Z" fill="#263238"/>
<path d="M151.723 33.2764C152.238 33.5389 152.773 34.0639 153.33 34.0429C153.886 34.0219 154.38 33.3184 154.758 32.657C154.758 32.5835 154.842 32.657 154.852 32.7095C155.01 33.8434 154.758 35.0823 153.687 35.4183C152.616 35.7543 151.86 34.8198 151.471 33.7174C151.377 33.5074 151.503 33.1714 151.723 33.2764Z" fill="#263238"/>
<path d="M140.499 50.9259C140.951 51.3564 141.402 51.9758 142.085 51.9758C142.778 51.959 143.459 51.7906 144.08 51.4824C144.092 51.4799 144.105 51.4808 144.117 51.4849C144.129 51.489 144.14 51.4962 144.148 51.5057C144.157 51.5152 144.163 51.5268 144.165 51.5393C144.168 51.5518 144.167 51.5647 144.164 51.5769C143.905 51.9498 143.549 52.2447 143.134 52.4298C142.719 52.6149 142.262 52.683 141.812 52.6268C141.429 52.5349 141.083 52.3309 140.818 52.0409C140.552 51.751 140.379 51.3883 140.321 50.9994C140.289 50.8629 140.436 50.8629 140.499 50.9259Z" fill="#263238"/>
<path d="M147.797 43.6607C147.797 43.6607 148.375 46.4115 148.469 47.7239C148.469 47.8394 148.165 47.9234 147.724 47.9864C147.724 47.9864 147.724 47.9864 147.671 47.9864C146.562 48.272 145.396 48.2457 144.301 47.9103C143.206 47.575 142.225 46.9437 141.466 46.086C141.361 45.9705 141.519 45.8236 141.645 45.8971C143.395 46.9172 145.427 47.3478 147.44 47.1255C147.514 46.758 146.296 42.4533 146.495 42.4218C147.52 42.4369 148.537 42.5924 149.519 42.8837C148.469 37.1301 146.527 31.576 145.582 25.8329C145.568 25.7897 145.572 25.7428 145.592 25.7024C145.613 25.6621 145.649 25.6316 145.692 25.6176C145.735 25.6037 145.782 25.6075 145.823 25.6282C145.863 25.6489 145.893 25.6847 145.907 25.7279C148.375 31.387 149.708 37.9911 150.937 43.9127C151.105 44.6476 148.333 43.8497 147.797 43.6607Z" fill="#263238"/>
<path d="M147.272 47.5034C146.624 48.5937 145.706 49.498 144.605 50.1282C143.996 50.4586 143.296 50.5837 142.61 50.4852C141.109 50.2752 140.92 48.9523 141.056 47.7763C141.131 47.1556 141.279 46.5459 141.497 45.96C143.208 47.0774 145.232 47.6183 147.272 47.5034Z" fill="#263238"/>
<path d="M144.605 50.1282C143.995 50.4585 143.296 50.5837 142.61 50.4851C141.108 50.2752 140.919 48.9522 141.056 47.7763C141.825 47.7157 142.593 47.9143 143.236 48.3406C143.879 48.7668 144.361 49.3961 144.605 50.1282Z" fill="#FF9CBD"/>
<path d="M114.336 40.6681C120.635 40.2166 119.743 30.3368 119.743 30.3368C119.743 30.3368 126.798 29.1084 126.368 17.6011C126.368 17.6011 130.358 24.2472 140.101 24.8562C142.201 24.9926 134.851 20.268 134.851 20.268C134.851 20.268 144.7 26.7145 159.661 22.6513C160.711 22.3678 156.049 6.81835 143.681 2.32464C131.313 -2.16906 120.824 1.83116 114.073 9.95763C114.073 9.95763 105.674 14.7033 105.369 23.0608C105.065 31.4182 111.9 40.8466 114.336 40.6681Z" fill="#263238"/>
<path d="M109.495 36.4685C107.409 33.0309 106.199 29.1333 105.972 25.1185C105.745 21.1036 106.508 17.0945 108.193 13.4436C113.947 0.613403 134.588 -4.47876 148.206 4.60314C148.206 4.60314 124.793 0.403416 116.876 10.9657C108.96 21.528 109.495 36.4685 109.495 36.4685Z" fill="#4797C8"/>
<path d="M117.884 43.3036C117.884 43.3036 111.774 34.9041 107.941 37.004C104.109 39.1039 108.792 51.5036 113.37 53.1099C113.942 53.3582 114.558 53.4881 115.181 53.4919C115.805 53.4956 116.422 53.3732 116.997 53.1318C117.572 52.8905 118.092 52.5353 118.526 52.0877C118.96 51.64 119.299 51.1092 119.522 50.5271L117.884 43.3036Z" fill="#F7A9A0"/>
<path d="M109.37 40.5527C109.296 40.5527 109.286 40.6472 109.37 40.6787C112.582 41.9072 114.304 44.8785 115.533 47.8813C114.567 46.7263 113.265 46.0964 111.7 47.2513C111.616 47.3143 111.7 47.4403 111.795 47.4193C112.353 47.2298 112.956 47.219 113.521 47.3884C114.085 47.5577 114.583 47.8988 114.945 48.3642C115.541 49.1417 116.055 49.9792 116.478 50.8631C116.635 51.1465 117.15 50.9891 117.034 50.6636V50.5901C117.003 46.5269 113.748 40.8887 109.37 40.5527Z" fill="#263238"/>
</svg>
