<svg width="54" height="54" viewBox="0 0 54 54" fill="none" xmlns="http://www.w3.org/2000/svg">
<g clip-path="url(#clip0_86_112723)">
<path d="M23.7197 1.89978H26.2915V48.567H23.7197V1.89978Z" fill="url(#paint0_linear_86_112723)"/>
<path d="M28.0869 4.96264C14.3594 2.96394 2.73661 14.5867 4.7352 28.3143C6.02769 37.1913 13.0496 44.2132 21.9267 45.5057C35.6542 47.5044 47.277 35.8815 45.2783 22.1541C43.9859 13.2771 36.964 6.25513 28.0869 4.96264Z" fill="url(#paint1_linear_86_112723)"/>
<path d="M25.0062 4.73743C24.3114 4.73743 23.6247 4.7724 22.9477 4.83999C23.1294 4.8581 23.31 4.87918 23.4903 4.90202C19.7378 5.71924 16.5292 9.52879 14.7006 14.895C9.42725 16.672 5.64846 19.7861 4.73454 23.4405C4.58311 24.0459 4.50977 24.6453 4.50977 25.2337C4.50977 29.6292 8.59111 33.4687 14.6673 35.5394C16.4444 40.8127 19.5584 44.5915 23.2128 45.5054C23.3022 45.5277 23.3915 45.5479 23.4807 45.5669C23.3037 45.5892 23.1261 45.6098 22.9476 45.6276C23.6246 45.6951 24.3113 45.7302 25.0061 45.7302C36.3259 45.7302 45.5024 36.5537 45.5024 25.2338C45.5024 13.914 36.3259 4.73743 25.0062 4.73743ZM9.42046 29.7189C8.6016 28.9665 7.66279 27.8643 7.27013 26.5196H13.0961C13.1172 27.113 13.1528 27.7114 13.2039 28.3138C13.3257 29.751 13.5354 31.139 13.8226 32.4624C12.0687 31.7062 10.575 30.7796 9.42046 29.7189ZM13.0972 23.9478H7.26108C7.75507 22.167 9.3539 20.4151 11.7801 19.0026C12.4208 18.6296 13.1128 18.287 13.8441 17.9745C13.4304 19.8497 13.1726 21.8561 13.0972 23.9478ZM38.2322 31.4649C37.5915 31.8379 36.8995 32.1805 36.1683 32.493C36.5819 30.6178 36.8398 28.6113 36.9152 26.5196H41.3445C41.3439 26.5294 41.3433 26.5393 41.3427 26.5491C41.2156 28.555 40.0871 30.3636 38.3592 31.3903C38.3171 31.4152 38.2748 31.4401 38.2322 31.4649ZM41.3426 23.9187C41.3432 23.9284 41.3438 23.9382 41.3444 23.9478H36.9163C36.8952 23.3545 36.8596 22.7561 36.8085 22.1537C36.6867 20.7165 36.4769 19.3286 36.1898 18.0051C36.95 18.3329 37.9486 18.9566 38.836 19.558C40.2969 20.5482 41.2311 22.1574 41.3426 23.9187ZM39.6005 16.856C38.3374 16.1102 36.9073 15.4606 35.3449 14.9281C34.2709 11.7413 32.7082 9.10167 30.8334 7.30892C34.6908 9.45349 37.7842 12.8057 39.6005 16.856ZM27.869 34.4735C27.3428 34.5181 26.8168 34.549 26.2921 34.569V26.5196H34.3411C34.249 28.8856 33.9045 31.1885 33.3148 33.3237C33.2976 33.3862 33.2789 33.4473 33.2613 33.5094C31.5683 33.9846 29.747 34.3143 27.869 34.4735ZM32.2348 36.4174C31.4787 38.1712 30.552 39.6649 29.4913 40.8194C28.7389 41.6382 27.6367 42.577 26.2921 42.9697V37.1437C26.8855 37.1227 27.4839 37.0871 28.0863 37.0359C29.5233 36.9142 30.9113 36.7045 32.2348 36.4174ZM26.2921 23.9478V15.8988C28.658 15.9909 30.9609 16.3354 33.0961 16.9251C33.1587 16.9424 33.2197 16.961 33.2818 16.9787C33.757 18.6716 34.0867 20.4929 34.2459 22.3709C34.2906 22.8971 34.3214 23.4231 34.3414 23.9478H26.2921ZM26.2921 13.3248V7.48864C28.0729 7.98263 29.8248 9.58146 31.2374 12.0077C31.6104 12.6484 31.9529 13.3404 32.2655 14.0716C30.3902 13.6581 28.3838 13.4002 26.2921 13.3248ZM20.5211 9.64812C21.2734 8.82926 22.3756 7.89045 23.7203 7.49779V13.3237C23.1269 13.3448 22.5285 13.3804 21.9261 13.4316C20.489 13.5534 19.101 13.7631 17.7776 14.0502C18.5337 12.2963 19.4604 10.8026 20.5211 9.64812ZM16.6975 17.1438C16.7148 17.0812 16.7334 17.0202 16.7511 16.9581C18.4441 16.4829 20.2653 16.1532 22.1434 15.994C22.6695 15.9493 23.1955 15.9184 23.7203 15.8985V23.9478H15.6713C15.7633 21.5819 16.1078 19.279 16.6975 17.1438ZM16.7305 33.4888C16.2554 31.7958 15.9257 29.9746 15.7664 28.0966C15.7218 27.5704 15.6908 27.0444 15.671 26.5196H23.7203V34.5687C21.3543 34.4766 19.0514 34.1321 16.9162 33.5424C16.8537 33.5251 16.7927 33.5065 16.7305 33.4888ZM18.775 38.4598C18.402 37.8191 18.0594 37.1271 17.7469 36.3959C19.6222 36.8094 21.6287 37.0673 23.7203 37.1427V42.9789C21.9395 42.4849 20.1876 40.886 18.775 38.4598ZM30.7458 43.207C32.6402 41.4184 34.2214 38.7722 35.3117 35.5725C36.8796 35.0441 38.3139 34.3968 39.5815 33.653C37.7489 37.7152 34.6307 41.0721 30.7458 43.207Z" fill="#084D5B"/>
<path d="M24.8164 0.75H23.7205C23.0102 0.75 22.4346 1.32567 22.4346 2.0359C22.4346 2.74613 23.0102 3.3218 23.7205 3.3218H25.0064C27.9656 3.3218 30.8349 3.90076 33.5347 5.04264C36.1436 6.14615 38.4872 7.72637 40.5003 9.73957C42.5135 11.7528 44.0938 14.0963 45.1973 16.7052C46.3391 19.405 46.9181 22.2743 46.9181 25.2335C46.9181 28.1927 46.3391 31.0621 45.1973 33.7618C44.0938 36.3708 42.5135 38.7144 40.5003 40.7275C38.4871 42.7407 36.1436 44.3209 33.5347 45.4244C30.8349 46.5663 27.9656 47.1453 25.0064 47.1453H23.7205C23.0102 47.1453 22.4346 47.7209 22.4346 48.4312C22.4346 49.1414 23.0102 49.7171 23.7205 49.7171H25.0064C38.498 49.7171 49.4409 38.8043 49.4897 25.3241C49.5387 11.8083 38.3322 0.75 24.8164 0.75Z" fill="#094F5E"/>
<path d="M35.8771 53.25H14.1341C12.4463 53.25 11.0781 51.8818 11.0781 50.194C11.0781 48.5061 12.4463 47.1379 14.1341 47.1379H35.8771C37.5649 47.1379 38.9331 48.5061 38.9331 50.194C38.9331 51.8818 37.5649 53.25 35.8771 53.25Z" fill="url(#paint2_linear_86_112723)"/>
<path d="M35.8775 47.1379H31.9502C33.638 47.1379 35.0062 48.5061 35.0062 50.194C35.0062 51.8818 33.638 53.25 31.9502 53.25H35.8775C37.5654 53.25 38.9336 51.8818 38.9336 50.194C38.9336 48.5061 37.5654 47.1379 35.8775 47.1379Z" fill="url(#paint3_linear_86_112723)"/>
</g>
<circle cx="7.75" cy="9.5" r="5.25" fill="#FEB137"/>
<defs>
<linearGradient id="paint0_linear_86_112723" x1="20.1307" y1="25.2334" x2="29.1183" y2="25.2334" gradientUnits="userSpaceOnUse">
<stop offset="1" stop-color="#094F5E"/>
</linearGradient>
<linearGradient id="paint1_linear_86_112723" x1="3.546" y1="25.2342" x2="49.3387" y2="25.2342" gradientUnits="userSpaceOnUse">
<stop stop-color="#94CFFF" stop-opacity="0.69"/>
</linearGradient>
<linearGradient id="paint2_linear_86_112723" x1="11.1657" y1="50.194" x2="40.5513" y2="50.194" gradientUnits="userSpaceOnUse">
<stop stop-color="#1F6574"/>
</linearGradient>
<linearGradient id="paint3_linear_86_112723" x1="5.1522" y1="50.194" x2="31.4933" y2="50.194" gradientUnits="userSpaceOnUse">
<stop stop-color="#094F5E"/>
</linearGradient>
<clipPath id="clip0_86_112723">
<rect width="52.5" height="52.5" fill="white" transform="translate(0.75 0.75)"/>
</clipPath>
</defs>
</svg>
