<svg width="54" height="54" viewBox="0 0 54 54" fill="none" xmlns="http://www.w3.org/2000/svg">
<g clip-path="url(#clip0_86_112741)">
<path d="M27.9862 20.9444H10.8474L0.989171 3.31097C0.347745 2.16379 1.17704 0.75 2.49139 0.75H15.1922C16.1208 0.75 16.9769 1.25215 17.4301 2.06271L27.9862 20.9444Z" fill="url(#paint0_linear_86_112741)"/>
<path d="M17.4297 2.06271C16.9766 1.25215 16.1204 0.75 15.1918 0.75H9.89722C10.8259 0.75 11.6819 1.25215 12.1352 2.06271L22.6913 20.9443H27.9859L17.4297 2.06271Z" fill="#084D5B"/>
<path d="M17.4306 2.06271C16.9775 1.25215 16.1213 0.75 15.1927 0.75H11.073C12.0016 0.75 12.8577 1.25215 13.3109 2.06271L23.8671 20.9443H27.9868L17.4306 2.06271Z" fill="#084D5B"/>
<path d="M3.95069 0.75H2.49139C1.17704 0.75 0.347745 2.16379 0.989171 3.31097L10.8474 20.9443H16.7447L6.18863 2.06271C5.73548 1.25215 4.87942 0.75 3.95069 0.75V0.75Z" fill="#084D5B"/>
<path d="M25.9985 20.9436L43.1373 20.9569L53.0093 3.33124C53.6515 2.18448 52.8234 0.770068 51.509 0.769038L38.8083 0.759156C37.8797 0.758435 37.0232 1.25997 36.5695 2.07011L25.9985 20.9436Z" fill="url(#paint1_linear_86_112741)"/>
<path d="M51.5089 0.769043H47.3892C48.7036 0.770072 49.5318 2.18448 48.8895 3.33125L39.0193 20.9536L43.1371 20.9568L53.0091 3.33115C53.6514 2.18438 52.8233 0.770072 51.5089 0.769043Z" fill="url(#paint2_linear_86_112741)"/>
<path d="M44.1029 0.76425L38.8083 0.760133C37.8797 0.759412 37.0232 1.26094 36.5693 2.07119L25.9985 20.9444L31.2931 20.9485L41.864 2.07521C42.3178 1.26496 43.1743 0.76353 44.1029 0.76425Z" fill="#084D5B"/>
<path d="M51.5101 0.7692L50.0508 0.768067C49.1221 0.767347 48.2657 1.26888 47.8118 2.07902L37.241 20.9524L43.1383 20.957L53.0102 3.3313C53.6526 2.18454 52.8244 0.770229 51.5101 0.7692Z" fill="url(#paint3_linear_86_112741)"/>
<path d="M27.0182 53.2499C38.3456 53.2499 47.5283 44.0673 47.5283 32.7398C47.5283 21.4124 38.3456 12.2297 27.0182 12.2297C15.6907 12.2297 6.50806 21.4124 6.50806 32.7398C6.50806 44.0673 15.6907 53.2499 27.0182 53.2499Z" fill="url(#paint4_linear_86_112741)"/>
<path d="M27.0185 47.2263C35.0192 47.2263 41.505 40.7405 41.505 32.7398C41.505 24.7391 35.0192 18.2533 27.0185 18.2533C19.0178 18.2533 12.532 24.7391 12.532 32.7398C12.532 40.7405 19.0178 47.2263 27.0185 47.2263Z" fill="url(#paint5_linear_86_112741)"/>
<path d="M27.4198 20.9476C27.066 20.9476 26.7442 21.012 26.4869 21.1729L22.2397 23.7469C21.5962 24.1329 21.3066 24.7765 21.3066 25.4522C21.3066 26.4496 21.9501 27.447 22.8833 27.447C23.1084 27.447 23.3981 27.3827 23.6877 27.1897L24.6207 26.6105V42.9878C24.6207 44.0174 25.8755 44.5322 27.1303 44.5322C28.3852 44.5322 29.64 44.0174 29.64 42.9878V22.5243C29.6399 21.559 28.4494 20.9476 27.4198 20.9476Z" fill="#084D5B"/>
</g>
<defs>
<linearGradient id="paint0_linear_86_112741" x1="8.34164" y1="10.8472" x2="17.3987" y2="10.8472" gradientUnits="userSpaceOnUse">
<stop stop-color="#F9F3F1"/>
<stop offset="0.5725" stop-color="#EFE2DD"/>
<stop offset="1" stop-color="#CDBFBA"/>
</linearGradient>
<linearGradient id="paint1_linear_86_112741" x1="35.4587" y1="10.8581" x2="50.3012" y2="10.8581" gradientUnits="userSpaceOnUse">
<stop stop-color="#F9F3F1"/>
<stop offset="0.5725" stop-color="#EFE2DD"/>
<stop offset="1" stop-color="#CDBFBA"/>
</linearGradient>
<linearGradient id="paint2_linear_86_112741" x1="34.826" y1="10.8629" x2="46.2998" y2="10.8629" gradientUnits="userSpaceOnUse">
<stop stop-color="#F9F3F1"/>
<stop offset="0.5725" stop-color="#EFE2DD"/>
<stop offset="1" stop-color="#CDBFBA"/>
</linearGradient>
<linearGradient id="paint3_linear_86_112741" x1="28.1508" y1="10.8625" x2="54.5176" y2="10.8625" gradientUnits="userSpaceOnUse">
<stop stop-color="#084D5B"/>
</linearGradient>
<linearGradient id="paint4_linear_86_112741" x1="5.54288" y1="32.7398" x2="51.3664" y2="32.7398" gradientUnits="userSpaceOnUse">
<stop stop-color="#084D5B"/>
</linearGradient>
<linearGradient id="paint5_linear_86_112741" x1="27.0185" y1="18.2533" x2="27.0185" y2="47.2263" gradientUnits="userSpaceOnUse">
<stop stop-color="#FFD263"/>
<stop offset="1" stop-color="#FEB137"/>
</linearGradient>
<clipPath id="clip0_86_112741">
<rect width="52.5" height="52.5" fill="white" transform="translate(0.75 0.75)"/>
</clipPath>
</defs>
</svg>
