<svg width="53" height="54" viewBox="0 0 53 54" fill="none" xmlns="http://www.w3.org/2000/svg">
<g clip-path="url(#clip0_86_112764)">
<path d="M35.7034 53.25H0.772059C0.345676 53.25 0 52.9044 0 52.478C0 52.0516 0.345676 51.7059 0.772059 51.7059H35.7034C36.1299 51.7059 36.4755 52.0516 36.4755 52.478C36.4755 52.9044 36.1299 53.25 35.7034 53.25Z" fill="#084D5B"/>
<path d="M50.8691 2.37973C48.8411 0.351784 45.6039 0.197476 43.3922 2.02324L21.2554 20.2983C19.0719 22.101 17.2742 24.3257 15.9702 26.8391L12.427 33.6689L19.5799 40.8218L26.4097 37.2785C28.9232 35.9746 31.1478 34.177 32.9505 31.9933L51.2255 9.85655C53.0514 7.64486 52.8971 4.40767 50.8691 2.37973Z" fill="url(#paint0_linear_86_112764)"/>
<path d="M50.8691 2.37975C49.2763 0.786941 46.9376 0.350573 44.9356 1.12109C45.6425 1.39285 46.3038 1.81296 46.8705 2.37975C48.8985 4.40769 49.0528 7.64488 47.2269 9.85657L28.952 31.9934C27.1493 34.1769 24.9246 35.9746 22.4112 37.2786L18.2141 39.456L19.5799 40.8218L26.4098 37.2786C28.9233 35.9746 31.1478 34.177 32.9505 31.9934L51.2255 9.85657C53.0514 7.64488 52.897 4.40769 50.8691 2.37975Z" fill="url(#paint1_linear_86_112764)"/>
<path d="M19.6438 40.8857L18.4107 42.1188C17.1689 43.3606 16.4713 45.0448 16.4713 46.801C16.4713 49.6097 13.8109 51.6567 11.0959 50.9368C8.10351 50.1434 4.92942 50.4022 2.10512 51.6698C1.77159 51.8194 1.42973 51.4777 1.5794 51.1441C2.84702 48.3198 3.10582 45.1457 2.31234 42.1533C1.59248 39.4383 3.63946 36.7779 6.44821 36.7779C8.20439 36.7779 9.88861 36.0803 11.1304 34.8385L12.3635 33.6053L19.6438 40.8857Z" fill="url(#paint2_linear_86_112764)"/>
<path d="M13.6029 29.1466L12.0802 32.3581C11.6705 33.2222 11.8485 34.2506 12.5246 34.9267L18.3227 40.7248C18.9989 41.401 20.0272 41.5789 20.8913 41.1692L24.1027 39.6465C24.8985 39.2692 25.0805 38.2175 24.4577 37.5947L15.6545 28.7915C15.032 28.169 13.9803 28.3509 13.6029 29.1466Z" fill="url(#paint3_linear_86_112764)"/>
<path d="M24.4578 37.5949L15.6546 28.7917C15.0319 28.169 13.9801 28.3509 13.6028 29.1466L13.0908 30.2265L20.4591 37.5948C21.0818 38.2175 20.8999 39.2692 20.1042 39.6465L18.1643 40.5663L18.3227 40.7247C18.9989 41.4009 20.0272 41.5788 20.8913 41.1691L24.1027 39.6464C24.8986 39.2692 25.0805 38.2176 24.4578 37.5949Z" fill="url(#paint4_linear_86_112764)"/>
<path d="M11.8602 41.1624C10.9417 40.3514 9.53903 40.3327 8.60103 41.1211C7.78491 41.8071 7.52509 42.8755 7.82146 43.8051C7.90473 44.0664 7.83731 44.3521 7.64337 44.546L2.67872 49.5106C2.22506 49.9643 1.86415 50.5004 1.60473 51.0872C1.5964 51.1061 1.58795 51.125 1.57941 51.144C1.42973 51.4775 1.7715 51.8194 2.10513 51.6697C2.10513 51.6697 2.10523 51.6697 2.10534 51.6696C2.71506 51.4121 3.26981 51.0391 3.73788 50.571L8.70315 45.6057C8.8941 45.4148 9.17606 45.3408 9.433 45.424C10.2996 45.7048 11.2888 45.5011 11.9771 44.8128C12.9923 43.7976 12.9533 42.1273 11.8602 41.1624Z" fill="#084D5B"/>
</g>
<defs>
<linearGradient id="paint0_linear_86_112764" x1="12.6431" y1="20.7859" x2="50.2671" y2="20.7859" gradientUnits="userSpaceOnUse">
<stop stop-color="#084D5B"/>
</linearGradient>
<linearGradient id="paint1_linear_86_112764" x1="3.20181" y1="20.7862" x2="46.3107" y2="20.7862" gradientUnits="userSpaceOnUse">
<stop stop-color="#003D48"/>
</linearGradient>
<linearGradient id="paint2_linear_86_112764" x1="0.0779034" y1="42.6556" x2="18.2781" y2="42.6556" gradientUnits="userSpaceOnUse">
<stop stop-color="#FFE177"/>
<stop offset="0.5725" stop-color="#FEB137"/>
</linearGradient>
<linearGradient id="paint3_linear_86_112764" x1="11.8946" y1="34.9029" x2="26.2447" y2="34.9029" gradientUnits="userSpaceOnUse">
<stop stop-color="#F9F3F1"/>
<stop offset="0.5725" stop-color="#EFE2DD"/>
<stop offset="1" stop-color="#CDBFBA"/>
</linearGradient>
<linearGradient id="paint4_linear_86_112764" x1="3.87502" y1="34.9029" x2="23.0037" y2="34.9029" gradientUnits="userSpaceOnUse">
<stop stop-color="#F9F3F1"/>
<stop offset="0.5725" stop-color="#EFE2DD"/>
<stop offset="1" stop-color="#CDBFBA"/>
</linearGradient>
<clipPath id="clip0_86_112764">
<rect width="52.5" height="52.5" fill="white" transform="translate(0 0.75)"/>
</clipPath>
</defs>
</svg>
