<svg width="54" height="53" viewBox="0 0 54 53" fill="none" xmlns="http://www.w3.org/2000/svg">
<g clip-path="url(#clip0_86_112780)">
<path d="M27 53C41.4975 53 53.25 41.2475 53.25 26.75C53.25 12.2525 41.4975 0.5 27 0.5C12.5025 0.5 0.75 12.2525 0.75 26.75C0.75 41.2475 12.5025 53 27 53Z" fill="#084D5B"/>
<path d="M24.4253 45.2651C34.6509 45.2651 42.9404 36.9756 42.9404 26.75C42.9404 16.5244 34.6509 8.23486 24.4253 8.23486C14.1997 8.23486 5.91016 16.5244 5.91016 26.75C5.91016 36.9756 14.1997 45.2651 24.4253 45.2651Z" fill="#06353F"/>
<path d="M27.0005 0.5C26.3072 0.5 25.6204 0.527382 24.9407 0.580088C38.4753 1.63071 49.1308 12.9458 49.1308 26.75C49.1308 40.5542 38.4753 51.8693 24.9407 52.9199C25.6204 52.9726 26.3072 53 27.0005 53C41.498 53 53.2505 41.2475 53.2505 26.75C53.2505 12.2525 41.498 0.5 27.0005 0.5Z" fill="#06353F"/>
<path d="M27.0007 45.2651C37.2263 45.2651 45.5158 36.9756 45.5158 26.75C45.5158 16.5244 37.2263 8.23486 27.0007 8.23486C16.7751 8.23486 8.4856 16.5244 8.4856 26.75C8.4856 36.9756 16.7751 45.2651 27.0007 45.2651Z" fill="url(#paint0_linear_86_112780)"/>
<path d="M28.3315 10.756L26.2053 8.25621C25.5963 7.54025 24.491 7.54025 23.882 8.25621L20.6081 12.1055C20.1586 12.634 20.5342 13.4466 21.228 13.4466H22.9995V26.105C21.9356 26.7818 21.2292 27.9704 21.2292 29.3248C21.2292 29.6105 21.2616 29.8887 21.3212 30.1564L17.572 33.9057L16.3193 32.653C15.8286 32.1623 14.9884 32.4713 14.9326 33.1629L14.5258 38.1997C14.4502 39.1366 15.2318 39.9183 16.1687 39.8427L21.2055 39.4359C21.897 39.38 22.2061 38.5399 21.7154 38.0492L20.4628 36.7965L24.212 33.0472C24.6376 33.1419 25.0891 33.168 25.5564 33.1043C27.3531 32.8593 28.7511 31.353 28.8518 29.5424C28.9319 28.0985 28.2081 26.818 27.0877 26.1052V13.4466C28.4797 13.4466 29.2333 11.8163 28.3315 10.756Z" fill="url(#paint1_linear_86_112780)"/>
<path d="M42.94 26.75C42.94 36.5428 35.337 44.5586 25.7122 45.2198C26.1376 45.249 26.5667 45.2651 26.9995 45.2651C37.2251 45.2651 45.5146 36.9755 45.5146 26.75C45.5146 16.5244 37.2251 8.23486 26.9995 8.23486C26.5667 8.23486 26.1376 8.25092 25.7122 8.28016C35.337 8.94135 42.94 16.9572 42.94 26.75Z" fill="url(#paint2_linear_86_112780)"/>
<path d="M26.999 9.03552C26.4296 9.03552 25.968 9.49711 25.968 10.0665V11.9775C25.968 12.5468 26.4296 13.0084 26.999 13.0084C27.5684 13.0084 28.0299 12.5468 28.0299 11.9775V10.0665C28.0299 9.49711 27.5684 9.03552 26.999 9.03552Z" fill="url(#paint3_linear_86_112780)"/>
<path d="M26.999 40.4915C26.4296 40.4915 25.968 40.953 25.968 41.5224V43.4334C25.968 44.0028 26.4296 44.4643 26.999 44.4643C27.5684 44.4643 28.0299 44.0028 28.0299 43.4334V41.5224C28.0299 40.953 27.5684 40.4915 26.999 40.4915Z" fill="url(#paint4_linear_86_112780)"/>
<path d="M43.6814 25.719H41.7705C41.2011 25.719 40.7395 26.1806 40.7395 26.75C40.7395 27.3193 41.2011 27.7809 41.7705 27.7809H43.6814C44.2508 27.7809 44.7124 27.3193 44.7124 26.75C44.7124 26.1806 44.2508 25.719 43.6814 25.719Z" fill="url(#paint5_linear_86_112780)"/>
<path d="M13.2576 26.75C13.2576 26.1806 12.796 25.719 12.2266 25.719H10.3156C9.74626 25.719 9.28467 26.1806 9.28467 26.75C9.28467 27.3193 9.74626 27.7809 10.3156 27.7809H12.2266C12.796 27.7809 13.2576 27.3193 13.2576 26.75Z" fill="url(#paint6_linear_86_112780)"/>
<path d="M35.8638 11.4127C35.3708 11.1278 34.7401 11.2965 34.4553 11.7895L33.4991 13.444C33.2142 13.9369 33.3829 14.5675 33.8757 14.8525C34.3687 15.1374 34.9994 14.9687 35.2842 14.4757L36.2404 12.8211C36.5254 12.3282 36.3567 11.6975 35.8638 11.4127Z" fill="url(#paint7_linear_86_112780)"/>
<path d="M20.124 38.6474C19.631 38.3625 19.0004 38.5312 18.7156 39.0242L17.7593 40.6788C17.4745 41.1718 17.6431 41.8023 18.1361 42.0872C18.6291 42.3722 19.2597 42.2035 19.5445 41.7105L20.5008 40.0559C20.7856 39.5629 20.617 38.9323 20.124 38.6474Z" fill="url(#paint8_linear_86_112780)"/>
<path d="M41.9586 34.2054L40.304 33.2492C39.8112 32.9644 39.1806 33.133 38.8956 33.626C38.6107 34.119 38.7794 34.7496 39.2724 35.0344L40.9269 35.9906C41.4198 36.2755 42.0504 36.1069 42.3354 35.6139C42.6202 35.1209 42.4515 34.4903 41.9586 34.2054Z" fill="url(#paint9_linear_86_112780)"/>
<path d="M14.724 18.4656L13.0694 17.5093C12.5766 17.2245 11.9459 17.3931 11.661 17.8861C11.3761 18.3791 11.5448 19.0096 12.0378 19.2945L13.6923 20.2508C14.1852 20.5356 14.8158 20.367 15.1008 19.874C15.3856 19.381 15.2169 18.7504 14.724 18.4656Z" fill="url(#paint10_linear_86_112780)"/>
<path d="M13.6932 33.2491L12.0387 34.2053C11.5458 34.4901 11.3771 35.1208 11.6619 35.6138C11.9467 36.1067 12.5774 36.2754 13.0703 35.9905L14.7249 35.0343C15.2178 34.7495 15.3865 34.1188 15.1017 33.6258C14.8168 33.1329 14.1862 32.9642 13.6932 33.2491Z" fill="url(#paint11_linear_86_112780)"/>
<path d="M40.3054 20.2508L41.96 19.2945C42.453 19.0097 42.6216 18.3791 42.3368 17.8861C42.0518 17.3931 41.4213 17.2245 40.9283 17.5093L39.2738 18.4656C38.7809 18.7504 38.6122 19.381 38.897 19.874C39.1818 20.367 39.8125 20.5356 40.3054 20.2508Z" fill="url(#paint12_linear_86_112780)"/>
<path d="M35.2843 39.0241C34.9993 38.5313 34.3688 38.3625 33.8758 38.6474C33.3828 38.9323 33.2142 39.5629 33.4992 40.0558L34.4554 41.7104C34.7402 42.2033 35.3708 42.372 35.8638 42.0872C36.3568 41.8022 36.5254 41.1717 36.2406 40.6787L35.2843 39.0241Z" fill="url(#paint13_linear_86_112780)"/>
<path d="M19.5445 11.7894C19.2597 11.2965 18.6291 11.1278 18.1361 11.4126C17.6431 11.6975 17.4745 12.3281 17.7593 12.8211L18.7156 14.4756C19.0004 14.9685 19.631 15.1373 20.124 14.8524C20.617 14.5676 20.7856 13.9369 20.5008 13.444L19.5445 11.7894Z" fill="url(#paint14_linear_86_112780)"/>
<path d="M30.8152 10.872H29.0437V26.7494H24.9556V10.872H23.184C22.4902 10.872 22.1146 10.0594 22.5641 9.5309L25.838 5.68162C26.447 4.96566 27.5523 4.96566 28.1613 5.68162L31.4352 9.5309C31.8846 10.0594 31.509 10.872 30.8152 10.872Z" fill="url(#paint15_linear_86_112780)"/>
<path d="M18.2749 30.0783L19.5276 31.3309L25.5534 25.3052L28.4441 28.1959L22.4183 34.2217L23.671 35.4744C24.1616 35.9651 23.8526 36.8053 23.161 36.8611L18.1242 37.2679C17.1874 37.3435 16.4056 36.5619 16.4814 35.625L16.8882 30.5882C16.9441 29.8967 17.7843 29.5876 18.2749 30.0783Z" fill="url(#paint16_linear_86_112780)"/>
<path d="M26.9996 30.5644C29.1062 30.5644 30.8139 28.8566 30.8139 26.7501C30.8139 24.6435 29.1062 22.9358 26.9996 22.9358C24.893 22.9358 23.1853 24.6435 23.1853 26.7501C23.1853 28.8566 24.893 30.5644 26.9996 30.5644Z" fill="#5A93AC"/>
<path d="M30.815 26.7501C30.815 28.8563 29.1072 30.5641 27 30.5641C25.6947 30.5641 24.5428 29.9083 23.8562 28.9088C24.0116 28.9253 24.1702 28.9335 24.3297 28.9335C26.7797 28.9335 28.7665 26.9467 28.7665 24.4967C28.7665 24.0767 28.7078 23.6701 28.5987 23.2861C29.9071 23.8904 30.815 25.2142 30.815 26.7501Z" fill="url(#paint17_linear_86_112780)"/>
<path d="M43.6819 25.7196H42.9109C42.9294 26.0603 42.9387 26.4042 42.9387 26.75C42.9387 27.0959 42.9294 27.4398 42.9109 27.7805H43.6819C44.2512 27.7805 44.7123 27.3193 44.7123 26.75C44.7123 26.1808 44.2512 25.7196 43.6819 25.7196Z" fill="url(#paint18_linear_86_112780)"/>
<path d="M35.8632 11.4128C35.5256 11.2182 35.1241 11.2347 34.8132 11.4241C35.3434 11.7824 35.8529 12.1684 36.3409 12.5791C36.4634 12.1375 36.2781 11.6527 35.8632 11.4128Z" fill="url(#paint19_linear_86_112780)"/>
<path d="M41.9597 34.205L41.4934 33.9353C41.2247 34.5735 40.921 35.1932 40.5854 35.7924L40.9282 35.991C41.4213 36.2752 42.0513 36.1074 42.3365 35.6143C42.6216 35.1212 42.4528 34.4902 41.9597 34.205Z" fill="url(#paint20_linear_86_112780)"/>
<path d="M40.9282 17.509L40.5854 17.7077C40.921 18.3068 41.2247 18.9265 41.4934 19.5648L41.9597 19.2951C42.4528 19.0099 42.6216 18.3789 42.3365 17.8858C42.0513 17.3927 41.4213 17.2249 40.9282 17.509Z" fill="url(#paint21_linear_86_112780)"/>
<path d="M34.8127 42.0759C35.1236 42.2653 35.5251 42.2818 35.8627 42.0872C36.2776 41.8474 36.4629 41.3625 36.3404 40.9209C35.8524 41.3316 35.3429 41.7177 34.8127 42.0759Z" fill="url(#paint22_linear_86_112780)"/>
</g>
<defs>
<linearGradient id="paint0_linear_86_112780" x1="7.6143" y1="26.75" x2="45.0904" y2="26.75" gradientUnits="userSpaceOnUse">
<stop stop-color="white"/>
<stop offset="1" stop-color="#F9F3F1"/>
</linearGradient>
<linearGradient id="paint1_linear_86_112780" x1="6.26972" y1="23.7834" x2="29.1822" y2="23.7834" gradientUnits="userSpaceOnUse">
<stop stop-color="#F9F3F1"/>
<stop offset="0.5725" stop-color="#EFE2DD"/>
<stop offset="1" stop-color="#CDBFBA"/>
</linearGradient>
<linearGradient id="paint2_linear_86_112780" x1="53.4503" y1="26.75" x2="35.2299" y2="26.75" gradientUnits="userSpaceOnUse">
<stop stop-color="#F9F3F1"/>
<stop offset="1" stop-color="#EFE2DD"/>
</linearGradient>
<linearGradient id="paint3_linear_86_112780" x1="8.98412" y1="11.022" x2="44.6616" y2="11.022" gradientUnits="userSpaceOnUse">
<stop stop-color="#537983"/>
<stop offset="1" stop-color="#3E5959"/>
</linearGradient>
<linearGradient id="paint4_linear_86_112780" x1="8.98412" y1="42.4779" x2="44.6616" y2="42.4779" gradientUnits="userSpaceOnUse">
<stop stop-color="#537983"/>
<stop offset="1" stop-color="#3E5959"/>
</linearGradient>
<linearGradient id="paint5_linear_86_112780" x1="8.98343" y1="26.75" x2="44.6604" y2="26.75" gradientUnits="userSpaceOnUse">
<stop stop-color="#537983"/>
<stop offset="1" stop-color="#3E5959"/>
</linearGradient>
<linearGradient id="paint6_linear_86_112780" x1="8.98439" y1="26.75" x2="44.6615" y2="26.75" gradientUnits="userSpaceOnUse">
<stop stop-color="#537983"/>
<stop offset="1" stop-color="#3E5959"/>
</linearGradient>
<linearGradient id="paint7_linear_86_112780" x1="8.98508" y1="13.1325" x2="44.6624" y2="13.1325" gradientUnits="userSpaceOnUse">
<stop stop-color="#537983"/>
<stop offset="1" stop-color="#3E5959"/>
</linearGradient>
<linearGradient id="paint8_linear_86_112780" x1="8.98525" y1="40.3673" x2="44.6624" y2="40.3673" gradientUnits="userSpaceOnUse">
<stop stop-color="#537983"/>
<stop offset="1" stop-color="#3E5959"/>
</linearGradient>
<linearGradient id="paint9_linear_86_112780" x1="8.98349" y1="34.6199" x2="44.6605" y2="34.6199" gradientUnits="userSpaceOnUse">
<stop stop-color="#537983"/>
<stop offset="1" stop-color="#3E5959"/>
</linearGradient>
<linearGradient id="paint10_linear_86_112780" x1="8.98349" y1="18.88" x2="44.6606" y2="18.88" gradientUnits="userSpaceOnUse">
<stop stop-color="#537983"/>
<stop offset="1" stop-color="#3E5959"/>
</linearGradient>
<linearGradient id="paint11_linear_86_112780" x1="8.9845" y1="34.6199" x2="44.6616" y2="34.6199" gradientUnits="userSpaceOnUse">
<stop stop-color="#537983"/>
<stop offset="1" stop-color="#3E5959"/>
</linearGradient>
<linearGradient id="paint12_linear_86_112780" x1="8.98476" y1="18.88" x2="44.6619" y2="18.88" gradientUnits="userSpaceOnUse">
<stop stop-color="#537983"/>
<stop offset="1" stop-color="#3E5959"/>
</linearGradient>
<linearGradient id="paint13_linear_86_112780" x1="8.98507" y1="40.3673" x2="44.6623" y2="40.3673" gradientUnits="userSpaceOnUse">
<stop stop-color="#537983"/>
<stop offset="1" stop-color="#3E5959"/>
</linearGradient>
<linearGradient id="paint14_linear_86_112780" x1="8.98536" y1="13.1326" x2="44.6625" y2="13.1326" gradientUnits="userSpaceOnUse">
<stop stop-color="#537983"/>
<stop offset="1" stop-color="#3E5959"/>
</linearGradient>
<linearGradient id="paint15_linear_86_112780" x1="26.9996" y1="5.14465" x2="26.9996" y2="26.7494" gradientUnits="userSpaceOnUse">
<stop stop-color="#FFCC5B"/>
<stop offset="1" stop-color="#FEB53C"/>
</linearGradient>
<linearGradient id="paint16_linear_86_112780" x1="15.0923" y1="31.289" x2="31.2727" y2="31.289" gradientUnits="userSpaceOnUse">
<stop stop-color="#FFC856"/>
<stop offset="1" stop-color="#FFD263"/>
</linearGradient>
<linearGradient id="paint17_linear_86_112780" x1="20.2008" y1="26.9251" x2="31.1455" y2="26.9251" gradientUnits="userSpaceOnUse">
<stop stop-color="#AEDAFE"/>
<stop offset="1" stop-color="#094F5E"/>
</linearGradient>
<linearGradient id="paint18_linear_86_112780" x1="20.9935" y1="26.75" x2="42.6001" y2="26.75" gradientUnits="userSpaceOnUse">
<stop stop-color="#537983"/>
<stop offset="1" stop-color="#384949"/>
</linearGradient>
<linearGradient id="paint19_linear_86_112780" x1="20.9941" y1="11.9267" x2="42.6008" y2="11.9267" gradientUnits="userSpaceOnUse">
<stop stop-color="#537983"/>
<stop offset="1" stop-color="#384949"/>
</linearGradient>
<linearGradient id="paint20_linear_86_112780" x1="20.9944" y1="35.0322" x2="42.6011" y2="35.0322" gradientUnits="userSpaceOnUse">
<stop stop-color="#537983"/>
<stop offset="1" stop-color="#384949"/>
</linearGradient>
<linearGradient id="paint21_linear_86_112780" x1="20.9944" y1="18.4678" x2="42.6011" y2="18.4678" gradientUnits="userSpaceOnUse">
<stop stop-color="#537983"/>
<stop offset="1" stop-color="#384949"/>
</linearGradient>
<linearGradient id="paint22_linear_86_112780" x1="20.9936" y1="41.5733" x2="42.6003" y2="41.5733" gradientUnits="userSpaceOnUse">
<stop stop-color="#537983"/>
<stop offset="1" stop-color="#384949"/>
</linearGradient>
<clipPath id="clip0_86_112780">
<rect width="52.5" height="52.5" fill="white" transform="translate(0.75 0.5)"/>
</clipPath>
</defs>
</svg>
