<svg width="54" height="54" viewBox="0 0 54 54" fill="none" xmlns="http://www.w3.org/2000/svg">
<g clip-path="url(#clip0_86_112820)">
<path d="M3.58081 23.5383H21.569L38.3825 20.1299L49.3617 13.4225L47.2575 7.64124L23.9245 13.0547L3.58081 23.5383Z" fill="#EAF4FC"/>
<path d="M27 12.341V22.4371L38.3818 20.1299L49.3611 13.4225L47.2569 7.64124L27 12.341Z" fill="#EAF4FC"/>
<path d="M45.8539 3.78736C44.9823 1.39266 42.3344 0.157882 39.9398 1.02957L5.25191 13.6549C2.85722 14.5265 1.62254 17.1743 2.49413 19.569L3.13366 21.3261V23.5382H3.57991L47.2566 7.64129L45.8539 3.78736Z" fill="#FFC24D"/>
<path d="M39.94 1.02953L27 5.73935V15.0141L47.2569 7.64125L45.8542 3.78742C44.9826 1.39262 42.3347 0.157943 39.94 1.02953Z" fill="#FFC04A"/>
<path d="M27 23.5383H53.0429L49.3611 13.4225L27 21.5613V23.5383Z" fill="#FFC04A"/>
<path d="M48.5332 53.25H5.4668C2.9225 53.25 0.852539 51.18 0.852539 48.6357V24.0264C0.852539 21.4821 2.9225 19.4121 5.4668 19.4121H48.5332C51.0775 19.4121 53.1475 21.4821 53.1475 24.0264V48.6357C53.1475 51.1801 51.0776 53.25 48.5332 53.25Z" fill="#084D5B"/>
<path d="M53.25 48.7159V24.5341C53.25 22.034 52.8344 20 52.3235 20H48V53.25H52.3235C52.8344 53.25 53.25 51.2161 53.25 48.7159Z" fill="#06353F"/>
<path d="M18.7969 34.793H8.54297C7.69354 34.793 7.00488 34.1043 7.00488 33.2549V27.1025C7.00488 26.2531 7.69354 25.5645 8.54297 25.5645H18.7969C19.6463 25.5645 20.335 26.2531 20.335 27.1025V33.2549C20.335 34.1043 19.6463 34.793 18.7969 34.793Z" fill="#FFC24D"/>
<path d="M12.6445 40.9453H8.54297C7.69354 40.9453 7.00488 40.2567 7.00488 39.4072C7.00488 38.5578 7.69354 37.8691 8.54297 37.8691H12.6445C13.494 37.8691 14.1826 38.5578 14.1826 39.4072C14.1826 40.2567 13.494 40.9453 12.6445 40.9453Z" fill="#EAF4FC"/>
<path d="M18.7969 47.0977H8.54297C7.69354 47.0977 7.00488 46.409 7.00488 45.5596C7.00488 44.7101 7.69354 44.0215 8.54297 44.0215H18.7969C19.6463 44.0215 20.335 44.7101 20.335 45.5596C20.335 46.409 19.6463 47.0977 18.7969 47.0977Z" fill="#EAF4FC"/>
<path d="M22.8984 40.9453H18.7969C17.9474 40.9453 17.2588 40.2567 17.2588 39.4072C17.2588 38.5578 17.9474 37.8691 18.7969 37.8691H22.8984C23.7479 37.8691 24.4365 38.5578 24.4365 39.4072C24.4365 40.2567 23.7479 40.9453 22.8984 40.9453Z" fill="#EAF4FC"/>
<path d="M33.1523 40.9453H29.0508C28.2013 40.9453 27.5127 40.2567 27.5127 39.4072C27.5127 38.5578 28.2013 37.8691 29.0508 37.8691H33.1523C34.0018 37.8691 34.6904 38.5578 34.6904 39.4072C34.6904 40.2567 34.0018 40.9453 33.1523 40.9453Z" fill="#EAF4FC"/>
<path d="M43.4062 40.9453H39.3047C38.4553 40.9453 37.7666 40.2567 37.7666 39.4072C37.7666 38.5578 38.4553 37.8691 39.3047 37.8691H43.4062C44.2557 37.8691 44.9443 38.5578 44.9443 39.4072C44.9443 40.2567 44.2557 40.9453 43.4062 40.9453Z" fill="#EAF4FC"/>
</g>
<defs>
<clipPath id="clip0_86_112820">
<rect width="52.5" height="52.5" fill="white" transform="translate(0.75 0.75)"/>
</clipPath>
</defs>
</svg>
