<svg width="54" height="54" viewBox="0 0 54 54" fill="none" xmlns="http://www.w3.org/2000/svg">
<g clip-path="url(#clip0_86_112850)">
<path d="M42.1697 53.25H11.8315C10.2913 53.25 9.2183 51.7117 9.75989 50.2698C10.4342 48.4746 11.3991 46.857 12.5864 45.4943C15.0037 42.7201 18.342 41.004 22.0312 41.004H31.9699C37.4682 41.004 42.1898 44.816 44.2385 50.2622C44.782 51.707 43.7133 53.25 42.1697 53.25Z" fill="#084D5B"/>
<path d="M44.2401 50.2697C42.6211 45.9597 39.3285 42.6719 35.3014 41.485C35.2615 41.4733 35.2186 41.4624 35.1739 41.4521C34.1468 41.1615 33.074 41.004 31.9686 41.004H22.0299C20.8784 41.004 19.7611 41.1713 18.6953 41.4856C20.9701 43.3091 23.857 44.4006 26.9993 44.4006C28.5989 44.4006 30.1324 44.1177 31.5525 43.5993C33.286 42.9667 35.2269 43.3986 36.5419 44.693C38.0753 46.2024 39.307 48.104 40.1189 50.2621C40.6623 51.7069 39.5936 53.2498 38.0499 53.2498H42.1682C43.7086 53.2499 44.7816 51.7115 44.2401 50.2697Z" fill="#003D48"/>
<path d="M30.0837 47.5681L28.0007 50.0438C27.478 50.6652 26.5212 50.6652 25.9985 50.0438L23.9155 47.5681C23.0328 46.519 22.5488 45.1919 22.5488 43.8208V40.2657H31.4503V43.8208C31.4504 45.1919 30.9663 46.519 30.0837 47.5681Z" fill="url(#paint0_linear_86_112850)"/>
<path d="M22.5488 43.636C23.9403 44.1305 25.4383 44.4007 26.9995 44.4007C28.5607 44.4007 30.0586 44.1305 31.4502 43.636V40.2657H22.5488V43.636Z" fill="url(#paint1_linear_86_112850)"/>
<path d="M26.9992 41.8269C19.6608 41.8269 13.7119 35.878 13.7119 28.5397V24.6966C13.7119 17.3583 19.6608 11.4094 26.9991 11.4094C34.3375 11.4094 40.2863 17.3584 40.2863 24.6966V28.5397C40.2864 35.8781 34.3375 41.8269 26.9992 41.8269Z" fill="url(#paint2_linear_86_112850)"/>
<path d="M39.4091 19.9367C39.4091 19.9367 39.408 19.9359 39.4078 19.9357C39.059 19.0255 38.6126 18.1637 38.0818 17.3634C37.5889 16.6204 37.0229 15.9288 36.3952 15.3011C33.9913 12.8962 30.6694 11.4092 26.9998 11.4092C22.3721 11.4092 18.297 13.775 15.9178 17.3634C15.3868 18.164 14.9402 19.0263 14.5913 19.9371H31.4037C34.0136 19.9371 36.1589 22.0363 36.1686 24.6463C36.1687 24.663 36.1687 24.6798 36.1687 24.6966V28.5396C36.1687 35.1775 31.301 40.6783 24.9406 41.6679C25.6118 41.7723 26.2994 41.8268 26.9998 41.8268C34.3382 41.8268 40.287 35.8779 40.287 28.5396V24.6966C40.2871 23.0192 39.9763 21.4144 39.4091 19.9367Z" fill="url(#paint3_linear_86_112850)"/>
<path d="M27.3664 15.1744L26.6015 17.3751C25.589 20.2881 22.8432 22.2407 19.7592 22.2407C17.8647 22.2407 16.0477 22.9934 14.708 24.333L13.7158 25.3253C12.0762 22.7081 12.0671 19.3865 13.6923 16.7603L14.6737 15.1744H27.3664Z" fill="url(#paint4_linear_86_112850)"/>
<path d="M21.2798 15.1744L22.0447 17.3751C23.0572 20.2881 25.8029 22.2407 28.8869 22.2407H34.2406C36.1351 22.2407 37.9521 22.9934 39.2917 24.333L40.284 25.3253C41.9236 22.7081 41.9326 19.3865 40.3075 16.7603L39.3261 15.1744H21.2798Z" fill="url(#paint5_linear_86_112850)"/>
<path d="M41.5205 21.0237C41.5205 22.5148 41.1089 24.0059 40.2866 25.32C40.2856 25.3221 40.2846 25.3231 40.2836 25.3252L39.2915 24.3331C38.2687 23.3102 36.9679 22.63 35.5673 22.3656C34.7492 20.9146 33.1851 19.937 31.4037 19.937H23.589C22.915 19.2146 22.3829 18.3481 22.0444 17.3746L21.2798 15.1744H39.3265L40.3072 16.7602C41.1161 18.0671 41.5205 19.5449 41.5205 21.0237Z" fill="url(#paint6_linear_86_112850)"/>
<path d="M21.1994 30.1412C19.6824 30.1412 18.4482 28.907 18.4482 27.3902C18.4482 26.964 18.7938 26.6184 19.22 26.6184C19.6463 26.6184 19.9918 26.964 19.9918 27.3902C19.9918 28.056 20.5335 28.5976 21.1994 28.5976C21.8652 28.5976 22.4068 28.0559 22.4068 27.3902C22.4068 26.964 22.7523 26.6184 23.1786 26.6184C23.6048 26.6184 23.9504 26.964 23.9504 27.3902C23.9505 28.907 22.7163 30.1412 21.1994 30.1412Z" fill="#003D48"/>
<path d="M32.8008 30.1412C31.2839 30.1412 30.0498 28.907 30.0498 27.3902C30.0498 26.964 30.3954 26.6184 30.8216 26.6184C31.2478 26.6184 31.5934 26.964 31.5934 27.3902C31.5934 28.056 32.1351 28.5976 32.8008 28.5976C33.4666 28.5976 34.0083 28.0559 34.0083 27.3902C34.0083 26.964 34.3539 26.6184 34.7801 26.6184C35.2064 26.6184 35.5519 26.964 35.5519 27.3902C35.5519 28.907 34.3178 30.1412 32.8008 30.1412Z" fill="url(#paint7_linear_86_112850)"/>
<path d="M27.0006 38.3945C25.2982 38.3945 23.6491 37.598 22.3574 36.1517C22.0733 35.8339 22.1009 35.346 22.4188 35.0621C22.7366 34.7781 23.2246 34.8055 23.5085 35.1235C24.518 36.2535 25.7255 36.8509 27.0006 36.8509C28.2757 36.8509 29.4832 36.2535 30.4927 35.1235C30.7767 34.8055 31.2646 34.7781 31.5824 35.0621C31.9003 35.346 31.9279 35.8339 31.6439 36.1517C30.3521 37.598 28.703 38.3945 27.0006 38.3945Z" fill="url(#paint8_linear_86_112850)"/>
<path d="M36.527 4.25H12.5474C11.8309 4.25 11.25 4.83091 11.25 5.54745V15.5773C11.25 16.2938 11.8309 16.8747 12.5474 16.8747H36.527C37.2435 16.8747 37.8244 16.2938 37.8244 15.5773V5.54755C37.8244 4.83091 37.2435 4.25 36.527 4.25Z" fill="url(#paint9_linear_86_112850)"/>
<path d="M41 5.50915V15.2409C41 15.9362 40.3496 16.5 39.5473 16.5H34.9369C35.7387 16.5 36.3896 15.9358 36.3896 15.2409V10.9368C36.3896 9.36309 34.9177 8.08736 33.1021 8.08736H11.25V5.50915C11.25 4.81317 11.9009 4.25 12.7027 4.25H39.5473C40.3491 4.25 41 4.81317 41 5.50915Z" fill="url(#paint10_linear_86_112850)"/>
<path d="M11.8095 3.79219V10.558C11.8095 11.2685 11.2336 11.8443 10.5231 11.8443C9.81268 11.8443 9.23682 11.2685 9.23682 10.558V3.79219C9.23682 3.08173 9.81268 2.50586 10.5231 2.50586C11.2335 2.50586 11.8095 3.08173 11.8095 3.79219Z" fill="#094F5E"/>
<path d="M8.71467 10.778C9.26934 10.2234 10.034 9.95487 10.8295 10.047C11.2841 10.0996 11.7187 10.2776 12.0805 10.558C13.3213 11.5196 13.4046 13.3196 12.3304 14.3938L11.3662 15.358C10.9003 15.824 10.1449 15.824 9.67901 15.358L8.71477 14.3938C7.71781 13.3969 7.71781 11.7749 8.71467 10.778Z" fill="url(#paint11_linear_86_112850)"/>
<path d="M12.0804 10.5579C11.9378 10.4475 11.7837 10.3535 11.6218 10.2762C11.7423 10.5947 11.8087 10.9397 11.8087 11.3004C11.8087 12.8999 10.5121 14.1965 8.91259 14.1965C8.77819 14.1965 8.64616 14.1866 8.5166 14.1688C8.57793 14.2464 8.64287 14.322 8.71449 14.3936L9.67873 15.3579C10.1446 15.8237 10.9 15.8237 11.3659 15.3579L12.3301 14.3936C13.4045 13.3195 13.3211 11.5195 12.0804 10.5579Z" fill="url(#paint12_linear_86_112850)"/>
<path d="M43.8932 6.12008H10.1069C8.62403 6.12008 7.42188 4.91793 7.42188 3.43504C7.42188 1.95216 8.62403 0.75 10.1069 0.75H43.8932C45.3761 0.75 46.5783 1.95216 46.5783 3.43504C46.5783 4.91793 45.3761 6.12008 43.8932 6.12008Z" fill="url(#paint13_linear_86_112850)"/>
<path d="M43.8928 0.75H39.7744C41.2573 0.75 42.4595 1.95216 42.4595 3.43504C42.4595 4.91793 41.2573 6.12008 39.7744 6.12008H43.8928C45.3756 6.12008 46.5778 4.91793 46.5778 3.43504C46.5778 1.95216 45.3756 0.75 43.8928 0.75Z" fill="url(#paint14_linear_86_112850)"/>
</g>
<defs>
<linearGradient id="paint0_linear_86_112850" x1="22.5489" y1="45.3878" x2="31.4504" y2="45.3878" gradientUnits="userSpaceOnUse">
<stop stop-color="#FFDCBD"/>
<stop offset="0.0028" stop-color="#FFDCBD"/>
<stop offset="1" stop-color="#FFA9B1"/>
</linearGradient>
<linearGradient id="paint1_linear_86_112850" x1="22.5488" y1="42.3333" x2="31.4502" y2="42.3333" gradientUnits="userSpaceOnUse">
<stop stop-color="#FFC2B5"/>
<stop offset="1" stop-color="#FF89A8"/>
</linearGradient>
<linearGradient id="paint2_linear_86_112850" x1="13.7119" y1="26.6182" x2="40.2864" y2="26.6182" gradientUnits="userSpaceOnUse">
<stop stop-color="#FFDCBD"/>
<stop offset="0.0028" stop-color="#FFDCBD"/>
<stop offset="1" stop-color="#FFA9B1"/>
</linearGradient>
<linearGradient id="paint3_linear_86_112850" x1="24.4958" y1="26.6181" x2="46.3057" y2="26.6181" gradientUnits="userSpaceOnUse">
<stop stop-color="#FFC2B5"/>
<stop offset="1" stop-color="#FF89A8"/>
</linearGradient>
<linearGradient id="paint4_linear_86_112850" x1="10.7068" y1="20.2499" x2="27.5391" y2="20.2499" gradientUnits="userSpaceOnUse">
<stop stop-color="#FFE177"/>
<stop offset="0.5725" stop-color="#FEB137"/>
<stop offset="1" stop-color="#FE646F"/>
</linearGradient>
<linearGradient id="paint5_linear_86_112850" x1="19.058" y1="20.2499" x2="43.5308" y2="20.2499" gradientUnits="userSpaceOnUse">
<stop stop-color="#FFE177"/>
<stop offset="0.5725" stop-color="#FEB137"/>
<stop offset="1" stop-color="#FE646F"/>
</linearGradient>
<linearGradient id="paint6_linear_86_112850" x1="11.2032" y1="20.2498" x2="40.9017" y2="20.2498" gradientUnits="userSpaceOnUse">
<stop stop-color="#FFE177"/>
<stop offset="0.5725" stop-color="#FEB137"/>
</linearGradient>
<linearGradient id="paint7_linear_86_112850" x1="27.3776" y1="28.3797" x2="35.8572" y2="28.3797" gradientUnits="userSpaceOnUse">
<stop stop-color="#003D48"/>
</linearGradient>
<linearGradient id="paint8_linear_86_112850" x1="20.9291" y1="36.6302" x2="28.4908" y2="36.6302" gradientUnits="userSpaceOnUse">
<stop stop-color="#FFC2B5"/>
<stop offset="0.2441" stop-color="#FFBBB3"/>
<stop offset="0.6097" stop-color="#FFA6AF"/>
<stop offset="1" stop-color="#FF89A8"/>
</linearGradient>
<linearGradient id="paint9_linear_86_112850" x1="12.1995" y1="10.5624" x2="37.3319" y2="10.5624" gradientUnits="userSpaceOnUse">
<stop stop-color="#54A1D3"/>
</linearGradient>
<linearGradient id="paint10_linear_86_112850" x1="5.61888" y1="10.375" x2="48.6314" y2="10.375" gradientUnits="userSpaceOnUse">
<stop stop-color="#54A1D3"/>
</linearGradient>
<linearGradient id="paint11_linear_86_112850" x1="7.55162" y1="12.8684" x2="13.7071" y2="12.8684" gradientUnits="userSpaceOnUse">
<stop stop-color="#003D48"/>
</linearGradient>
<linearGradient id="paint12_linear_86_112850" x1="4.48523" y1="12.9919" x2="14.0774" y2="12.9919" gradientUnits="userSpaceOnUse">
<stop stop-color="#094F5E"/>
</linearGradient>
<linearGradient id="paint13_linear_86_112850" x1="9.94309" y1="3.43504" x2="44.2764" y2="3.43504" gradientUnits="userSpaceOnUse">
<stop stop-color="#54A1D3"/>
</linearGradient>
<linearGradient id="paint14_linear_86_112850" x1="25.3255" y1="3.43504" x2="46.4518" y2="3.43504" gradientUnits="userSpaceOnUse">
<stop stop-color="#54A1D3"/>
</linearGradient>
<clipPath id="clip0_86_112850">
<rect width="52.5" height="52.5" fill="white" transform="translate(0.75 0.75)"/>
</clipPath>
</defs>
</svg>
