<svg width="180" height="156" viewBox="0 0 180 156" fill="none" xmlns="http://www.w3.org/2000/svg">
    <path d="M116.769 13.7943C119.186 13.7943 121.505 14.7606 123.214 16.4808C124.924 18.2009 125.884 20.5339 125.884 22.9665L125.884 133.033C125.884 135.466 124.924 137.799 123.214 139.519C121.505 141.239 119.186 142.205 116.769 142.205L62.0765 142.205C59.6589 142.205 57.3404 141.239 55.6309 139.519C53.9215 137.799 52.9611 135.466 52.9611 133.033L52.9611 22.9665C52.9611 20.5339 53.9215 18.2009 55.6309 16.4808C57.3404 14.7606 59.6589 13.7943 62.0765 13.7943L116.769 13.7943ZM62.0765 4.62207C57.2414 4.62207 52.6043 6.55478 49.1854 9.99503C45.7664 13.4353 43.8457 18.1013 43.8457 22.9665L43.8457 133.033C43.8457 137.898 45.7664 142.564 49.1854 146.005C52.6043 149.445 57.2414 151.378 62.0765 151.378L116.769 151.378C121.604 151.378 126.241 149.445 129.66 146.005C133.079 142.564 135 137.898 135 133.033L135 22.9665C135 18.1013 133.079 13.4353 129.66 9.99503C126.241 6.55478 121.604 4.62207 116.769 4.62207L62.0765 4.62207Z" fill="#595959"/>
    <path d="M89.9993 132.889C92.4475 132.889 94.7954 131.915 96.5265 130.181C98.2576 128.447 99.2301 126.096 99.2301 123.644C99.2301 121.193 98.2576 118.841 96.5265 117.108C94.7954 115.374 92.4475 114.4 89.9993 114.4C87.5512 114.4 85.2033 115.374 83.4722 117.108C81.7411 118.841 80.7686 121.193 80.7686 123.644C80.7686 126.096 81.7411 128.447 83.4722 130.181C85.2033 131.915 87.5512 132.889 89.9993 132.889Z" fill="#595959"/>
    <path d="M25.1447 33.6622L22.7102 33.568C21.7458 33.5304 20.9874 32.711 21.0248 31.741C21.0623 30.7709 21.8769 30.0081 22.8413 30.0458L32.3076 30.4131L31.2683 39.7555C31.1559 40.7256 30.2945 41.4225 29.3301 41.3095C28.3657 41.1965 27.6728 40.33 27.7851 39.36L28.1784 35.8095C14.1522 45.8395 5.81885 62.0287 5.81885 79.3952C5.81885 96.6204 14.0305 112.697 27.8694 122.755C28.6372 123.31 28.8245 124.384 28.3001 125.175C27.7477 126.004 26.6241 126.202 25.8189 125.618C11.0623 114.891 2.30762 97.7505 2.30762 79.3952C2.30762 61.3035 10.8001 44.408 25.1447 33.6622Z" fill="#595959"/>
    <path d="M153.701 122.338L156.135 122.432C157.1 122.47 157.858 123.289 157.821 124.259C157.783 125.229 156.969 125.992 156.004 125.954L146.538 125.587L147.577 116.245C147.69 115.275 148.551 114.578 149.516 114.691C150.48 114.804 151.173 115.671 151.061 116.641L150.667 120.191C164.703 110.152 173.036 93.9642 173.036 76.5991C173.036 59.3752 164.825 43.3001 150.986 33.2426C150.218 32.687 150.031 31.6135 150.555 30.8224C151.107 29.9937 152.231 29.796 153.036 30.3798C167.783 41.0965 176.538 58.2451 176.538 76.5991C176.538 94.6894 168.046 111.584 153.701 122.338Z" fill="#595959"/>
</svg>
