<svg width="78" height="78" viewBox="0 0 78 78" fill="none" xmlns="http://www.w3.org/2000/svg">
<g filter="url(#filter0_d)">
<circle cx="39" cy="35" r="35" fill="white"/>
<circle cx="39" cy="35" r="34.2391" stroke="#4797C8" stroke-width="1.52174"/>
</g>
<path d="M59.0003 26.3253V43.4165C59.0003 46.3362 56.6246 48.7122 53.7047 48.7122H36.9036L25.7582 56.4679V48.7122C22.8467 48.7023 20.4813 46.3303 20.4813 43.4165V26.3253C20.4813 23.4054 22.857 21.0297 25.777 21.0297H53.7047C56.6246 21.0297 59.0003 23.4054 59.0003 26.3253Z" fill="#76B8EE"/>
<path d="M59.0002 26.3253V43.4165C59.0002 46.3362 56.6245 48.7122 53.7046 48.7122H39.7349V21.0297H53.7046C56.6245 21.0297 59.0002 23.4054 59.0002 26.3253Z" fill="#76B8EE"/>
<path d="M30.7909 29.0043H48.6906V31.2612H30.7909V29.0043Z" fill="white"/>
<path d="M30.7909 33.8191H48.6906V36.0761H30.7909V33.8191Z" fill="white"/>
<path d="M30.7909 38.634H48.6906V40.891H30.7909V38.634Z" fill="white"/>
<path d="M39.7349 29.0043H48.6906V31.2612H39.7349V29.0043Z" fill="#E1E1E3"/>
<path d="M39.7349 33.8191H48.6906V36.0761H39.7349V33.8191Z" fill="#E1E1E3"/>
<path d="M39.7349 38.634H48.6906V40.891H39.7349V38.634Z" fill="#E1E1E3"/>
<defs>
<filter id="filter0_d" x="0" y="0" width="78" height="78" filterUnits="userSpaceOnUse" color-interpolation-filters="sRGB">
<feFlood flood-opacity="0" result="BackgroundImageFix"/>
<feColorMatrix in="SourceAlpha" type="matrix" values="0 0 0 0 0 0 0 0 0 0 0 0 0 0 0 0 0 0 127 0" result="hardAlpha"/>
<feOffset dy="4"/>
<feGaussianBlur stdDeviation="2"/>
<feComposite in2="hardAlpha" operator="out"/>
<feColorMatrix type="matrix" values="0 0 0 0 0.462745 0 0 0 0 0.721569 0 0 0 0 0.933333 0 0 0 0.31 0"/>
<feBlend mode="normal" in2="BackgroundImageFix" result="effect1_dropShadow"/>
<feBlend mode="normal" in="SourceGraphic" in2="effect1_dropShadow" result="shape"/>
</filter>
</defs>
</svg>
