<svg width="288" height="496" viewBox="0 0 288 496" fill="none" xmlns="http://www.w3.org/2000/svg">
<path d="M61.0191 335.189C61.0191 312.675 64.6965 292.444 72.0514 274.498C79.4062 256.552 94.5756 240.918 117.559 227.597C124.464 223.46 132.973 218.769 143.086 213.525C153.492 208.06 163.411 201.714 172.735 194.556C182.266 187.349 190.539 178.614 197.22 168.707C203.954 158.607 207.445 146.692 207.225 134.554C207.426 125.715 205.546 116.951 201.737 108.972C198.223 101.848 193.296 95.5143 187.257 90.355C181.054 85.1857 173.876 81.3145 166.149 78.971C158.228 76.4706 149.971 75.1941 141.664 75.1857C132.25 75.0569 122.904 76.798 114.168 80.3078C106.132 83.6194 98.5926 88.0282 91.7659 93.4086C85.1125 98.676 79.0918 104.697 73.8244 111.35C68.9755 117.398 64.4881 123.727 60.3859 130.305H50.0009L0.369873 88.9338C6.11051 75.0222 14.155 62.1776 24.1652 50.94C33.9531 39.9831 45.3388 30.5662 57.9374 23.0076C70.7535 15.3882 84.5821 9.61799 99.0129 5.86822C113.868 1.94455 129.171 -0.0280056 144.535 0.000300348C162.054 0.0101464 179.478 2.56505 196.263 7.58498C213 12.511 228.59 20.7195 242.123 31.7321C256.102 43.3037 267.4 57.775 275.233 74.1444C283.733 91.387 287.982 111.965 287.982 135.877C288.195 149.049 286.455 162.18 282.818 174.842C279.517 185.794 274.506 196.157 267.972 205.546C261.502 214.777 253.853 223.122 245.218 230.369C235.843 238.179 225.931 245.322 215.555 251.744C206.352 257.279 197.159 262.57 187.974 267.617C179.086 272.466 170.659 278.118 162.8 284.503C155.399 290.501 149.096 297.738 144.169 305.892C139.347 313.941 136.936 323.712 136.936 335.204L61.0191 335.189ZM62.4263 495.875V400.708H138.977V495.875H62.4263Z" fill="#76B8EE" fill-opacity="0.2"/>
</svg>
