<svg width="188" height="166" viewBox="0 0 188 166" fill="none" xmlns="http://www.w3.org/2000/svg">
<path d="M0.252441 160.21L21.9393 160.115L43.6262 160.08L87 160.016L130.374 160.08L152.061 160.115L173.748 160.21L152.061 160.309L130.374 160.345L87 160.408L43.6262 160.345L21.9393 160.309L0.252441 160.21Z" fill="#263238"/>
<path d="M187.4 57.2351V56.2002C187.4 29.58 165.82 8 139.2 8C112.58 8 91 29.58 91 56.2002V57.2351C91 83.8553 112.58 105.435 139.2 105.435C165.82 105.435 187.4 83.8554 187.4 57.2351Z" fill="#EBEBEB"/>
<path d="M134.763 18.6144C136.951 16.0465 140.698 15.4292 144.322 16.1612C147.947 16.8932 152.287 18.7212 152.683 24.7829C153.008 29.7051 151.496 34.5047 151.496 39.9966C151.496 45.4886 157.712 58.8663 147.765 65.3949C138.827 71.2588 120.717 65.8737 120.159 53.8017C119.719 44.2343 131.067 35.387 132.262 31.6004C133.457 27.8138 132.365 21.4237 134.763 18.6144Z" fill="#263238"/>
<path d="M133.129 24.0153C133.062 26.7533 132.666 29.523 131.546 32.1068C131.256 32.7612 130.876 33.3723 130.419 33.9229C129.98 34.4769 129.513 34.9992 129.046 35.5056C128.104 36.5304 127.174 37.5473 126.276 38.6038C124.492 40.6735 123.018 42.9913 121.9 45.4845C120.828 47.9894 120.238 50.6743 120.163 53.398C120.051 52.0234 120.093 50.6407 120.286 49.2751C120.499 47.9025 120.853 46.5554 121.342 45.255C122.373 42.6495 123.833 40.2354 125.663 38.1131C126.561 37.0408 127.515 36.016 128.464 35.0031C129.414 33.9902 130.375 33.0248 130.965 31.8377C131.569 30.6241 132.03 29.344 132.338 28.0234C132.685 26.7052 132.949 25.3665 133.129 24.0153Z" fill="#263238"/>
<path d="M152.433 28.9177C152.366 31.7112 152.188 34.5007 152.263 37.2744C152.295 38.6558 152.412 40.0339 152.611 41.4012C152.817 42.7465 153.22 44.0918 153.557 45.4529C153.893 46.8141 154.194 48.195 154.415 49.5877C154.629 50.987 154.719 52.4024 154.684 53.8175C154.62 55.2394 154.353 56.645 153.893 57.9918C153.362 59.3156 152.569 60.5187 151.562 61.5292C152.445 60.4448 153.116 59.2047 153.541 57.8731C153.91 56.549 154.094 55.1802 154.087 53.8056C153.975 51.0387 153.542 48.2942 152.797 45.627C152.48 44.2699 152.077 42.9246 151.883 41.4962C151.701 40.0967 151.63 38.6851 151.669 37.2744C151.753 34.4758 152.008 31.6851 152.433 28.9177Z" fill="#263238"/>
<path d="M138.043 52.4089C128.943 62.4273 121.516 67.2387 114.196 67.2387C107.236 67.2387 92.3664 50.3395 91.2744 48.1119C90.3327 46.1889 102.539 35.6679 104.415 36.9776C107.58 39.1696 117.733 51.8589 118.809 51.9182C119.886 51.9776 123.85 49.3582 133.398 44.8871C139.198 42.1767 144.374 45.4648 138.043 52.4089Z" fill="#EB9481"/>
<path d="M92.6908 49.7776C91.3534 48.3294 85.7388 41.1005 84.627 38.7422C83.5151 36.384 80.8206 29.3648 82.5418 28.3321C84.263 27.2993 85.2126 29.2896 85.2126 29.2896C85.2126 29.2896 84.5439 26.1479 86.3719 25.2656C88.1999 24.3832 89.5769 27.5288 89.5769 27.5288C89.5769 27.5288 89.1258 24.2527 91.0092 23.5009C92.8926 22.7491 93.7552 26.1519 93.7552 26.1519C93.7552 26.1519 93.2012 23.1725 95.0134 23.2081C97.1936 23.2516 97.5932 28.8583 99.0137 31.3708C99.3342 31.9406 106.369 42.4497 106.369 42.4497L92.6908 49.7776Z" fill="#EB9481"/>
<path d="M93.6805 25.8631C93.9852 29.9821 94.8319 31.7349 97.2416 35.0071C97.2891 35.0704 97.206 35.1535 97.1506 35.0942C94.4877 32.1029 93.1107 30.0612 93.4708 25.8671C93.4985 25.6613 93.6647 25.6653 93.6805 25.8631Z" fill="#263238"/>
<path d="M89.5652 27.2044C90.2537 31.4579 91.1479 33.365 93.4388 36.9776C93.4705 37.029 93.3874 37.0883 93.3518 37.0409C90.8155 33.6816 89.486 31.6122 89.3555 27.2717C89.3476 27.0738 89.5335 27.0066 89.5652 27.2044Z" fill="#263238"/>
<path d="M85.3397 29.4716C86.3051 33.5431 87.2033 35.6758 89.8701 38.8966C89.9334 38.9757 89.8266 39.0746 89.7593 39.0034C86.7206 35.9805 85.581 33.3255 85.221 29.5072C85.1972 29.254 85.2803 29.2144 85.3397 29.4716Z" fill="#263238"/>
<path d="M109.507 43.4548C109.507 43.4548 109.416 38.2754 108.874 36.0082C108.332 33.741 103.224 26.0412 101.479 27.0541C99.2515 28.3598 101.333 33.3849 102.666 35.7193C102.666 35.7193 97.5224 38.7423 98.2228 42.6753C98.9231 46.6083 109.507 43.4548 109.507 43.4548Z" fill="#EB9481"/>
<path d="M100.985 27.612C99.7976 30.2709 101.776 33.2187 102.904 35.573C102.922 35.6068 102.932 35.6445 102.932 35.683C102.933 35.7214 102.924 35.7594 102.907 35.7938C102.89 35.8283 102.865 35.8582 102.834 35.881C102.803 35.9038 102.767 35.9189 102.73 35.9251C100.648 37.3377 98.1278 39.9293 98.0962 42.5803C98.0962 42.5961 98.0899 42.6112 98.0788 42.6223C98.0677 42.6334 98.0526 42.6397 98.0368 42.6397C98.0211 42.6397 98.006 42.6334 97.9949 42.6223C97.9837 42.6112 97.9775 42.5961 97.9775 42.5803C97.6253 39.7315 99.8925 36.9776 102.267 35.5809C101.08 33.1791 99.2318 30.1404 100.961 27.5883L100.985 27.612Z" fill="#263238"/>
<path d="M122.35 49.006L129.662 62.6489C129.662 62.6489 139.578 53.0221 141.16 49.006C142.743 44.99 141.038 42.0738 133.983 44.2223C129.953 45.4168 126.055 47.0197 122.35 49.006Z" fill="#76B8EE"/>
<path d="M131.352 59.8041C130.992 59.0642 130.675 58.3005 130.299 57.5646C129.924 56.8286 129.548 56.1006 129.156 55.3805C128.365 53.9244 127.573 52.4643 126.75 51.028C126.283 50.2367 125.793 49.4216 125.282 48.654C125.263 48.6184 125.195 48.654 125.215 48.6817C126.556 51.6849 128.183 54.5614 129.805 57.4182C130.276 58.2451 130.81 59.0325 131.3 59.8476C131.316 59.8674 131.372 59.8318 131.352 59.8041Z" fill="#263238"/>
<path d="M141.161 49.0062C139.579 53.0222 129.663 62.649 129.663 62.649L124.737 53.4733L140.987 44.4875C141.921 45.4609 141.909 47.1109 141.161 49.0062Z" fill="#263238"/>
<path d="M123.928 77.7344C123.928 77.7344 105.634 96 120.5 102C135.366 108 154 106.5 166 98C178 89.5 154.545 53.7442 148.637 47.1231C143.873 41.7845 138.858 42.2625 135.366 44.9933C134.545 45.6417 125.476 60.5072 124.494 62.8594C120.6 72.1403 123.928 77.7344 123.928 77.7344Z" fill="#76B8EE"/>
<path d="M135.67 44.0166C135.67 44.0166 132.9 51.9815 134.507 52.3969C138.503 53.4257 143.864 46.901 144.185 46.2363C144.264 46.0661 144.62 41.6069 144.885 38.1368C145.055 35.9052 145.186 34.0812 145.186 34.0812L135.326 37.4642L135.642 43.5774L135.67 44.0166Z" fill="#EB9481"/>
<path d="M135.309 37.4642L135.625 43.5774C137.631 43.2964 142.043 42.2083 144.868 38.1368C145.038 35.9052 145.169 34.0812 145.169 34.0812L143.935 34.4769L135.309 37.4642Z" fill="#263238"/>
<path d="M127.965 28.9058C127.846 32.0118 128.155 34.5243 128.911 36.1941C129.558 37.6203 130.588 38.839 131.887 39.715C133.185 40.5909 134.701 41.0896 136.266 41.1558C137.453 41.1994 140.872 40.8868 143.345 39.0034C145.268 37.5394 146.427 34.9002 147.084 30.259C148.587 19.647 143.732 16.078 138.949 15.6507C134.165 15.2234 128.361 18.1988 127.965 28.9058Z" fill="#EB9481"/>
<path d="M130.708 26.5398C130.957 26.5042 131.186 26.4329 131.428 26.3775C131.69 26.3539 131.938 26.2472 132.136 26.0729C132.186 26.0051 132.212 25.9234 132.212 25.8394C132.212 25.7555 132.186 25.6737 132.136 25.606C132.013 25.4915 131.862 25.4117 131.698 25.3749C131.533 25.338 131.363 25.3454 131.202 25.3963C130.861 25.4505 130.552 25.6296 130.336 25.8988C130.285 25.9611 130.254 26.0375 130.247 26.1178C130.241 26.1981 130.259 26.2785 130.3 26.3482C130.34 26.4179 130.401 26.4736 130.474 26.5078C130.547 26.542 130.628 26.5532 130.708 26.5398Z" fill="#263238"/>
<path d="M137.699 26.8049C137.456 26.7621 137.216 26.7066 136.979 26.6387C136.716 26.6168 136.468 26.5083 136.274 26.3301C136.225 26.2623 136.198 26.1806 136.198 26.0966C136.198 26.0127 136.225 25.9309 136.274 25.8632C136.399 25.749 136.551 25.67 136.716 25.6346C136.881 25.5991 137.052 25.6083 137.212 25.6614C137.556 25.7164 137.867 25.8985 138.083 26.1718C138.132 26.2351 138.161 26.312 138.166 26.3922C138.171 26.4725 138.151 26.5523 138.11 26.621C138.068 26.6898 138.006 26.7442 137.933 26.777C137.86 26.8099 137.778 26.8196 137.699 26.8049Z" fill="#263238"/>
<path d="M135.949 29.4796C135.949 29.4519 136.005 29.5152 136.005 29.5469C135.945 30.271 136.005 31.1296 136.65 31.3907C136.65 31.3907 136.65 31.4342 136.65 31.4303C135.843 31.2799 135.779 30.1562 135.949 29.4796Z" fill="#263238"/>
<path d="M136.638 28.7475C137.825 28.7159 137.793 31.0701 136.701 31.1018C135.609 31.1334 135.669 28.7752 136.638 28.7475Z" fill="#263238"/>
<path d="M137.101 28.8781C137.303 29.0126 137.497 29.2501 137.75 29.2738C138.003 29.2975 138.257 29.0601 138.446 28.8227C138.466 28.799 138.486 28.8227 138.486 28.8504C138.486 29.3015 138.312 29.7644 137.825 29.8277C137.339 29.891 137.073 29.4795 136.963 29.0364C136.943 28.9414 137.018 28.8227 137.101 28.8781Z" fill="#263238"/>
<path d="M132.052 29.171C132.052 29.1433 131.997 29.2067 131.997 29.2344C131.997 29.9663 131.922 30.817 131.261 31.0465C131.241 31.0465 131.241 31.0901 131.261 31.0861C132.072 30.9753 132.191 29.8595 132.052 29.171Z" fill="#263238"/>
<path d="M131.403 28.4072C130.216 28.3162 130.133 30.6705 131.221 30.7536C132.309 30.8367 132.384 28.4864 131.403 28.4072Z" fill="#263238"/>
<path d="M130.921 28.5457C130.731 28.6645 130.526 28.8821 130.316 28.89C130.106 28.8979 129.877 28.6328 129.722 28.3835C129.722 28.3558 129.687 28.3835 129.683 28.4073C129.655 28.8583 129.782 29.3292 130.213 29.436C130.644 29.5428 130.909 29.1551 131.032 28.7119C131.04 28.6249 130.981 28.4983 130.921 28.5457Z" fill="#263238"/>
<path d="M135.878 35.1457C135.708 35.3237 135.542 35.5651 135.281 35.5967C135.009 35.5987 134.74 35.5462 134.489 35.4424C134.485 35.4382 134.478 35.4361 134.472 35.4364C134.466 35.4368 134.46 35.4397 134.456 35.4444C134.452 35.4491 134.449 35.4553 134.45 35.4616C134.45 35.4679 134.453 35.4738 134.458 35.478C134.568 35.6177 134.713 35.7252 134.879 35.7892C135.044 35.8533 135.224 35.8715 135.399 35.842C135.546 35.7963 135.675 35.7092 135.773 35.5912C135.871 35.4732 135.932 35.3294 135.949 35.1773C135.952 35.1683 135.951 35.1587 135.947 35.1504C135.942 35.142 135.936 35.1354 135.927 35.1316C135.919 35.1278 135.909 35.1271 135.9 35.1297C135.891 35.1323 135.883 35.1379 135.878 35.1457Z" fill="#263238"/>
<path d="M132.9 32.4432C132.9 32.4432 132.725 33.5313 132.718 34.0457C132.718 34.0931 132.84 34.1169 133.014 34.1327C133.014 34.1327 133.014 34.1327 133.034 34.1327C133.471 34.2191 133.923 34.1844 134.341 34.0323C134.76 33.8803 135.129 33.6167 135.408 33.2701C135.444 33.2227 135.38 33.1673 135.333 33.1989C134.668 33.632 133.882 33.8401 133.089 33.7924C133.058 33.646 133.45 31.9407 133.366 31.9328C132.962 31.9579 132.562 32.0391 132.179 32.1741C132.476 29.899 133.133 27.6911 133.39 25.4239C133.39 25.3448 133.283 25.3171 133.26 25.3883C132.405 27.6516 132.009 30.263 131.641 32.6015C131.61 32.8982 132.678 32.5302 132.9 32.4432Z" fill="#263238"/>
<path d="M133.342 33.8636C133.596 34.2514 133.944 34.5676 134.355 34.7815C134.582 34.8895 134.836 34.9254 135.083 34.8844C135.625 34.7855 135.677 34.2988 135.613 33.8754C135.575 33.6501 135.511 33.4298 135.424 33.2186C134.816 33.6502 134.087 33.8762 133.342 33.8636Z" fill="#263238"/>
<path d="M134.355 34.7816C134.582 34.8895 134.836 34.9254 135.083 34.8845C135.625 34.7856 135.677 34.2989 135.613 33.8755C135.332 33.8629 135.055 33.9455 134.827 34.11C134.599 34.2744 134.432 34.511 134.355 34.7816Z" fill="#FF98B9"/>
<path d="M146.89 29.3056C145.723 29.3412 142.411 26.429 141.81 20.8342C141.81 20.8342 142.7 25.8197 143.143 26.52C143.587 27.2204 141.292 24.878 140.742 20.3752C140.742 20.3752 138.407 22.409 136.326 23.2003C134.245 23.9917 132.943 24.0945 132.765 23.9521C132.587 23.8096 135.645 22.5356 136.405 21.4831C136.405 21.4831 130.973 24.6485 128.377 25.0758C128.076 25.1233 128.583 20.4504 132.385 17.4433C136.187 14.4361 141.414 15.1879 143.29 16.6915C143.29 16.6915 145.339 16.7983 147.808 19.5878C150.277 22.3773 148.145 29.266 146.89 29.3056Z" fill="#263238"/>
<path d="M145.35 31.0148C145.35 31.0148 147.522 27.5605 149.077 28.3202C150.632 29.0799 149.117 34.0061 147.372 34.7539C147.155 34.8661 146.917 34.9332 146.673 34.9509C146.429 34.9687 146.185 34.9369 145.953 34.8574C145.722 34.7779 145.51 34.6523 145.328 34.4883C145.147 34.3243 145.001 34.1253 144.899 33.9032L145.35 31.0148Z" fill="#EB9481"/>
<path d="M148.607 29.7328C148.639 29.7328 148.643 29.7684 148.607 29.7803C147.385 30.3461 146.787 31.5371 146.384 32.7597C146.736 32.277 147.226 32 147.867 32.4115C147.899 32.4313 147.867 32.4867 147.836 32.4788C147.615 32.4249 147.384 32.4392 147.172 32.5198C146.96 32.6003 146.778 32.7433 146.649 32.9298C146.435 33.2497 146.255 33.5904 146.111 33.9467C146.059 34.0615 145.853 34.014 145.893 33.8834C145.891 33.8729 145.891 33.8622 145.893 33.8518C145.782 32.2532 146.91 29.9662 148.607 29.7328Z" fill="#263238"/>
<path d="M151.952 48.555C156.336 53.6157 168.626 71.9354 165.777 76.8853C163.043 81.6334 156.842 82.9708 153.273 76.5925C150.705 72.0304 146.389 58.4192 145.316 51.8906C144.446 46.6044 147.9 43.8742 151.952 48.555Z" fill="#EB9481"/>
<path d="M147.857 64.7737L162.386 59.4361C162.386 59.4361 154.231 48.2741 150.476 46.1494C146.721 44.0246 143.595 45.3066 144.743 52.5909C145.36 56.7479 146.404 60.8303 147.857 64.7737Z" fill="#76B8EE"/>
<path d="M159.805 57.3627C159.014 57.6199 158.222 57.8257 157.431 58.0947C156.64 58.3638 155.88 58.6368 155.112 58.9256C153.557 59.5033 152.006 60.081 150.467 60.7022C149.605 61.0504 148.742 61.4263 147.899 61.822C147.86 61.822 147.876 61.9051 147.899 61.8932C151.065 60.9832 154.135 59.7724 157.19 58.5656C158.076 58.2134 158.927 57.7742 159.801 57.4221C159.861 57.4063 159.833 57.3509 159.805 57.3627Z" fill="#263238"/>
<path d="M148.675 64.4334C148.387 64.497 148.105 64.5843 147.832 64.6946C147.436 63.836 146.498 60.0612 146.281 59.0918C145.846 57.1609 145.489 55.2103 145.034 53.2794C145.034 53.224 144.928 53.2398 144.935 53.2794C145.07 54.3517 145.236 55.42 145.422 56.4804C145.224 55.9739 145.026 55.4635 144.872 54.9452C144.874 54.9416 144.874 54.9376 144.874 54.9337C144.874 54.9298 144.872 54.926 144.87 54.9227C144.868 54.9194 144.865 54.9167 144.862 54.9148C144.858 54.9129 144.854 54.9119 144.85 54.9119C144.846 54.9119 144.843 54.9129 144.839 54.9148C144.836 54.9167 144.833 54.9194 144.831 54.9227C144.828 54.926 144.827 54.9298 144.827 54.9337C144.826 54.9376 144.827 54.9416 144.829 54.9452C145.008 55.589 145.229 56.2207 145.489 56.8365C145.644 58.8149 147.444 65.1021 147.495 65.0784C147.903 64.8938 148.299 64.6864 148.683 64.4572C148.726 64.469 148.726 64.4295 148.675 64.4334Z" fill="#263238"/>
<path d="M141.489 27.1886L137.354 44.8396C137.176 45.358 137.441 45.7734 137.948 45.7655L145.841 47.3719C146.118 47.3466 146.381 47.2432 146.601 47.0736C146.821 46.9041 146.989 46.6754 147.084 46.4144L151.218 28.7634C151.396 28.2451 151.131 27.8296 150.625 27.8415L142.731 26.2311C142.455 26.2564 142.191 26.3599 141.971 26.5294C141.751 26.699 141.584 26.9276 141.489 27.1886Z" fill="#A6A6A6"/>
<path d="M142.166 27.2875L138.043 44.9385C137.865 45.4568 138.13 45.8723 138.636 45.8644L146.53 47.4708C146.806 47.4458 147.07 47.3429 147.29 47.1741C147.51 47.0053 147.677 46.7775 147.773 46.5172L151.892 28.8662C152.07 28.3439 151.805 27.9324 151.298 27.9403L143.408 26.33C143.132 26.3566 142.869 26.4606 142.649 26.63C142.43 26.7994 142.262 27.0272 142.166 27.2875Z" fill="#DBDBDB"/>
<path d="M144.667 28.0472C144.671 28.2055 144.627 28.3613 144.542 28.4945C144.456 28.6277 144.333 28.7322 144.187 28.7944C144.041 28.8566 143.88 28.8736 143.725 28.8434C143.57 28.8132 143.427 28.737 143.315 28.6247C143.203 28.5125 143.128 28.3693 143.099 28.2137C143.069 28.0582 143.087 27.8973 143.15 27.752C143.213 27.6067 143.318 27.4837 143.452 27.3987C143.585 27.3138 143.741 27.2709 143.9 27.2756C144.104 27.2767 144.299 27.3584 144.443 27.503C144.586 27.6476 144.667 27.8432 144.667 28.0472Z" fill="#263238"/>
<path d="M155.381 78.1911C157.949 82.9392 164.747 80.2328 165.775 76.8854C168.189 69.0313 166.693 55.974 165.253 48.6818C164.79 46.3354 148.852 48.6818 148.947 51.218C149.058 54.2845 150.348 68.8532 155.381 78.1911Z" fill="#EB9481"/>
<path d="M165.076 52.1676C165.879 48.7075 165.928 45.1152 165.219 41.6347C164.38 37.8402 161.638 29.7922 150.614 26.2034C147.999 25.3488 143.666 25.9858 147.449 28.9296C150.124 31.0227 152.45 31.5411 153.78 33.0446C153.78 33.0446 148.367 34.5086 147.615 37.1596C146.957 39.4801 146.464 41.8442 146.139 44.2343C146.563 44.3932 146.997 44.5253 147.437 44.63C147.205 46.9381 147.742 49.2584 148.964 51.2298L165.076 52.1676Z" fill="#EB9481"/>
<path d="M163.837 38.1409C162.199 36.9539 158.693 34.4295 155.097 33.3928C151.108 32.2058 143.12 31.0583 142.289 34.0061C141.679 36.1704 144.69 36.8866 144.69 36.8866C144.69 36.8866 141.288 37.1003 141.165 39.1736C141.054 41.0649 143.416 41.4804 143.416 41.4804C143.416 41.4804 141.375 41.9631 141.616 43.807C141.909 46.0188 146.146 44.6418 148.382 46.6281C148.885 47.0634 163.837 38.1409 163.837 38.1409Z" fill="#EB9481"/>
<path d="M154.566 37.7967C152.841 36.9104 148.402 35.9094 144.753 36.8154C144.67 36.8154 144.643 36.9064 144.722 36.9064C148.026 36.8173 151.329 37.1282 154.558 37.8323C154.578 37.8402 154.586 37.8046 154.566 37.7967Z" fill="#263238"/>
<path d="M153.277 41.7851C151.694 41.1757 147.085 40.3448 143.421 41.3894C143.338 41.4131 143.314 41.4883 143.393 41.4844C146.693 41.2208 150.011 41.335 153.285 41.8246C153.29 41.8236 153.295 41.8205 153.298 41.8161C153.301 41.8116 153.302 41.8062 153.301 41.8009C153.3 41.7957 153.297 41.791 153.292 41.7881C153.288 41.7851 153.282 41.784 153.277 41.7851Z" fill="#263238"/>
<path d="M153.925 74.8832C153.807 74.4875 153.692 74.0918 153.565 73.7318C153.304 72.9404 153.079 72.1491 152.849 71.3577C152.382 69.775 151.935 68.1686 151.543 66.5542C150.762 63.3365 150.168 60.0759 149.767 56.789C149.656 55.879 149.561 54.9689 149.462 54.0589C149.363 53.1488 149.332 52.2032 149.158 51.2891C149.158 51.2417 148.695 50.5453 148.513 50.201C148.324 49.843 148.159 49.4729 148.018 49.0932C147.722 48.3184 147.522 47.5106 147.421 46.6875C147.419 46.6823 147.415 46.6779 147.41 46.6748C147.406 46.6717 147.4 46.67 147.395 46.67C147.389 46.67 147.384 46.6717 147.379 46.6748C147.375 46.6779 147.371 46.6823 147.369 46.6875C147.318 47.6241 147.436 48.5624 147.717 49.4572C147.961 50.2057 148.382 50.8843 148.944 51.4355C148.944 51.5543 148.972 53.0182 149.019 53.8373C149.067 54.6563 149.142 55.4754 149.233 56.2905C149.419 57.9286 149.648 59.5627 149.937 61.1889C150.502 64.4785 151.287 67.7264 152.287 70.9106C152.287 70.9621 152.323 71.0135 152.339 71.0649C152.339 71.1836 152.339 71.3023 152.339 71.421C152.345 71.7137 152.368 72.0057 152.41 72.2955C152.491 72.872 152.633 73.4383 152.833 73.985C152.832 73.9898 152.831 73.9949 152.832 74C152.832 74.0051 152.834 74.0099 152.837 74.0141C152.84 74.0183 152.844 74.0217 152.848 74.0241C152.853 74.0264 152.858 74.0277 152.863 74.0277C152.868 74.0277 152.873 74.0264 152.878 74.0241C152.882 74.0217 152.886 74.0183 152.889 74.0141C152.892 74.0099 152.894 74.0051 152.894 74C152.895 73.9949 152.895 73.9898 152.893 73.985C152.752 73.413 152.657 72.8309 152.608 72.244L152.537 71.6426C152.754 72.2836 152.984 72.9246 153.209 73.5616C153.368 74.0048 153.53 74.4361 153.712 74.8674C153.894 75.2986 154.036 75.7181 154.25 76.1177C154.25 76.1493 154.313 76.1177 154.305 76.0939C154.206 75.6706 154.048 75.2828 153.925 74.8832Z" fill="#263238"/>
<path d="M104.601 88.9177V78.282L92.5127 88.9177H104.601Z" fill="#EBEBEB"/>
<path d="M42.4757 111.467C45.9576 126.618 53.1589 144.779 56.2333 147.727C60.1227 151.454 85.8534 158.291 87.1354 158.43C90.3008 158.75 96.683 135.876 93.296 135.382C88.1523 134.638 69.4132 133.621 68.2934 132.47C67.1736 131.318 59.2206 121.292 51.0934 110.027C45.4828 102.244 40.3113 102.066 42.4757 111.467Z" fill="#AD6359"/>
<path d="M84.5858 157.195C84.9616 157.385 90.3389 160.092 93.6625 161.053C96.1434 161.773 103.337 163.653 104.401 160.998C105.129 159.193 101.026 157.591 98.1534 156.392C96.638 155.759 94.7704 154.176 95.2175 153.203C96.0089 151.502 99.8983 153.203 102.462 154.699C107.42 157.579 114.024 162.766 117.051 160.238C118.194 159.288 116.865 157.555 114.922 155.858C118.087 157.836 121.443 159.459 122.752 158.454C123.508 157.88 123.544 157.092 123.124 156.198C124.098 156.515 124.956 156.451 125.558 155.803C126.583 154.726 126.084 153.144 124.96 151.517C125.153 151.497 125.339 151.432 125.501 151.326C125.663 151.22 125.798 151.077 125.894 150.908C128.066 147.596 117.189 138.088 113.434 137.198C102.375 134.567 90.7187 135.057 90.7187 135.057C86.3742 138.543 84.5739 157.187 84.5858 157.195Z" fill="#AD6359"/>
<path d="M100.849 147.015C103.482 147.426 105.997 148.393 108.228 149.852C111.033 151.703 112.893 153.872 115.243 156.052C115.252 156.064 115.257 156.079 115.257 156.095C115.256 156.11 115.25 156.125 115.24 156.137C115.23 156.148 115.216 156.156 115.201 156.159C115.185 156.161 115.17 156.158 115.156 156.151C114.036 155.114 109.391 151.213 108.192 150.326C106.024 148.695 103.512 147.577 100.849 147.058C100.813 147.054 100.821 147.007 100.849 147.015Z" fill="#263238"/>
<path d="M102.911 142.318C105.82 143.109 108.799 143.901 111.498 145.293C114.449 146.797 116.76 149.25 119.015 151.624C120.382 153.041 121.715 154.491 123.016 155.977C123.067 156.04 122.984 156.139 122.929 156.075C120.623 153.638 118.249 151.264 115.806 148.953C113.546 146.807 110.883 145.129 107.972 144.015C106.31 143.378 104.601 142.876 102.892 142.369C102.868 142.361 102.88 142.31 102.911 142.318Z" fill="#263238"/>
<path d="M106.016 138.215C108.841 138.796 111.306 139.291 113.807 140.802C117.119 142.808 120.316 146.184 121.435 147.382C122.674 148.704 123.869 150.065 125.04 151.446C125.088 151.501 124.993 151.588 124.941 151.533C122.257 148.505 119.38 145.654 116.327 142.998C114.891 141.712 113.266 140.655 111.508 139.865C109.726 139.165 107.887 138.62 106.012 138.234C106.012 138.234 105.992 138.211 106.016 138.215Z" fill="#263238"/>
<path d="M88.9387 134.147L81.0252 159.217C81.0252 159.217 59.5994 153.1 55.702 148.878C51.8047 144.656 44.5599 122.855 42.4351 112.286C40.3103 101.718 45.6519 101.999 50.5622 108.642C55.4726 115.286 67.6989 131.453 68.3676 131.805C69.0363 132.157 88.9387 134.147 88.9387 134.147Z" fill="#76B8EE"/>
<path opacity="0.1" d="M88.9387 134.147L81.0252 159.217C81.0252 159.217 59.5994 153.1 55.702 148.878C51.8047 144.656 44.5599 122.855 42.4351 112.286C40.3103 101.718 45.6519 101.999 50.5622 108.642C55.4726 115.286 67.6989 131.453 68.3676 131.805C69.0363 132.157 88.9387 134.147 88.9387 134.147Z" fill="black"/>
<path d="M78.969 148.079C79.9304 145.123 80.9117 142.176 81.7585 139.184C82.2412 137.487 82.7318 135.785 83.1987 134.084C83.2185 134.017 83.1117 133.981 83.0879 134.044C82.0077 136.972 80.9315 139.912 79.9858 142.888C79.0402 145.863 78.0787 148.823 77.1766 151.779C76.6661 153.472 76.2032 155.173 75.7957 156.895C75.7957 156.926 75.8431 156.946 75.855 156.914C77.0341 154.022 78.0035 151.054 78.969 148.079Z" fill="#263238"/>
<path d="M70.2194 155.771L69.2698 155.438C67.4853 154.801 65.6652 154.117 63.9519 153.417C63.7304 153.329 63.5127 153.238 63.2991 153.147C62.9548 153.005 62.6106 152.859 62.2782 152.712L61.7797 152.495L61.6016 152.415L61.0872 152.178C60.4067 151.865 59.7617 151.553 59.1603 151.236L58.7646 151.015C57.8245 150.531 56.9385 149.949 56.1215 149.278C56.0464 149.211 55.9712 149.143 55.9039 149.076C55.8367 149.009 55.7654 148.941 55.7061 148.878C51.7889 144.656 44.5639 122.855 42.4391 112.286L42.3679 111.922V111.843C42.2255 111.052 42.0989 110.047 41.996 108.97C41.6992 103.712 44.188 102.853 47.2624 105.164C54.9266 121.612 66.6663 148.791 70.2194 155.771Z" fill="#263238"/>
<path d="M59.1055 159.981L12.416 160.226C12.4556 159.221 19.1029 129.822 24.3891 118.973C31.167 105.061 34.6766 103.937 36.746 103.194C39.4168 102.236 44.1728 102.711 45.3005 103.245C46.5825 103.842 50.6579 110.957 52.1179 116.176C55.038 126.673 59.7624 159.34 59.1055 159.981Z" fill="#EBEBEB"/>
<path d="M34.3511 104.294C34.3511 104.294 40.2862 126.273 40.583 127.733C41.0301 129.854 43.9897 160.115 43.9897 160.115L11.4456 160.226C11.4456 160.226 18.5479 132.212 23.8341 119.947C29.603 106.494 34.3511 104.294 34.3511 104.294Z" fill="#76B8EE"/>
<g opacity="0.1">
<path opacity="0.1" d="M34.3511 104.294C34.3511 104.294 40.2862 126.273 40.583 127.733C41.0301 129.854 43.9897 160.115 43.9897 160.115L11.4456 160.226C11.4456 160.226 18.5479 132.212 23.8341 119.947C29.603 106.494 34.3511 104.294 34.3511 104.294Z" fill="black"/>
</g>
<path d="M45.7275 103.585C45.9016 104.286 51.3738 122.143 51.7537 126.594C52.177 131.532 55.9201 160.226 55.9201 160.226H60.6682C60.6682 160.226 53.7953 119.001 51.908 114.645C48.0462 105.754 45.7275 103.585 45.7275 103.585Z" fill="#76B8EE"/>
<path opacity="0.1" d="M45.7275 103.585C45.9016 104.286 51.3738 122.143 51.7537 126.594C52.177 131.532 55.9201 160.226 55.9201 160.226H60.6682C60.6682 160.226 53.7953 119.001 51.908 114.645C48.0462 105.754 45.7275 103.585 45.7275 103.585Z" fill="black"/>
<path d="M28.2065 109.433C20.388 117.81 1.37977 149.59 7.40984 155.387C13.4399 161.184 46.9179 153.381 56.3191 148.898C59.1165 147.569 48.4887 130.127 45.2007 129.72C42.4626 129.383 28.4716 135.781 28.064 134.978C27.609 134.068 29.8327 127.354 33.2078 115.194C37.0814 101.18 31.6647 105.73 28.2065 109.433Z" fill="#AD6359"/>
<path d="M59.0974 124.093C65.8951 123.144 67.8022 123.947 73.1003 120.101C76.5862 117.576 79.6962 118.72 77.706 122.728C74.4535 129.288 65.9386 132.351 62.6703 132.565L59.0974 124.093Z" fill="#AD6359"/>
<path d="M41.0396 130.63C41.0396 130.63 48.68 126.388 55.8259 124.663C60.7639 123.476 71.8032 122.071 82.3677 132.972C84.8723 135.556 86.6093 141.016 80.9868 138.282C76.9905 136.339 75.0517 133.902 72.5154 133.194C72.5154 133.194 73.9003 140.399 71.2137 142.808C68.8656 144.914 66.3704 146.85 63.7473 148.601C63.316 148.195 62.9115 147.762 62.5365 147.303C62.5365 147.303 59.8143 149.317 54.6943 148.827L41.0396 130.63Z" fill="#AD6359"/>
<path d="M60.7229 124.299C63.097 125.529 68.0469 128.224 71.3389 131.84C74.9989 135.861 80.9617 144.581 77.9664 147.272C75.7744 149.23 73.2183 146.085 73.2183 146.085C73.2183 146.085 74.9237 150.212 72.5536 151.545C70.3972 152.764 68.5533 150.224 68.5533 150.224C68.5533 150.224 69.1587 152.902 66.8519 153.674C64.0822 154.6 63.2671 148.831 59.6467 147.343C58.8197 146.987 60.7229 124.299 60.7229 124.299Z" fill="#AD6359"/>
<path d="M66.454 134.982C68.4838 136.506 72.2111 141.147 73.2398 145.954C73.2635 146.065 73.1963 146.14 73.1528 146.045C71.3654 142.111 69.1067 138.408 66.4263 135.018C66.3946 134.982 66.4263 134.982 66.454 134.982Z" fill="#263238"/>
<path d="M62.5042 138.792C64.1225 140.288 67.7508 145.242 68.6252 150.152C68.645 150.263 68.5698 150.334 68.5342 150.235C66.9499 146.215 64.915 142.386 62.4685 138.824C62.4448 138.8 62.4685 138.773 62.5042 138.792Z" fill="#263238"/>
<path d="M72.5142 133.146C74.73 133.799 76.1703 134.887 78.0537 136.185C78.9704 136.84 79.9228 137.444 80.9065 137.993C81.8086 138.48 83.142 139.216 84.0996 138.452C84.6377 138.029 84.6298 137.265 84.4952 136.644C84.2247 135.745 83.8133 134.894 83.2766 134.124C83.2766 134.092 83.3043 134.056 83.328 134.084C83.8462 134.786 84.2917 135.539 84.6575 136.331C84.897 136.874 84.9673 137.477 84.8593 138.06C84.5308 139.279 83.0906 139.441 82.0895 139.105C81.4829 138.882 80.8997 138.6 80.3486 138.262C79.8105 137.954 79.2882 137.621 78.7659 137.273C77.7134 136.561 76.7044 135.789 75.6598 135.065C74.645 134.384 73.5877 133.768 72.4944 133.221C72.4861 133.217 72.4795 133.211 72.4756 133.202C72.4717 133.194 72.4709 133.185 72.4732 133.176C72.4756 133.167 72.4809 133.159 72.4884 133.154C72.4959 133.148 72.505 133.146 72.5142 133.146Z" fill="#263238"/>
<path d="M77.1553 140.941C76.5815 139.679 73.4755 134.416 72.4705 133.198C72.4668 133.192 72.4652 133.184 72.466 133.177C72.4669 133.17 72.4701 133.164 72.4751 133.159C72.4801 133.154 72.4867 133.15 72.4937 133.15C72.5008 133.149 72.5079 133.15 72.514 133.154C74.2431 134.792 77.0168 139.141 77.6578 140.533C78.2988 141.926 79.0347 143.671 79.0347 145.202C79.0347 147.517 77.4995 147.972 76.9337 148.071C76.2565 148.194 75.5578 148.079 74.9553 147.747C74.2504 147.316 73.6416 146.745 73.1669 146.069C73.1431 146.037 73.1866 145.994 73.2143 146.025C74.0057 146.939 75.351 147.838 76.6053 147.671C76.8835 147.645 77.1536 147.563 77.3996 147.431C77.6457 147.298 77.8626 147.118 78.0376 146.9C78.3804 146.343 78.5124 145.682 78.4095 145.036C78.2245 143.61 77.8005 142.226 77.1553 140.941Z" fill="#263238"/>
<path d="M41.039 130.63L51.7539 153.183C51.7539 153.183 9.84409 162.592 6.22763 155.296C2.61117 148 18.8892 119.448 26.221 111.131C34.7241 101.492 35.8082 104.772 33.9367 113.315C31.9583 122.257 28.1875 135.188 28.1875 135.188L41.039 130.63Z" fill="#76B8EE"/>
<path opacity="0.1" d="M41.039 130.63L51.7539 153.183C51.7539 153.183 9.84409 162.592 6.22763 155.296C2.61117 148 18.8892 119.448 26.221 111.131C34.7241 101.492 35.8082 104.772 33.9367 113.315C31.9583 122.257 28.1875 135.188 28.1875 135.188L41.039 130.63Z" fill="black"/>
<path d="M15.4501 141.19C19.3158 138.505 23.5607 136.413 28.0444 134.982C29.3146 134.586 30.5965 134.211 31.8785 133.843C31.9181 133.843 31.9339 133.894 31.8785 133.906C29.6426 134.629 27.4508 135.483 25.3143 136.462C23.1803 137.412 21.07 138.399 18.9835 139.425C17.7965 140.007 16.6411 140.644 15.4778 141.265C15.47 141.264 15.4628 141.26 15.4568 141.255C15.4507 141.25 15.4461 141.243 15.4434 141.235C15.4406 141.228 15.4398 141.22 15.441 141.212C15.4421 141.204 15.4453 141.197 15.4501 141.19Z" fill="#263238"/>
<path d="M40.9285 130.57C40.7188 130.626 29.2561 134.412 28.8802 134.586C28.9277 134.412 30.9852 128.319 31.2938 127.425C31.3215 127.338 31.3492 127.247 31.3809 127.16C31.5866 126.764 31.8003 126.368 31.9942 125.973C32.2395 125.454 32.4848 124.928 32.7262 124.39H32.7024L31.9111 125.921C31.7884 126.155 31.6737 126.396 31.5589 126.637C31.7607 126.008 31.9546 125.375 32.1485 124.738C32.4571 123.729 32.7341 122.708 33.0071 121.687C33.0071 121.652 32.9675 121.644 32.9557 121.687C32.3463 123.464 31.6816 125.221 31.0683 126.997C30.455 128.774 28.0968 135.307 28.1166 135.307C28.1364 135.307 40.7386 130.851 40.9839 130.752C40.9958 130.749 41.007 130.743 41.0166 130.735C41.0263 130.727 41.0343 130.717 41.0401 130.706C41.046 130.695 41.0497 130.683 41.0509 130.671C41.0521 130.658 41.0508 130.646 41.0472 130.634C41.0436 130.622 41.0376 130.611 41.0297 130.601C41.0217 130.591 41.012 130.583 41.001 130.577C40.9899 130.572 40.9779 130.568 40.9654 130.567C40.953 130.565 40.9405 130.567 40.9285 130.57Z" fill="#263238"/>
<path d="M41.6999 145.27C40.5129 142.757 39.3615 140.229 38.0914 137.752C37.3673 136.347 36.6511 134.939 35.9152 133.542C35.8875 133.49 35.7925 133.542 35.8163 133.585C36.9004 136.157 37.9925 138.729 39.1953 141.257C40.3982 143.786 41.5694 146.282 42.792 148.775C43.4884 150.192 44.2283 151.586 45.0117 152.957C45.0117 152.985 45.075 152.957 45.0632 152.957C44.0661 150.338 42.8909 147.81 41.6999 145.27Z" fill="#263238"/>
<path d="M52.2953 153.531C51.8759 152.835 51.3457 151.838 50.8986 151.157C50.7799 150.979 50.6414 151.015 50.7364 151.201C51.0569 151.834 51.322 152.542 51.6346 153.179C51.049 153.298 50.4475 153.401 49.8699 153.523C49.1893 153.666 48.5127 153.812 47.8321 153.951C46.4974 154.214 45.1626 154.478 43.8279 154.742C41.1215 155.246 38.4045 155.689 35.677 156.072C30.2129 156.872 24.7109 157.388 19.1932 157.619C17.6501 157.674 16.103 157.702 14.5599 157.682C13.0377 157.686 11.5164 157.612 10.0017 157.46C9.95821 157.46 9.9503 157.528 10.0017 157.536C11.305 157.811 12.6281 157.983 13.9585 158.05C15.3552 158.117 16.7559 158.149 18.1566 158.133C20.9263 158.101 23.7237 157.919 26.4974 157.666C31.9973 157.16 37.4813 156.416 42.9179 155.454C44.4425 155.19 45.9632 154.904 47.48 154.596C48.2476 154.441 49.0112 154.287 49.7749 154.117C50.5385 153.947 52.3666 153.65 52.2953 153.531Z" fill="#263238"/>
<path d="M45.736 111.788C42.9663 112.551 38.0085 108.456 35.9826 105.061C35.8441 104.828 36.1171 102.311 36.3031 99.237C36.4099 97.3734 36.4812 95.2803 36.4099 93.3889C36.4099 92.9933 48.4503 95.85 48.4503 95.85C48.4503 95.85 47.4216 99.878 47.564 103.194C47.5766 103.46 47.6137 103.725 47.6748 103.985C47.6857 104.027 47.6936 104.069 47.6985 104.112C47.9953 105.58 48.4147 111.048 45.736 111.788Z" fill="#AD6359"/>
<path d="M37.146 93.4363C37.8186 96.6333 40.1056 104.329 46.476 104.238C46.8845 104.234 47.2921 104.197 47.6947 104.127C47.6997 104.084 47.6997 104.04 47.6947 103.997C47.6359 103.736 47.5976 103.472 47.5799 103.205C47.4414 99.8858 48.4662 95.8538 48.4662 95.8538C48.4662 95.8538 39.7535 93.7963 37.146 93.4363Z" fill="#263238"/>
<path d="M49.8866 87.6793C49.7521 90.5994 51.7226 93.0605 54.2865 93.1792C56.8505 93.2979 59.0346 91.0188 59.1652 88.0987C59.2958 85.1786 57.3253 82.7175 54.7653 82.6028C52.2053 82.4881 50.0172 84.7592 49.8866 87.6793Z" fill="#455A64"/>
<path d="M58.6945 88.2599C58.8415 85.0115 56.6494 82.2737 53.7984 82.1447C50.9473 82.0158 48.517 84.5445 48.3701 87.7929C48.2231 91.0412 50.4152 93.779 53.2662 93.908C56.1172 94.0369 58.5476 91.5082 58.6945 88.2599Z" fill="#C7C7C7"/>
<path d="M37.98 78.2385C35.9067 82.1478 35.7761 94.5759 38.2135 97.8283C41.7468 102.537 48.6909 104.266 52.9721 99.7671C57.1386 95.391 57.0199 79.1921 54.1908 76.1177C50.0323 71.5793 41.0425 72.4656 37.98 78.2385Z" fill="#AD6359"/>
<path d="M48.3144 87.8455C48.3144 87.8138 48.2471 87.889 48.2511 87.9246C48.2946 88.7595 48.2075 89.7249 47.4597 90.0177C47.436 90.0177 47.4399 90.0692 47.4597 90.0652C48.3856 89.9149 48.4885 88.6329 48.3144 87.8455Z" fill="#263238"/>
<path d="M47.5476 86.9908C46.1984 86.9195 46.1548 89.622 47.4012 89.6853C48.6476 89.7486 48.6792 87.0501 47.5476 86.9908Z" fill="#263238"/>
<path d="M52.9998 87.9484C52.9998 87.9168 53.0631 87.9919 53.0631 88.0236C53.0236 88.8624 53.1185 89.8279 53.8545 90.1167C53.8782 90.1167 53.8545 90.1682 53.8545 90.1642C52.9405 90.0178 52.8257 88.7358 52.9998 87.9484Z" fill="#263238"/>
<path d="M53.7634 87.1056C55.1087 87.0225 55.172 89.725 53.9217 89.8002C52.6713 89.8754 52.6318 87.1531 53.7634 87.1056Z" fill="#263238"/>
<path d="M46.3378 84.8303C46.7334 84.8105 47.0618 84.7274 47.4377 84.672C47.8343 84.6645 48.217 84.5253 48.5258 84.2764C48.6086 84.1811 48.6575 84.061 48.6646 83.9349C48.6718 83.8089 48.6369 83.684 48.5654 83.58C48.3924 83.3979 48.174 83.2653 47.9326 83.1957C47.6913 83.1262 47.4358 83.1222 47.1924 83.1843C46.6768 83.2253 46.1953 83.4583 45.8432 83.8372C45.7694 83.928 45.7233 84.0381 45.7105 84.1544C45.6976 84.2707 45.7185 84.3883 45.7707 84.493C45.8228 84.5977 45.9041 84.6852 46.0046 84.7451C46.1052 84.8049 46.2208 84.8345 46.3378 84.8303Z" fill="#263238"/>
<path d="M55.0339 85.1271C54.6727 85.0477 54.3161 84.9486 53.9656 84.8304C53.5764 84.7834 53.2134 84.6096 52.9329 84.3358C52.8619 84.2313 52.8277 84.1062 52.8356 83.9801C52.8435 83.8541 52.893 83.7342 52.9764 83.6394C53.1699 83.4772 53.4031 83.3694 53.652 83.327C53.9009 83.2846 54.1566 83.3091 54.3929 83.398C54.8989 83.5043 55.3473 83.7948 55.6512 84.2131C55.7104 84.3125 55.7401 84.4266 55.7368 84.5423C55.7336 84.6579 55.6974 84.7702 55.6327 84.8661C55.568 84.9619 55.4773 85.0374 55.3712 85.0836C55.2652 85.1298 55.1482 85.1449 55.0339 85.1271Z" fill="#263238"/>
<path d="M46.7879 95.6046C46.9858 95.8025 47.1836 96.0755 47.4843 96.1071C47.7955 96.1043 48.1027 96.037 48.3864 95.9093C48.3921 95.9081 48.398 95.9085 48.4035 95.9104C48.409 95.9123 48.4138 95.9157 48.4175 95.9202C48.4212 95.9247 48.4235 95.9301 48.4244 95.9359C48.4252 95.9416 48.4244 95.9475 48.4221 95.9528C48.3007 96.1162 48.1371 96.2434 47.9489 96.3208C47.7607 96.3982 47.5549 96.4228 47.3537 96.392C47.1836 96.3444 47.0314 96.2477 46.9159 96.114C46.8005 95.9802 46.7271 95.8155 46.7048 95.6402C46.693 95.5927 46.7563 95.573 46.7879 95.6046Z" fill="#263238"/>
<path d="M47.7107 93.1118C47.9173 93.4462 48.1909 93.7342 48.5144 93.9576C48.8379 94.181 49.2042 94.3349 49.5901 94.4096C49.9267 94.4814 50.2718 94.5041 50.6149 94.4769C50.6812 94.4744 50.7473 94.4678 50.8127 94.4571L50.9947 94.4294C51.0396 94.422 51.0808 94.4003 51.1122 94.3674C51.1436 94.3346 51.1635 94.2925 51.1688 94.2474C51.1708 94.2184 51.1708 94.1893 51.1688 94.1603V94.0852C51.1965 93.4402 51.1688 92.4589 51.1688 92.4589C51.4023 92.5816 52.5972 93.1435 52.5814 92.8071C52.4627 90.0137 52.3282 86.9116 51.6199 84.1617C51.6159 84.1442 51.6061 84.1286 51.5921 84.1174C51.5781 84.1062 51.5607 84.1001 51.5428 84.1001C51.5248 84.1001 51.5074 84.1062 51.4934 84.1174C51.4794 84.1286 51.4696 84.1442 51.4656 84.1617C51.4656 86.8483 51.9562 89.5151 52.0077 92.2136C51.584 92.0087 51.1339 91.8636 50.6703 91.7823C50.5793 91.81 50.793 93.6776 50.7573 93.9665C50.7583 93.977 50.7583 93.9876 50.7573 93.9981C49.6692 94.1168 48.8581 93.7765 47.8214 93.0327C47.7265 92.9891 47.6592 93.0406 47.7107 93.1118Z" fill="#263238"/>
<path d="M50.2383 94.1406C49.8785 94.5961 49.4068 94.9505 48.8693 95.1694C48.5726 95.2792 48.2491 95.2944 47.9434 95.2129C47.2787 95.023 47.2708 94.4216 47.4013 93.8874C47.4743 93.6123 47.5792 93.3467 47.7139 93.0961C48.4227 93.7043 49.3071 94.0702 50.2383 94.1406Z" fill="#263238"/>
<path d="M48.8693 95.1694C48.5726 95.2792 48.2491 95.2944 47.9434 95.2129C47.2787 95.023 47.2708 94.4216 47.4013 93.8875C48.1175 93.9745 48.8179 94.473 48.8693 95.1694Z" fill="#FF98B9"/>
<path opacity="0.2" d="M36.4248 87.0145C37.2399 86.884 39.1945 84.1261 40.0215 83.0301C40.8484 81.9341 41.3272 76.0583 41.4024 74.7209C39.9513 75.5415 38.7631 76.7572 37.9758 78.2266C37.05 79.9834 36.5158 83.4376 36.4248 87.0145Z" fill="#263238"/>
<path d="M51.512 79.5878C51.0289 80.1177 50.4183 80.5155 49.7383 80.7433C49.0584 80.9711 48.3314 81.0215 47.6265 80.8896C46.9072 80.7572 46.2336 80.443 45.6699 79.9769C45.1061 79.5108 44.671 78.9083 44.4057 78.2267C44.4057 78.1831 44.3266 78.2069 44.3424 78.2465C44.5564 78.989 44.9691 79.659 45.536 80.1841C46.1029 80.7091 46.8025 81.0694 47.5593 81.2259C48.3111 81.3394 49.0796 81.2529 49.7874 80.9751C50.4952 80.6973 51.1173 80.2379 51.5912 79.6432C51.5939 79.633 51.5934 79.6222 51.5898 79.6123C51.5862 79.6024 51.5796 79.5939 51.571 79.5878C51.5623 79.5818 51.552 79.5786 51.5415 79.5785C51.531 79.5785 51.5207 79.5818 51.512 79.5878Z" fill="#263238"/>
<path d="M47.4922 69.0549C45.0509 69.0312 42.7719 70.3092 41.8262 71.9394C41.301 72.8683 41.1057 73.9478 41.2722 75.0019C41.2722 75.0454 41.3633 75.0375 41.3593 75.0019C41.3388 74.0729 41.5686 73.1555 42.0245 72.3459C42.4805 71.5362 43.1459 70.8642 43.951 70.4002C44.8324 69.86 45.8272 69.5317 46.8571 69.441C47.887 69.3504 48.9238 69.4999 49.8861 69.8779C50.824 70.225 51.607 70.8957 52.0939 71.7692C52.1414 71.8602 52.3234 71.8088 52.2878 71.7178C51.6706 70.1667 49.6961 69.0747 47.4922 69.0549Z" fill="#263238"/>
<path d="M61.479 74.7883C61.1171 73.5724 60.3381 72.5231 59.2791 71.8247C57.8111 70.8513 56.1137 70.9344 54.436 71.0531C54.4266 71.0531 54.4175 71.0569 54.4108 71.0635C54.4041 71.0702 54.4004 71.0793 54.4004 71.0887C54.4004 71.0982 54.4041 71.1072 54.4108 71.1139C54.4175 71.1206 54.4266 71.1243 54.436 71.1243C55.8683 71.0294 57.3284 71.0136 58.6183 71.7297C59.6919 72.311 60.5309 73.2464 60.9923 74.3768C61.4315 75.5362 61.4371 76.8152 61.0082 77.9784C60.5792 79.1417 59.7446 80.1108 58.6578 80.7076C58.024 81.035 57.33 81.2295 56.6183 81.2792C55.9066 81.3288 55.1923 81.2326 54.5191 80.9964C54.4637 80.9766 54.4241 81.0518 54.4756 81.0755C55.3849 81.4339 56.376 81.5322 57.338 81.3593C58.3 81.1865 59.1949 80.7493 59.9225 80.0968C60.6502 79.4443 61.1819 78.6021 61.4582 77.6646C61.7345 76.7271 61.7444 75.7311 61.4869 74.7883H61.479Z" fill="#263238"/>
<path d="M37.0987 80.6323C37.0987 80.6323 34.9383 76.1889 36.9642 73.7358C38.1116 72.3469 41.7439 72.6635 41.7439 72.6635C41.7439 72.6635 42.9903 70.6178 46.0291 70.0362C49.0679 69.4546 52.6527 71.3577 52.6527 71.3577C52.6527 71.3577 55.6044 69.8107 58.2554 71.4567C61.955 73.7516 61.2744 79.4849 57.4047 81.1942C54.6904 82.3812 51.1531 79.9043 51.1531 79.9043C50.8009 79.9399 47.1528 81.9579 44.573 78.6777C44.573 78.6777 42.3097 80.5453 40.3907 79.109C40.0643 79.6697 39.5734 80.1165 38.9846 80.389C38.3957 80.6615 37.7374 80.7464 37.0987 80.6323Z" fill="#263238"/>
<path d="M38.6535 88.5181C38.6535 88.5181 36.6 84.1657 34.6651 84.8146C32.7303 85.4635 33.8026 91.4857 35.7414 92.6173C35.9806 92.7796 36.2501 92.8919 36.5339 92.9474C36.8176 93.0028 37.1096 93.0004 37.3923 92.9401C37.675 92.8799 37.9427 92.7631 38.1791 92.5968C38.4156 92.4305 38.616 92.2181 38.7683 91.9724L38.6535 88.5181Z" fill="#AD6359"/>
<path d="M35.0141 86.528C34.9824 86.528 34.9666 86.5675 35.0141 86.5833C36.3673 87.4222 36.9015 88.906 37.1943 90.3977C36.8579 89.7844 36.3159 89.3887 35.5087 89.7764C35.5003 89.7819 35.4939 89.7899 35.4904 89.7993C35.4869 89.8087 35.4864 89.8189 35.489 89.8286C35.4917 89.8382 35.4973 89.8468 35.5051 89.8531C35.5129 89.8593 35.5224 89.863 35.5324 89.8635C35.8026 89.8269 36.0776 89.8745 36.3197 89.9998C36.5619 90.1251 36.7595 90.3221 36.8856 90.5638C37.0907 90.9704 37.2525 91.3975 37.3684 91.8379C37.4158 91.9803 37.6612 91.9487 37.6374 91.7904C37.6393 91.7786 37.6393 91.7666 37.6374 91.7548C37.9698 89.907 36.9766 87.0621 35.0141 86.528Z" fill="#263238"/>
<path d="M43.1285 97.2824L39.2312 95.6008L36.0974 91.6994L36.6988 91.2128L39.7139 94.9677L43.4372 96.5741L43.1285 97.2824Z" fill="#C7C7C7"/>
<path d="M42.7125 96.661C43.1082 95.5254 46.2736 95.9448 45.6999 97.662C45.1261 99.3793 42.3287 97.7886 42.7125 96.661Z" fill="#37474F"/>
<path d="M34.6057 84.6958C34.6057 84.6958 34.1823 78.3136 36.0499 74.8039C38.1311 70.8828 46.7568 67.1516 52.6682 71.3655C52.6682 71.3655 43.0652 69.6483 38.5901 75.0849C36.7067 77.3719 36.7542 84.8738 36.7542 84.8738L34.6057 84.6958Z" fill="#C7C7C7"/>
<path d="M35.4753 93.8623C38.3291 93.8339 40.6163 91.1751 40.584 87.9236C40.5516 84.6721 38.212 82.0593 35.3582 82.0877C32.5044 82.1161 30.2171 84.7749 30.2495 88.0264C30.2818 91.2779 32.6215 93.8907 35.4753 93.8623Z" fill="#C7C7C7"/>
<path d="M39.0763 87.7545C39.104 90.6785 37.0504 93.0684 34.4865 93.0921C31.9225 93.1159 29.8175 90.7695 29.7898 87.8455C29.7621 84.9215 31.8157 82.5316 34.3796 82.5079C36.9436 82.4841 39.0486 84.8305 39.0763 87.7545Z" fill="#455A64"/>
<path d="M47.6504 103.914L44.8609 110.957L36.0849 102.102L33.6238 104.966C33.6238 104.966 42.2297 119.056 42.2811 118.419L45.1498 112.346L49.3518 116.544L48.9561 105.963L47.6504 103.914Z" fill="#EBEBEB"/>
<path d="M49.4546 111.301C49.3319 109.556 49.2607 107.795 49.0589 106.058C49.0589 105.999 48.956 105.971 48.9402 106.058C48.5999 107.748 49.1024 114.415 49.1024 116.018H49.0826C48.9085 115.836 45.1892 112.326 45.1536 112.381C44.5324 113.347 42.4234 117.766 42.281 118.17C40.9199 115.93 35.1589 107.111 33.5366 104.994C33.5287 104.98 33.5158 104.97 33.5006 104.966C33.4853 104.962 33.4691 104.964 33.4555 104.972C33.4418 104.98 33.4319 104.993 33.4278 105.008C33.4237 105.024 33.4259 105.04 33.4337 105.053C34.6208 107.427 42.099 119.064 42.2019 119.033C43.312 116.946 44.3144 114.804 45.205 112.615C45.8341 113.378 49.5851 117.343 49.597 117.082C49.6517 115.154 49.6041 113.224 49.4546 111.301Z" fill="#263238"/>
<path d="M143.518 85.3963H131.28C130.093 85.3953 128.956 84.9235 128.117 84.0844C127.278 83.2454 126.806 82.1078 126.805 80.9212C126.805 79.7344 127.276 78.5961 128.116 77.7569C128.955 76.9176 130.093 76.4462 131.28 76.4462H143.518C144.705 76.4462 145.843 76.9176 146.683 77.7569C147.522 78.5961 147.993 79.7344 147.993 80.9212C147.993 81.5089 147.878 82.0908 147.653 82.6338C147.428 83.1767 147.098 83.67 146.683 84.0856C146.267 84.5011 145.774 84.8308 145.231 85.0557C144.688 85.2806 144.106 85.3963 143.518 85.3963Z" fill="#455A64"/>
<path d="M133.956 80.8419C133.964 80.7004 134.011 80.5637 134.09 80.4463L134.201 80.284L134.434 80.0506L134.707 79.8528C135.083 79.6135 135.503 79.4508 135.942 79.374C136.954 79.1722 137.996 79.1722 139.008 79.374C139.442 79.4482 139.856 79.6082 140.227 79.8448C140.322 79.9082 140.417 79.9794 140.508 80.0466L140.737 80.2761C140.797 80.3629 140.853 80.4527 140.904 80.5452C140.942 80.6404 140.974 80.7382 140.999 80.838H138.992C138.977 80.84 138.961 80.8369 138.947 80.829C138.934 80.8211 138.923 80.809 138.917 80.7945C138.862 80.6881 138.781 80.5981 138.68 80.5335C138.579 80.4689 138.463 80.432 138.344 80.4265C137.76 80.3889 137.174 80.3889 136.591 80.4265C136.472 80.4315 136.357 80.4678 136.257 80.5317C136.157 80.5956 136.075 80.6849 136.021 80.7905C136.021 80.8182 135.993 80.838 135.954 80.838H133.956V80.8419Z" fill="white"/>
<path d="M133.956 81.9617V81.2297H135.934C135.934 81.2733 135.934 81.3207 135.934 81.3722V81.9617C135.939 81.9962 135.937 82.0315 135.926 82.0647C135.915 82.0979 135.896 82.1281 135.872 82.1527C135.847 82.1774 135.817 82.1959 135.784 82.2067C135.75 82.2176 135.715 82.2204 135.681 82.215H134.205C134.17 82.2206 134.135 82.2179 134.102 82.2071C134.069 82.1963 134.039 82.1777 134.015 82.1529C133.99 82.1281 133.972 82.0977 133.962 82.0645C133.952 82.0312 133.949 81.996 133.956 81.9617Z" fill="white"/>
<path d="M139.009 81.9854C139.009 81.7362 139.009 81.4869 139.009 81.2416H140.968V81.2851C140.968 81.5146 140.968 81.748 140.968 81.9775C140.972 82.0107 140.968 82.0442 140.957 82.0757C140.946 82.1072 140.928 82.1358 140.904 82.1594C140.881 82.183 140.852 82.2009 140.821 82.2119C140.789 82.2229 140.756 82.2266 140.722 82.2229H139.231C139.2 82.2242 139.169 82.2188 139.141 82.2071C139.112 82.1955 139.086 82.1777 139.065 82.1552C139.044 82.1326 139.028 82.1058 139.019 82.0765C139.009 82.0472 139.006 82.0161 139.009 81.9854Z" fill="white"/>
<path d="M93.3064 160.701H90.592V162.474H93.3064V160.701Z" fill="#455A64"/>
<path d="M96.8242 160.582H94.1099V162.355H96.8242V160.582Z" fill="#455A64"/>
<path d="M100.346 160.463H97.6313V162.236H100.346V160.463Z" fill="#455A64"/>
<path d="M103.866 160.349H101.152V162.121H103.866V160.349Z" fill="#455A64"/>
<path d="M107.389 160.23H104.674V162.003H107.389V160.23Z" fill="#455A64"/>
<path d="M110.91 160.115H108.196V161.888H110.91V160.115Z" fill="#455A64"/>
<path d="M114.432 159.996H111.717V161.769H114.432V159.996Z" fill="#455A64"/>
<path d="M117.954 159.878H115.24V161.65H117.954V159.878Z" fill="#455A64"/>
<path d="M121.471 159.763H118.757V161.536H121.471V159.763Z" fill="#455A64"/>
<path d="M122.141 163.49H89.9248V161.334L122.141 160.436V163.49Z" fill="#37474F"/>
<path d="M153.58 154.987H100.401L108.857 115.396H162.035L153.58 154.987Z" fill="#455A64"/>
<path d="M155.546 154.987H102.367L110.823 115.396H164.002L155.546 154.987Z" fill="#37474F"/>
<path d="M136.555 135.121C137.998 133.788 138.244 131.708 137.105 130.475C135.966 129.243 133.873 129.324 132.431 130.658C130.988 131.991 130.741 134.071 131.88 135.303C133.019 136.536 135.112 136.454 136.555 135.121Z" fill="#263238"/>
<path d="M140.507 165.326H114.353V163.292L140.507 162.45V165.326Z" fill="#455A64"/>
<path d="M147.617 165.322H133.575L125.115 143.137H139.157L147.617 165.322Z" fill="#455A64"/>
<path d="M149.928 165.322H135.886L127.43 143.137H141.473L149.928 165.322Z" fill="#263238"/>
<path d="M88.9308 165.864H61.9656C59.6667 165.864 62.9943 159.312 71.3945 156.799C79.7947 154.287 91.5818 163.407 88.9308 165.864Z" fill="#37474F"/>
<path d="M78.3506 165.864C78.3723 165.118 78.4961 164.377 78.7186 163.664C78.9358 162.945 79.2401 162.256 79.6247 161.611C80.0116 160.963 80.4945 160.377 81.057 159.874C81.6133 159.369 82.2551 158.967 82.9523 158.687C82.6634 158.924 82.335 159.082 82.0699 159.348L81.6742 159.7L81.2786 160.095C80.7786 160.617 80.3404 161.195 79.9729 161.817C79.5995 162.439 79.2791 163.091 79.0153 163.767C78.7469 164.451 78.5248 165.151 78.3506 165.864Z" fill="#263238"/>
<path d="M81.5435 159.629C83.1451 160.159 84.6607 160.92 86.0423 161.888C86.7405 162.37 87.3723 162.942 87.9217 163.589C88.1915 163.92 88.4237 164.28 88.6141 164.662C88.8022 165.043 88.9099 165.459 88.9307 165.884C88.8363 165.481 88.6715 165.098 88.444 164.753C88.2287 164.406 87.9767 164.084 87.6922 163.791C87.1157 163.207 86.4866 162.677 85.8128 162.208C85.1441 161.726 84.4358 161.294 83.7276 160.867C83.3715 160.653 83.0075 160.448 82.6434 160.25C82.2794 160.052 81.9114 159.83 81.5435 159.629Z" fill="#263238"/>
<path d="M90.8623 75.9831C90.6296 78.1899 89.7885 80.2888 88.4326 82.0454C87.0767 83.8021 85.2595 85.1475 83.1836 85.9317C81.1077 86.7159 78.8548 86.9079 76.6761 86.4863C74.4975 86.0648 72.4787 85.0463 70.8451 83.5444L64.8428 84.4387L67.842 79.2593C67.0926 77.4346 66.8097 75.4519 67.019 73.4904C67.1726 71.9176 67.6359 70.3908 68.3821 68.9978C69.1284 67.6049 70.1428 66.3733 71.367 65.374C72.5911 64.3747 74.0009 63.6275 75.5151 63.1754C77.0293 62.7232 78.6179 62.5751 80.1896 62.7394C81.7613 62.9038 83.2849 63.3775 84.6727 64.1332C86.0606 64.8889 87.2852 65.9117 88.2761 67.1427C89.267 68.3737 90.0046 69.7885 90.4464 71.3057C90.8882 72.823 91.0255 74.4126 90.8504 75.9831H90.8623Z" fill="white"/>
<path d="M90.863 75.983C90.6326 78.1918 89.7959 80.2938 88.4454 82.0566C88.1098 82.4951 87.7477 82.9126 87.3612 83.307C86.9605 83.6875 86.5377 84.0443 86.0951 84.3753C85.2135 85.0463 84.2409 85.5885 83.2067 85.9857C82.1728 86.3906 81.0874 86.649 79.9819 86.7533C79.4282 86.8053 78.8714 86.8159 78.3161 86.7849C77.7599 86.772 77.2055 86.7151 76.6583 86.6148C74.4464 86.2089 72.3912 85.195 70.7231 83.6868L70.8656 83.7303L64.879 84.6522L64.4478 84.7314L64.6654 84.3357L67.6488 79.1405V79.3463C66.9487 77.6444 66.6461 75.8052 66.7639 73.9687C66.8817 72.1322 67.4169 70.3468 68.3287 68.7484C69.2405 67.1499 70.5048 65.7804 72.0256 64.7442C73.5464 63.708 75.2835 63.0323 77.1048 62.7686C78.926 62.5048 80.7835 62.66 82.5357 63.2223C84.288 63.7846 85.8889 64.7391 87.2166 66.0133C88.5444 67.2875 89.564 68.8478 90.1979 70.5754C90.8319 72.303 91.0634 74.1525 90.8748 75.983H90.863ZM90.863 75.983C91.0508 74.1798 90.8231 72.3575 90.1973 70.6559C89.5715 68.9543 88.5642 67.4187 87.2528 66.1669C85.9413 64.9151 84.3606 63.9803 82.6318 63.4342C80.903 62.8881 79.072 62.7454 77.2795 63.0168C75.5019 63.2819 73.8087 63.9506 72.3296 64.9714C70.8668 66.0008 69.6439 67.3344 68.7448 68.8807C67.8601 70.4349 67.338 72.1689 67.2175 73.9532C67.1069 75.741 67.3976 77.531 68.0682 79.1919L68.1117 79.2988L68.0523 79.3937L65.0373 84.5652L64.8236 84.2487L70.8221 83.4098H70.9052L70.9645 83.4652C72.5654 84.964 74.552 85.9874 76.7018 86.4209C77.2379 86.5286 77.7816 86.5948 78.328 86.6187C78.8734 86.6563 79.4207 86.6563 79.9661 86.6187C81.0608 86.5352 82.1384 86.2981 83.1671 85.9144C84.201 85.5407 85.1743 85.0168 86.0555 84.3594C86.497 84.0313 86.9198 83.6786 87.3217 83.303C87.7093 82.9128 88.0727 82.4992 88.4098 82.0645C89.7751 80.3038 90.6245 78.1983 90.863 75.983Z" fill="#263238"/>
<path d="M85.6276 75.1006C85.6284 75.388 85.5439 75.6691 85.3848 75.9085C85.2257 76.1478 84.9992 76.3345 84.734 76.445C84.4687 76.5556 84.1766 76.5849 83.8946 76.5293C83.6127 76.4737 83.3536 76.3357 83.1501 76.1328C82.9466 75.9299 82.8079 75.6711 82.7516 75.3893C82.6952 75.1076 82.7238 74.8154 82.8335 74.5498C82.9433 74.2842 83.1295 74.0572 83.3683 73.8975C83.6072 73.7377 83.8881 73.6525 84.1755 73.6525C84.366 73.652 84.5548 73.689 84.7309 73.7616C84.9071 73.8341 85.0672 73.9407 85.2021 74.0752C85.337 74.2098 85.444 74.3696 85.517 74.5455C85.59 74.7215 85.6276 74.9101 85.6276 75.1006Z" fill="#263238"/>
<path d="M80.4287 75.1006C80.4294 75.3882 80.3448 75.6695 80.1856 75.9089C80.0263 76.1483 79.7996 76.335 79.5341 76.4454C79.2686 76.5558 78.9763 76.5849 78.6942 76.529C78.4122 76.4731 78.1531 76.3347 77.9497 76.1314C77.7464 75.9281 77.608 75.669 77.5521 75.3869C77.4962 75.1049 77.5253 74.8126 77.6357 74.5471C77.7461 74.2816 77.9328 74.0548 78.1722 73.8955C78.4117 73.7363 78.693 73.6517 78.9805 73.6525C79.3646 73.6525 79.7329 73.805 80.0045 74.0766C80.2761 74.3482 80.4287 74.7166 80.4287 75.1006Z" fill="#263238"/>
<path d="M75.2333 75.1006C75.2341 75.388 75.1496 75.6691 74.9905 75.9085C74.8315 76.1478 74.6049 76.3345 74.3397 76.445C74.0744 76.5556 73.7823 76.5849 73.5004 76.5293C73.2184 76.4737 72.9593 76.3357 72.7558 76.1328C72.5523 75.9299 72.4136 75.6711 72.3573 75.3893C72.3009 75.1075 72.3295 74.8154 72.4393 74.5498C72.549 74.2842 72.7352 74.0572 72.9741 73.8975C73.2129 73.7377 73.4938 73.6525 73.7812 73.6525C74.1657 73.6525 74.5344 73.8049 74.8066 74.0764C75.0788 74.3479 75.2323 74.7162 75.2333 75.1006Z" fill="#263238"/>
<path d="M95.9389 13.8544C96.1717 16.0612 97.0127 18.1599 98.3683 19.9167C99.7238 21.6735 101.541 23.0194 103.616 23.8042C105.692 24.5891 107.944 24.7821 110.123 24.3618C112.302 23.9414 114.321 22.9243 115.956 21.4237L121.947 22.3021L118.951 17.1227C119.638 15.4361 119.932 13.6151 119.809 11.7982C119.687 9.98118 119.152 8.21602 118.245 6.63683C117.338 5.05763 116.083 3.70596 114.575 2.68454C113.068 1.66312 111.347 0.998835 109.544 0.742161C107.741 0.485487 105.903 0.643184 104.17 1.20327C102.438 1.76335 100.855 2.71108 99.5437 3.97443C98.2321 5.23777 97.2257 6.7835 96.6011 8.49412C95.9765 10.2047 95.75 12.0352 95.9389 13.8465V13.8544Z" fill="white"/>
<path d="M99.5247 3.95854C100.83 2.67171 102.413 1.70202 104.152 1.12436C105.891 0.546693 107.74 0.376512 109.555 0.62696C111.383 0.868067 113.132 1.52451 114.667 2.54598C116.993 4.09844 118.71 6.40713 119.529 9.08094C120.347 11.7548 120.216 14.6293 119.158 17.2176V17.0118L122.134 22.2149L122.351 22.6106L121.92 22.5433L115.929 21.6254L116.072 21.5819C114.404 23.0901 112.349 24.104 110.137 24.5098C109.589 24.6101 109.035 24.667 108.479 24.68C107.925 24.709 107.369 24.6984 106.817 24.6483C104.598 24.4367 102.481 23.6151 100.7 22.2743C100.257 21.9433 99.8345 21.5865 99.4337 21.206C99.0482 20.8108 98.6862 20.3933 98.3496 19.9556C96.556 17.6122 95.6842 14.6924 95.8993 11.7492C96.1144 8.806 97.4015 6.04394 99.5168 3.98623L99.5247 3.95854ZM98.3931 19.9002C98.7302 20.3336 99.0936 20.7459 99.4812 21.1347C99.8811 21.5126 100.304 21.8654 100.747 22.1912C101.628 22.8521 102.603 23.3775 103.64 23.7501C104.668 24.1319 105.744 24.369 106.837 24.4544C107.383 24.492 107.932 24.492 108.479 24.4544C109.024 24.4303 109.566 24.3641 110.101 24.2566C112.251 23.8231 114.237 22.7997 115.838 21.3009L115.898 21.2455H115.981L121.979 22.0844L121.766 22.4009L118.751 17.2294L118.691 17.1305L118.735 17.0237C119.406 15.3692 119.694 13.584 119.577 11.8023C119.46 10.0205 118.941 8.28842 118.058 6.73617C117.16 5.18904 115.937 3.85525 114.473 2.82691C112.995 1.80672 111.303 1.13813 109.527 0.872279C107.18 0.509793 104.777 0.861484 102.632 1.88169C100.487 2.9019 98.6977 4.54349 97.4972 6.59334C96.2967 8.64319 95.7402 11.0066 95.9 13.3767C96.0598 15.7469 96.9284 18.0142 98.3931 19.8844V19.9002Z" fill="#263238"/>
<path d="M108.921 14.072V15.5676C108.925 15.7166 108.898 15.8647 108.842 16.003C108.787 16.1413 108.704 16.2669 108.598 16.3722C108.493 16.4776 108.367 16.5606 108.229 16.6161C108.091 16.6716 107.943 16.6986 107.794 16.6953C107.495 16.6943 107.209 16.5751 106.998 16.3639C106.786 16.1526 106.667 15.8664 106.666 15.5676V13.1936C106.666 13.1699 106.69 13.1699 106.69 13.1461C106.69 13.1224 106.666 13.1224 106.666 13.1026C106.674 12.806 106.795 12.5238 107.005 12.3141C107.215 12.1043 107.497 11.9829 107.794 11.9749C108.148 12.0028 108.505 11.957 108.841 11.8403C109.177 11.7237 109.486 11.5388 109.747 11.2973C110.008 11.0557 110.217 10.7628 110.359 10.4368C110.502 10.1108 110.575 9.75885 110.575 9.40305C110.575 9.04725 110.502 8.6953 110.359 8.36931C110.217 8.04333 110.008 7.75036 109.747 7.50882C109.486 7.26728 109.177 7.08239 108.841 6.96577C108.505 6.84915 108.148 6.80332 107.794 6.83117C107.347 6.82937 106.907 6.94548 106.52 7.16779C106.132 7.39009 105.81 7.71073 105.586 8.09733C105.509 8.22824 105.407 8.34251 105.285 8.43346C105.163 8.52441 105.025 8.59023 104.878 8.62706C104.73 8.6639 104.577 8.67101 104.427 8.64799C104.277 8.62498 104.133 8.57229 104.003 8.493C103.876 8.41792 103.764 8.31837 103.675 8.20007C103.586 8.08177 103.521 7.94706 103.485 7.80367C103.448 7.66027 103.44 7.51103 103.461 7.36451C103.482 7.21799 103.532 7.07708 103.608 6.94987C104.008 6.25506 104.575 5.67074 105.257 5.24951C105.939 4.82828 106.716 4.58337 107.516 4.53684C108.317 4.4903 109.116 4.6436 109.843 4.98293C110.57 5.32227 111.2 5.83698 111.678 6.48071C112.157 7.12445 112.467 7.87701 112.582 8.67062C112.697 9.46423 112.613 10.274 112.337 11.0269C112.061 11.7799 111.602 12.4524 111.002 12.984C110.402 13.5156 109.679 13.8895 108.898 14.072H108.921ZM108.921 19.1089V19.5046C108.925 19.6537 108.899 19.8021 108.843 19.9406C108.788 20.0791 108.705 20.205 108.6 20.3105C108.494 20.4159 108.368 20.4989 108.23 20.5542C108.091 20.6095 107.943 20.6361 107.794 20.6323C107.495 20.6323 107.208 20.5135 106.996 20.302C106.785 20.0905 106.666 19.8037 106.666 19.5046V19.1089C106.67 18.8111 106.79 18.5267 107.001 18.3161C107.212 18.1055 107.496 17.9854 107.794 17.9813C107.942 17.9797 108.09 18.0078 108.227 18.0639C108.365 18.12 108.49 18.203 108.595 18.308C108.7 18.413 108.783 18.538 108.839 18.6755C108.895 18.8131 108.923 18.9604 108.921 19.1089Z" fill="#76B8EE"/>
</svg>
