<svg width="184" height="184" viewBox="0 0 184 184" fill="none" xmlns="http://www.w3.org/2000/svg">
<path d="M78.0289 161.854C103.887 161.854 124.849 159.029 124.849 155.543C124.849 152.057 103.887 149.232 78.0289 149.232C52.1707 149.232 31.2085 152.057 31.2085 155.543C31.2085 159.029 52.1707 161.854 78.0289 161.854Z" fill="#EBEBEB"/>
<path d="M133.745 158.229C141.005 158.229 146.891 157.063 146.891 155.626C146.891 154.188 141.005 153.023 133.745 153.023C126.486 153.023 120.6 154.188 120.6 155.626C120.6 157.063 126.486 158.229 133.745 158.229Z" fill="#EBEBEB"/>
<path d="M52.0577 167.914C79.1582 167.914 101.127 165.341 101.127 162.166C101.127 158.992 79.1582 156.419 52.0577 156.419C24.9573 156.419 2.98804 158.992 2.98804 162.166C2.98804 165.341 24.9573 167.914 52.0577 167.914Z" fill="#EBEBEB"/>
<path d="M9.02246 147.83L26.2743 147.753L43.5261 147.725L78.0297 147.67L112.533 147.725L129.785 147.753L147.037 147.83L129.785 147.909L112.533 147.935L78.0297 147.989L43.5261 147.935L26.2743 147.909L9.02246 147.83Z" fill="#263238"/>
<path d="M51.1792 141.148L45.7559 155.779H52.1224L63.9124 147.747L51.1792 141.148Z" fill="#76B8EE"/>
<path opacity="0.1" d="M51.1792 141.148L45.7559 155.779H52.1224L63.9124 147.747L51.1792 141.148Z" fill="black"/>
<path d="M132.818 141.148L138.242 155.779H131.875L120.085 147.747L132.818 141.148Z" fill="#76B8EE"/>
<path opacity="0.1" d="M132.818 141.148L138.242 155.779H131.875L120.085 147.747L132.818 141.148Z" fill="black"/>
<path d="M138 138C163.405 112.595 163.405 71.4051 138 46C112.595 20.5949 71.4051 20.5949 46 46C20.5949 71.4051 20.5949 112.595 46 138C71.4051 163.405 112.595 163.405 138 138Z" fill="#76B8EE"/>
<path opacity="0.1" d="M91.2082 153.007C125.492 153.007 153.284 125.214 153.284 90.9309C153.284 56.6473 125.492 28.855 91.2082 28.855C56.9247 28.855 29.1323 56.6473 29.1323 90.9309C29.1323 125.214 56.9247 153.007 91.2082 153.007Z" fill="black"/>
<path d="M133.119 132.845C155.83 110.135 155.83 73.313 133.119 50.6021C110.408 27.8913 73.5862 27.8913 50.8753 50.6021C28.1645 73.313 28.1645 110.135 50.8753 132.845C73.5862 155.556 110.408 155.556 133.119 132.845Z" fill="white"/>
<path d="M148.826 79.3691C122.345 95.4149 78.8208 121.737 54.5069 136.166C47.6282 130.367 42.1878 123.052 38.6133 114.796L119.062 40.2303C126.579 44.1875 133.138 49.7416 138.28 56.5029C143.421 63.2642 147.021 71.0689 148.826 79.3691Z" fill="#EBEBEB"/>
<path d="M150.103 93.7415C149.892 100.212 148.592 106.601 146.258 112.64L73.7427 146.941C70.5807 145.896 67.5152 144.579 64.5808 143.004C86.4759 130.344 126.516 107.307 150.103 93.7415Z" fill="#EBEBEB"/>
<path d="M92.5575 37.7887H91.4355V46.6045H92.5575V37.7887Z" fill="#C7C7C7"/>
<path d="M65.5208 44.7264L64.5459 45.2893L68.9538 52.924L69.9287 52.3612L65.5208 44.7264Z" fill="#C7C7C7"/>
<path d="M45.5693 64.2618L45.0083 65.2335L52.6431 69.6413L53.204 68.6697L45.5693 64.2618Z" fill="#C7C7C7"/>
<path d="M46.881 91.1591H38.0652V92.281H46.881V91.1591Z" fill="#C7C7C7"/>
<path d="M52.6369 113.797L45.0022 118.205L45.5632 119.177L53.1978 114.769L52.6369 113.797Z" fill="#C7C7C7"/>
<path d="M68.9505 130.522L64.5466 138.159L65.5218 138.721L69.9257 131.084L68.9505 130.522Z" fill="#C7C7C7"/>
<path d="M92.5575 136.839H91.4355V145.655H92.5575V136.839Z" fill="#C7C7C7"/>
<path d="M115.048 130.512L114.073 131.075L118.481 138.709L119.456 138.147L115.048 130.512Z" fill="#C7C7C7"/>
<path d="M131.349 113.786L130.788 114.758L138.423 119.166L138.984 118.194L131.349 113.786Z" fill="#C7C7C7"/>
<path d="M145.932 91.1591H137.116V92.281H145.932V91.1591Z" fill="#C7C7C7"/>
<path d="M138.426 64.2783L130.791 68.6862L131.352 69.6579L138.987 65.25L138.426 64.2783Z" fill="#C7C7C7"/>
<path d="M118.481 44.7384L114.077 52.3754L115.052 52.9377L119.456 45.3007L118.481 44.7384Z" fill="#C7C7C7"/>
<path d="M145.494 92.4711L89.0884 94.0457L89.1568 88.531L145.509 90.9727L145.494 92.4711Z" fill="#76B8EE"/>
<path d="M92.3866 52.0583L94.8283 94.9813L89.3098 94.909L90.8919 52.0393L92.3866 52.0583Z" fill="#263238"/>
<path d="M91.9988 93.6045C93.0385 93.6045 93.8814 92.7617 93.8814 91.7219C93.8814 90.6822 93.0385 89.8394 91.9988 89.8394C90.9591 89.8394 90.1162 90.6822 90.1162 91.7219C90.1162 92.7617 90.9591 93.6045 91.9988 93.6045Z" fill="#76B8EE"/>
<path d="M143.923 91.6877C143.714 91.0564 132.513 76.2657 131.753 75.9843C131.665 75.9463 126.664 79.5061 126.664 79.5061C126.455 79.7799 116.947 77.7718 116.947 77.7718L116.852 89.2423L134.175 88.862C134.175 88.862 136.514 90.2387 138.656 91.3607C139.565 91.8726 140.505 92.3286 141.47 92.726C142.348 92.9618 144.136 92.3153 143.923 91.6877Z" fill="#DD6A57"/>
<path d="M141.482 92.7375C140.516 92.3425 139.576 91.8865 138.668 91.3721C136.526 90.2312 134.187 88.8734 134.187 88.8734L130.331 88.9571L124.288 79.2171C125.615 79.4529 126.6 79.5974 126.668 79.5061C126.668 79.5061 131.67 75.9425 131.757 75.9844C132.518 76.2658 143.714 91.0527 143.927 91.6878C144.14 92.3229 142.349 92.9619 141.482 92.7375Z" fill="white"/>
<path d="M144.025 91.7068C143.804 91.0602 132.562 76.2809 131.775 75.9881C131.478 75.874 129.033 77.3877 126.667 79.5061L133.924 89.0141C133.924 89.0141 140.621 92.5625 141.53 92.7907C142.439 93.0189 144.246 92.3533 144.025 91.7068Z" fill="#A6A6A6"/>
<path d="M143.273 91.9426C141.326 89.5124 133.708 79.5251 131.97 76.9732C131.97 76.9504 131.97 76.9428 131.97 76.9732C133.947 79.3388 141.478 89.3907 143.296 91.9236C143.341 91.9654 143.315 91.9997 143.273 91.9426Z" fill="#263238"/>
<path d="M140.264 92.2543C140.047 91.985 139.889 91.6734 139.799 91.3395C139.709 91.0055 139.69 90.6565 139.743 90.3147C139.829 89.6965 140.153 89.1361 140.644 88.7516C140.644 88.7516 140.679 88.7516 140.667 88.782C140.238 89.238 139.969 89.821 139.901 90.4432C139.832 91.0654 139.968 91.693 140.287 92.2315C140.29 92.2323 140.293 92.2339 140.296 92.2363C140.298 92.2386 140.3 92.2416 140.301 92.2448C140.302 92.2481 140.302 92.2515 140.301 92.2548C140.3 92.2581 140.298 92.2611 140.296 92.2635C140.294 92.2659 140.291 92.2676 140.287 92.2685C140.284 92.2693 140.281 92.2693 140.277 92.2683C140.274 92.2674 140.271 92.2656 140.269 92.2631C140.266 92.2607 140.265 92.2576 140.264 92.2543Z" fill="#263238"/>
<path d="M134.765 89.6151C134.004 88.6338 133.472 87.2152 133.814 85.983C133.814 85.9336 133.898 85.9564 133.902 85.983C134.107 87.1969 134.442 88.3853 134.902 89.5276C134.913 89.5457 134.917 89.5678 134.913 89.5888C134.908 89.6098 134.895 89.6282 134.877 89.6398C134.859 89.6514 134.837 89.6553 134.816 89.6507C134.795 89.646 134.777 89.6332 134.765 89.6151Z" fill="#263238"/>
<path d="M135.648 90.1513C134.888 89.1701 134.355 87.7553 134.697 86.523C134.697 86.4736 134.777 86.4926 134.785 86.523C134.991 87.7352 135.325 88.9221 135.781 90.0638C135.793 90.0815 135.797 90.103 135.793 90.1237C135.789 90.1444 135.776 90.1625 135.759 90.1741C135.741 90.1857 135.719 90.1898 135.699 90.1855C135.678 90.1813 135.66 90.1689 135.648 90.1513Z" fill="#263238"/>
<path d="M136.525 90.6912C135.765 89.71 135.232 88.2914 135.575 87.0592C135.575 87.0135 135.658 87.0325 135.666 87.0592C135.868 88.2722 136.202 89.4594 136.662 90.6C136.674 90.6181 136.679 90.6403 136.675 90.6617C136.67 90.6831 136.658 90.7019 136.64 90.714C136.621 90.7262 136.599 90.7305 136.578 90.7263C136.556 90.722 136.538 90.7094 136.525 90.6912Z" fill="#263238"/>
<path d="M137.409 91.2389C136.648 90.2577 136.115 88.8429 136.458 87.6107C136.458 87.5612 136.538 87.5803 136.545 87.6107C136.751 88.8229 137.085 90.0098 137.542 91.1515C137.553 91.1691 137.557 91.1907 137.553 91.2113C137.549 91.232 137.536 91.2502 137.519 91.2618C137.501 91.2734 137.48 91.2775 137.459 91.2732C137.438 91.2689 137.42 91.2566 137.409 91.2389Z" fill="#263238"/>
<path d="M130.099 79.3958C129.254 78.2777 130.985 76.9656 131.833 78.0837C132.681 79.2018 130.943 80.5101 130.099 79.3958Z" fill="#263238"/>
<path d="M134.328 91.5128C134.613 90.4518 134.427 89.307 134.377 88.2307C134.374 88.2068 134.366 88.1839 134.352 88.164C134.338 88.1442 134.32 88.1278 134.299 88.1163C134.278 88.1048 134.254 88.0984 134.23 88.0978C134.206 88.0972 134.182 88.1023 134.161 88.1128C134.158 88.1089 134.154 88.1057 134.15 88.1034C134.146 88.1012 134.141 88.1001 134.136 88.1001C134.131 88.1001 134.126 88.1012 134.122 88.1034C134.118 88.1057 134.114 88.1089 134.111 88.1128C133.257 88.878 132.619 89.8536 132.259 90.9424C132.061 91.5813 132.137 92.5245 132.936 92.7109C133.735 92.8972 134.164 92.1328 134.328 91.5128ZM133.541 92.1822C132.4 92.9048 132.476 91.3037 132.639 90.8359C132.747 90.5378 132.875 90.2469 133.02 89.9649C133.339 89.3899 133.686 88.8314 134.062 88.2915C134.062 88.8202 134.092 89.3488 134.104 89.8775C134.13 90.5088 134.18 91.7867 133.541 92.1822Z" fill="#263238"/>
<path d="M130.79 85.0626C130.201 85.6331 130.623 86.4774 131.121 86.9224C131.989 87.6712 133.038 88.1788 134.164 88.3942C134.168 88.3948 134.173 88.3943 134.178 88.3928C134.183 88.3913 134.187 88.3889 134.19 88.3856C134.194 88.3824 134.197 88.3785 134.199 88.374C134.201 88.3696 134.202 88.3648 134.202 88.36C134.225 88.3571 134.248 88.3487 134.268 88.3356C134.288 88.3225 134.305 88.305 134.317 88.2844C134.329 88.2638 134.336 88.2407 134.338 88.2169C134.34 88.1931 134.336 88.1692 134.327 88.147C133.814 87.2 133.38 86.1199 132.593 85.3593C132.14 84.9143 131.353 84.5226 130.79 85.0626ZM133.259 86.8691C133.521 87.3293 133.761 87.8009 134.042 88.2497C133.44 87.9802 132.853 87.6807 132.281 87.3521C132.009 87.1879 131.747 87.0063 131.498 86.8083C131.117 86.4964 130.216 85.1653 131.574 85.1881C132.334 85.2033 132.95 86.3215 133.266 86.8691H133.259Z" fill="#263238"/>
<path d="M116.426 74.254H108.652C108.652 74.254 100.517 70.3443 93.9679 71.9188C86.4566 73.7253 85.4944 83.1573 91.1079 86.4927C98.2237 90.718 129.874 89.9156 129.874 89.9156L123.032 78.3082C123.032 78.3082 112.505 76.0947 102.959 76.4066L116.426 78.2435V74.254Z" fill="#455A64"/>
<path d="M123.485 79.0687C123.483 79.0485 123.483 79.0281 123.485 79.0079V78.9584C123.485 78.9242 123.466 78.8862 123.458 78.8481C123.45 78.8101 123.405 78.696 123.378 78.6199C123.351 78.5439 123.313 78.4716 123.279 78.3994C123.243 78.3275 123.201 78.2587 123.154 78.194C123.154 78.194 123.154 78.194 123.135 78.194C121.975 77.9772 114.11 76.8515 112.942 76.7183C111.775 76.5852 110.58 76.4749 109.398 76.376C107.038 76.1714 104.669 76.0863 102.301 76.1212H101.635C101.59 76.1212 101.536 76.0984 101.491 76.087L101.148 76.0071C100.935 75.9691 100.719 75.9349 100.506 75.9045C100.057 75.836 99.6081 75.7866 99.1593 75.7029C99.1327 75.7029 99.1251 75.7409 99.1593 75.7447C99.6081 75.8474 100.045 75.9767 100.494 76.0718L100.875 76.1555C100.007 76.2011 99.1403 76.2696 98.2731 76.3456C98.2465 76.3456 98.2465 76.3913 98.2731 76.3913C99.4521 76.319 100.643 76.3114 101.822 76.3304C103.001 76.3494 104.164 76.3761 105.336 76.4445C107.705 76.5814 110.071 76.7906 112.429 77.0378C113.752 77.1785 121.773 78.3461 123.1 78.4032H123.119C123.129 78.4342 123.141 78.4647 123.154 78.4944L123.268 78.7112C123.306 78.7797 123.344 78.8443 123.386 78.909L123.45 79.0079L123.485 79.0535C123.485 79.0535 123.515 79.0877 123.519 79.1029C123.523 79.1182 123.504 79.0687 123.485 79.0687Z" fill="#263238"/>
<path d="M127.406 89.1967C126.987 88.5197 126.607 87.8162 126.227 87.0973C125.846 86.3785 125.466 85.694 125.059 84.9942C124.279 83.5984 121.488 78.909 121.21 78.5706C121.21 78.5515 121.157 78.5706 121.165 78.5972C121.298 78.9775 123.043 82.0733 123.446 82.7807C124.249 84.1689 125.093 85.5266 125.926 86.8996C126.162 87.2799 126.409 87.6602 126.649 88.0634C126.888 88.4665 127.147 88.824 127.368 89.2347C127.368 89.2424 127.421 89.2195 127.406 89.1967Z" fill="#263238"/>
<path d="M121.134 79.7419C120.438 79.5708 119.723 79.4643 119.015 79.3312L116.893 78.9318C115.478 78.6783 114.061 78.4247 112.641 78.1712C109.808 77.692 106.963 77.2964 104.103 77.0302C102.49 76.8781 100.874 76.7754 99.2538 76.6499C99.2195 76.6499 99.2233 76.6993 99.2538 76.7031C102.133 76.8325 105.008 77.2204 107.86 77.6311C110.713 78.0419 113.501 78.483 116.315 78.9585L118.696 79.3654C119.502 79.5061 120.308 79.6773 121.118 79.7799C121.153 79.7913 121.168 79.7457 121.134 79.7419Z" fill="#263238"/>
<path d="M129.179 129.423C128.498 129.355 111.543 121.733 111.079 121.033C110.904 120.771 111.87 118.238 113.121 115.207C113.395 114.553 113.677 113.879 113.97 113.199C115.871 108.764 117.967 104.101 117.967 104.101L129.323 109.167L125.014 118.124L124.071 120.09C124.071 120.09 129.255 125.909 129.681 126.731C130.107 127.552 129.863 129.492 129.179 129.423Z" fill="#DD6A57"/>
<path d="M129.179 129.423C128.498 129.355 111.543 121.733 111.079 121.033C110.866 120.714 112.334 117.04 113.97 113.199L124.999 118.124L124.056 120.09C124.056 120.09 129.24 125.909 129.665 126.731C130.091 127.552 129.863 129.492 129.179 129.423Z" fill="white"/>
<path d="M129.179 129.423C128.498 129.355 111.543 121.733 111.079 121.033C110.904 120.771 111.87 118.238 113.121 115.207L124.071 120.09C124.071 120.09 129.255 125.909 129.681 126.731C130.107 127.552 129.863 129.492 129.179 129.423Z" fill="#A6A6A6"/>
<path d="M129.244 128.636C126.433 127.289 114.966 122.121 112.087 121.003C112.061 121.003 112.057 121.003 112.087 121.003C114.845 122.399 126.353 127.468 129.232 128.666C129.27 128.708 129.301 128.662 129.244 128.636Z" fill="#263238"/>
<path d="M128.862 125.631C128.55 125.481 128.21 125.398 127.864 125.386C127.517 125.374 127.172 125.434 126.851 125.563C126.269 125.787 125.797 126.229 125.535 126.795C125.535 126.795 125.557 126.825 125.569 126.795C125.918 126.275 126.426 125.883 127.017 125.677C127.609 125.471 128.251 125.463 128.847 125.654C128.85 125.654 128.852 125.653 128.854 125.651C128.856 125.65 128.858 125.648 128.86 125.646C128.861 125.644 128.862 125.641 128.863 125.639C128.863 125.636 128.863 125.634 128.862 125.631Z" fill="#263238"/>
<path d="M125.044 120.866C123.903 120.341 122.412 120.151 121.29 120.763C121.244 120.786 121.29 120.847 121.32 120.843C122.55 120.77 123.784 120.829 125.002 121.018C125.021 121.02 125.04 121.016 125.055 121.005C125.071 120.994 125.083 120.978 125.088 120.96C125.093 120.942 125.091 120.922 125.083 120.905C125.075 120.888 125.061 120.874 125.044 120.866Z" fill="#263238"/>
<path d="M125.766 121.604C124.625 121.079 123.138 120.885 122.012 121.497C121.971 121.524 122.012 121.585 122.047 121.581C123.275 121.507 124.508 121.564 125.724 121.752C125.734 121.755 125.744 121.756 125.754 121.754C125.764 121.753 125.774 121.75 125.783 121.745C125.792 121.74 125.799 121.734 125.806 121.726C125.812 121.718 125.817 121.709 125.819 121.699C125.822 121.689 125.823 121.679 125.822 121.669C125.821 121.659 125.817 121.649 125.812 121.64C125.808 121.631 125.801 121.624 125.793 121.617C125.785 121.611 125.776 121.607 125.766 121.604Z" fill="#263238"/>
<path d="M126.493 122.342C125.352 121.813 123.861 121.623 122.739 122.235C122.693 122.258 122.739 122.323 122.769 122.319C123.998 122.244 125.231 122.302 126.447 122.49C126.465 122.491 126.483 122.486 126.497 122.476C126.512 122.466 126.523 122.451 126.528 122.434C126.533 122.417 126.533 122.398 126.526 122.382C126.52 122.365 126.508 122.351 126.493 122.342Z" fill="#263238"/>
<path d="M127.216 123.079C126.075 122.551 124.588 122.361 123.462 122.973C123.421 122.996 123.462 123.057 123.497 123.057C124.725 122.982 125.958 123.04 127.174 123.228C127.194 123.233 127.215 123.231 127.233 123.221C127.251 123.211 127.264 123.194 127.269 123.174C127.275 123.155 127.272 123.134 127.262 123.116C127.252 123.098 127.236 123.085 127.216 123.079Z" fill="#263238"/>
<path d="M114.022 118.622C112.744 118.051 111.854 120.037 113.136 120.611C114.417 121.185 115.303 119.196 114.022 118.622Z" fill="#263238"/>
<path d="M127.638 118.386C127.277 117.648 126.341 117.789 125.763 118.124C124.782 118.719 123.975 119.563 123.424 120.569C123.421 120.573 123.418 120.578 123.418 120.584C123.417 120.589 123.417 120.595 123.419 120.6C123.421 120.605 123.424 120.609 123.429 120.612C123.433 120.616 123.438 120.618 123.443 120.619C123.438 120.642 123.439 120.666 123.445 120.689C123.451 120.712 123.463 120.734 123.479 120.751C123.495 120.769 123.515 120.783 123.537 120.792C123.559 120.8 123.583 120.804 123.607 120.801C124.668 120.607 125.828 120.527 126.798 120.01C127.368 119.71 127.98 119.082 127.638 118.386ZM125.155 120.174C124.637 120.284 124.113 120.368 123.599 120.497C124.056 120.022 124.493 119.527 124.995 119.097C125.236 118.887 125.49 118.693 125.756 118.516C126.174 118.253 127.718 117.804 127.277 119.094C127.03 119.801 125.775 120.044 125.155 120.174Z" fill="#263238"/>
<path d="M120.408 119.721C121.328 120.318 122.476 120.482 123.519 120.782C123.625 120.813 123.701 120.706 123.697 120.611C123.702 120.61 123.707 120.609 123.711 120.606C123.715 120.603 123.719 120.599 123.721 120.594C123.723 120.59 123.724 120.585 123.724 120.58C123.724 120.575 123.723 120.57 123.72 120.565C123.257 119.515 122.525 118.606 121.598 117.93C121.05 117.549 120.13 117.325 119.696 118.029C119.263 118.732 119.867 119.383 120.408 119.721ZM120.008 118.763C119.677 117.443 121.18 118.021 121.571 118.322C121.82 118.521 122.057 118.735 122.279 118.964C122.729 119.449 123.154 119.957 123.553 120.486C123.051 120.314 122.537 120.185 122.032 120.033C121.423 119.843 120.191 119.493 120.008 118.763Z" fill="#263238"/>
<path d="M114.227 112.157L126.987 117.93C126.987 117.93 142.199 88.7517 142.58 79.8179C142.918 72.2115 137.636 69.283 120.521 74.2006L116.338 74.2538V77.1443C118.175 77.3877 123.084 78.1597 123.084 78.1597C126.656 79.5061 127.804 80.0613 127.747 80.1792C118.855 98.1608 114.227 112.157 114.227 112.157Z" fill="#455A64"/>
<path d="M129.851 76.9694C129.338 77.6578 128.859 78.3728 128.402 79.103C125.63 77.9185 122.698 77.1495 119.701 76.8211C118.861 76.7171 118.017 76.6423 117.168 76.5967C117.134 76.5967 117.134 76.6461 117.168 76.6499C120.175 76.851 123.149 77.4076 126.025 78.3081C126.82 78.5515 127.6 78.8368 128.383 79.1182C127.836 79.9967 127.319 80.8943 126.824 81.7995C125.897 83.496 125.063 85.2417 124.325 87.0289C123.915 88.0139 123.515 89.0065 123.162 90.0144C123.162 90.0448 123.2 90.0638 123.211 90.0334C124.775 86.5547 126.479 83.1496 128.323 79.818C128.844 78.8786 129.387 77.9506 129.897 77.0036C129.912 76.977 129.87 76.9466 129.851 76.9694Z" fill="#263238"/>
<path d="M127.28 114.845C126.519 114.553 125.812 114.191 125.082 113.864L122.887 112.879C121.431 112.225 116.38 110.133 115.962 110.034C115.935 110.034 115.92 110.069 115.943 110.084C116.266 110.293 119.525 111.742 120.259 112.058C121.735 112.689 123.222 113.275 124.709 113.876C125.135 114.047 125.561 114.207 125.987 114.378C126.413 114.549 126.847 114.697 127.261 114.884C127.288 114.895 127.303 114.853 127.28 114.845Z" fill="#263238"/>
<path d="M129.79 78.3082C128.783 80.2098 127.923 82.2293 127.048 84.2069C126.174 86.1846 125.329 88.1585 124.504 90.1476C122.864 94.113 121.342 98.1241 119.94 102.181C119.138 104.463 118.388 106.783 117.658 109.099C117.658 109.129 117.7 109.145 117.711 109.099C119.065 105.003 120.53 100.945 122.062 96.9287C123.595 92.9125 125.211 88.9191 126.927 84.9752C127.408 83.8697 127.898 82.7655 128.395 81.6626C128.893 80.5597 129.41 79.4644 129.878 78.35C129.878 78.2816 129.813 78.2435 129.79 78.3082Z" fill="#263238"/>
<path d="M108.732 75.1818C109.021 75.467 126.778 75.2959 126.865 75.1818C127.097 74.8699 124.439 63.6809 122.442 59.4365C119.886 53.9979 118.536 53.5453 117.726 53.2411C116.642 52.9346 115.495 52.9254 114.406 53.2145C113.904 53.4388 111.782 55.9832 111.185 58.0027C109.987 62.0569 108.477 74.9308 108.732 75.1818Z" fill="#76B8EE"/>
<path d="M120.712 54.6407C128.551 60.1401 135.431 67.9063 134.875 70.4544C134.29 73.1471 129.098 76.3114 124.447 77.072C123.496 77.2279 120.305 70.3099 121.275 69.9524C122.036 69.6786 125.459 68.5794 125.869 68.0888C126.147 67.7465 120.514 60.3455 118.643 56.4434C116.662 52.3626 118.62 53.1688 120.712 54.6407Z" fill="#DD6A57"/>
<path d="M123.241 69.6786C123.241 69.6786 120.331 70.0589 118.437 70.4088C117.384 70.6028 115.604 71.0896 114.893 71.5878C113.832 72.3294 109.857 76.106 110.755 77.091C111.565 77.981 112.695 76.4939 112.695 76.4939C112.695 76.4939 111.306 78.0152 112.383 78.6351C113.459 79.2551 114.752 77.1975 114.752 77.1975C114.752 77.1975 113.166 78.696 114.372 79.2665C115.421 79.7609 117.163 77.5246 117.163 77.5246C117.163 77.5246 115.326 78.9166 116.353 79.5289C117.494 80.2059 120.537 77.1823 120.537 77.1823C122.484 77.4045 124.456 77.2088 126.321 76.608C126.633 76.5053 123.241 69.6786 123.241 69.6786Z" fill="#DD6A57"/>
<path d="M114.327 77.6995L114.657 77.2279C114.863 76.9148 115.086 76.6139 115.327 76.3266C115.566 76.0528 115.817 75.7903 116.087 75.5317C116.357 75.2731 116.666 75.0183 116.932 74.7406C116.933 74.7374 116.936 74.7345 116.939 74.7323C116.942 74.7301 116.945 74.7286 116.949 74.728C116.952 74.7274 116.956 74.7276 116.959 74.7287C116.963 74.7298 116.966 74.7318 116.969 74.7343C116.971 74.7369 116.973 74.7401 116.974 74.7436C116.975 74.747 116.975 74.7507 116.975 74.7543C116.974 74.7579 116.973 74.7613 116.971 74.7642C116.968 74.7672 116.966 74.7695 116.962 74.7711C116.694 75.0426 116.44 75.3282 116.202 75.6268L115.49 76.4901C115.258 76.7754 115.011 77.0378 114.772 77.3154C114.654 77.4523 114.54 77.5969 114.429 77.7376C114.329 77.879 114.219 78.0125 114.098 78.1369L114.072 78.1179C114.144 77.9708 114.229 77.8308 114.327 77.6995Z" fill="#263238"/>
<path d="M112.413 76.8134C112.774 76.22 113.177 75.6531 113.619 75.1172C114.067 74.5828 114.567 74.0948 115.113 73.6606C115.117 73.6585 115.122 73.6579 115.127 73.6587C115.132 73.6595 115.136 73.6617 115.139 73.665C115.142 73.6683 115.145 73.6726 115.145 73.6773C115.146 73.6819 115.146 73.6867 115.144 73.691C114.695 74.2272 114.238 74.7559 113.786 75.2807C113.561 75.5393 112.588 76.745 112.47 76.859C112.44 76.8857 112.398 76.8438 112.413 76.8134Z" fill="#263238"/>
<path d="M116.106 78.582C116.458 78.0321 116.847 77.5061 117.269 77.0075C117.743 76.5382 118.251 76.1058 118.791 75.7144C118.795 75.7124 118.8 75.7117 118.804 75.7125C118.809 75.7133 118.813 75.7155 118.817 75.7188C118.82 75.7222 118.822 75.7265 118.823 75.7311C118.824 75.7358 118.823 75.7406 118.821 75.7448C118.346 76.2126 117.863 76.669 117.414 77.1634C117.193 77.403 116.372 78.4071 116.14 78.6162C116.128 78.6352 116.094 78.6086 116.106 78.582Z" fill="#263238"/>
<path d="M129.451 61.4523L123.747 65.419C123.747 65.419 119.206 58.8661 117.981 55.7323C116.756 52.5984 118.065 52.549 121.198 54.7472C124.332 56.9455 129.451 61.4523 129.451 61.4523Z" fill="#76B8EE"/>
<path d="M128.101 60.6613C126.59 61.8982 125.005 63.0413 123.355 64.0841C123.336 64.0841 123.313 64.0651 123.336 64.0499C123.769 63.7685 126.089 61.9429 128.078 60.627C128.101 60.608 128.128 60.6422 128.101 60.6613Z" fill="#263238"/>
<path d="M111.119 54.7281C105.011 58.151 99.3295 62.2737 98.3026 65.0348C97.6713 66.7729 98.6221 69.8535 99.3751 71.7018C99.7555 72.5994 108.218 68.7772 107.48 68.047C105.654 66.2366 105.346 65.495 105.525 65.1109C105.635 64.8675 112.241 58.7443 114.059 56.025C116.596 52.2332 113.789 53.2335 111.119 54.7281Z" fill="#DD6A57"/>
<path d="M111.014 76.3685C110.215 76.8515 109.196 74.7864 109.196 74.7864C109.179 75.1874 109.021 75.5696 108.751 75.8665C108.253 76.3647 107.249 75.8018 107.249 75.8018C107.143 76.2138 106.917 76.5847 106.599 76.8667C106.07 77.2965 104.978 76.8667 104.978 76.8667C104.671 77.1906 104.258 77.3942 103.815 77.441C102.624 77.5171 101.563 76.0376 100.878 75.1021C100.194 74.1665 99.129 70.8805 98.8628 70.272L104.819 65.8298C104.819 65.8298 109.078 69.1424 109.725 70.3556C110.253 71.3863 112.216 75.6459 111.014 76.3685Z" fill="#DD6A57"/>
<path d="M109.192 74.756C108.829 73.5405 108.318 72.3744 107.67 71.2836C107.67 71.2608 107.621 71.2836 107.632 71.3064C108.245 72.3942 108.583 73.6682 109.154 74.7788C109.158 74.7799 109.162 74.7802 109.166 74.7797C109.17 74.7791 109.174 74.7777 109.178 74.7756C109.181 74.7735 109.184 74.7706 109.187 74.7672C109.189 74.7638 109.191 74.76 109.192 74.756Z" fill="#263238"/>
<path d="M107.294 75.7257C107.196 75.4553 107.061 75.1994 106.895 74.965C106.735 74.7026 106.568 74.4478 106.4 74.2044C106.063 73.6973 105.712 73.1902 105.347 72.6831C105.347 72.6603 105.293 72.6831 105.309 72.6831C105.647 73.1927 105.974 73.7062 106.29 74.231C106.446 74.4934 106.602 74.7559 106.754 75.0183C106.884 75.2772 107.041 75.522 107.222 75.7485C107.227 75.7544 107.234 75.7585 107.242 75.7606C107.249 75.7626 107.257 75.7625 107.265 75.7601C107.273 75.7577 107.279 75.7532 107.284 75.7471C107.29 75.741 107.293 75.7336 107.294 75.7257Z" fill="#263238"/>
<path d="M104.947 76.8514C104.854 76.6071 104.718 76.3806 104.548 76.1821L104.076 75.4899C103.765 75.0297 103.453 74.5657 103.156 74.0941C103.156 74.0675 103.103 74.0941 103.118 74.1131C103.415 74.5961 103.707 75.0829 104.012 75.5622C104.16 75.7979 104.308 76.0338 104.46 76.2657C104.579 76.4917 104.736 76.6951 104.924 76.8667L104.947 76.8514Z" fill="#263238"/>
<path d="M102.304 59.8625L106.998 64.1716C106.998 64.1716 112.805 58.6835 114.437 55.7399C116.068 52.7962 114.783 52.5756 111.394 54.3289C108.005 56.0821 102.304 59.8625 102.304 59.8625Z" fill="#76B8EE"/>
<path d="M102.304 59.8625L106.998 64.1716C106.998 64.1716 112.805 58.6835 114.437 55.7399C116.068 52.7962 114.783 52.5756 111.394 54.3289C108.005 56.0821 102.304 59.8625 102.304 59.8625Z" fill="#76B8EE"/>
<path d="M107.906 62.9773C106.445 61.7772 105.062 60.4853 103.765 59.1094C103.746 59.1094 103.765 59.0676 103.791 59.0866C104.141 59.4441 106.309 61.3077 107.937 62.9469C107.971 62.9659 107.925 62.9925 107.906 62.9773Z" fill="#263238"/>
<path d="M111.732 56.915C111.519 57.4094 111.306 57.9038 111.131 58.4135C111.133 58.3793 111.133 58.345 111.131 58.3108C111.148 58.0019 111.184 57.6944 111.242 57.3904C111.242 57.3562 111.196 57.3448 111.192 57.3904C111.131 57.6947 111.078 58.0027 111.04 58.3146C111.021 58.4629 111.014 58.6112 111.006 58.7596C111.006 58.7596 111.006 58.7938 111.006 58.8128C110.808 59.4898 110.69 60.1782 110.523 60.8589C110.523 60.8932 110.569 60.9046 110.576 60.8589C110.74 60.1896 110.987 59.5392 111.2 58.8851C111.413 58.2309 111.58 57.5654 111.782 56.9112C111.774 56.9074 111.744 56.8922 111.732 56.915Z" fill="#263238"/>
<path d="M114.916 56.2798C115.924 56.5232 117.662 54.9868 118.339 53.7431C118.385 53.6556 118.259 52.7543 118.156 51.6475C118.096 50.9782 118.046 50.2289 118.046 49.5444C118.046 49.4036 113.741 50.5712 113.741 50.5712C113.982 51.4302 114.117 52.3152 114.144 53.2069C114.144 53.3015 114.134 53.3958 114.114 53.4883C114.115 53.5035 114.115 53.5187 114.114 53.5339C114.03 54.0702 113.943 56.044 114.916 56.2798Z" fill="#DD6A57"/>
<path d="M117.796 49.5597C117.59 50.7197 116.856 53.5188 114.559 53.5607C114.413 53.5658 114.266 53.5569 114.122 53.534C114.122 53.515 114.122 53.5036 114.122 53.4884C114.141 53.3957 114.153 53.3016 114.156 53.207C114.129 52.3151 113.992 51.4299 113.749 50.5713C113.749 50.5713 116.86 49.727 117.796 49.5597Z" fill="#263238"/>
<path d="M117.828 43.8585C118.589 45.2619 118.661 49.7421 117.79 50.9173C116.528 52.6249 114.029 53.2639 112.466 51.6475C110.903 50.0311 110.945 44.2427 111.971 43.1283C113.47 41.4853 116.718 41.7972 117.828 43.8585Z" fill="#DD6A57"/>
<path d="M114.437 47.8596C114.437 47.8596 114.46 47.8596 114.46 47.8862C114.46 48.1905 114.505 48.5366 114.779 48.6469C114.437 48.6088 114.38 48.1487 114.437 47.8596Z" fill="#263238"/>
<path d="M114.691 47.5401C115.174 47.4945 115.235 48.4643 114.786 48.5099C114.338 48.5556 114.284 47.582 114.691 47.5401Z" fill="#263238"/>
<path d="M112.744 47.9738C112.744 47.9738 112.721 47.9738 112.721 48.0004C112.752 48.3008 112.721 48.6507 112.466 48.761C112.797 48.7154 112.816 48.2628 112.744 47.9738Z" fill="#263238"/>
<path d="M112.455 47.6733C111.968 47.6733 111.991 48.6432 112.455 48.647C112.919 48.6508 112.862 47.6809 112.455 47.6733Z" fill="#263238"/>
<path d="M115.095 46.7415C114.958 46.7415 114.829 46.7149 114.696 46.6997C114.553 46.7058 114.413 46.6643 114.296 46.5818C114.266 46.5482 114.247 46.5058 114.242 46.4606C114.237 46.4155 114.247 46.37 114.27 46.3308C114.329 46.2612 114.406 46.2086 114.492 46.1786C114.578 46.1485 114.671 46.1419 114.76 46.1596C114.946 46.168 115.121 46.2437 115.255 46.3726C115.283 46.404 115.302 46.443 115.309 46.4848C115.316 46.5267 115.311 46.5697 115.294 46.6086C115.277 46.6475 115.249 46.6808 115.214 46.7044C115.179 46.7279 115.138 46.7408 115.095 46.7415Z" fill="#263238"/>
<path d="M111.965 46.9924C112.094 46.9586 112.221 46.9167 112.345 46.8669C112.491 46.8474 112.626 46.7774 112.725 46.6691C112.75 46.6303 112.76 46.5845 112.755 46.5391C112.75 46.4936 112.731 46.451 112.699 46.4181C112.623 46.3575 112.532 46.3199 112.435 46.3098C112.339 46.2997 112.242 46.3175 112.155 46.3611C111.974 46.4085 111.817 46.5209 111.714 46.6767C111.694 46.7146 111.686 46.7574 111.69 46.7999C111.694 46.8424 111.71 46.8828 111.737 46.9162C111.763 46.9496 111.799 46.9746 111.839 46.9881C111.88 47.0017 111.923 47.0032 111.965 46.9924Z" fill="#263238"/>
<path d="M115.102 50.6284C115.034 50.7044 114.969 50.8071 114.859 50.8223C114.747 50.826 114.636 50.8066 114.532 50.7653C114.532 50.7653 114.513 50.7653 114.532 50.7653C114.577 50.8202 114.636 50.8622 114.703 50.8869C114.77 50.9116 114.842 50.9182 114.912 50.906C114.973 50.8864 115.026 50.8492 115.065 50.799C115.105 50.7489 115.128 50.6881 115.133 50.6246C115.133 50.6246 115.114 50.6169 115.102 50.6284Z" fill="#263238"/>
<path d="M114.729 49.746C114.661 49.8698 114.567 49.978 114.455 50.0638C114.342 50.1495 114.213 50.211 114.075 50.2443C113.951 50.2746 113.823 50.2886 113.695 50.2861H113.623H113.558C113.542 50.2838 113.527 50.2762 113.515 50.2646C113.503 50.2529 113.496 50.2378 113.493 50.2214V50.1644C113.471 49.9324 113.474 49.5787 113.474 49.5787C113.391 49.6243 112.972 49.8449 112.969 49.7232C112.934 48.6768 113.004 47.6295 113.178 46.597C113.18 46.5912 113.184 46.5861 113.189 46.5826C113.194 46.5791 113.2 46.5771 113.206 46.5771C113.212 46.5771 113.219 46.5791 113.224 46.5826C113.229 46.5861 113.233 46.5912 113.235 46.597C113.273 47.5668 113.144 48.5328 113.166 49.5064C113.316 49.4262 113.476 49.3661 113.642 49.3277C113.676 49.3277 113.642 50.0123 113.642 50.1149C113.832 50.1237 114.022 50.0946 114.201 50.0294C114.38 49.9641 114.544 49.8639 114.684 49.7346C114.722 49.7042 114.748 49.7232 114.729 49.746Z" fill="#263238"/>
<path d="M113.836 50.1643C113.974 50.3222 114.149 50.4426 114.346 50.5142C114.455 50.5484 114.572 50.5484 114.681 50.5142C114.917 50.4344 114.909 50.2138 114.856 50.0274C114.825 49.9291 114.783 49.8346 114.73 49.746C114.485 49.9776 114.171 50.1242 113.836 50.1643Z" fill="#263238"/>
<path d="M114.345 50.5066C114.454 50.5408 114.571 50.5408 114.68 50.5066C114.916 50.4267 114.908 50.2061 114.855 50.0198C114.728 50.0321 114.608 50.0868 114.516 50.1751C114.423 50.2633 114.363 50.3801 114.345 50.5066Z" fill="#FF98B9"/>
<path d="M111.656 45.1327C113.242 45.9618 115.079 44.2047 115.079 44.2047C115.242 44.5102 115.499 44.7549 115.812 44.9023C116.125 45.0496 116.478 45.0918 116.817 45.0224C116.817 45.0224 117.399 47.4717 118.049 47.388C119.045 47.2625 118.954 43.8434 118.562 43.2045C118.412 43.0076 118.223 42.8438 118.006 42.7234C117.789 42.603 117.55 42.5285 117.304 42.5047C117.162 42.114 116.878 41.7909 116.509 41.5995C115.748 41.1584 113.5 42.1396 113.5 42.1396C113.331 41.834 113.091 41.5733 112.801 41.3789C112.731 41.332 112.653 41.2995 112.571 41.2834C112.488 41.2674 112.404 41.268 112.322 41.2854C112.24 41.3028 112.162 41.3366 112.093 41.3847C112.025 41.4327 111.966 41.4942 111.922 41.5653C112.071 41.733 112.178 41.9338 112.234 42.151C112.439 42.8622 111.854 42.9306 111.774 42.2727C111.736 42.0267 111.789 41.7753 111.922 41.5653C111.58 41.185 111.085 41.0861 110.823 41.3523C110.332 41.8619 110.34 44.4595 111.656 45.1327Z" fill="#263238"/>
<path d="M112.235 49.3087C111.783 49.3391 111.376 48.8105 111.33 48.1297C111.285 47.4489 111.608 46.8632 112.06 46.8328C112.513 46.8024 112.916 47.331 112.966 48.0118C113.015 48.6926 112.688 49.2744 112.235 49.3087ZM112.072 47.0001C111.711 47.0229 111.452 47.525 111.494 48.1183C111.536 48.7116 111.874 49.168 112.224 49.1413C112.574 49.1147 112.844 48.6165 112.798 48.0232C112.753 47.4299 112.429 46.9735 112.072 47.0001Z" fill="#76B8EE"/>
<path d="M115.007 49.1109C114.759 49.1453 114.508 49.1047 114.284 48.9941C114.06 48.8836 113.875 48.7083 113.752 48.491C113.629 48.2737 113.575 48.0245 113.595 47.7758C113.616 47.5271 113.711 47.2904 113.868 47.0965C114.025 46.9025 114.237 46.7603 114.476 46.6884C114.715 46.6164 114.97 46.6179 115.208 46.6929C115.446 46.7678 115.656 46.9126 115.811 47.1085C115.965 47.3044 116.058 47.5422 116.075 47.7912C116.107 48.1076 116.013 48.4239 115.813 48.6711C115.612 48.9183 115.323 49.0764 115.007 49.1109ZM114.843 46.7985C114.626 46.7968 114.413 46.8605 114.233 46.9816C114.052 47.1026 113.912 47.2752 113.832 47.4768C113.751 47.6785 113.733 47.8998 113.78 48.1119C113.827 48.324 113.936 48.517 114.095 48.6658C114.253 48.8145 114.453 48.9121 114.667 48.9457C114.882 48.9793 115.102 48.9474 115.298 48.8542C115.494 48.761 115.658 48.6108 115.767 48.4231C115.877 48.2355 115.927 48.0193 115.912 47.8026C115.902 47.5282 115.784 47.2688 115.584 47.0808C115.384 46.8928 115.117 46.7913 114.843 46.7985Z" fill="#76B8EE"/>
<path d="M113.813 47.8405C113.178 47.6656 112.912 47.89 112.912 47.89L112.798 47.7683C112.798 47.7683 113.125 47.4792 113.855 47.6808L113.813 47.8405Z" fill="#76B8EE"/>
<path d="M115.985 47.6884L115.943 47.5249C116.049 47.4983 118.54 46.8517 118.814 46.8175C119.188 46.8593 119.551 46.9716 119.883 47.1484L119.815 47.2967C119.511 47.1406 119.185 47.034 118.849 46.981C118.62 47.0077 116.878 47.4564 115.985 47.6884Z" fill="#76B8EE"/>
<path d="M117.612 47.563C117.612 47.563 118.339 45.9846 119.038 46.2204C119.738 46.4562 119.366 48.6202 118.658 49.0348C118.573 49.0953 118.476 49.1376 118.373 49.1589C118.271 49.1803 118.165 49.1802 118.063 49.1588C117.96 49.1374 117.863 49.095 117.778 49.0344C117.693 48.9738 117.621 48.8963 117.567 48.8066L117.612 47.563Z" fill="#DD6A57"/>
<path d="M118.878 54.0437C118.429 54.6418 117.946 55.2144 117.433 55.7589C116.96 56.2914 116.328 56.6569 115.63 56.801C114.953 56.8923 114.269 56.801 113.984 55.9567C113.774 55.2486 113.726 54.5027 113.843 53.7736C113.843 53.7356 113.793 53.728 113.79 53.7736C113.679 54.8728 113.588 56.5652 114.596 56.8999C115.737 57.2802 116.783 56.6603 117.528 55.8616C118.05 55.3149 118.51 54.713 118.901 54.0665C118.901 54.0665 118.89 54.0322 118.878 54.0437Z" fill="#263238"/>
<path d="M125.671 78.8558H105.267V79.7724H125.671V78.8558Z" fill="#263238"/>
<path d="M120.435 79.7685H100.548L98.8933 66.2633H118.776L120.435 79.7685Z" fill="#263238"/>
<path d="M110.872 73.0179C110.876 73.1761 110.848 73.3334 110.789 73.4805C110.731 73.6276 110.644 73.7615 110.533 73.8743C110.422 73.9871 110.289 74.0764 110.143 74.137C109.997 74.1977 109.84 74.2284 109.682 74.2273C109.359 74.2255 109.051 74.0981 108.821 73.8724C108.59 73.6466 108.457 73.3401 108.45 73.0179C108.446 72.8595 108.474 72.7021 108.532 72.5548C108.591 72.4075 108.678 72.2733 108.789 72.1602C108.9 72.0472 109.032 71.9575 109.178 71.8964C109.325 71.8353 109.482 71.8041 109.64 71.8047C109.963 71.8066 110.272 71.9344 110.502 72.161C110.733 72.3876 110.865 72.695 110.872 73.0179Z" fill="white"/>
<path d="M105.969 166.958H33.3334L20.6394 114.25H93.2747L105.969 166.958Z" fill="#A6A6A6"/>
<path d="M7.73511 166.958H80.3704L93.0644 114.25H20.4291L7.73511 166.958Z" fill="#DBDBDB"/>
<path d="M82.533 124.154L80.9138 130.887L80.8159 131.301L79.1402 138.294L79.0422 138.708L77.3665 145.693L77.2649 146.108L75.5854 153.097L75.4875 153.515L73.8457 160.361H20.5205L22.1623 153.515L22.2602 153.097L23.9397 146.108L24.0414 145.693L25.7171 138.708L25.8188 138.294L27.4945 131.301L27.5924 130.887L29.2116 124.154H82.533Z" fill="white"/>
<path d="M37.0206 124.154L35.4013 130.887L35.3034 131.301L33.6277 138.294L33.5298 138.708L31.8541 145.693L31.7524 146.108L30.0767 153.097L29.975 153.515L28.3332 160.361H27.9077L29.5533 153.515L29.6512 153.097L31.3269 146.108L31.4286 145.693L33.1005 138.708L33.2022 138.294L34.8817 131.301L34.9796 130.887L36.5913 124.154H37.0206Z" fill="#EBEBEB"/>
<path d="M44.6165 124.154L42.9973 130.887L42.8994 131.301L41.2237 138.294L41.1258 138.708L39.45 145.693L39.3484 146.108L37.6727 153.097L37.571 153.515L35.9292 160.361H35.5037L37.1492 153.515L37.2472 153.097L38.9229 146.108L39.0245 145.693L40.6965 138.708L40.7981 138.294L42.4776 131.301L42.5755 130.887L44.1872 124.154H44.6165Z" fill="#EBEBEB"/>
<path d="M52.2149 124.154L50.5994 130.887L50.4978 131.301L48.8221 138.294L48.7241 138.708L47.0484 145.693L46.9505 146.108L45.2711 153.097L45.1694 153.515L43.5276 160.361H43.1021L44.7476 153.515L44.8493 153.097L46.5212 146.108L46.6229 145.693L48.2986 138.708L48.3965 138.294L50.076 131.301L50.1739 130.887L51.7894 124.154H52.2149Z" fill="#EBEBEB"/>
<path d="M59.8096 124.154L58.1942 130.887L58.0925 131.301L56.4168 138.294L56.3189 138.708L54.6432 145.693L54.5453 146.108L52.8658 153.097L52.7641 153.515L51.1223 160.361H50.6968L52.3424 153.515L52.444 153.097L54.116 146.108L54.2176 145.693L55.8934 138.708L55.9913 138.294L57.6707 131.301L57.7686 130.887L59.3841 124.154H59.8096Z" fill="#EBEBEB"/>
<path d="M67.4087 124.154L65.7933 130.887L65.6916 131.301L64.0197 138.294L63.918 138.708L62.2423 145.693L62.1444 146.108L60.4649 153.097L60.367 153.515L58.7252 160.361H58.2959L59.9415 153.515L60.0432 153.097L61.7189 146.108L61.8168 145.693L63.4925 138.708L63.5904 138.294L65.2699 131.301L65.3678 130.887L66.9832 124.154H67.4087Z" fill="#EBEBEB"/>
<path d="M75.0044 124.154L73.389 130.887L73.2873 131.301L71.6154 138.294L71.5137 138.708L69.838 145.693L69.7401 146.108L68.0606 153.097L67.9627 153.515L66.3209 160.361H65.8916L67.5372 153.515L67.6389 153.097L69.3146 146.108L69.4125 145.693L71.0882 138.708L71.1861 138.294L72.8656 131.301L72.9672 130.887L74.5789 124.154H75.0044Z" fill="#EBEBEB"/>
<path d="M80.9132 130.887L80.8153 131.301H27.4939L27.5918 130.887H80.9132Z" fill="#EBEBEB"/>
<path d="M79.1386 138.294L79.0407 138.708H25.7156L25.8172 138.294H79.1386Z" fill="#EBEBEB"/>
<path d="M77.3653 145.693L77.2636 146.108H23.9385L24.0402 145.693H77.3653Z" fill="#EBEBEB"/>
<path d="M75.5842 153.097L75.4863 153.515H22.1611L22.259 153.097H75.5842Z" fill="#EBEBEB"/>
<path d="M34.2639 138.936L33.4641 139.582L38.1056 145.33L38.9054 144.685L34.2639 138.936Z" fill="#C7C7C7"/>
<path d="M38.9899 138.88L32.5669 144.735L33.2594 145.495L39.6825 139.64L38.9899 138.88Z" fill="#C7C7C7"/>
<path d="M51.1196 131.733L50.3198 132.379L54.9613 138.127L55.7611 137.481L51.1196 131.733Z" fill="#C7C7C7"/>
<path d="M55.8479 131.679L49.4248 137.534L50.1173 138.294L56.5405 132.439L55.8479 131.679Z" fill="#C7C7C7"/>
<path d="M29.8545 138.166L27.8926 134.735L28.785 134.223L30.0126 136.37L34.4862 130.974L35.277 131.629L29.8545 138.166Z" fill="#76B8EE"/>
<path d="M39.3476 159.969L37.3857 156.538L38.2782 156.026L39.502 158.173L43.9756 152.776L44.7664 153.432L39.3476 159.969Z" fill="#76B8EE"/>
<path d="M66.3433 139.021C65.3922 139.544 64.5157 140.192 63.7375 140.949C62.9843 141.702 62.3253 142.617 62.2312 143.645C62.1924 143.884 62.2031 144.129 62.2627 144.364C62.3223 144.599 62.4295 144.82 62.5776 145.012C62.9248 145.372 63.3721 145.62 63.8617 145.723C64.8931 145.94 65.9606 145.913 66.9797 145.644C68.0108 145.425 68.9782 144.973 69.8077 144.323C70.2102 144 70.5443 143.601 70.7905 143.148C71.0352 142.713 71.1416 142.214 71.0955 141.717C71.0528 141.473 70.961 141.241 70.8257 141.034C70.6904 140.826 70.5144 140.649 70.3085 140.512C69.8759 140.212 69.3883 140.001 68.8738 139.89C67.8186 139.642 66.7189 139.654 65.6692 139.924C66.7117 139.543 67.8355 139.439 68.9303 139.623C69.4923 139.715 70.0301 139.918 70.5118 140.222C70.7656 140.38 70.9855 140.587 71.1587 140.831C71.332 141.074 71.4551 141.35 71.521 141.642C71.6101 142.235 71.5016 142.841 71.2122 143.366C70.9447 143.88 70.5773 144.336 70.1315 144.707C69.2431 145.417 68.2078 145.921 67.1005 146.181C65.9932 146.442 64.8419 146.453 63.7299 146.213C63.15 146.077 62.6248 145.768 62.2237 145.328C62.0298 145.087 61.9003 144.801 61.8471 144.496C61.8019 144.203 61.8019 143.904 61.8471 143.611C62.0203 142.44 62.7697 141.502 63.5831 140.775C64.4112 140.057 65.3414 139.466 66.3433 139.021Z" fill="#76B8EE"/>
<path d="M35.352 126.029H29.6885L29.8466 125.336H35.5101L35.352 126.029Z" fill="#C7C7C7"/>
<path d="M32.7465 127.212H29.4177L29.5759 126.523H32.9047L32.7465 127.212Z" fill="#C7C7C7"/>
<path d="M58.3723 147.787H54.9268L55.0849 147.098H58.5305L58.3723 147.787Z" fill="#C7C7C7"/>
<path d="M57.8259 150.201H54.3804L54.5385 149.512H57.9878L57.8259 150.201Z" fill="#C7C7C7"/>
<path d="M60.0546 148.973H54.6509L54.8128 148.28H60.2127L60.0546 148.973Z" fill="#C7C7C7"/>
<path d="M67.2959 142.466H63.8503L64.0085 141.773H67.4578L67.2959 142.466Z" fill="#C7C7C7"/>
<path d="M68.9789 143.649H63.5752L63.7371 142.96H69.137L68.9789 143.649Z" fill="#C7C7C7"/>
<path d="M21.0205 129.686L24.3456 127.2C24.7193 126.922 24.9854 126.523 25.0987 126.071C25.1434 125.9 25.1521 125.723 25.1242 125.549C25.0963 125.375 25.0325 125.209 24.9368 125.061C24.8239 124.901 24.6728 124.772 24.4972 124.685C24.3216 124.598 24.1271 124.557 23.9314 124.564C23.524 124.564 23.1276 124.696 22.8017 124.941L22.4552 125.201C22.4372 125.221 22.4152 125.237 22.3905 125.248C22.3659 125.259 22.3392 125.265 22.3121 125.265C22.2851 125.265 22.2584 125.259 22.2338 125.248C22.2091 125.237 22.1871 125.221 22.1691 125.201C22.1549 125.177 22.1457 125.151 22.1418 125.124C22.1379 125.096 22.1395 125.068 22.1466 125.042C22.1536 125.015 22.1658 124.99 22.1826 124.968C22.1994 124.946 22.2204 124.928 22.2444 124.915L22.5908 124.643C23.0004 124.333 23.4969 124.159 24.0105 124.146C24.2621 124.133 24.5129 124.185 24.7386 124.297C24.9643 124.409 25.1571 124.578 25.2983 124.787C25.4222 124.974 25.5047 125.186 25.5404 125.408C25.5762 125.63 25.5642 125.857 25.5054 126.074C25.3594 126.648 25.0203 127.153 24.5452 127.505L21.6984 129.633H24.4812C24.5066 129.633 24.5317 129.639 24.5544 129.65C24.5771 129.662 24.5968 129.679 24.6118 129.699C24.6269 129.72 24.6369 129.743 24.641 129.769C24.6451 129.794 24.6432 129.819 24.6355 129.844C24.6207 129.899 24.5887 129.949 24.5441 129.985C24.4995 130.022 24.4445 130.044 24.387 130.047H21.077C21.0511 130.05 21.0251 130.045 21.0013 130.035C20.9776 130.024 20.9569 130.008 20.9415 129.987C20.9153 129.936 20.9088 129.877 20.9234 129.821C20.938 129.766 20.9726 129.717 21.0205 129.686Z" fill="#A6A6A6"/>
<path d="M19.3751 137.206C19.5436 136.445 19.8967 135.738 20.4031 135.146C20.6086 134.892 20.8634 134.683 21.1521 134.531C21.4408 134.379 21.7573 134.287 22.0826 134.261C22.3579 134.265 22.6256 134.351 22.8512 134.509C23.0768 134.667 23.2498 134.889 23.3479 135.146C23.5937 135.806 23.6279 136.525 23.4458 137.206C23.2715 137.966 22.9118 138.671 22.3989 139.258C22.196 139.512 21.9435 139.722 21.6567 139.876C21.3699 140.029 21.0548 140.123 20.7307 140.15C20.4545 140.146 20.1858 140.059 19.96 139.9C19.7342 139.741 19.5619 139.517 19.4655 139.258C19.2205 138.6 19.1889 137.882 19.3751 137.206ZM19.7893 137.206C19.6235 137.807 19.6485 138.445 19.8609 139.032C19.9325 139.233 20.0632 139.409 20.2357 139.535C20.4083 139.661 20.6149 139.733 20.8286 139.74C21.0807 139.713 21.3246 139.635 21.5459 139.512C21.7672 139.388 21.9613 139.221 22.1165 139.021C22.5675 138.5 22.8842 137.877 23.0391 137.206C23.2001 136.603 23.1698 135.964 22.9525 135.379C22.8843 135.176 22.755 134.999 22.5825 134.873C22.41 134.746 22.2025 134.676 21.9885 134.671C21.7358 134.693 21.4904 134.767 21.268 134.889C21.0455 135.011 20.851 135.178 20.6968 135.379C20.249 135.904 19.9373 136.532 19.7893 137.206Z" fill="#A6A6A6"/>
<path d="M16.3546 149.896L19.6796 147.41C20.0534 147.132 20.3194 146.733 20.4327 146.281C20.4774 146.111 20.4861 145.933 20.4582 145.759C20.4303 145.585 20.3665 145.419 20.2708 145.272C20.158 145.114 20.0079 144.986 19.8338 144.9C19.6597 144.814 19.467 144.772 19.2729 144.778C18.8655 144.778 18.4692 144.91 18.1432 145.155L17.7968 145.415C17.7788 145.435 17.7567 145.451 17.7321 145.462C17.7074 145.473 17.6807 145.479 17.6537 145.479C17.6267 145.479 17.6 145.473 17.5753 145.462C17.5507 145.451 17.5286 145.435 17.5106 145.415C17.4965 145.391 17.4872 145.365 17.4833 145.337C17.4795 145.31 17.4811 145.282 17.4881 145.256C17.4951 145.229 17.5074 145.204 17.5242 145.182C17.541 145.16 17.562 145.142 17.5859 145.129L17.9324 144.857C18.3419 144.547 18.8384 144.373 19.352 144.36C19.5998 144.349 19.8464 144.402 20.0684 144.512C20.2904 144.623 20.4806 144.788 20.621 144.993C20.7449 145.181 20.8275 145.393 20.8632 145.615C20.8989 145.837 20.8869 146.064 20.8281 146.281C20.6821 146.854 20.343 147.359 19.8679 147.712L17.0173 149.839H19.8039C19.8293 149.839 19.8545 149.845 19.8772 149.857C19.8999 149.868 19.9195 149.885 19.9346 149.906C19.9496 149.926 19.9596 149.95 19.9637 149.975C19.9678 150 19.966 150.026 19.9583 150.05C19.9434 150.106 19.9114 150.155 19.8668 150.192C19.8222 150.228 19.7673 150.25 19.7097 150.254H16.411C16.3852 150.256 16.3591 150.252 16.3353 150.241C16.3116 150.231 16.291 150.214 16.2755 150.193C16.2503 150.143 16.2445 150.084 16.2591 150.03C16.2736 149.975 16.3075 149.927 16.3546 149.896Z" fill="#A6A6A6"/>
<path d="M14.7088 157.416C14.8806 156.654 15.2376 155.947 15.7481 155.356C15.9525 155.1 16.2068 154.889 16.4956 154.735C16.7843 154.581 17.1014 154.487 17.4276 154.46C17.7028 154.464 17.9706 154.55 18.1962 154.708C18.4218 154.866 18.5948 155.087 18.6928 155.345C18.9367 156.005 18.9708 156.724 18.7907 157.404C18.6148 158.164 18.2554 158.868 17.7439 159.457C17.5397 159.712 17.2854 159.923 16.9965 160.077C16.7077 160.23 16.3905 160.323 16.0644 160.349C15.788 160.346 15.5191 160.259 15.2932 160.099C15.0674 159.94 14.8951 159.716 14.7992 159.457C14.5566 158.803 14.525 158.089 14.7088 157.416ZM15.123 157.416C14.9571 158.017 14.9821 158.655 15.1945 159.242C15.2671 159.443 15.3979 159.618 15.5703 159.744C15.7427 159.87 15.9489 159.942 16.1623 159.95C16.4135 159.924 16.6569 159.849 16.8782 159.727C17.0994 159.605 17.2939 159.44 17.4502 159.242C17.9057 158.72 18.2241 158.092 18.3765 157.416C18.5418 156.813 18.5128 156.174 18.2937 155.589C18.2255 155.386 18.0962 155.21 17.9237 155.083C17.7512 154.956 17.5437 154.886 17.3297 154.881C17.077 154.903 16.8316 154.977 16.6092 155.099C16.3867 155.221 16.1922 155.388 16.038 155.589C15.5902 156.114 15.2785 156.742 15.1305 157.416H15.123Z" fill="#A6A6A6"/>
<path d="M83.4616 122.727C83.4616 122.727 81.8499 129.712 81.1683 132.672C80.4867 135.632 77.6775 137.514 77.6775 137.514H62.2949C62.2949 137.514 65.0325 134.257 65.5899 131.84L67.6948 122.727H83.4616Z" fill="#76B8EE"/>
<path d="M69.9019 127.822L69.0961 128.669C69.0806 128.686 69.059 128.697 69.0358 128.699C69.0255 128.7 69.0152 128.697 69.0064 128.692C68.9977 128.687 68.9908 128.679 68.9869 128.669L68.5726 127.825L68.1961 129.388C68.1913 129.406 68.1811 129.422 68.1669 129.433C68.1527 129.445 68.1352 129.451 68.117 129.452C68.1088 129.453 68.1004 129.452 68.0927 129.449C68.085 129.446 68.0782 129.441 68.0729 129.435C68.0677 129.428 68.0641 129.421 68.0626 129.413C68.0611 129.404 68.0617 129.396 68.0643 129.388L68.471 127.626C68.4732 127.615 68.4776 127.605 68.4841 127.596C68.4906 127.586 68.499 127.579 68.5086 127.573C68.5142 127.567 68.521 127.563 68.5284 127.56C68.5358 127.556 68.5438 127.555 68.5519 127.555C68.56 127.555 68.568 127.556 68.5754 127.56C68.5829 127.563 68.5896 127.567 68.5952 127.573L69.0584 128.511L69.9471 127.573C69.9607 127.562 69.9781 127.555 69.996 127.555C70.014 127.555 70.0314 127.562 70.045 127.573C70.0468 127.581 70.0468 127.588 70.045 127.596C70.0469 127.607 70.0469 127.618 70.045 127.63L69.6383 129.392C69.6336 129.41 69.6234 129.425 69.6092 129.437C69.595 129.448 69.5775 129.455 69.5592 129.456C69.5513 129.456 69.5434 129.455 69.5362 129.451C69.529 129.448 69.5228 129.443 69.5179 129.437C69.5131 129.431 69.5099 129.423 69.5086 129.415C69.5072 129.408 69.5078 129.4 69.5103 129.392L69.9019 127.822Z" fill="black"/>
<path d="M70.6399 127.614C70.6453 127.597 70.6562 127.581 70.6711 127.569C70.6859 127.558 70.704 127.551 70.7227 127.55H71.7018C71.7097 127.55 71.7176 127.552 71.7248 127.555C71.732 127.558 71.7383 127.563 71.7431 127.57C71.7479 127.576 71.7511 127.583 71.7524 127.591C71.7538 127.599 71.7532 127.607 71.7507 127.614C71.7465 127.633 71.7361 127.65 71.721 127.663C71.706 127.675 71.6873 127.682 71.6679 127.682H70.7566L70.5834 128.435H71.3817C71.3898 128.436 71.3977 128.438 71.4048 128.442C71.412 128.445 71.4182 128.451 71.4229 128.457C71.4276 128.464 71.4308 128.471 71.4321 128.479C71.4335 128.487 71.433 128.495 71.4307 128.503C71.4266 128.522 71.4167 128.538 71.4025 128.55C71.3882 128.563 71.3703 128.57 71.3516 128.571H70.5533L70.3801 129.324H71.2913C71.2997 129.323 71.3081 129.325 71.3157 129.328C71.3234 129.332 71.3299 129.337 71.3349 129.344C71.3398 129.351 71.3429 129.359 71.3438 129.367C71.3448 129.376 71.3435 129.384 71.3403 129.392C71.3361 129.41 71.3261 129.426 71.3117 129.437C71.2974 129.449 71.2796 129.456 71.2612 129.456H70.2746C70.267 129.456 70.2596 129.454 70.2529 129.45C70.2462 129.446 70.2404 129.441 70.236 129.435C70.2316 129.429 70.2287 129.422 70.2276 129.414C70.2265 129.407 70.2271 129.399 70.2294 129.392L70.6399 127.614Z" fill="black"/>
<path d="M72.2557 127.615C72.2605 127.597 72.2707 127.581 72.2849 127.57C72.2991 127.558 72.3165 127.552 72.3348 127.551H73.3139C73.3218 127.55 73.3298 127.552 73.337 127.555C73.3443 127.559 73.3507 127.564 73.3558 127.57C73.3609 127.576 73.3645 127.583 73.3663 127.591C73.3682 127.599 73.3683 127.607 73.3666 127.615C73.3618 127.633 73.3512 127.65 73.3363 127.662C73.3214 127.674 73.303 127.681 73.2837 127.682H72.3687L72.1955 128.435H72.9938C73.0019 128.436 73.0098 128.438 73.0169 128.442C73.024 128.445 73.0302 128.451 73.035 128.457C73.0397 128.464 73.0428 128.471 73.0442 128.479C73.0455 128.487 73.045 128.496 73.0427 128.503C73.0385 128.522 73.0281 128.539 73.013 128.551C72.998 128.564 72.9793 128.571 72.9599 128.571H72.1653L71.9921 129.324H72.9034C72.9411 129.324 72.9599 129.354 72.9524 129.392C72.9474 129.41 72.9367 129.426 72.9217 129.438C72.9067 129.449 72.8884 129.456 72.8695 129.456H71.8867C71.8791 129.456 71.8716 129.454 71.8649 129.45C71.8582 129.447 71.8525 129.441 71.8481 129.435C71.8437 129.429 71.8408 129.422 71.8397 129.414C71.8385 129.407 71.8392 129.399 71.8415 129.392L72.2557 127.615Z" fill="black"/>
<path d="M74.3453 127.682H73.7729C73.7646 127.683 73.7562 127.681 73.7486 127.678C73.741 127.674 73.7343 127.669 73.7291 127.662C73.724 127.655 73.7205 127.648 73.7189 127.639C73.7174 127.631 73.7178 127.623 73.7202 127.615C73.7261 127.597 73.7372 127.581 73.7519 127.57C73.7667 127.559 73.7845 127.552 73.8031 127.551H75.0796C75.0876 127.55 75.0955 127.552 75.1028 127.555C75.1101 127.559 75.1165 127.564 75.1215 127.57C75.1266 127.576 75.1302 127.583 75.1321 127.591C75.134 127.599 75.1341 127.607 75.1323 127.615C75.1276 127.633 75.1169 127.65 75.102 127.662C75.0871 127.674 75.0687 127.681 75.0495 127.682H74.4771L74.1006 129.388C74.0958 129.406 74.0856 129.422 74.0714 129.433C74.0572 129.445 74.0397 129.451 74.0215 129.452C74.0135 129.452 74.0056 129.451 73.9983 129.447C73.991 129.444 73.9846 129.439 73.9796 129.433C73.9745 129.427 73.9709 129.42 73.969 129.412C73.9671 129.404 73.967 129.396 73.9688 129.388L74.3453 127.682Z" fill="black"/>
<path d="M75.6527 127.615C75.6575 127.597 75.6677 127.581 75.6819 127.57C75.6961 127.558 75.7136 127.552 75.7318 127.551C75.7398 127.55 75.7477 127.552 75.755 127.555C75.7622 127.559 75.7687 127.564 75.7737 127.57C75.7788 127.576 75.7824 127.583 75.7843 127.591C75.7862 127.599 75.7863 127.607 75.7845 127.615L75.3816 129.388C75.3755 129.406 75.3639 129.422 75.3484 129.434C75.3329 129.445 75.3143 129.452 75.295 129.452C75.2871 129.453 75.2792 129.451 75.272 129.448C75.2648 129.444 75.2585 129.439 75.2537 129.433C75.2489 129.427 75.2457 129.419 75.2444 129.412C75.243 129.404 75.2436 129.396 75.246 129.388L75.6527 127.615Z" fill="black"/>
<path d="M76.5526 127.829L76.1761 129.388C76.1713 129.406 76.1611 129.422 76.1469 129.433C76.1327 129.445 76.1152 129.451 76.097 129.452C76.0891 129.453 76.0812 129.451 76.074 129.448C76.0668 129.444 76.0605 129.439 76.0557 129.433C76.0509 129.427 76.0477 129.419 76.0464 129.412C76.045 129.404 76.0456 129.396 76.048 129.388L76.451 127.641C76.4501 127.626 76.4536 127.612 76.461 127.599C76.4683 127.586 76.4793 127.576 76.4924 127.569C76.5263 127.569 76.5677 127.569 76.579 127.569L77.366 129.17L77.7238 127.618C77.7285 127.601 77.7387 127.585 77.7529 127.574C77.7671 127.562 77.7846 127.555 77.8028 127.554C77.8108 127.554 77.8187 127.556 77.826 127.559C77.8333 127.562 77.8397 127.567 77.8448 127.574C77.8498 127.58 77.8534 127.587 77.8553 127.595C77.8572 127.602 77.8573 127.611 77.8556 127.618L77.4489 129.373C77.4434 129.391 77.4325 129.407 77.4177 129.418C77.4028 129.43 77.3848 129.436 77.366 129.437C77.3572 129.437 77.3484 129.436 77.3405 129.432C77.3326 129.428 77.3259 129.422 77.3208 129.415L76.5526 127.829Z" fill="black"/>
<path d="M79.0857 128.597C79.0774 128.599 79.0691 128.597 79.0614 128.594C79.0537 128.591 79.0469 128.586 79.0416 128.58C79.0363 128.574 79.0328 128.566 79.0313 128.558C79.0297 128.55 79.0303 128.541 79.0329 128.533C79.0373 128.514 79.0483 128.496 79.0641 128.484C79.0799 128.472 79.0995 128.465 79.1196 128.466H79.7145C79.7223 128.466 79.7297 128.469 79.7364 128.473C79.743 128.477 79.7485 128.482 79.7526 128.489C79.7566 128.496 79.7591 128.503 79.7596 128.511C79.7602 128.519 79.759 128.526 79.7559 128.533L79.6053 129.185C79.5984 129.205 79.5852 129.222 79.5677 129.234C79.3718 129.366 79.1413 129.438 78.9049 129.441C78.7851 129.446 78.6657 129.422 78.5569 129.372C78.448 129.321 78.3528 129.246 78.2791 129.151C78.2055 129.056 78.1555 128.945 78.1333 128.828C78.1112 128.71 78.1175 128.588 78.1518 128.473C78.2238 128.204 78.3806 127.965 78.599 127.792C78.8174 127.619 79.0858 127.521 79.3643 127.513C79.468 127.51 79.5712 127.527 79.6682 127.564C79.7651 127.601 79.8538 127.656 79.9292 127.728C79.9411 127.74 79.9478 127.756 79.9478 127.773C79.9478 127.79 79.9411 127.806 79.9292 127.818C79.9155 127.83 79.8982 127.836 79.8802 127.836C79.8623 127.836 79.8449 127.83 79.8313 127.818C79.7658 127.756 79.6889 127.709 79.6049 127.677C79.5209 127.645 79.4315 127.63 79.3417 127.633C79.1019 127.642 78.8711 127.728 78.6828 127.876C78.4946 128.025 78.3587 128.23 78.2949 128.462C78.2651 128.562 78.2598 128.668 78.2797 128.771C78.2995 128.874 78.3438 128.97 78.4088 129.052C78.4739 129.134 78.5577 129.199 78.6532 129.242C78.7487 129.285 78.8532 129.304 78.9576 129.298C79.1497 129.294 79.3372 129.238 79.4999 129.136L79.6279 128.575L79.0857 128.597Z" fill="black"/>
<path d="M67.353 131.007L67.048 131.165C67.0357 131.169 67.0227 131.169 67.0104 131.165C67.0001 131.166 66.9898 131.164 66.981 131.158C66.9722 131.153 66.9653 131.145 66.9614 131.135C66.9554 131.117 66.9568 131.098 66.9653 131.081C66.9738 131.064 66.9886 131.051 67.0066 131.045L67.4246 130.819C67.432 130.815 67.4401 130.813 67.4485 130.812C67.4569 130.811 67.4653 130.812 67.4733 130.814C67.4814 130.817 67.4889 130.821 67.4954 130.826C67.5019 130.831 67.5072 130.838 67.5112 130.845C67.5166 130.861 67.5166 130.879 67.5112 130.894L67.097 132.653C67.0922 132.672 67.0816 132.688 67.0667 132.7C67.0518 132.713 67.0334 132.72 67.0141 132.721C67.006 132.72 66.9981 132.718 66.991 132.715C66.9838 132.711 66.9777 132.705 66.9729 132.699C66.9682 132.692 66.9651 132.685 66.9637 132.677C66.9624 132.669 66.9629 132.661 66.9652 132.653L67.353 131.007Z" fill="black"/>
<path d="M69.1217 130.936L68.5117 131.44C68.625 131.464 68.7264 131.527 68.7979 131.617C68.8442 131.683 68.8757 131.757 68.89 131.836C68.9043 131.915 68.9012 131.996 68.8807 132.073C68.8327 132.251 68.7297 132.41 68.5864 132.526C68.443 132.642 68.2667 132.711 68.0824 132.721C68.0038 132.723 67.9257 132.707 67.8544 132.673C67.7831 132.64 67.7207 132.591 67.672 132.529C67.6494 132.506 67.672 132.461 67.6945 132.435C67.7005 132.428 67.7078 132.423 67.7159 132.419C67.724 132.416 67.7328 132.414 67.7416 132.414C67.7505 132.414 67.7592 132.416 67.7673 132.419C67.7754 132.423 67.7827 132.428 67.7887 132.435C67.8284 132.483 67.8786 132.521 67.9354 132.546C67.9922 132.572 68.0541 132.584 68.1163 132.581C68.2542 132.574 68.3861 132.522 68.4929 132.435C68.6116 132.34 68.694 132.207 68.7263 132.058C68.7433 131.997 68.746 131.933 68.7343 131.871C68.7225 131.809 68.6966 131.751 68.6586 131.7C68.6213 131.65 68.5721 131.61 68.5156 131.584C68.4591 131.558 68.3969 131.546 68.3347 131.55C68.325 131.55 68.3155 131.547 68.307 131.543C68.2985 131.538 68.2912 131.531 68.2858 131.523C68.2768 131.507 68.2742 131.488 68.2783 131.47C68.2825 131.452 68.2932 131.436 68.3083 131.425L68.8958 130.936H68.1653C68.1569 130.936 68.1485 130.935 68.1409 130.931C68.1333 130.928 68.1266 130.922 68.1214 130.916C68.1163 130.909 68.1128 130.901 68.1112 130.893C68.1097 130.885 68.1101 130.876 68.1125 130.868C68.118 130.849 68.1294 130.832 68.1449 130.82C68.1605 130.808 68.1794 130.801 68.1991 130.8H69.0878C69.0962 130.8 69.1046 130.802 69.1122 130.805C69.1198 130.809 69.1265 130.814 69.1317 130.821C69.1368 130.827 69.1403 130.835 69.1419 130.843C69.1434 130.852 69.143 130.86 69.1406 130.868C69.1426 130.878 69.1426 130.888 69.1406 130.898L69.1217 130.936Z" fill="black"/>
<path d="M70.0794 131.452C70.0744 131.47 70.0642 131.486 70.0501 131.498C70.036 131.51 70.0187 131.517 70.0003 131.52H69.8271L69.6049 132.487C69.6021 132.499 69.6019 132.511 69.6044 132.522C69.6068 132.534 69.6118 132.545 69.6191 132.554C69.6263 132.564 69.6356 132.571 69.6461 132.577C69.6567 132.582 69.6684 132.585 69.6803 132.585C69.6884 132.586 69.6964 132.588 69.7036 132.591C69.7109 132.595 69.7172 132.601 69.7222 132.607C69.7272 132.613 69.7308 132.621 69.7326 132.629C69.7345 132.637 69.7346 132.645 69.733 132.653C69.7268 132.671 69.7158 132.687 69.7012 132.699C69.6866 132.711 69.6689 132.718 69.6501 132.721C69.621 132.723 69.5917 132.718 69.565 132.706C69.5383 132.694 69.5149 132.676 69.497 132.653C69.4791 132.63 69.4672 132.602 69.4624 132.573C69.4576 132.545 69.46 132.515 69.4694 132.487L69.6916 131.52H69.5259C69.4619 131.52 69.4694 131.486 69.4769 131.452C69.4773 131.442 69.4798 131.433 69.4841 131.424C69.4884 131.416 69.4945 131.408 69.502 131.402C69.5095 131.396 69.5182 131.391 69.5275 131.389C69.5368 131.387 69.5465 131.386 69.556 131.388H69.733L69.8497 130.891C69.8554 130.874 69.8658 130.858 69.8799 130.847C69.8939 130.836 69.9109 130.829 69.9288 130.827C69.9369 130.827 69.9449 130.828 69.9523 130.832C69.9597 130.835 69.9663 130.84 69.9717 130.846C69.977 130.852 69.981 130.859 69.9833 130.867C69.9857 130.874 69.9864 130.883 69.9853 130.891L69.8685 131.388H70.0418C70.0552 131.391 70.0667 131.4 70.0738 131.412C70.0808 131.424 70.0829 131.438 70.0794 131.452Z" fill="black"/>
<path d="M71.5222 131.911C71.5341 131.863 71.5343 131.813 71.5226 131.765C71.5109 131.717 71.4878 131.673 71.4552 131.636C71.4226 131.599 71.3816 131.57 71.3355 131.553C71.2895 131.535 71.2398 131.529 71.1909 131.535C71.076 131.533 70.9636 131.568 70.8711 131.636C70.7785 131.704 70.7109 131.801 70.6787 131.911L70.5055 132.664C70.5005 132.673 70.4934 132.681 70.485 132.687C70.4765 132.693 70.4668 132.697 70.4566 132.698C70.4477 132.699 70.4388 132.697 70.4308 132.693C70.4229 132.689 70.4161 132.683 70.4114 132.676C70.4097 132.668 70.4097 132.66 70.4114 132.653C70.4099 132.646 70.4099 132.638 70.4114 132.63L70.5808 131.877V131.855L70.8105 130.846C70.8165 130.828 70.8275 130.812 70.8422 130.801C70.857 130.79 70.8748 130.783 70.8934 130.782C70.9014 130.781 70.9093 130.783 70.9165 130.786C70.9238 130.79 70.9302 130.795 70.9353 130.801C70.9404 130.807 70.944 130.814 70.9459 130.822C70.9477 130.83 70.9478 130.838 70.9461 130.846L70.7842 131.55C70.9098 131.428 71.0764 131.358 71.2511 131.354C71.3181 131.347 71.3858 131.356 71.4483 131.382C71.5107 131.407 71.5659 131.447 71.6091 131.499C71.6523 131.551 71.6821 131.612 71.6958 131.678C71.7095 131.744 71.7068 131.813 71.6879 131.877L71.5147 132.63C71.5105 132.649 71.5 132.666 71.485 132.679C71.47 132.691 71.4513 132.698 71.4319 132.698C71.4238 132.698 71.4159 132.696 71.4087 132.692C71.4016 132.688 71.3954 132.683 71.3907 132.676C71.386 132.67 71.3828 132.662 71.3815 132.654C71.3801 132.646 71.3806 132.638 71.3829 132.63L71.5222 131.911Z" fill="black"/>
<path d="M72.1689 131.772C72.1723 131.758 72.1806 131.745 72.1922 131.736C72.2039 131.727 72.2182 131.723 72.2329 131.723H72.8128C72.8189 131.723 72.825 131.724 72.8306 131.727C72.8362 131.729 72.8412 131.733 72.8451 131.738C72.8491 131.742 72.852 131.748 72.8535 131.754C72.8551 131.76 72.8554 131.766 72.8542 131.772C72.8511 131.787 72.8431 131.801 72.8316 131.811C72.82 131.821 72.8055 131.827 72.7902 131.828H72.2103C72.2033 131.829 72.1964 131.828 72.19 131.825C72.1837 131.822 72.1782 131.817 72.174 131.812C72.1699 131.806 72.1673 131.799 72.1664 131.792C72.1655 131.785 72.1663 131.778 72.1689 131.772Z" fill="black"/>
<path d="M73.6567 131.007L73.3517 131.165C73.3394 131.169 73.3264 131.169 73.3141 131.165C73.3038 131.166 73.2935 131.164 73.2847 131.158C73.2759 131.153 73.2691 131.145 73.2651 131.135C73.2592 131.117 73.2606 131.098 73.269 131.081C73.2775 131.064 73.2923 131.051 73.3103 131.045L73.7283 130.819C73.7357 130.815 73.7438 130.813 73.7522 130.812C73.7606 130.811 73.769 130.812 73.7771 130.814C73.7851 130.817 73.7926 130.821 73.7991 130.826C73.8056 130.831 73.8109 130.838 73.8149 130.845C73.8186 130.862 73.8186 130.878 73.8149 130.894L73.412 132.642C73.4072 132.66 73.3966 132.677 73.3817 132.689C73.3668 132.701 73.3484 132.708 73.3291 132.709C73.3211 132.709 73.3131 132.707 73.306 132.703C73.2989 132.7 73.2927 132.694 73.2879 132.688C73.2832 132.681 73.2801 132.673 73.2787 132.666C73.2774 132.658 73.2779 132.649 73.2802 132.642L73.6567 131.007Z" fill="black"/>
<path d="M74.1074 131.768C74.164 131.522 74.279 131.294 74.4426 131.101C74.5091 131.02 74.5914 130.952 74.6845 130.903C74.7777 130.854 74.8799 130.824 74.9848 130.815C75.073 130.82 75.1577 130.85 75.2282 130.903C75.2987 130.956 75.3517 131.029 75.3802 131.113C75.4584 131.326 75.4702 131.559 75.4141 131.779C75.357 132.025 75.2407 132.252 75.0752 132.442C75.0094 132.525 74.9273 132.593 74.8341 132.643C74.7408 132.693 74.6383 132.723 74.533 132.732C74.443 132.732 74.3553 132.704 74.2819 132.652C74.2084 132.6 74.1528 132.527 74.1225 132.442C74.047 132.225 74.0418 131.989 74.1074 131.768ZM74.243 131.768C74.1879 131.963 74.1958 132.169 74.2656 132.359C74.289 132.424 74.3313 132.48 74.3871 132.52C74.4428 132.561 74.5094 132.583 74.5782 132.585C74.6593 132.577 74.7381 132.553 74.8099 132.514C74.8817 132.475 74.945 132.423 74.9961 132.359C75.1428 132.19 75.245 131.987 75.2936 131.768C75.3478 131.573 75.3386 131.366 75.2673 131.177C75.2448 131.112 75.2027 131.055 75.1467 131.014C75.0908 130.974 75.0237 130.952 74.9547 130.951C74.8732 130.957 74.7938 130.981 74.7219 131.02C74.6499 131.059 74.5868 131.112 74.5367 131.177C74.3939 131.347 74.2956 131.55 74.2505 131.768H74.243Z" fill="black"/>
<path d="M77.0832 132.243H76.2171L75.9422 132.691C75.9349 132.704 75.9245 132.714 75.9121 132.722C75.8996 132.73 75.8854 132.735 75.8707 132.736H75.8481C75.8404 132.732 75.8337 132.727 75.8284 132.72C75.8232 132.713 75.8195 132.705 75.8177 132.697C75.8159 132.689 75.816 132.68 75.818 132.672C75.82 132.664 75.8238 132.656 75.8293 132.649L76.8987 130.883C76.9073 130.871 76.9185 130.861 76.9316 130.854C76.9446 130.847 76.9591 130.843 76.974 130.842C77.0004 130.842 77.0267 130.842 77.0267 130.883L77.2828 132.649C77.2829 132.668 77.2775 132.686 77.2675 132.701C77.2575 132.716 77.2431 132.729 77.2263 132.736H77.1999C77.1876 132.735 77.1759 132.73 77.1664 132.722C77.157 132.714 77.1503 132.703 77.1472 132.691L77.0832 132.243ZM76.2962 132.111H77.0493L76.9025 131.087L76.2962 132.111Z" fill="black"/>
<path d="M79.5234 131.087L78.7213 131.934C78.7135 131.943 78.7037 131.951 78.6927 131.956C78.6816 131.961 78.6695 131.964 78.6573 131.964C78.6309 131.964 78.6159 131.964 78.6083 131.934L78.1903 131.09L77.8326 132.653C77.8278 132.672 77.8172 132.688 77.8023 132.7C77.7874 132.713 77.769 132.72 77.7498 132.721C77.7414 132.721 77.733 132.719 77.7254 132.716C77.7178 132.712 77.7111 132.707 77.7059 132.7C77.7008 132.694 77.6973 132.686 77.6957 132.678C77.6942 132.67 77.6946 132.661 77.697 132.653L78.1037 130.891C78.1121 130.87 78.1266 130.853 78.1451 130.842C78.1523 130.837 78.1603 130.833 78.1687 130.832C78.1772 130.83 78.1859 130.83 78.1943 130.832C78.2028 130.834 78.2108 130.837 78.2179 130.842C78.2249 130.847 78.2309 130.853 78.2355 130.861L78.6949 131.798L79.5874 130.861C79.598 130.846 79.6134 130.837 79.6308 130.833C79.6482 130.83 79.6663 130.833 79.6815 130.842C79.6826 130.849 79.6826 130.857 79.6815 130.864C79.6853 130.875 79.6853 130.887 79.6815 130.898L79.2748 132.661C79.2708 132.679 79.2609 132.695 79.2466 132.708C79.2324 132.72 79.2145 132.727 79.1958 132.728C79.1874 132.729 79.179 132.727 79.1714 132.723C79.1638 132.72 79.1571 132.715 79.1519 132.708C79.1468 132.701 79.1433 132.694 79.1417 132.685C79.1402 132.677 79.1406 132.669 79.143 132.661L79.5234 131.087Z" fill="black"/>
<path d="M22.6999 117.85C22.4325 117.843 22.1697 117.779 21.9284 117.664C21.6871 117.548 21.4727 117.383 21.299 117.18C20.9225 116.747 20.3915 115.753 20.9225 113.949C21.4233 112.296 22.6245 111.614 23.5584 111.791C24.2739 111.927 25.0647 112.654 24.9254 114.254C24.9216 114.314 24.9058 114.372 24.8789 114.426C24.8521 114.479 24.8146 114.527 24.7689 114.566C24.7232 114.604 24.6701 114.633 24.6129 114.651C24.5556 114.669 24.4954 114.675 24.4358 114.668C24.3159 114.657 24.2053 114.599 24.1278 114.506C24.0503 114.414 24.0122 114.295 24.0216 114.175C24.0931 113.343 23.8484 112.77 23.389 112.669C22.8693 112.571 22.1313 113.072 21.7923 114.198C21.4836 115.226 21.5476 116.08 21.9769 116.574C22.0669 116.693 22.1837 116.789 22.3178 116.854C22.4519 116.92 22.5996 116.953 22.7488 116.95C22.8102 116.937 22.8737 116.936 22.9353 116.949C22.9969 116.961 23.0553 116.986 23.1068 117.022C23.1583 117.058 23.2018 117.104 23.2346 117.158C23.2674 117.211 23.2888 117.271 23.2974 117.333C23.306 117.395 23.3016 117.459 23.2846 117.519C23.2675 117.58 23.2381 117.636 23.1983 117.684C23.1584 117.733 23.109 117.773 23.053 117.801C22.9971 117.83 22.9358 117.847 22.8731 117.85C22.8154 117.854 22.7576 117.854 22.6999 117.85Z" fill="#A6A6A6"/>
<path d="M28.3104 117.85C28.0404 117.845 27.7745 117.783 27.5304 117.667C27.2863 117.552 27.0695 117.386 26.8945 117.18C26.5179 116.747 25.987 115.753 26.5179 113.949C27.015 112.296 28.22 111.614 29.1539 111.791C29.8694 111.927 30.6601 112.654 30.5208 114.254C30.5166 114.314 30.5004 114.372 30.4734 114.425C30.4463 114.478 30.4089 114.526 30.3633 114.564C30.3177 114.603 30.2648 114.632 30.2078 114.65C30.1508 114.668 30.0908 114.674 30.0313 114.668C29.912 114.654 29.803 114.594 29.7276 114.5C29.6523 114.407 29.6167 114.287 29.6284 114.168C29.6999 113.335 29.4551 112.763 28.9957 112.661C28.4723 112.563 27.738 113.064 27.3991 114.19C27.0866 115.218 27.1543 116.073 27.5836 116.566C27.6736 116.685 27.7904 116.781 27.9246 116.847C28.0587 116.912 28.2064 116.945 28.3556 116.943C28.4169 116.929 28.4804 116.929 28.542 116.941C28.6036 116.953 28.662 116.978 28.7135 117.014C28.7651 117.05 28.8086 117.096 28.8414 117.15C28.8742 117.204 28.8956 117.263 28.9042 117.326C28.9127 117.388 28.9084 117.451 28.8913 117.512C28.8743 117.572 28.8449 117.628 28.805 117.677C28.7652 117.726 28.7157 117.765 28.6598 117.794C28.6038 117.822 28.5425 117.839 28.4798 117.843C28.4235 117.848 28.367 117.851 28.3104 117.85Z" fill="#A6A6A6"/>
<path d="M33.8877 117.85C33.6209 117.843 33.3587 117.779 33.118 117.664C32.8773 117.548 32.6636 117.383 32.4907 117.18C32.1141 116.747 31.5832 115.753 32.1141 113.949C32.6112 112.296 33.8162 111.614 34.7501 111.791C35.4655 111.927 36.2563 112.654 36.117 114.254C36.1128 114.314 36.0966 114.372 36.0696 114.425C36.0425 114.478 36.0051 114.526 35.9595 114.564C35.9139 114.603 35.861 114.632 35.804 114.65C35.747 114.668 35.6869 114.674 35.6275 114.668C35.5071 114.658 35.3959 114.6 35.3182 114.507C35.2406 114.415 35.2028 114.295 35.2133 114.175C35.2848 113.343 35.04 112.77 34.5769 112.669C34.1137 112.567 33.3229 113.072 32.984 114.198C32.6714 115.226 32.7392 116.08 33.1685 116.574C33.2566 116.69 33.3704 116.785 33.501 116.85C33.6316 116.915 33.7756 116.95 33.9216 116.95C33.983 116.937 34.0465 116.936 34.1081 116.949C34.1697 116.961 34.2281 116.986 34.2796 117.022C34.3311 117.058 34.3747 117.104 34.4075 117.158C34.4403 117.211 34.4616 117.271 34.4702 117.333C34.4788 117.395 34.4744 117.459 34.4574 117.519C34.4403 117.58 34.411 117.636 34.3711 117.684C34.3313 117.733 34.2818 117.773 34.2258 117.801C34.1699 117.83 34.1086 117.847 34.0459 117.85C33.9932 117.853 33.9404 117.853 33.8877 117.85Z" fill="#A6A6A6"/>
<path d="M39.4835 117.85C39.219 117.842 38.9592 117.778 38.721 117.662C38.4829 117.547 38.2718 117.383 38.1015 117.18C37.7249 116.747 37.1902 115.753 37.7249 113.949C38.222 112.296 39.427 111.614 40.3609 111.791C41.0763 111.927 41.8671 112.654 41.7316 114.254C41.7264 114.313 41.7095 114.371 41.682 114.424C41.6545 114.477 41.6169 114.524 41.5713 114.562C41.5256 114.6 41.4729 114.629 41.4161 114.647C41.3593 114.665 41.2995 114.672 41.2401 114.666C41.1808 114.661 41.1231 114.644 41.0702 114.617C41.0174 114.589 40.9705 114.552 40.9322 114.506C40.8939 114.461 40.865 114.408 40.8471 114.351C40.8292 114.294 40.8226 114.234 40.8278 114.175C40.8956 113.343 40.6546 112.77 40.1914 112.669C39.7282 112.567 38.9375 113.072 38.5986 114.198C38.286 115.226 38.3538 116.08 38.7831 116.574C38.871 116.69 38.9847 116.785 39.1154 116.851C39.2461 116.916 39.3901 116.95 39.5362 116.95C39.5976 116.937 39.6611 116.936 39.7227 116.949C39.7843 116.961 39.8427 116.986 39.8942 117.022C39.9457 117.058 39.9892 117.104 40.022 117.158C40.0548 117.211 40.0762 117.271 40.0848 117.333C40.0934 117.395 40.089 117.459 40.0719 117.519C40.0549 117.58 40.0255 117.636 39.9857 117.684C39.9458 117.733 39.8964 117.773 39.8404 117.801C39.7844 117.83 39.7232 117.847 39.6605 117.85C39.6015 117.854 39.5424 117.854 39.4835 117.85Z" fill="#A6A6A6"/>
<path d="M45.0793 117.85C44.8104 117.84 44.5467 117.774 44.3054 117.655C44.064 117.536 43.8504 117.368 43.6784 117.161C43.3019 116.728 42.7709 115.734 43.3019 113.93C43.7989 112.277 45.0039 111.596 45.9378 111.773C46.6533 111.908 47.4441 112.635 47.3085 114.235C47.3033 114.295 47.2865 114.352 47.259 114.405C47.2315 114.458 47.1938 114.505 47.1482 114.543C47.1026 114.582 47.0498 114.61 46.993 114.628C46.9362 114.646 46.8764 114.653 46.8171 114.648C46.7578 114.642 46.7 114.626 46.6472 114.598C46.5943 114.571 46.5474 114.533 46.5092 114.487C46.4709 114.442 46.4419 114.389 46.424 114.332C46.4061 114.275 46.3996 114.216 46.4048 114.156C46.4725 113.324 46.2315 112.752 45.7684 112.65C45.3052 112.548 44.5144 113.053 44.1755 114.179C43.863 115.207 43.927 116.062 44.36 116.555C44.4477 116.672 44.5614 116.767 44.6921 116.832C44.8229 116.897 44.967 116.932 45.1131 116.932C45.1745 116.918 45.238 116.918 45.2996 116.93C45.3612 116.942 45.4196 116.967 45.4711 117.003C45.5226 117.039 45.5662 117.085 45.599 117.139C45.6318 117.192 45.6531 117.252 45.6617 117.314C45.6703 117.377 45.666 117.44 45.6489 117.5C45.6318 117.561 45.6025 117.617 45.5626 117.666C45.5228 117.714 45.4733 117.754 45.4174 117.783C45.3614 117.811 45.3001 117.828 45.2374 117.832C45.185 117.84 45.1323 117.847 45.0793 117.85Z" fill="#A6A6A6"/>
<path d="M50.675 117.85C50.4061 117.84 50.1424 117.774 49.9011 117.655C49.6597 117.536 49.4461 117.368 49.2741 117.161C48.8976 116.728 48.3666 115.734 48.8976 113.93C49.3946 112.277 50.5996 111.596 51.5335 111.773C52.249 111.908 53.0398 112.635 52.9042 114.235C52.8995 114.295 52.8829 114.353 52.8555 114.407C52.828 114.46 52.7902 114.507 52.7443 114.546C52.6984 114.584 52.6453 114.613 52.5881 114.631C52.5308 114.649 52.4706 114.655 52.4109 114.65C52.291 114.638 52.1803 114.58 52.1029 114.488C52.0254 114.395 51.9873 114.276 51.9967 114.156C52.0682 113.324 51.8272 112.752 51.3641 112.65C50.8444 112.552 50.1063 113.053 49.7674 114.179C49.4587 115.207 49.5227 116.062 49.952 116.555C50.0422 116.674 50.159 116.77 50.2931 116.835C50.4272 116.901 50.5747 116.934 50.7239 116.932C50.8384 116.925 50.9513 116.961 51.04 117.034C51.1286 117.107 51.1866 117.21 51.2023 117.324C51.218 117.438 51.1903 117.553 51.1246 117.647C51.059 117.741 50.9603 117.807 50.8482 117.832C50.7909 117.841 50.733 117.847 50.675 117.85Z" fill="#A6A6A6"/>
<path d="M56.2699 117.85C56.0011 117.84 55.7374 117.774 55.496 117.655C55.2546 117.536 55.041 117.368 54.8691 117.161C54.4925 116.728 53.9616 115.734 54.4926 113.93C54.9934 112.277 56.1984 111.596 57.1285 111.773C57.844 111.908 58.6347 112.635 58.4992 114.235C58.4945 114.295 58.4779 114.353 58.4504 114.407C58.423 114.46 58.3852 114.507 58.3393 114.546C58.2934 114.584 58.2403 114.613 58.183 114.631C58.1258 114.649 58.0656 114.655 58.0059 114.65C57.8859 114.638 57.7753 114.58 57.6978 114.488C57.6204 114.395 57.5822 114.276 57.5917 114.156C57.6632 113.324 57.4184 112.752 56.959 112.65C56.4394 112.552 55.7013 113.053 55.3624 114.179C55.0536 115.207 55.1176 116.062 55.5469 116.555C55.635 116.671 55.7488 116.766 55.8794 116.831C56.0101 116.897 56.154 116.931 56.3001 116.932C56.3614 116.918 56.4249 116.918 56.4865 116.93C56.5481 116.942 56.6065 116.967 56.658 117.003C56.7095 117.039 56.7531 117.085 56.7859 117.139C56.8187 117.192 56.84 117.252 56.8486 117.314C56.8572 117.377 56.8529 117.44 56.8358 117.5C56.8188 117.561 56.7894 117.617 56.7495 117.666C56.7097 117.714 56.6602 117.754 56.6043 117.783C56.5483 117.811 56.487 117.828 56.4243 117.832C56.3732 117.84 56.3217 117.847 56.2699 117.85Z" fill="#A6A6A6"/>
<path d="M61.8661 117.85C61.5973 117.84 61.3336 117.774 61.0922 117.655C60.8508 117.536 60.6372 117.368 60.4653 117.161C60.0887 116.728 59.5578 115.734 60.0887 113.93C60.5896 112.277 61.7908 111.596 62.7247 111.773C63.4402 111.908 64.2309 112.635 64.0916 114.235C64.0879 114.295 64.0721 114.354 64.0452 114.407C64.0183 114.461 63.9809 114.508 63.9352 114.547C63.8894 114.585 63.8363 114.615 63.7791 114.632C63.7219 114.65 63.6617 114.656 63.6021 114.65C63.4821 114.638 63.3715 114.58 63.294 114.488C63.2166 114.395 63.1784 114.276 63.1879 114.156C63.2594 113.324 63.0146 112.752 62.5552 112.65C62.0356 112.552 61.2975 113.053 60.9586 114.179C60.6498 115.207 60.7138 116.062 61.1431 116.555C61.2331 116.674 61.3499 116.77 61.4841 116.836C61.6182 116.901 61.7659 116.934 61.9151 116.932C62.0296 116.925 62.1424 116.961 62.2311 117.034C62.3198 117.107 62.3778 117.21 62.3935 117.324C62.4092 117.438 62.3814 117.553 62.3158 117.647C62.2501 117.741 62.1514 117.807 62.0393 117.832C61.982 117.841 61.9242 117.847 61.8661 117.85Z" fill="#A6A6A6"/>
<path d="M67.4725 117.85C67.2042 117.84 66.9411 117.774 66.7003 117.655C66.4595 117.536 66.2466 117.368 66.0754 117.161C65.6988 116.728 65.1679 115.734 65.6988 113.93C66.1959 112.277 67.4009 111.596 68.3348 111.773C69.0503 111.908 69.841 112.635 69.7017 114.235C69.6975 114.295 69.6813 114.353 69.6543 114.406C69.6272 114.46 69.5898 114.507 69.5442 114.546C69.4986 114.584 69.4457 114.613 69.3887 114.631C69.3317 114.649 69.2717 114.655 69.2122 114.65C69.0919 114.639 68.9806 114.581 68.903 114.489C68.8253 114.396 68.7875 114.277 68.798 114.156C68.8695 113.324 68.6248 112.752 68.1616 112.65C67.6984 112.548 66.9076 113.053 66.5687 114.179C66.2562 115.207 66.3239 116.062 66.7532 116.555C66.8413 116.671 66.9551 116.766 67.0857 116.831C67.2164 116.897 67.3603 116.931 67.5064 116.932C67.5677 116.918 67.6312 116.918 67.6928 116.93C67.7544 116.942 67.8128 116.967 67.8643 117.003C67.9159 117.039 67.9594 117.085 67.9922 117.139C68.025 117.192 68.0463 117.252 68.0549 117.314C68.0635 117.377 68.0592 117.44 68.0421 117.5C68.0251 117.561 67.9957 117.617 67.9558 117.666C67.916 117.714 67.8665 117.754 67.8106 117.783C67.7546 117.811 67.6933 117.828 67.6306 117.832C67.5783 117.841 67.5255 117.847 67.4725 117.85Z" fill="#A6A6A6"/>
<path d="M73.0545 117.85C72.7859 117.842 72.5223 117.776 72.2813 117.657C72.0403 117.538 71.8276 117.369 71.6574 117.161C71.2808 116.728 70.7461 115.734 71.2808 113.93C71.7779 112.277 72.9829 111.596 73.9168 111.773C74.636 111.908 75.423 112.635 75.2875 114.235C75.2832 114.295 75.2671 114.353 75.24 114.406C75.213 114.46 75.1756 114.507 75.1299 114.546C75.0843 114.584 75.0315 114.613 74.9744 114.631C74.9174 114.649 74.8574 114.655 74.7979 114.65C74.6776 114.639 74.5664 114.581 74.4887 114.489C74.411 114.396 74.3733 114.277 74.3837 114.156C74.4515 113.324 74.2105 112.752 73.7473 112.65C73.2277 112.552 72.4934 113.053 72.1545 114.179C71.8419 115.207 71.9097 116.062 72.339 116.555C72.429 116.674 72.5458 116.77 72.6799 116.836C72.814 116.901 72.9617 116.934 73.1109 116.932C73.2254 116.925 73.3383 116.961 73.427 117.034C73.5157 117.107 73.5736 117.21 73.5893 117.324C73.605 117.438 73.5773 117.553 73.5116 117.647C73.446 117.741 73.3473 117.807 73.2352 117.832C73.1754 117.841 73.115 117.848 73.0545 117.85Z" fill="#A6A6A6"/>
<path d="M78.6501 117.85C78.3853 117.841 78.1254 117.776 77.8869 117.661C77.6483 117.545 77.4363 117.382 77.2644 117.18C76.8878 116.747 76.3569 115.753 76.8878 113.949C77.3849 112.296 78.5899 111.614 79.5238 111.791C80.2392 111.927 81.03 112.654 80.8944 114.254C80.8902 114.314 80.8741 114.372 80.847 114.425C80.82 114.478 80.7825 114.526 80.7369 114.564C80.6913 114.603 80.6384 114.632 80.5814 114.65C80.5244 114.668 80.4644 114.674 80.4049 114.668C80.3452 114.664 80.2869 114.647 80.2336 114.62C80.1803 114.592 80.133 114.554 80.0945 114.508C80.0559 114.463 80.0269 114.409 80.0091 114.352C79.9913 114.295 79.985 114.235 79.9907 114.175C80.0585 113.343 79.8175 112.77 79.3543 112.669C78.8911 112.567 78.1004 113.072 77.7614 114.198C77.4489 115.226 77.5167 116.08 77.946 116.574C78.0338 116.69 78.1476 116.785 78.2783 116.851C78.4089 116.916 78.553 116.95 78.6991 116.95C78.7605 116.937 78.8239 116.936 78.8855 116.949C78.9471 116.961 79.0055 116.986 79.0571 117.022C79.1086 117.058 79.1521 117.104 79.1849 117.158C79.2177 117.211 79.2391 117.271 79.2477 117.333C79.2563 117.395 79.2519 117.459 79.2348 117.519C79.2178 117.58 79.1884 117.636 79.1486 117.684C79.1087 117.733 79.0593 117.773 79.0033 117.801C78.9473 117.83 78.8861 117.847 78.8233 117.85C78.7657 117.853 78.7078 117.853 78.6501 117.85Z" fill="#A6A6A6"/>
<path d="M84.2445 117.85C83.9757 117.84 83.712 117.774 83.4706 117.655C83.2293 117.536 83.0156 117.368 82.8437 117.161C82.4672 116.728 81.9362 115.734 82.4672 113.93C82.9642 112.277 84.1692 111.596 85.1031 111.773C85.8186 111.908 86.6094 112.635 86.4738 114.235C86.4686 114.295 86.4518 114.352 86.4243 114.405C86.3968 114.458 86.3591 114.505 86.3135 114.543C86.2679 114.582 86.2151 114.61 86.1583 114.628C86.1015 114.646 86.0417 114.653 85.9824 114.648C85.923 114.642 85.8653 114.626 85.8125 114.598C85.7596 114.571 85.7127 114.533 85.6744 114.487C85.6361 114.442 85.6072 114.389 85.5893 114.332C85.5714 114.275 85.5648 114.216 85.57 114.156C85.6378 113.324 85.3968 112.752 84.9336 112.65C84.414 112.552 83.6797 113.053 83.337 114.179C83.0282 115.207 83.0923 116.062 83.5215 116.555C83.6096 116.671 83.7234 116.766 83.854 116.831C83.9847 116.897 84.1286 116.931 84.2747 116.932C84.3897 116.923 84.5036 116.959 84.5933 117.031C84.683 117.104 84.742 117.208 84.7582 117.322C84.7744 117.436 84.7468 117.552 84.6808 117.647C84.6148 117.741 84.5155 117.807 84.4027 117.832C84.3503 117.84 84.2975 117.847 84.2445 117.85Z" fill="#A6A6A6"/>
<path d="M89.8407 117.85C89.5719 117.84 89.3082 117.774 89.0668 117.655C88.8254 117.536 88.6118 117.368 88.4399 117.161C88.0634 116.728 87.5324 115.734 88.0634 113.93C88.5604 112.277 89.7654 111.596 90.6993 111.773C91.4148 111.908 92.2056 112.635 92.07 114.235C92.0653 114.295 92.0487 114.353 92.0212 114.407C91.9938 114.46 91.956 114.507 91.9101 114.546C91.8642 114.584 91.8111 114.613 91.7538 114.631C91.6966 114.649 91.6364 114.655 91.5767 114.65C91.4568 114.638 91.3461 114.58 91.2686 114.488C91.1912 114.395 91.153 114.276 91.1625 114.156C91.234 113.324 90.9893 112.752 90.5298 112.65C90.0102 112.552 89.2759 113.053 88.9332 114.179C88.6244 115.207 88.6884 116.062 89.1177 116.555C89.2077 116.674 89.3245 116.77 89.4587 116.836C89.5928 116.901 89.7405 116.934 89.8897 116.932C90.0042 116.925 90.1171 116.961 90.2057 117.034C90.2944 117.107 90.3524 117.21 90.3681 117.324C90.3838 117.438 90.356 117.553 90.2904 117.647C90.2247 117.741 90.126 117.807 90.014 117.832C89.9566 117.841 89.8988 117.847 89.8407 117.85Z" fill="#A6A6A6"/>
<path d="M143.692 37.6784C143.512 39.4164 142.852 41.0702 141.787 42.4549C140.721 43.8395 139.291 44.9006 137.657 45.5193C136.023 46.138 134.249 46.2901 132.533 45.9586C130.818 45.627 129.228 44.8249 127.943 43.6418L123.227 44.334L125.585 40.257C124.995 38.8219 124.773 37.2624 124.938 35.7197C125.057 34.4805 125.42 33.2771 126.006 32.179C126.592 31.0808 127.39 30.1096 128.354 29.3215C129.318 28.5333 130.428 27.9438 131.62 27.5869C132.813 27.23 134.064 27.1129 135.303 27.2422C136.541 27.3715 137.741 27.7447 138.834 28.3403C139.927 28.9359 140.892 29.7421 141.671 30.7124C142.451 31.6826 143.031 32.7977 143.378 33.9933C143.725 35.189 143.831 36.4414 143.692 37.6784Z" fill="white"/>
<path d="M143.692 37.6785C143.509 39.4165 142.851 41.0706 141.79 42.4591C141.525 42.8027 141.239 43.1303 140.935 43.4403C140.62 43.7421 140.287 44.0241 139.938 44.2846C139.241 44.8125 138.473 45.2389 137.656 45.5511C136.441 46.0308 135.138 46.246 133.834 46.1824C133.396 46.1711 132.96 46.1253 132.53 46.0455C130.79 45.7262 129.174 44.9281 127.863 43.7408L127.977 43.775L123.265 44.5014L122.923 44.5509L123.098 44.2504L125.44 40.1658V40.3255C124.754 38.6384 124.565 36.7901 124.895 34.9989C125.225 33.2077 126.061 31.5485 127.304 30.2171C128.547 28.8858 130.145 27.938 131.909 27.4857C133.674 27.0334 135.531 27.0955 137.261 27.6646C138.623 28.128 139.865 28.8893 140.897 29.8933C141.919 30.8966 142.701 32.1179 143.185 33.466C143.669 34.814 143.842 36.2541 143.692 37.6785ZM143.692 37.6785C143.842 36.259 143.664 34.8242 143.172 33.4843C142.68 32.1445 141.887 30.9353 140.854 29.9501C139.822 28.9648 138.577 28.2296 137.215 27.801C135.854 27.3725 134.412 27.2621 133.001 27.4783C131.604 27.6816 130.272 28.202 129.107 28.9995C127.956 29.8094 126.994 30.8591 126.288 32.0763C125.592 33.2976 125.183 34.661 125.091 36.0636C124.998 37.4662 125.226 38.8715 125.756 40.1734L125.786 40.257L125.745 40.3331L123.371 44.4025L123.2 44.1553L127.92 43.4936H127.988L128.034 43.5392C129.293 44.7192 130.857 45.5241 132.549 45.863C132.969 45.9511 133.397 46.0033 133.826 46.0189C134.256 46.0493 134.686 46.0493 135.116 46.0189C135.977 45.9528 136.824 45.7658 137.633 45.4636C138.449 45.1684 139.218 44.7558 139.915 44.239C140.264 43.9814 140.596 43.7033 140.912 43.4061C141.218 43.1006 141.504 42.7753 141.767 42.4325C142.835 41.0555 143.501 39.4102 143.692 37.6785Z" fill="#263238"/>
<path d="M133.21 42.075L129.187 38.0017L130.537 36.663L132.891 39.0438L137.778 31.3842L139.379 32.4072L133.21 42.075Z" fill="#76B8EE"/>
</svg>
