<svg width="145" height="145" viewBox="0 0 145 145" fill="none" xmlns="http://www.w3.org/2000/svg">
<path d="M72.5 0C32.4593 0 0 32.4593 0 72.5C0 112.541 32.4593 145 72.5 145C112.541 145 145 112.541 145 72.5C145 32.4593 112.541 0 72.5 0ZM46.4453 28.7982C47.9391 28.7101 49.2892 29.603 50.3128 31.1877L60.2249 49.9852C61.2685 52.2127 60.6755 54.5977 59.1187 56.1892L54.5786 60.7293C54.2984 61.1133 54.114 61.5457 54.1095 62.0213C55.8506 68.7608 61.132 74.9774 65.7918 79.2525C70.4514 83.5276 75.4596 89.3157 81.9608 90.6869C82.7643 90.911 83.7487 90.9914 84.3238 90.4569L89.5984 85.0849C91.4191 83.7049 94.053 83.0361 95.997 84.1645H96.0855L113.971 94.7227C116.597 96.3683 116.869 99.5493 114.989 101.484L102.67 113.706C100.851 115.572 98.4339 116.199 96.0857 116.202C85.7003 115.891 75.8874 110.793 67.8274 105.555C54.5973 95.9304 42.4617 83.9929 34.8429 69.5706C31.9209 63.5229 28.4884 55.8065 28.816 49.0563C28.8452 46.5168 29.5323 44.029 31.3206 42.3922L43.6399 30.0729C44.5996 29.2563 45.549 28.8511 46.4453 28.7982Z" fill="#4797C8"/>
</svg>
