<svg width="12" height="13" viewBox="0 0 12 13" fill="none" xmlns="http://www.w3.org/2000/svg">
<path d="M6 12.098C2.69166 12.098 0 9.38439 0 6.04902C0 2.71365 2.69166 0 6 0C9.30834 0 12 2.71365 12 6.04902C12 9.38439 9.30834 12.098 6 12.098ZM6 0.756131C3.1051 0.756131 0.750003 3.13047 0.750003 6.04902C0.750003 8.96758 3.1051 11.3419 6 11.3419C8.8949 11.3419 11.25 8.96758 11.25 6.04902C11.25 3.13047 8.8949 0.756131 6 0.756131Z" fill="black"/>
<path d="M5.99928 9.07363C4.34511 9.07363 2.99927 7.71678 2.99927 6.04902C2.99927 4.38126 4.34508 3.02441 5.99928 3.02441C6.81263 3.02441 7.57362 3.34711 8.14272 3.93305L7.6066 4.46175C7.17997 4.02237 6.60941 3.78054 5.99928 3.78054C4.75855 3.78054 3.74927 4.79809 3.74927 6.049C3.74927 7.2999 4.75855 8.31745 5.99928 8.31745C6.60904 8.31745 7.17959 8.07562 7.6066 7.63624L8.14199 8.16571C7.57324 8.75129 6.81228 9.07361 5.99928 9.07363Z" fill="black"/>
</svg>
