<svg width="46" height="46" viewBox="0 0 46 46" fill="none" xmlns="http://www.w3.org/2000/svg">
<circle cx="23" cy="23" r="22.5" fill="white" stroke="#4797C8"/>
<path d="M36.1431 17.2993V28.5307C36.1431 30.4494 34.5819 32.0107 32.6631 32.0107H21.6224L14.2982 37.1073V32.0107C12.3849 32.0042 10.8306 30.4455 10.8306 28.5307V17.2993C10.8306 15.3805 12.3917 13.8193 14.3106 13.8193H32.6631C34.5819 13.8193 36.1431 15.3805 36.1431 17.2993Z" fill="#76B8EE"/>
<path d="M36.1431 17.2993V28.5307C36.1431 30.4494 34.5819 32.0107 32.6631 32.0107H23.483V13.8193H32.6631C34.5819 13.8193 36.1431 15.3805 36.1431 17.2993Z" fill="#76B8EE"/>
<path d="M17.6055 19.0598H29.3681V20.543H17.6055V19.0598Z" fill="white"/>
<path d="M17.6055 22.2239H29.3681V23.707H17.6055V22.2239Z" fill="white"/>
<path d="M17.6055 25.3879H29.3681V26.8711H17.6055V25.3879Z" fill="white"/>
<path d="M23.483 19.0598H29.3682V20.543H23.483V19.0598Z" fill="#E1E1E3"/>
<path d="M23.483 22.2239H29.3682V23.707H23.483V22.2239Z" fill="#E1E1E3"/>
<path d="M23.483 25.3879H29.3682V26.8711H23.483V25.3879Z" fill="#E1E1E3"/>
</svg>
